<?xml version="1.0" encoding="utf-8"?>
<!-- Generator: Adobe Illustrator 19.0.0, SVG Export Plug-In . SVG Version: 6.00 Build 0)  -->
<svg version="1.1" id="ascher-davis-icon" xmlns="http://www.w3.org/2000/svg" xmlns:xlink="http://www.w3.org/1999/xlink" x="0px" y="0px"
	 viewBox="0 0 1196.6 1196.6" style="enable-background:new 0 0 1196.6 1196.6;" xml:space="preserve">
<style type="text/css">
	.st0{fill:#FFFFFF;}
</style>
<g>
	<g>
		<path class="st0" d="M803.4,447v54.5c-66.7-59.6-155.2-96-252.4-96c-207.6,0-375.9,166-375.9,370.7C175.1,981,343.4,1147,551,1147
			c97.2,0,185.7-36.3,252.4-96v95.8h123.5V447H803.4z M551.4,1024.6c-139,0-251.8-111.2-251.8-248.3
			c0-137.1,112.7-248.3,251.8-248.3c139,0,251.7,111.2,251.7,248.3C803.1,913.4,690.4,1024.6,551.4,1024.6z"/>
		<rect x="803.4" y="35.4" class="st0" width="123.5" height="370"/>
	</g>
</g>
</svg>
