<?xml version="1.0" encoding="utf-8"?>
<!-- Generator: Adobe Illustrator 19.0.0, SVG Export Plug-In . SVG Version: 6.00 Build 0)  -->
<svg version="1.1" id="authentix-icon" xmlns="http://www.w3.org/2000/svg" xmlns:xlink="http://www.w3.org/1999/xlink" x="0px" y="0px"
	 viewBox="0 0 126 126" style="enable-background:new 0 0 126 126;" xml:space="preserve">
<style type="text/css">
	.st0{fill:#FFFFFF;}
</style>
<g>
	<path class="st0" d="M103.6,4.5H86.7L31.5,4.5c2.7,12.8,14,22.4,27.6,22.4c5.7,0,15.7-4.4,15.7-4.4c3.3-1.7,7-2.7,10.9-2.7
		c13,0,23.5,10.5,23.5,23.5c0,4.6-1.3,8.8-3.6,12.4c0,0-9.6,10.1-9.6,20.6c0,14.4,11.5,26.1,25.8,26.5l0-52.9V28.9
		C111.8,25.2,104.4,15.8,103.6,4.5z"/>
	<path class="st0" d="M71.3,94.5c-6.6,0-12.7,2.4-17.4,6.3c0.6-0.4,1.2-0.7,1.7-1.1l-2,1.4c0.1-0.1,0.2-0.2,0.3-0.3
		c-3.4,2-7.3,3.1-11.6,3.1c-12.7,0-22.9-10.3-22.9-22.9c0-6.2,2.5-11.8,6.4-15.9L25.8,65c4.1-4.7,6.6-10.9,6.6-17.6
		c0-14.9-12.1-27-27-27l0.1,17.5c6.5,4.4,10.7,11.8,10.7,20.3c0,8.3-4.2,15.7-10.5,20.1v5.8v36.6h38.6l53.9,0
		C97.9,106.2,86,94.5,71.3,94.5z"/>
</g>
</svg>
