<?xml version="1.0" encoding="utf-8"?>
<!-- Generator: Adobe Illustrator 19.0.0, SVG Export Plug-In . SVG Version: 6.00 Build 0)  -->
<svg version="1.1" id="brand-new-icon" xmlns="http://www.w3.org/2000/svg" xmlns:xlink="http://www.w3.org/1999/xlink" x="0px" y="0px"
	 viewBox="0 0 126 126" style="enable-background:new 0 0 126 126;" xml:space="preserve">
<style type="text/css">
	.st0{fill-rule:evenodd;clip-rule:evenodd;fill:#FFFFFF;}
</style>
<g>
	<path class="st0" d="M88.2,12.5c-4-2.3-8-3.9-12.1-5c0.1-0.4,0.2-0.7,0.3-1.1C76.6,5.7,76.8,5,77,4.3c4.5,1.3,8.7,3,12.9,5.4
		c-0.3,0.6-0.7,1.2-1,1.8C88.6,11.8,88.4,12.1,88.2,12.5z"/>
	<path class="st0" d="M50.7,11.9c-0.4-1.4-0.8-2.8-1.1-4c4.6-1.1,8.6-1.7,12.8-1.7h0.1v4.1C58.3,10.4,54.3,10.9,50.7,11.9z"/>
	<path class="st0" d="M74.6,11.9c-4.3-1.1-7.9-1.5-11.7-1.5h-0.1V6.3c0.1,0,0.2,0,0.2,0c4.4,0,8.6,0.6,12.6,1.6
		c-0.2,0.6-0.3,1.2-0.5,1.8C75,10.4,74.8,11.2,74.6,11.9z"/>
	<path class="st0" d="M39.3,16.6c-0.3-0.6-0.6-1.1-1-1.7c-0.4-0.6-0.7-1.3-1.1-1.9c3.9-2.2,7.9-3.8,12.1-5c0.3,1,0.5,2.1,0.8,3.2
		l0.2,0.9C46.5,13.1,42.8,14.6,39.3,16.6z"/>
	<path class="st0" d="M85.9,16.6c-3.4-2-7.1-3.5-11-4.6c0.2-0.6,0.4-1.3,0.5-1.9c0.2-0.7,0.3-1.4,0.5-2L76,8c4.1,1.1,8,2.7,12,4.9
		c-0.4,0.7-0.8,1.5-1.2,2.1C86.5,15.6,86.2,16.1,85.9,16.6z"/>
	<path class="st0" d="M98.9,20.7c-0.1,0-0.3-0.3-0.4-0.4c-0.1-0.1-0.1-0.1-0.2-0.2c-1.1-1.1-2.6-2.4-4.4-3.7c-2-1.5-3.7-2.7-5.5-3.7
		c0.2-0.4,0.4-0.7,0.6-1.1c0.3-0.6,0.7-1.2,1-1.7c4,2.4,7.7,5.2,11,8.5C100.6,19,98.9,20.6,98.9,20.7z"/>
	<path class="st0" d="M51.7,16c-0.2-0.7-0.4-1.5-0.6-2.2c-0.1-0.5-0.3-0.9-0.4-1.4c4.1-1,7.7-1.5,11.4-1.5l0.4,0v3.8l-0.3,0
		C58,14.6,54.6,15.3,51.7,16z"/>
	<path class="st0" d="M73.5,16c-2.8-0.7-6.3-1.4-10.5-1.4l-0.3,0c0-0.7,0-1.5,0-2.3c0-0.5,0-1,0-1.5c0,0,0.1,0,0.1,0
		c4.1,0,7.9,0.5,11.6,1.5c-0.1,0.5-0.3,1.1-0.4,1.6C73.9,14.7,73.7,15.3,73.5,16z"/>
	<path class="st0" d="M41.5,20.2c-0.6-1-1.2-2.1-1.9-3.3c3.5-2,7-3.5,10.9-4.5c0.2,0.8,0.4,1.7,0.7,2.5l0.3,1.1
		C47.9,17.1,44.5,18.5,41.5,20.2z"/>
	<path class="st0" d="M83.8,20.2c-3-1.7-6.4-3.1-10-4.1c0.2-0.6,0.3-1.1,0.5-1.7c0.2-0.6,0.3-1.3,0.5-1.9c3.7,1,7.3,2.5,10.9,4.5
		c-0.4,0.6-0.7,1.3-1.1,1.9C84.3,19.3,84,19.8,83.8,20.2z"/>
	<path class="st0" d="M113.5,26.6c-0.5-0.8-1-1.7-1.6-2.5c-1.8-2.8-4.1-5.6-7.1-8.8c0.5-0.5,1-0.9,1.4-1.4c0.5-0.5,0.9-0.9,1.4-1.4
		c1.4,1.9,2.9,3.7,4.3,5.6c1.8,2.4,3.7,4.8,5.5,7.2c-0.6,0.4-1.2,0.7-1.7,1c-0.6,0.3-1.2,0.7-1.8,1L113.5,26.6z"/>
	<path class="st0" d="M95.6,24c-0.1,0-0.2-0.2-0.3-0.3c-0.1-0.1-0.2-0.2-0.2-0.2c-3.4-3.1-6.2-5.2-8.9-6.7c0.7-1.2,1.4-2.4,2-3.6
		l0-0.1c3.6,2,6.9,4.6,10.3,7.8c-0.5,0.6-1.1,1.2-1.7,1.7c-0.3,0.3-0.6,0.6-0.9,0.9c0,0-0.1,0.1-0.2,0.2
		C95.7,23.8,95.6,23.9,95.6,24z"/>
	<path class="st0" d="M52.6,19.4c-0.3-0.9-0.5-1.9-0.8-2.9c3.7-0.9,7-1.4,10.5-1.4l0.1,0V19l-0.2,0c-3.1,0-6.1,0.4-9.5,1.2
		L52.6,19.4z"/>
	<path class="st0" d="M72.4,20.3C69,19.4,66,19,62.9,19l-0.2,0c0-0.7,0-1.5,0-2.3c0-0.5,0-1,0-1.5l0.3,0c4.3,0,7.7,0.7,10.3,1.3
		c-0.2,0.9-0.5,1.8-0.7,2.7C72.5,19.5,72.4,19.9,72.4,20.3z"/>
	<path class="st0" d="M110.3,29.5c-2.3-3.9-5-7.5-7.9-10.5c0-0.1-0.1-0.1-0.3-0.2c-0.1-0.1-0.3-0.3-0.4-0.3c0-0.1,0.3-0.4,0.5-0.5
		l0.2-0.1l0.1-0.1c0.7-0.7,1.4-1.4,2-1.9c1.8,1.7,3.4,3.7,4.9,5.6c1.8,2.3,3.1,4.3,4.2,6.3C112.3,28.3,111.2,28.9,110.3,29.5z"/>
	<path class="st0" d="M43.6,24c-0.6-1.1-1.2-2.2-1.9-3.3c2.9-1.7,6.3-3.1,9.9-4.1l0.3,1.1c0.2,0.9,0.5,1.8,0.7,2.7
		C49.7,21.1,46.8,22.3,43.6,24z"/>
	<path class="st0" d="M81.6,24c-3-1.7-5.9-2.9-8.9-3.7c0.1-0.3,0.2-0.7,0.3-1c0.2-0.9,0.5-1.9,0.8-2.8c3.4,0.9,6.6,2.3,9.8,4.1
		c-0.3,0.6-0.7,1.2-1,1.8C82.2,22.9,81.9,23.5,81.6,24z"/>
	<path class="st0" d="M32.6,27c-0.4-0.4-0.8-0.8-1.2-1.2c-0.5-0.5-1-1-1.5-1.5c3.1-2.9,6.3-5.3,9.4-7.1c0.3,0.4,0.5,0.9,0.8,1.3
		c0.4,0.6,0.7,1.3,1.1,1.9C38.2,22.2,35.3,24.4,32.6,27z"/>
	<path class="st0" d="M92.6,27c-2.8-2.7-5.6-4.8-8.5-6.5c0.3-0.5,0.6-1.1,0.9-1.6c0.3-0.6,0.7-1.1,1-1.7c3.8,2.3,6.8,4.6,9.3,7.2
		C94.4,25.2,93.5,26.1,92.6,27z"/>
	<path class="st0" d="M107.1,31.3c-2.2-3.7-4.7-7.1-7.4-9.8c0,0-0.1-0.1-0.2-0.2c-0.1-0.1-0.4-0.3-0.4-0.4c0,0,0.3-0.3,0.4-0.4
		l0.2-0.2c0.6-0.6,1.2-1.2,1.7-1.7c3.1,3.1,5.9,6.8,8.4,11c-0.5,0.3-1.1,0.6-1.6,0.9C107.9,30.8,107.5,31,107.1,31.3z"/>
	<path class="st0" d="M53.9,24.2c-0.2-0.7-0.4-1.5-0.6-2.2L53,20.7c3.2-0.8,6.2-1.2,9.4-1.2h0.1v3.6C59.7,23.1,57,23.5,53.9,24.2z"
		/>
	<path class="st0" d="M71.3,24.2c-3-0.7-5.7-1.1-8.5-1.1v-3.6l0.2,0c3.1,0,6,0.4,9.3,1.2c-0.2,0.6-0.3,1.2-0.5,1.9
		C71.6,23.1,71.4,23.7,71.3,24.2z"/>
	<path class="st0" d="M45.7,27.6c-0.6-1-1.2-2.1-1.8-3.2c3.1-1.7,6-2.9,8.9-3.6c0.1,0.6,0.3,1.2,0.5,1.8c0.1,0.6,0.3,1.1,0.4,1.6
		C50.6,25.2,48,26.3,45.7,27.6z"/>
	<path class="st0" d="M79.5,27.6c-2.4-1.4-5.1-2.5-7.9-3.3c0.2-0.6,0.3-1.1,0.5-1.7c0.1-0.6,0.3-1.2,0.5-1.8l0-0.1
		c3.1,0.8,5.9,2,8.8,3.6c-0.3,0.5-0.6,1-0.9,1.6C80.1,26.5,79.8,27.1,79.5,27.6z"/>
	<path class="st0" d="M89.5,30.1c-2.5-2.4-5-4.3-7.6-5.9c0.3-0.5,0.7-1.1,1-1.7c0.3-0.6,0.7-1.1,1-1.7c3.1,1.8,6,4,8.5,6.5
		c-0.5,0.5-1,1-1.5,1.5C90.4,29.2,89.9,29.6,89.5,30.1z"/>
	<path class="st0" d="M35.7,30.1c-0.6-0.7-1.3-1.3-2-2c-0.3-0.2-0.5-0.5-0.8-0.7c2.3-2.4,5.1-4.6,8.5-6.5c0.3,0.6,0.7,1.2,1.1,1.9
		c0.3,0.5,0.6,1,0.9,1.5c-0.1,0.1-0.3,0.2-0.4,0.3C40.4,26,38,27.9,35.7,30.1z"/>
	<path class="st0" d="M103.1,33.6c-0.1-0.1-0.2-0.3-0.3-0.4l-0.1-0.2c-1.7-2.7-3.6-5.3-5.8-7.7c-0.1-0.1-0.1-0.1-0.2-0.2
		c-0.1-0.1-0.2-0.2-0.3-0.3c-0.1-0.1-0.5-0.5-0.5-0.5c0,0,0.4-0.4,0.6-0.6c0.1-0.1,0.1-0.1,0.1-0.1c0.2-0.2,0.4-0.4,0.7-0.7
		c0.6-0.6,1.2-1.2,1.7-1.6c2.9,3,5.6,6.4,7.9,10.3c-0.7,0.4-1.5,0.9-2.3,1.3C104,33.1,103.5,33.3,103.1,33.6z"/>
	<path class="st0" d="M55,28.2c-0.3-1.2-0.7-2.3-0.9-3.5c2.8-0.7,5.5-1.1,8.4-1.1v3.6C60,27.3,57.5,27.6,55,28.2z"/>
	<path class="st0" d="M70.2,28.2c-2.6-0.6-5-0.9-7.5-1c0-0.5,0-0.9,0-1.4c0-0.8,0-1.6,0-2.3c2.8,0.1,5.5,0.4,8.4,1.1
		c-0.2,0.6-0.3,1.2-0.5,1.8C70.5,27.1,70.4,27.6,70.2,28.2z"/>
	<path class="st0" d="M25.9,35.7c-0.9-0.5-1.8-1-2.6-1.5l-0.7-0.4c1.8-3.2,4.2-6.3,7.2-9.4l0.6,0.7c0.6,0.5,1.1,1.1,1.7,1.7
		c0,0,0.3,0.3,0.3,0.3c-0.1,0.1-0.2,0.2-0.3,0.3L32,27.7C29.7,30,27.5,32.9,25.9,35.7z"/>
	<path class="st0" d="M99.3,35.7c-1.6-2.8-3.6-5.4-6.5-8.5c0.5-0.4,0.9-0.9,1.3-1.3c0.4-0.4,0.9-0.9,1.3-1.3
		c2.8,2.8,5.2,5.9,7.1,9.3c-0.4,0.2-0.7,0.4-1,0.6C100.9,34.9,100.1,35.3,99.3,35.7z"/>
	<path class="st0" d="M38.1,32.4c-0.6-0.5-1.1-1.1-1.7-1.7c0,0-0.3-0.3-0.3-0.3c0-0.1,0.4-0.4,0.6-0.5c0.1-0.1,0.2-0.2,0.3-0.2
		c1.9-1.8,4.4-3.7,6.8-5c0.6,1,1.2,2,1.7,3.1l0.1,0.1C43,29.2,40.7,31,38.7,33L38.1,32.4z"/>
	<path class="st0" d="M86.6,33c-2.2-2.1-4.4-3.8-6.7-5.2c0.6-1.1,1.2-2.2,1.8-3.2c2.5,1.4,4.9,3.2,7.6,5.7c-0.5,0.5-1,1-1.5,1.5
		C87.3,32.2,86.9,32.6,86.6,33z"/>
	<path class="st0" d="M47.2,30.2c-0.4-0.7-0.9-1.5-1.3-2.2c2.6-1.4,5.2-2.5,7.9-3.2l0.2,0.9c0.2,0.9,0.5,1.7,0.7,2.6
		c-2.3,0.6-4.5,1.5-7,2.9C47.6,30.9,47.4,30.5,47.2,30.2z"/>
	<path class="st0" d="M77.4,31.2c-1.7-0.9-4.1-2.1-6.9-2.8c0.1-0.6,0.3-1.2,0.5-1.8c0.2-0.6,0.3-1.2,0.5-1.8
		c2.8,0.8,5.4,1.8,7.8,3.2C78.7,29,78.1,30,77.4,31.2z"/>
	<path class="st0" d="M29.6,37.9c-0.7-0.4-1.4-0.8-2.1-1.2c-0.4-0.2-0.9-0.5-1.3-0.7c1.7-3,3.8-5.8,6.5-8.4c0.5,0.4,1,1,1.6,1.6
		c0.3,0.3,0.6,0.6,0.8,0.8c0.1,0.1,0.2,0.1,0.2,0.2c0.1,0.1,0.1,0.1,0.1,0.1c0,0-0.5,0.6-0.7,0.7l-0.1,0.1
		C32.6,33.4,30.8,36.1,29.6,37.9z"/>
	<path class="st0" d="M95.6,37.9c-0.1-0.1-0.2-0.2-0.3-0.4l-0.1-0.1c-1.4-2.4-3.2-4.7-5.5-7.1c0.5-0.5,0.9-0.9,1.4-1.4
		c0.5-0.5,0.9-0.9,1.4-1.4c2.7,2.7,4.8,5.5,6.5,8.4c-0.6,0.4-1.2,0.7-1.9,1.1C96.6,37.3,96.1,37.6,95.6,37.9z"/>
	<path class="st0" d="M56.2,32.5c-0.3-1.1-0.6-2.1-0.9-3.2l-0.2-0.6c2.3-0.6,4.8-0.9,7.4-1c0,0.8,0,1.6,0,2.5c0,0.5,0,1,0,1.5h-0.1
		C60.4,31.7,58.4,32,56.2,32.5z"/>
	<path class="st0" d="M69.1,32.5c-2.3-0.6-4.2-0.8-6.3-0.8l0,0c0-0.5,0-1,0-1.5c0-0.8,0-1.7,0-2.5c2.5,0.1,4.9,0.4,7.3,1
		C69.8,29.9,69.5,31.1,69.1,32.5z"/>
	<path class="st0" d="M41.6,35.9c-0.6-0.6-1.2-1.2-1.9-1.8c0,0-0.8-0.8-0.8-0.8c0,0,0.4-0.4,0.6-0.6l0.1-0.1c1.9-1.7,4-3.3,6-4.4
		c0.5,0.9,1.2,2,1.8,3.2C45.3,32.6,43.4,34.1,41.6,35.9z"/>
	<path class="st0" d="M83.6,35.9c-0.1-0.1-0.3-0.3-0.5-0.4c-0.1-0.1-0.1-0.1-0.2-0.2L82.6,35c-0.6-0.5-1.1-1-1.7-1.5
		c-0.9-0.7-2-1.4-3.1-2.1c0.3-0.6,0.6-1.1,1-1.7c0.3-0.5,0.6-1,0.9-1.5c2.7,1.6,4.9,3.3,6.7,5.1c-0.5,0.5-1,1-1.5,1.5
		c-0.3,0.3-0.5,0.5-0.8,0.8C83.9,35.6,83.7,35.9,83.6,35.9z"/>
	<path class="st0" d="M75.2,35c-2.1-1.1-4-1.9-5.8-2.4c0.2-0.9,0.5-1.8,0.7-2.7l0.3-1.1c2.2,0.6,4.4,1.5,6.8,2.8
		c-0.3,0.7-0.7,1.3-1.1,2C75.8,34,75.5,34.5,75.2,35z"/>
	<path class="st0" d="M49.7,34.6c-0.5-1-1.1-2-1.7-2.9c1.9-1.2,4.1-2,6.8-2.9c0.1,0,0.2,0.2,0.2,0.3c0,0,0,0.1,0,0.1l0.3,0.9
		c0.2,0.8,0.5,1.7,0.7,2.5c-2.2,0.6-4.2,1.5-5.9,2.4L49.7,34.6z"/>
	<path class="st0" d="M112.3,43.7c-1.2-4.3-2.8-8.3-4.9-12l0.4-0.2c0.9-0.5,1.7-1,2.5-1.4c2.1,3.7,3.9,8.1,5.3,12.8
		c-0.6,0.2-1.4,0.4-2.1,0.5C113,43.5,112.6,43.6,112.3,43.7z"/>
	<path class="st0" d="M92,40c-0.1-0.1-0.1-0.2-0.2-0.3c0-0.1,0-0.1-0.1-0.2c-1.3-2.2-2.9-4.3-4.9-6.3c0.9-0.9,1.7-1.8,2.6-2.6
		c2.4,2.5,4.3,4.9,5.8,7.5c-0.7,0.4-1.4,0.8-2,1.1C92.8,39.5,92.4,39.8,92,40z"/>
	<path class="st0" d="M33.2,40c-0.5-0.3-0.9-0.5-1.4-0.8c-0.6-0.4-1.2-0.7-1.8-1.1c1.6-2.7,3.5-5.2,5.8-7.5c0.5,0.5,1,1,1.4,1.4
		c0.4,0.4,0.7,0.8,1.1,1.1C36.2,35.6,34.6,37.7,33.2,40z"/>
	<path class="st0" d="M44.7,39c-0.9-0.9-1.8-1.9-2.8-2.8c1.5-1.6,3.5-3.1,5.8-4.5c0.3,0.5,0.6,1.1,1,1.7c0.3,0.6,0.7,1.2,1,1.7
		C48.1,36.1,46.5,37.4,44.7,39z"/>
	<path class="st0" d="M80.5,39.1c-0.1,0-0.3-0.3-0.5-0.4L80,38.6c-1.4-1.3-2.9-2.5-4.4-3.3c0.2-0.4,0.5-0.8,0.7-1.3
		c0.4-0.7,0.8-1.5,1.3-2.2c1.8,1,3.7,2.4,5.2,3.8l0.1,0.1c0.2,0.2,0.5,0.4,0.5,0.5c0,0-0.2,0.2-0.3,0.3L83,36.5
		c-0.4,0.4-0.7,0.7-1.1,1.1c-0.3,0.4-0.7,0.7-1.1,1.1c0,0-0.1,0.1-0.1,0.1C80.7,38.9,80.6,39.1,80.5,39.1z"/>
	<path class="st0" d="M107.8,44.9c-1.1-4-2.6-7.6-4.5-10.9c0.2-0.1,0.4-0.2,0.6-0.4c0.1,0,0.2-0.1,0.2-0.1c0,0,2.3-1.3,2.9-1.6
		c0,0,0,0,0,0c2.1,3.8,3.7,7.7,4.9,11.9c-0.5,0.1-1,0.3-1.5,0.4C109.5,44.4,108.6,44.7,107.8,44.9z"/>
	<path class="st0" d="M57.2,36.5c-0.2-0.8-0.4-1.5-0.6-2.3L56.3,33c2.1-0.6,4.1-0.8,6.3-0.8l0,3.6l0,0C60.7,35.8,59.1,36,57.2,36.5z
		"/>
	<path class="st0" d="M68,36.5c-1.8-0.5-3.5-0.7-5.3-0.7c0-0.4,0-0.9,0-1.4c0-0.8,0-1.5,0-2.3l0,0c2,0,3.9,0.2,6.1,0.8
		c-0.2,0.9-0.5,1.9-0.7,2.8L68,36.5z"/>
	<path class="st0" d="M52,38.6c-0.5-0.9-1-1.7-1.4-2.5l-0.3-0.5c1.7-1,3.7-1.9,5.8-2.4c0.3,1,0.6,2.2,0.9,3.5
		C55.1,37,53.5,37.8,52,38.6z"/>
	<path class="st0" d="M73.2,38.6c-1.7-0.9-3.3-1.6-4.9-2c0.2-1,0.5-1.9,0.8-2.9l0.2-0.6c2,0.6,3.9,1.3,5.7,2.4
		c-0.2,0.4-0.4,0.7-0.6,1.1C74,37.2,73.6,37.9,73.2,38.6z"/>
	<path class="st0" d="M36.8,42.1c-0.7-0.4-1.3-0.7-2-1.1c-0.4-0.2-0.8-0.5-1.2-0.7c1.4-2.4,3.1-4.7,5.1-6.7c0.9,0.8,1.7,1.7,2.6,2.6
		C39.3,38.3,37.9,40.1,36.8,42.1z"/>
	<path class="st0" d="M88.4,42.1c-0.8-1.4-1.9-3-3.3-4.5l-0.2-0.3c-0.2-0.2-0.5-0.5-0.7-0.8c-0.1-0.1-0.1-0.1-0.2-0.2
		c0,0-0.1-0.1-0.1-0.1c0,0,0.3-0.3,0.4-0.4c0.1-0.1,0.2-0.1,0.2-0.2c0.2-0.2,0.5-0.5,0.7-0.7c0.5-0.5,1-1,1.4-1.3
		c1.8,1.8,3.5,3.9,5.1,6.6C90.7,40.8,89.7,41.4,88.4,42.1z"/>
	<path class="st0" d="M103.6,46c-0.9-3.5-2.3-6.7-4.1-9.8c1.1-0.7,2.3-1.4,3.4-1.9c1.9,3.3,3.4,6.9,4.4,10.8
		c-0.6,0.2-1.3,0.3-1.9,0.5C104.9,45.7,104.3,45.8,103.6,46z"/>
	<path class="st0" d="M47.6,41.9c-0.8-0.9-1.7-1.7-2.5-2.5c1.4-1.4,3-2.6,5-3.8c0.3,0.5,0.6,1.1,0.9,1.6c0.3,0.5,0.6,1,0.9,1.5
		C50.3,39.6,48.9,40.7,47.6,41.9z"/>
	<path class="st0" d="M77.6,41.9c-1.3-1.3-2.7-2.3-4.2-3.2c0.4-0.7,0.9-1.5,1.3-2.3c0.2-0.3,0.3-0.6,0.5-0.9c1.4,0.8,3,2,4.4,3.2
		l0.2,0.1c0.1,0.1,0.4,0.3,0.4,0.4c0,0.1-0.4,0.4-0.6,0.6L79.6,40l-0.7,0.7C78.5,41.1,78,41.5,77.6,41.9z"/>
	<path class="st0" d="M58.2,40.1c-0.2-1-0.5-2-0.8-3l0-0.2c0.5-0.2,1.2-0.3,1.8-0.4l0.2,0c1.1-0.2,2.1-0.3,3-0.3l0.1,0v3.3
		C60.9,39.6,59.4,39.8,58.2,40.1z"/>
	<path class="st0" d="M67.1,40.1c-1.3-0.3-2.7-0.5-4.3-0.6c0-0.4,0-0.8,0-1.2c0-0.7,0-1.4,0-2.1l0,0c1.7,0,3.3,0.2,5.1,0.6
		c-0.1,0.5-0.2,0.9-0.4,1.4C67.4,38.9,67.2,39.5,67.1,40.1z"/>
	<path class="st0" d="M99.4,47.1c-0.8-3.1-2-6-3.6-8.8c0.3-0.2,0.6-0.4,1-0.6c0.8-0.5,1.7-1,2.5-1.4c1.7,3.1,3.1,6.3,4,9.8l-1.1,0.3
		C101.3,46.6,100.4,46.9,99.4,47.1z"/>
	<path class="st0" d="M84.6,44.3c-1.3-2.1-2.5-3.7-3.8-5c0.5-0.5,1.1-1.1,1.6-1.6c0.4-0.4,0.8-0.8,1.2-1.3c1.8,1.8,3.3,3.7,4.5,5.8
		C86.8,43,85.6,43.7,84.6,44.3z"/>
	<path class="st0" d="M40.7,44.3c-0.7-0.4-1.4-0.8-2-1.2c-0.5-0.3-1-0.6-1.4-0.8c1.2-2.1,2.7-4.1,4.5-5.8c0.9,0.9,1.9,1.9,2.8,2.8
		C42.9,41,41.6,42.6,40.7,44.3z"/>
	<path class="st0" d="M71.3,41.8c-1-0.5-2.3-1.2-3.9-1.6l0.2-0.9c0.2-0.8,0.4-1.6,0.6-2.3c1.6,0.4,3.1,1,4.7,1.9l-0.1,0.3
		C72.3,40.1,71.8,41,71.3,41.8z"/>
	<path class="st0" d="M54,41.9c-0.6-0.9-1.1-1.9-1.7-2.9c1.7-0.9,3.2-1.5,4.8-1.9c0.1,0.1,0.1,0.3,0.1,0.5c0,0.1,0,0.2,0.1,0.3
		c0.1,0.2,0.1,0.5,0.2,0.7c0.2,0.6,0.3,1.2,0.5,1.8C56.5,40.6,55.1,41.2,54,41.9z"/>
	<path class="st0" d="M29.8,48.2c-1.2-0.3-2.3-0.6-3.4-0.9l-0.2-0.1c0.9-3.1,2.1-6.1,3.7-8.8c0.6,0.4,1.3,0.8,2,1.2
		c0.4,0.2,0.8,0.5,1.2,0.7C31.6,42.9,30.5,45.5,29.8,48.2z"/>
	<path class="st0" d="M95.4,48.2c-0.8-2.7-1.8-5.3-3.2-7.9c0.6-0.4,1.3-0.7,1.9-1.1c0.4-0.3,0.9-0.5,1.3-0.8
		c1.7,3.1,2.9,5.8,3.6,8.7c-0.7,0.2-1.4,0.4-2.2,0.6C96.4,47.9,95.9,48.1,95.4,48.2z"/>
	<path class="st0" d="M50.3,44.6c-0.1,0-0.2-0.2-0.5-0.5c-0.5-0.5-0.9-0.9-1.3-1.4L48,42.3c1.1-1.2,2.5-2.2,4.1-3.1
		c0.1,0.1,0.4,0.7,0.4,0.7l0.3,0.4c0.3,0.6,0.7,1.2,1,1.7c-0.1,0.1-0.2,0.1-0.3,0.2l-0.1,0.1c-1,0.6-1.9,1.4-2.6,2l-0.1,0.1
		C50.4,44.5,50.3,44.6,50.3,44.6z"/>
	<path class="st0" d="M75,44.6c-1.1-1-2.1-1.9-3.4-2.6c0.3-0.5,0.5-1,0.8-1.4c0.3-0.5,0.6-0.9,0.8-1.4c1.6,0.8,2.9,2,4.1,3
		C76.6,42.9,75.9,43.7,75,44.6z"/>
	<path class="st0" d="M81.1,46.3c-1-1.5-2-2.9-3.2-4.1c0.9-0.8,1.7-1.7,2.6-2.6c1.3,1.2,2.4,2.7,3.8,4.8c-0.5,0.4-1.1,0.7-1.7,1
		C82.1,45.7,81.6,46,81.1,46.3z"/>
	<path class="st0" d="M44.2,46.3c-0.6-0.3-1.1-0.6-1.6-0.9c-0.5-0.3-1-0.6-1.5-0.9c1-1.8,2.3-3.4,3.8-4.9c0.5,0.5,0.9,0.9,1.4,1.4
		c0.4,0.4,0.7,0.7,1.1,1.1C46.2,43.5,45.1,44.8,44.2,46.3z"/>
	<path class="st0" d="M59.1,43.4c-0.1-0.5-0.2-1-0.4-1.4c-0.1-0.5-0.3-0.9-0.4-1.4c1.2-0.3,2.5-0.5,4-0.5l0.2,0V43
		C61.4,43,60.3,43.1,59.1,43.4z"/>
	<path class="st0" d="M66.2,43.4C65,43.1,63.9,43,62.8,43c0-0.4,0-0.7,0-1.1c0-0.6,0-1.3,0-1.8l0.2,0c1.3,0,2.6,0.2,4,0.5
		c-0.1,0.5-0.2,1-0.4,1.4C66.4,42.5,66.3,42.9,66.2,43.4z"/>
	<path class="st0" d="M33.8,49.3c-0.5-0.1-0.9-0.3-1.4-0.4c-0.7-0.2-1.5-0.4-2.2-0.6c0.7-2.6,1.8-5.1,3.2-7.7
		c0.5,0.3,1.1,0.6,1.6,0.9c0.5,0.3,1.1,0.6,1.6,0.9C35.7,44.1,34.5,46.5,33.8,49.3z"/>
	<path class="st0" d="M91.4,49.3c-0.7-2.4-1.6-4.7-2.8-6.8c0.6-0.4,1.3-0.8,1.9-1.1c0.4-0.3,0.9-0.5,1.3-0.8
		c1.3,2.1,2.3,4.6,3.2,7.7C94.1,48.6,92.9,48.9,91.4,49.3z"/>
	<path class="st0" d="M55.6,44.8c-0.2-0.4-0.5-0.8-0.7-1.3c-0.2-0.4-0.5-0.8-0.7-1.3c1.4-0.8,2.6-1.2,3.9-1.6c0.1,0.5,0.3,1,0.4,1.5
		c0.1,0.4,0.2,0.9,0.3,1.3C57.6,43.8,56.6,44.3,55.6,44.8z"/>
	<path class="st0" d="M69.6,44.8c-0.9-0.5-1.9-1-3.1-1.3c0.1-0.5,0.3-1,0.4-1.5c0.1-0.4,0.2-0.9,0.3-1.3c1.6,0.4,2.9,1,3.9,1.6
		c-0.3,0.4-0.5,0.9-0.8,1.3C70.1,44,69.8,44.4,69.6,44.8z"/>
	<path class="st0" d="M72.5,47.1c-0.1,0-0.3-0.3-0.4-0.4c-0.1-0.1-0.1-0.2-0.2-0.2c-0.5-0.5-1.1-0.9-1.7-1.3L69.8,45l0.4-0.6
		c0.4-0.6,0.7-1.2,1.1-1.9c1.3,0.7,2.3,1.6,3.3,2.5c-0.5,0.5-1.1,1.1-1.7,1.8C72.9,46.7,72.6,47,72.5,47.1z"/>
	<path class="st0" d="M47.5,48.2c-1-0.5-2-1.1-2.9-1.7c0.8-1.4,1.8-2.6,3.1-4c0.4,0.4,0.9,0.9,1.3,1.3c0.3,0.3,0.7,0.7,1,1
		C49.1,46,48.2,47,47.5,48.2z"/>
	<path class="st0" d="M52.7,47.1c-0.7-0.7-1.4-1.4-2.1-2.1c1-1,2.2-1.9,3.3-2.5c0.5,0.9,1,1.7,1.5,2.6
		C54.4,45.6,53.5,46.3,52.7,47.1z"/>
	<path class="st0" d="M77.7,48.2c-0.7-1.3-1.7-2.5-2.6-3.4c0.8-0.7,1.6-1.5,2.4-2.3c1.2,1.1,2.3,2.5,3.1,4c-0.5,0.3-1,0.5-1.5,0.8
		C78.7,47.7,78.2,48,77.7,48.2z"/>
	<path class="st0" d="M38.1,50.4c-0.7-0.2-1.4-0.4-2.1-0.6c-0.6-0.2-1.2-0.3-1.8-0.5c0.8-2.7,1.7-4.9,2.9-6.7l0.8,0.4
		c0.9,0.5,1.8,1,2.7,1.5C39.5,46.4,38.7,48.3,38.1,50.4z"/>
	<path class="st0" d="M87.1,50.4c-0.5-2-1.3-3.9-2.4-5.8c0.7-0.4,1.5-0.8,2.2-1.2c0.5-0.3,0.9-0.5,1.4-0.8c0.9,1.7,2.1,4,2.8,6.8
		c-0.6,0.1-1.2,0.3-1.8,0.5C88.6,50,87.8,50.2,87.1,50.4z"/>
	<path class="st0" d="M65.4,46.2c-0.9-0.2-1.8-0.3-2.6-0.4v-2.4c1.1,0,2.2,0.1,3.3,0.4c-0.1,0.4-0.2,0.9-0.4,1.3
		C65.6,45.5,65.5,45.9,65.4,46.2z"/>
	<path class="st0" d="M59.8,46.3c-0.1-0.3-0.2-0.6-0.2-0.9c-0.1-0.5-0.3-0.9-0.4-1.4c0.9-0.2,2-0.4,3.3-0.4l0,2.4
		C61.4,45.9,60.5,46.1,59.8,46.3z"/>
	<path class="st0" d="M67.7,47.1c-0.6-0.3-1.3-0.6-2-0.8c0.1-0.5,0.2-0.9,0.3-1.3c0.1-0.3,0.2-0.7,0.3-1c1.1,0.3,2,0.7,3,1.2
		c-0.2,0.3-0.3,0.6-0.5,0.8c-0.2,0.4-0.5,0.8-0.7,1.3C68,47.2,67.9,47.2,67.7,47.1z"/>
	<path class="st0" d="M57.1,47.4c-0.1-0.1-0.2-0.2-0.2-0.3c0,0-0.1-0.1-0.1-0.1l-0.1-0.2c-0.3-0.5-0.6-1-0.8-1.5
		c0.9-0.4,1.9-0.9,3-1.2c0,0,0,0,0.1,0c0,0.3,0.1,0.6,0.2,1c0.1,0.4,0.3,0.9,0.4,1.4C58.6,46.6,57.7,47,57.1,47.4z"/>
	<path class="st0" d="M83.2,51.5c-0.5-1.7-1.2-3.2-2-4.8c1.1-0.6,2.2-1.3,3.2-1.8c1.1,1.8,1.8,3.7,2.4,5.7c-0.3,0.1-0.6,0.1-1,0.1
		c-0.1,0-0.3,0-0.4,0c-0.1,0-0.1,0.1-0.1,0.2c0,0,0,0.1,0,0.1C84.6,51.1,83.9,51.3,83.2,51.5z"/>
	<path class="st0" d="M42,51.5c-0.5-0.1-1-0.3-1.5-0.4c-0.7-0.2-1.4-0.4-2.1-0.6c0.6-2.2,1.4-4.1,2.4-5.7c0.5,0.3,1,0.6,1.6,0.9
		c0.5,0.3,1,0.6,1.6,0.9C43.2,48.2,42.5,49.8,42,51.5z"/>
	<path class="st0" d="M74.8,49.9c-0.4-0.8-1-1.5-1.5-2.1c-0.2-0.2-0.3-0.4-0.5-0.6c0.7-0.6,1.4-1.3,2.1-2c0.9,0.9,1.8,1.9,2.5,3.2
		c-0.4,0.2-0.8,0.5-1.3,0.7C75.7,49.4,75.2,49.7,74.8,49.9z"/>
	<path class="st0" d="M50.4,50c-0.5-0.3-1-0.6-1.5-0.9c-0.4-0.2-0.7-0.4-1.1-0.6c0.6-1.1,1.4-2.2,2.5-3.3c0.7,0.7,1.4,1.4,2.1,2.1
		l-0.1,0C51.7,48.2,51,49,50.4,50z"/>
	<path class="st0" d="M70.3,48.9c-0.6-0.5-1.1-1-1.8-1.4c0.2-0.4,0.4-0.7,0.6-1.1c0.2-0.4,0.4-0.7,0.6-1.1c0.6,0.3,1.4,0.9,2,1.5
		l0.1,0.1c0.1,0.1,0.4,0.3,0.4,0.4c0,0-0.2,0.2-0.3,0.3c-0.1,0-0.1,0.1-0.1,0.1c-0.3,0.3-0.7,0.7-1,1l-0.3,0.3L70.3,48.9z"/>
	<path class="st0" d="M107.2,57c-0.1-0.5-0.3-1-0.4-1.5c-0.1-0.4-0.2-0.8-0.3-1.2l-0.2-0.5c-0.2-0.7-0.5-1.5-0.5-2.3
		c0.3-0.2,0.7-0.2,1.2-0.3c0.1,0,0.3,0,0.4,0c0.1-0.1,0.1-0.3,0.1-0.4c0-0.1,0-0.2,0-0.3l0-0.1l-0.1,0c-0.2,0-0.5,0-0.7,0
		c-0.3,0-0.5,0-0.8,0c-0.3,0-0.6,0-0.9,0c-0.2,0-0.3,0-0.5,0c-0.1-1.4-0.4-2.6-0.8-4.1c0.5-0.1,1-0.3,1.5-0.4
		c0.8-0.2,1.5-0.4,2.3-0.6c0.9,3.4,1.5,7.3,1.5,11.6H107.2z"/>
	<path class="st0" d="M54.8,49.1c-0.4-0.3-0.7-0.6-1-0.9c-0.2-0.3-0.5-0.5-0.8-0.7c0.7-0.8,1.7-1.5,2.5-2c0.5,0.7,0.9,1.4,1.2,2.1
		c-0.7,0.4-1.3,0.9-1.9,1.4L54.8,49.1z"/>
	<path class="st0" d="M60.5,48.9c-0.1-0.4-0.2-0.7-0.3-1.1c-0.1-0.4-0.2-0.7-0.3-1.1c0.8-0.2,1.6-0.3,2.3-0.3c0.1,0,0.2,0,0.3,0
		l0,2.2l0,0C61.7,48.6,61.1,48.8,60.5,48.9z"/>
	<path class="st0" d="M64.7,48.9c-0.6-0.1-1.2-0.3-1.9-0.3l0-2.2c1,0,1.8,0.1,2.5,0.3l0,0C65.1,47.5,64.9,48.2,64.7,48.9z"/>
	<path class="st0" d="M66.8,49.6c-0.7-0.3-1.3-0.6-1.8-0.8l0.1-0.3c0.2-0.6,0.3-1.2,0.5-1.9c0.9,0.2,1.7,0.6,2.3,0.9
		c-0.2,0.3-0.4,0.6-0.5,0.9C67.2,49,67,49.3,66.8,49.6z"/>
	<path class="st0" d="M58.4,49.7c-0.1-0.3-0.3-0.5-0.4-0.8c-0.2-0.4-0.4-0.7-0.6-1.1l0.3-0.2c0.6-0.3,1.2-0.6,2-0.8
		c0.1,0.3,0.1,0.6,0.2,0.9c0.1,0.4,0.2,0.8,0.3,1.3c-0.5,0.1-1,0.3-1.4,0.5C58.7,49.6,58.6,49.6,58.4,49.7z"/>
	<path class="st0" d="M81.4,52c-0.2-0.2-0.4-0.4-0.5-0.7c-0.2-0.2-0.3-0.5-0.5-0.7l-1.5,0c-0.2-0.5-0.4-1-0.7-1.5
		c-0.1-0.2-0.2-0.4-0.3-0.6c0.1-0.1,0.3-0.2,0.5-0.3l0.2-0.1l0.5-0.3c0.6-0.3,1.1-0.7,1.7-1l0.1-0.1c1,1.7,1.6,3.2,2,4.8
		c-0.4,0.1-0.7,0.2-1,0.3L81.4,52z"/>
	<path class="st0" d="M45.5,52.5c-0.5-0.1-0.9-0.3-1.4-0.4c-0.6-0.2-1.2-0.3-1.7-0.5c0.5-1.8,1.2-3.3,2-4.7c0.5,0.3,1,0.6,1.6,0.9
		c0.4,0.3,0.9,0.5,1.4,0.8l-0.1,0.3c-0.3,0.6-0.6,1.2-0.9,1.9l-0.3,0l-1,0c-0.5,0-1,0-1.4,0l0,0.7l0.2,0.1
		C44.4,51.7,45.2,51.9,45.5,52.5z"/>
	<path class="st0" d="M72.3,51.4c-0.5-0.8-1.1-1.5-1.6-2.1c0.6-0.5,1.2-1.1,1.8-1.7c0.8,0.8,1.5,1.8,2,2.6c-0.1,0.1-0.2,0.1-0.4,0.2
		c-0.1,0-0.1,0.1-0.2,0.1c-0.3,0.1-0.5,0.3-0.8,0.5C72.9,51.1,72.6,51.3,72.3,51.4z"/>
	<path class="st0" d="M96,50.5c-0.1-0.5-0.2-1.1-0.3-1.6l-0.1-0.4c1.2-0.3,2.4-0.6,3.6-1c0.2,0.8,0.4,1.7,0.7,2.9
		c-0.2,0-0.4,0-0.5,0l-1.7,0C97,50.5,96.5,50.5,96,50.5z"/>
	<path class="st0" d="M52.3,51.1c-0.2-0.1-0.4-0.2-0.6-0.3c-0.3-0.2-0.6-0.3-0.9-0.5c0.6-0.9,1.3-1.8,2-2.5c0.4,0.3,0.7,0.7,1.1,1.1
		c0.2,0.2,0.4,0.5,0.6,0.7c-0.2,0.2-0.5,0.5-0.7,0.8c-0.1,0.2-0.3,0.3-0.4,0.5l-1.1,0C52.2,50.8,52.2,50.9,52.3,51.1
		C52.3,51,52.3,51,52.3,51.1z"/>
	<path class="st0" d="M68.6,51c-0.6-0.5-1.1-0.9-1.5-1.2c0.2-0.2,0.3-0.5,0.5-0.7c0.2-0.4,0.5-0.8,0.7-1.2c0.7,0.4,1.3,0.9,2,1.5
		c-0.3,0.3-0.6,0.6-0.9,0.9C69.1,50.5,68.8,50.7,68.6,51z"/>
	<path class="st0" d="M56.4,50.7c-0.1,0-0.1,0-0.2,0c-0.2,0-0.3-0.2-0.4-0.4c-0.1-0.1-0.1-0.1-0.2-0.2c-0.1-0.1-0.2-0.2-0.2-0.2
		c-0.1-0.1-0.3-0.2-0.4-0.4c0.5-0.5,1.1-0.9,1.7-1.3L57,48c0.4,0.6,0.7,1.2,1.1,1.9c-0.1,0.1-0.2,0.1-0.3,0.2
		c-0.1,0-0.1,0.1-0.2,0.1c-0.1,0.1-0.2,0.1-0.3,0.2c-0.1,0.1-0.2,0.1-0.3,0.2c0,0-0.1,0-0.2,0c-0.1,0-0.2,0-0.3,0
		C56.6,50.7,56.5,50.7,56.4,50.7z"/>
	<path class="st0" d="M29,57c0-3.1,0.4-5.9,1.1-8.3c0.8,0.2,1.6,0.5,2.5,0.7l1.1,0.3c-0.6,2.7-0.9,4.9-0.9,7.4H29z"/>
	<path class="st0" d="M92.4,50.5c-0.2,0-0.4,0-0.6,0c0-0.2,0-0.4-0.1-0.6c0-0.1-0.1-0.2-0.1-0.4c0.6-0.1,1.2-0.3,1.8-0.4
		c0.6-0.2,1.3-0.3,1.9-0.5c0.1,0.3,0.2,0.7,0.2,1.1c0.1,0.2,0.1,0.5,0.2,0.7c-0.4,0-0.9,0-1.5,0C93.8,50.6,92.6,50.5,92.4,50.5z"/>
	<path class="st0" d="M49.1,53.1c-0.3-0.4-0.6-0.8-0.9-1.2c-0.3-0.4-0.6-0.8-0.8-1.1l-0.2,0l-0.3,0c0.2-0.5,0.5-1.1,0.7-1.5l0.2-0.3
		c0.5,0.3,1,0.6,1.5,0.9c0.4,0.2,0.7,0.4,1.1,0.6C49.8,51.1,49.4,52,49.1,53.1z"/>
	<path class="st0" d="M76.2,53.4c-0.3-1.2-0.8-2.2-1.2-3.1c0.1-0.1,0.2-0.1,0.4-0.2c0.1,0,0.1-0.1,0.2-0.1c0.2-0.1,0.5-0.3,0.7-0.4
		c0.4-0.3,0.9-0.5,1.3-0.8c0.3,0.5,0.6,1.1,0.9,1.9h-1.6c-0.1,0.1-0.1,0.3-0.1,0.4c0,0.1,0,0.2,0,0.3c1,0.3,1.8,0.5,2.2,1.3
		c-0.5,0.1-0.9,0.2-1.3,0.3C77.1,53.2,76.7,53.3,76.2,53.4z"/>
	<path class="st0" d="M60.9,50.6c0-0.2-0.1-0.5-0.2-0.8c0-0.2-0.1-0.3-0.1-0.5c0.6-0.1,1.2-0.2,1.8-0.2c0,0,0,0.1,0,0.2
		c0,0,0,0.1,0,0.1c0,0.2,0,0.4,0,0.6c0,0.2,0,0.4,0,0.5H60.9z"/>
	<path class="st0" d="M64.2,50.7c-0.4,0-0.8-0.1-1.2-0.1c-0.1,0-0.2,0-0.2,0v-1.5c0.7,0,1.3,0.1,1.8,0.3
		C64.5,49.7,64.2,50.7,64.2,50.7z"/>
	<path class="st0" d="M58.9,50.6L58.9,50.6c-0.1-0.2-0.2-0.3-0.3-0.5c0.1-0.1,0.4-0.2,0.6-0.3l0.2-0.1c0.3-0.1,0.5-0.2,0.8-0.3
		l0.1,0c0.1,0,0.1,0.1,0.1,0.2c0,0,0,0.1,0,0.1c0.1,0.3,0.2,0.6,0.2,0.9H58.9z"/>
	<path class="st0" d="M66,51.1c-0.4-0.2-0.9-0.3-1.5-0.4c0.1-0.2,0.1-0.4,0.2-0.7c0.1-0.2,0.1-0.4,0.2-0.6c0.7,0.1,1.2,0.4,1.7,0.7
		C66.3,50.5,66.1,50.8,66,51.1z"/>
	<path class="st0" d="M54.1,50.7c0.1-0.2,0.3-0.4,0.5-0.6c0.1-0.1,0.2-0.2,0.3-0.3c0.3,0.3,0.7,0.6,0.9,0.9l-0.9,0
		C54.6,50.6,54.3,50.6,54.1,50.7z"/>
	<path class="st0" d="M70,52.8c-0.4-0.6-0.8-1.1-1.2-1.5c0.5-0.4,1.1-1,1.6-1.5c0.7,0.6,1.1,1.3,1.5,2c-0.3,0.1-0.6,0.3-0.9,0.5
		C70.7,52.4,70.3,52.6,70,52.8z"/>
	<path class="st0" d="M88.6,57c0-0.3,0-0.6,0.1-1c0-0.4,0-0.9,0-1.4c-0.1-1.3,0-2.5,0.5-2.9c0.3-0.2,0.6-0.2,1-0.3
		c0.2,0,0.3-0.1,0.5-0.1l0-0.7v0H88c0.1,0,0.1,0,0.2-0.1c0.5-0.1,1-0.3,1.6-0.4c0.5-0.1,0.9-0.2,1.4-0.4c0.1,0,0.1,0,0.1,0
		c0.1,0.2,0.1,0.5,0.2,0.9h-0.4v0.7c0.1,0.1,0.3,0.1,0.4,0.1l0.1,0c0.3,1.9,0.5,3.7,0.5,5.6H88.6z"/>
	<path class="st0" d="M33.1,57c0.1-2.9,0.4-5.2,1-7.3c0.6,0.2,1.3,0.4,2,0.6c0.6,0.2,1.3,0.3,1.9,0.5c-0.1,0.1-0.1,0.2-0.1,0.3
		c0,0.1-0.1,0.3-0.1,0.4c-0.1-0.1-0.1-0.3-0.2-0.5c0-0.1-0.1-0.2-0.1-0.3l0,0l-0.1,0c-0.1,0-0.2,0-0.3,0c-0.1,0-0.2,0-0.3,0
		c0,0-0.1,0-0.1,0c-0.4,0.7-0.6,1.5-0.9,2.2c-0.1,0.3-0.2,0.7-0.4,1l-0.3,0.8c-0.3,0.8-0.6,1.5-0.9,2.3H33.1z"/>
	<path class="st0" d="M57.9,50.6c0.1-0.1,0.2-0.1,0.3-0.2c0.1-0.1,0.2-0.1,0.2-0.2c0.1,0,0.1,0.2,0.1,0.3c0,0,0,0,0,0.1H57.9z"/>
	<path class="st0" d="M67.6,52c-0.2-0.1-0.3-0.2-0.5-0.3c-0.3-0.2-0.5-0.3-0.9-0.5c0.1-0.2,0.2-0.3,0.3-0.5c0.1-0.1,0.2-0.3,0.3-0.5
		c0.6,0.3,1.1,0.7,1.5,1.1l-0.2,0.1C67.9,51.7,67.8,51.9,67.6,52z"/>
	<path class="st0" d="M114.7,63.7c-0.4-1.3-0.9-2.7-1.3-4.1c-0.7-2-1.3-3.9-2-5.9l0-0.1l0,0.1c-1.1,3.2-2.2,6.6-3.3,9.8l-0.1,0.2
		h-0.8c-0.6-2.3-1.2-4.4-1.8-6.4c0.2,0,0.4,0,0.7,0c0.2,0,0.8,0,0.9,0c0.1,0,0.2,0,0.3,0c0.2,1,0.6,2.1,0.9,3.1l0,0.1l0-0.1
		c1-2.8,1.9-5.8,3.2-9.7l0.9,0c0.4,1.4,0.9,2.9,1.4,4.3c0.6,1.8,1.2,3.7,1.9,5.5l0,0.1l0.1-0.1c0.2-0.5,0.3-1,0.5-1.5
		c0.1-0.2,0.1-0.4,0.2-0.7c0.1-0.5,0.3-0.9,0.4-1.4c0.4-1.3,0.8-2.7,1.1-4.1c0.1-0.4,0.2-0.9,0.1-1.2c-0.1-0.6-0.9-0.7-1.6-0.7
		l-0.3,0l0-0.5c0.6,0,1.2,0,1.9,0c0.7,0,1.3,0,2,0c0.3,0,0.5,0,0.8,0v0.6c-0.7,0-1.4,0.4-1.7,1c-0.2,0.3-0.2,0.6-0.3,1
		c0,0.1-0.1,0.3-0.1,0.4c-0.6,1.9-1.2,3.9-1.7,5.8c-0.4,1.5-0.9,3-1.3,4.4L114.7,63.7z"/>
	<path class="st0" d="M51.8,54.1c-0.8-0.2-1.7-0.4-2.4-0.7c0.2-0.9,0.6-1.8,1-2.5l0.2-0.4c0.5,0.2,0.9,0.5,1.4,0.8
		c0.3,0.2,0.6,0.3,0.8,0.5C52.4,52.5,52.1,53.3,51.8,54.1L51.8,54.1z"/>
	<path class="st0" d="M73.3,54.2c-0.2-0.9-0.6-1.6-0.9-2.3l0,0c0.4-0.2,0.8-0.4,1.2-0.7c0.4-0.2,0.7-0.4,1.1-0.6
		c0.5,0.8,0.9,1.8,1.2,3c-0.4,0.1-0.8,0.2-1.2,0.3C74.2,53.9,73.8,54.1,73.3,54.2z"/>
	<path class="st0" d="M39.9,57l-0.1-0.4c-0.6-1.5-1.1-2.9-1.7-4.4c0-0.1,0.1-0.3,0.1-0.4c0.1-0.3,0.1-0.6,0.3-0.9
		c0.3,0.1,0.7,0.2,1.1,0.3c0.8,0.2,1.6,0.4,2.4,0.7c-0.4,1.5-0.6,3.2-0.7,5.1H39.9z"/>
	<path class="st0" d="M85.6,57.1c-0.2,0-0.3,0-0.4,0c-0.2,0-0.5-0.5-0.6-0.7L84.4,56c-0.1-0.1-0.1-0.2-0.2-0.3l-0.1-0.1
		c-0.1-0.1-0.2-0.2-0.2-0.3c0-0.1-0.1-0.4-0.1-0.6c0-0.1,0-0.2,0-0.3c-0.1-0.7-0.2-1.7-0.5-2.5l0.7-0.2c0.4-0.1,0.9-0.2,1.3-0.3
		c0.2,0.1,0.4,0.1,0.6,0.2c0.5,0.1,0.9,0.2,1.3,0.5c0.2,1.2,0.6,3,0.5,5.1h-1.2c-0.1,0-0.3,0-0.4,0C85.9,57.1,85.7,57.1,85.6,57.1
		L85.6,57.1z"/>
	<path class="st0" d="M99.4,57c0-0.8,0-1.7,0-2.6c-0.1-0.1-0.2-0.1-0.3-0.1c-0.1,0-0.3,0-0.3,0c0,0-0.1,0-0.1,0
		c-0.3,1.1-0.6,2.2-1.9,2.2l-0.1,0c0-1.5-0.1-3.2-0.4-5.1c0.1,0,0.2,0,0.4,0c0.2,0,0.5,0,0.7,0c0.2,0,0.4,0,0.6,0c0.4,0,0.8,0,1,0.2
		c0.4,0.2,0.8,0.6,1,1l0.1,0.1c0.1,0.1,0.2,0.2,0.2,0.3c0.1,0.2,0.1,0.4,0.1,0.7c0,0.1,0,0.2,0,0.3c0.1,0.8,0.1,1.9,0.1,3.1H99.4z"
		/>
	<path class="st0" d="M58.5,52.9c-0.5-0.4-1-0.9-1.4-1.4c0.1,0,0.3-0.1,0.5-0.1c0.5,0,1.1,0.2,1.3,0.4c0.1,0.1,0.2,0.4,0.2,0.5
		c0,0.1-0.2,0.2-0.3,0.3C58.7,52.7,58.6,52.8,58.5,52.9z"/>
	<path class="st0" d="M95.1,56.5c0-0.8,0-1.6,0-2.4c0-0.9,0-1.8,0-2.7h0.8c0.2,1.5,0.4,3.2,0.4,5.1H95.1z"/>
	<path class="st0" d="M92.5,57c0-1.8-0.2-3.5-0.5-5.5c0.1,0,0.2,0.1,0.2,0.1c0.2,0.1,0.4,0.1,0.5,0.3C93,52.2,93,53,93,53.7
		c0,0.2,0,0.4,0,0.6c0,0.5,0,0.9,0,1.4c0,0.5,0,0.9,0,1.3H92.5z"/>
	<path class="st0" d="M57.5,54.1c-0.5-0.3-1-0.5-1.5-0.8L55.7,53c0.1-0.2,0.2-0.4,0.4-0.6l0.1-0.1c0.2-0.2,0.4-0.5,0.6-0.7
		c0.5,0.5,1,1,1.5,1.5c-0.1,0.1-0.2,0.2-0.3,0.3C57.8,53.7,57.7,53.9,57.5,54.1z"/>
	<path class="st0" d="M68.9,53.3c-0.3-0.4-0.6-0.8-1-1c0.1-0.1,0.2-0.2,0.4-0.3c0.1-0.1,0.2-0.2,0.3-0.3c0.4,0.4,0.8,0.8,1.1,1.4
		c-0.1,0-0.2,0.1-0.2,0.1C69.2,53.2,69.1,53.3,68.9,53.3L68.9,53.3z"/>
	<path class="st0" d="M62.8,62.9c-0.5,0-1.1-0.1-1.3-0.6c-0.2-0.4-0.2-1.1-0.2-1.8c0-0.2,0-0.4,0-0.7v-8c0.4-0.1,0.8-0.1,1.3-0.1
		c0.8,0,1.7,0.2,2.4,0.5c1.3,0.6,2,1.4,2.4,2.7c0.3,1.1,0.4,2.5,0.2,3.9c-0.1,0.6-0.2,1.2-0.5,1.7c-0.2,0.3-0.6,0.7-1,1.1
		c-0.4,0.3-0.9,0.6-1.3,0.8C64.2,62.7,63.5,62.9,62.8,62.9L62.8,62.9z"/>
	<path class="st0" d="M54.4,54.9c-0.4-0.1-0.8-0.2-1.1-0.3c-0.3-0.1-0.7-0.2-1-0.3c0.2-0.9,0.6-1.6,0.9-2.3c0.2,0.2,0.5,0.3,0.7,0.5
		c0.2,0.1,0.4,0.2,0.6,0.3C54.6,53.4,54.7,54.3,54.4,54.9z"/>
	<path class="st0" d="M70.8,54.8c-0.1-0.4-0.3-0.8-0.5-1.2c-0.1-0.2-0.2-0.4-0.3-0.6l0.4-0.2c0.5-0.3,1-0.6,1.5-0.9
		c0.4,0.6,0.7,1.4,0.9,2.3c-0.4,0.1-0.8,0.2-1.2,0.3C71.5,54.7,71.2,54.8,70.8,54.8z"/>
	<path class="st0" d="M43,57.1c-0.6,0-1,0-1.4,0c0.1-2,0.3-3.7,0.8-5c0.8,0.2,1.5,0.4,2.3,0.7l0.9,0.2c-0.3,1.3-0.5,2.7-0.5,4.2
		c-0.2,0-0.3,0-0.5,0C44.3,57.1,43.2,57.1,43,57.1z"/>
	<path class="st0" d="M83.4,54.4c-0.2-0.2-0.3-0.4-0.5-0.6c-0.1-0.1-0.2-0.2-0.3-0.4c-0.1-0.1-0.2-0.2-0.3-0.3
		c-0.2-0.2-0.4-0.5-0.5-0.7c0.2,0,0.3-0.1,0.5-0.1c0.2-0.1,0.4-0.1,0.6-0.2C83.1,52.7,83.3,53.5,83.4,54.4z"/>
	<path class="st0" d="M59.2,61.7C59.2,61.7,59.1,61.7,59.2,61.7l-0.1-0.1c-1.2-0.9-2-2.5-2.1-4.2c-0.1-1.8,0.7-3.4,2.1-4.5
		c0,1.8,0,3.6,0,5.4C59.2,59.5,59.2,60.6,59.2,61.7z"/>
	<path class="st0" d="M77.7,57.1c-0.4,0-0.7,0-1,0c0.1-1.3-0.2-2.4-0.4-3.3c0.3,0,0.7-0.2,1.1-0.3c0.5-0.1,1.1-0.3,1.6-0.4
		c0.2,0.7,0.2,1.6,0.1,2.5c0,0.5,0,1,0,1.5c-0.1,0-0.2,0-0.3,0C78.6,57.1,77.9,57.1,77.7,57.1z"/>
	<path class="st0" d="M45.4,57.1c0-1.3,0.2-2.4,0.4-3.5c0.1,0.6,0,1.4,0,2.1c0,0.5,0,1,0,1.4H45.4z"/>
	<path class="st0" d="M69.8,55.1c-0.1-0.5-0.3-0.9-0.6-1.4c0.1-0.1,0.3-0.2,0.5-0.3c0.1,0,0.1-0.1,0.2-0.1c0.1,0.2,0.2,0.5,0.3,0.7
		l0,0.1c0.1,0.3,0.2,0.5,0.3,0.8c-0.1,0-0.2,0-0.3,0.1C70,55.1,69.9,55.1,69.8,55.1z"/>
	<path class="st0" d="M80.2,57.1c0-0.4,0-0.8,0-1.2c0-0.8,0-1.6,0-2.4l0.6,0.8c0.7,0.9,1.4,1.8,2.1,2.8H80.2z"/>
	<path class="st0" d="M47.5,57.1c-0.3,0-0.5,0-0.6,0l0-3.5c0.2,0.3,0.5,0.7,0.8,1.1c0.1,0.2,0.3,0.4,0.4,0.5
		c0.1,0.1,0.1,0.1,0.2,0.2c0.1,0.1,0.2,0.2,0.2,0.3c0,0.2,0,0.4,0,0.6c0,0.2-0.1,0.5,0,0.7c-0.1,0-0.1,0-0.2,0
		C48.1,57.1,47.6,57.1,47.5,57.1z"/>
	<path class="st0" d="M56.9,55.5c-0.5-0.1-1-0.2-1.3-0.4c0-0.2,0-0.4,0-0.6c0-0.4,0-0.7,0-1c0.4,0.2,0.8,0.4,1.2,0.7
		c0.2,0.1,0.3,0.2,0.5,0.3C57.2,54.8,57,55.1,56.9,55.5z"/>
	<path class="st0" d="M35.3,57c0.4-1.1,0.8-2.1,1.2-3.1c0.1,0.2,0.3,0.6,0.4,0.9c0,0.1,0.1,0.2,0.1,0.3c0.1,0.2,0.2,0.5,0.2,0.7
		c0,0.2,0,0.4,0,0.6c0,0.2,0,0.5,0,0.7H35.3z"/>
	<path class="st0" d="M73.8,57.1l0-0.2c-0.1-0.8-0.1-1.6-0.3-2.2c1-0.3,2.1-0.6,2.5-0.7c0.2,0.9,0.4,1.9,0.4,3.2H73.8z"/>
	<path class="st0" d="M51.5,56.2c-0.6-0.7-1.2-1.5-1.6-2.2l0.1,0c0.6,0.2,1.3,0.3,1.9,0.5c-0.1,0.1-0.1,0.3-0.1,0.5
		C51.6,55.4,51.5,55.8,51.5,56.2z"/>
	<path class="st0" d="M52.5,57.1c-0.2,0-0.3,0-0.4,0C52,57,52,57,51.9,56.9c0-0.1-0.1-0.1-0.2-0.2c0.1-0.7,0.2-1.4,0.3-2
		c0.4,0.1,0.8,0.2,1.1,0.3c0.3,0.1,0.7,0.2,1,0.3l-0.1,0.1c-0.1,0.5-0.2,1.1-0.2,1.7c-0.1,0-0.2,0-0.3,0c-0.2,0-0.4,0-0.6,0
		C52.9,57.1,52.7,57.1,52.5,57.1z"/>
	<path class="st0" d="M71.2,57.1c0-0.5-0.1-1-0.2-1.4c0-0.2-0.1-0.3-0.1-0.5c0.5-0.1,0.9-0.2,1.4-0.3c0.2-0.1,0.5-0.1,0.7-0.2
		c0.1,0,0.1,0.2,0.2,0.4l0,0.1c0.1,0.6,0.2,1.3,0.2,1.9H71.2z"/>
	<path class="st0" d="M54.4,57.1c0-0.4,0.1-1,0.2-1.5c0,0.2,0,0.4,0,0.6c0,0.3,0,0.6,0,0.9H54.4z"/>
	<path class="st0" d="M70.8,57.1c0,0-0.1,0-0.1,0c0,0-0.1,0-0.2,0l-0.4,0c0,0-0.1,0-0.1,0c0-0.6-0.1-1.1-0.2-1.6
		c0.1,0,0.2-0.1,0.3-0.1c0.1,0,0.3-0.1,0.4-0.1C70.7,55.8,70.8,56.3,70.8,57.1z"/>
	<path class="st0" d="M55.6,57.1c0-0.2,0-0.6,0-0.9c0-0.2,0-0.4,0-0.5c0.3,0.1,0.6,0.1,0.8,0.2c0.1,0,0.3,0.1,0.4,0.1
		c-0.1,0.2-0.1,0.6-0.2,0.9l0,0.3H55.6z"/>
	<path class="st0" d="M48.8,57.1c0-0.3,0-0.6,0.1-0.9c0.2,0.3,0.5,0.6,0.7,0.9H48.8z"/>
	<path class="st0" d="M37.7,57c0,0-0.1,0-0.2,0l0-0.5c0,0.1,0.1,0.1,0.1,0.2C37.7,56.8,37.7,57,37.7,57L37.7,57z"/>
	<path class="st0" d="M33.2,59.8c-0.1-0.6-0.1-1.3-0.1-1.9l0-0.5h1c-0.1,0.4-0.3,0.7-0.4,1.1C33.6,58.9,33.4,59.3,33.2,59.8z"/>
	<path class="st0" d="M34.8,58.4c0.1-0.1,0.1-0.3,0.1-0.4c0.1-0.2,0.2-0.5,0.3-0.7c0.1,0,0.2,0,0.3,0c0.2,0,0.8,0,1,0
		c0.3,0,0.6,0,0.8,0l0,1H34.8z"/>
	<path class="st0" d="M87.5,60.2c-0.3-0.3-0.5-0.6-0.7-0.9c-0.1-0.1-0.2-0.3-0.3-0.4c-0.1-0.2-0.3-0.3-0.4-0.5
		c-0.2-0.3-0.5-0.6-0.7-0.9h2.2C87.7,58.3,87.7,59.1,87.5,60.2z"/>
	<path class="st0" d="M91.2,64.7c-0.3-0.1-0.6-0.2-0.9-0.2c-0.6-0.1-1.1-0.3-1.7-0.4c-0.1,0-0.2,0-0.2-0.1h0.4l0,0
		c0-1.3,0-2.6,0-3.9c0-0.9,0-1.7,0-2.6h3.5c0,2.1-0.3,3.9-0.6,5.6c0,0-0.1,0-0.1,0c-0.1,0-0.1,0-0.2,0l-0.1,0v0.7
		c0,0.1,0.1,0.1,0.1,0.1c0,0,0.2,0,0.2,0c-0.1,0.1-0.1,0.2-0.1,0.3C91.3,64.3,91.2,64.5,91.2,64.7z"/>
	<path class="st0" d="M92,62.9c0.3-1.7,0.5-3.5,0.5-5.5c0,0,0-0.1,0.1-0.1c0,0,0.1,0,0.2,0c0.1,0,0.1,0,0.2,0c0,0,0,0,0,0
		c0,0.6,0,1.4,0,2.3l0,0.5c0,0.7,0.1,1.4,0,1.9C92.9,62.8,92.3,62.9,92,62.9z"/>
	<path class="st0" d="M95.8,62.8c-0.4-0.1-0.7-0.5-0.7-1.2c0-0.6,0-1.3,0-2c0-0.8,0-1.5,0-2.1c0,0,0.1,0,0.2,0c0,0,0.5,0,0.6,0
		c0.2,0,0.4,0,0.5,0C96.2,59.6,96.1,61.3,95.8,62.8z"/>
	<path class="st0" d="M97.8,62.9c-0.4,0-0.8,0-1.1,0l-0.5,0c0.3-1.7,0.4-3.6,0.5-5.5c0,0,0.1,0,0.2,0c0,0,0,0,0,0
		c1.3,0,1.5,1,1.7,2.1l0.8,0h0.1v-2.2h1c0,1.8-0.2,3.4-0.4,5.1C99.4,62.8,98.5,62.9,97.8,62.9L97.8,62.9z"/>
	<path class="st0" d="M37.9,58.6c-0.1,0-0.2,0-0.3,0c0-0.1,0-0.3,0-0.5c0-0.2,0-0.4,0-0.6l0.5,0c0,0.2,0.1,0.3,0.2,0.5
		c0.1,0.2,0.1,0.4,0.2,0.6c-0.1,0-0.1,0-0.2,0C38.1,58.5,38,58.6,37.9,58.6z"/>
	<path class="st0" d="M41.6,61c0-0.1,0-0.1-0.1-0.2l-0.3-0.7c-0.3-0.9-0.7-1.8-1-2.7l0,0h1.1C41.3,58.9,41.4,60,41.6,61z"/>
	<path class="st0" d="M42.3,62.5c-0.3-1.5-0.7-3.3-0.6-5.1l3.4,0c0.1,1.5,0.2,2.9,0.5,4.2c-0.5,0.1-1.1,0.3-1.6,0.4
		C43.4,62.2,42.9,62.3,42.3,62.5z"/>
	<path class="st0" d="M45.9,61.2c-0.3-1.2-0.4-2.4-0.4-3.7h0.5C45.9,58.7,45.9,60.1,45.9,61.2z"/>
	<path class="st0" d="M47,61.2c-0.1-0.9-0.1-2-0.1-3.1c0-0.2,0-0.5,0-0.7h1.5c0,1,0.1,1.8,0.3,2.7c0,0.2,0.1,0.4,0.1,0.6
		c-0.4,0.1-0.7,0.2-1.1,0.3C47.5,61.1,47.3,61.2,47,61.2z"/>
	<path class="st0" d="M49.2,60.6c-0.3-1-0.4-2.1-0.4-3.2h1.1c0.3,0.5,0.7,1,1.1,1.5l0.4,0.5c0.1,0.2,0.3,0.3,0.3,0.5
		C50.9,60.2,50.1,60.4,49.2,60.6z"/>
	<path class="st0" d="M53.9,59.4c-0.3-0.3-0.6-0.7-0.8-1.1c-0.2-0.3-0.4-0.6-0.7-0.9c0.2,0,0.4,0,0.6,0c0.1,0,0.7,0,0.8,0
		c0.1,0,0.2,0,0.2,0c0,0.6,0.1,1.1,0.2,1.6l0,0.2c0,0,0,0,0,0C54.1,59.3,54,59.4,53.9,59.4z"/>
	<path class="st0" d="M54.6,59.1c0-0.1,0-0.2-0.1-0.3l0-0.1c-0.1-0.3-0.1-0.7-0.1-1.1v0h0.2c0,0.2,0,0.4,0,0.7
		C54.6,58.5,54.6,58.8,54.6,59.1z"/>
	<path class="st0" d="M55.7,58.8c0-0.4,0-0.9,0-1.3h1.1c0,0.4,0,0.8,0.1,1.2c-0.2,0-0.3,0.1-0.5,0.1c-0.2,0.1-0.4,0.1-0.6,0.1
		L55.7,58.8z"/>
	<path class="st0" d="M70.4,59.1c-0.2,0-0.3-0.1-0.5-0.1c0.1-0.4,0.2-0.9,0.2-1.6c0,0,0.1,0,0.1,0l0.4,0c0.1,0,0.2,0,0.3,0
		c-0.1,0.5-0.1,1.2-0.3,1.7C70.5,59.2,70.4,59.2,70.4,59.1z"/>
	<path class="st0" d="M73.1,59.9c-0.6-0.1-1.2-0.3-1.8-0.5l-0.4-0.1c0.1-0.5,0.3-1.1,0.3-1.8h2.2c0,0.8-0.1,1.5-0.2,2.1L73.1,59.9z"
		/>
	<path class="st0" d="M76,60.6c-0.5-0.2-1.1-0.3-1.6-0.4L73.5,60c0.2-0.8,0.3-1.6,0.3-2.5h2.6C76.4,58.8,76.2,59.8,76,60.6z"/>
	<path class="st0" d="M79.1,61.5c-0.5-0.1-1-0.2-1.4-0.4c-0.4-0.1-0.9-0.2-1.3-0.3c0.2-1.2,0.4-2.3,0.4-3.3l2.4,0c0,0.3,0,0.6,0,0.9
		C79.2,59.4,79.2,60.5,79.1,61.5z"/>
	<path class="st0" d="M82.9,62.5c-0.6-0.1-1.1-0.3-1.7-0.4c-0.3-0.1-0.6-0.2-0.9-0.2c-0.2-1.1-0.2-2.6-0.1-4l0-0.4h1.4
		c0.2,0,0.4,0,0.5,0c0.2,0,0.4,0,0.5,0c0.2,0,0.3,0,0.4,0c0.1,0,0.2,0.2,0.3,0.3c0.1,0.1,0.1,0.2,0.2,0.3
		C83.5,59.5,83.3,60.9,82.9,62.5z"/>
	<path class="st0" d="M86.9,63.5c-0.7-0.2-1.4-0.3-2.1-0.5c-0.5-0.1-1-0.3-1.5-0.4c0.2-1.1,0.5-2.4,0.6-3.9l0.4,0.6
		c0.9,1.2,1.8,2.4,2.7,3.7C87,63,87,63,87,63.1C87,63.3,86.9,63.4,86.9,63.5z"/>
	<path class="st0" d="M55.6,59.3C55.7,59.3,55.7,59.3,55.6,59.3c0.2,0,0.3,0,0.5-0.1c0.2-0.1,0.5-0.1,0.8-0.2
		c0.1,0.1,0.1,0.2,0.2,0.4c0,0.1,0.1,0.3,0.1,0.3c0.1,0.1,0.1,0.3,0.2,0.4l-0.1,0.1c-0.4,0.2-0.8,0.5-1.2,0.7
		c-0.1,0.1-0.3,0.2-0.4,0.2V59.3z"/>
	<path class="st0" d="M34,64.7c0-0.1,0-0.2-0.1-0.2c0-0.1-0.1-0.2-0.1-0.3h1.3c0.1-0.1,0.1-0.3,0.1-0.4c0-0.1,0-0.2,0-0.3L35,63.3
		c-0.5-0.1-1.1-0.1-1.4-0.4c0-0.1,0-0.3-0.1-0.4c0-0.1-0.1-0.3-0.1-0.4c0-0.1,0.1-0.3,0.1-0.5l0.1-0.2c0.2-0.7,0.5-1.6,0.8-2.1
		l2.8,0c0.1,1.4,0.4,2.9,0.7,4.2c-0.8,0.2-1.6,0.4-2.4,0.6L34,64.7z"/>
	<path class="st0" d="M69.8,61.2c-0.2,0-0.3-0.1-0.4-0.2c-0.1-0.1-0.2-0.1-0.3-0.2c0.1-0.2,0.1-0.3,0.2-0.4c0.2-0.3,0.3-0.6,0.4-1
		c0.1,0.1,0.2,0.1,0.3,0.1c0.1,0,0.2,0.1,0.4,0.1C70.3,60.1,70.1,60.7,69.8,61.2z"/>
	<path class="st0" d="M38.4,63.4c-0.4-1.3-0.6-2.7-0.7-3.9h1.2c0.1,0.5,0.3,0.9,0.5,1.4c0.2,0.6,0.5,1.2,0.6,2
		c-0.3,0.3-0.9,0.3-1.5,0.4l-0.1,0C38.4,63.2,38.4,63.3,38.4,63.4z"/>
	<path class="st0" d="M54.6,60.5c-0.1-0.1-0.2-0.2-0.3-0.4c-0.1-0.1-0.2-0.3-0.3-0.4c0,0,0,0,0,0c0.1,0,0.2,0,0.3,0
		c0,0.1,0.1,0.2,0.1,0.3C54.5,60.1,54.6,60.3,54.6,60.5z"/>
	<path class="st0" d="M72.1,62.5c-0.3-0.2-0.5-0.3-0.8-0.5c-0.4-0.2-0.8-0.4-1.1-0.7c0.1-0.1,0.2-0.3,0.3-0.5
		c0.2-0.4,0.3-0.8,0.4-1.2c0.6,0.1,1.2,0.3,1.7,0.4l0.4,0.1C72.8,61,72.5,61.8,72.1,62.5z"/>
	<path class="st0" d="M102,63.6c0,0-0.1-0.1-0.2-0.1c-0.2,0-0.5,0-0.7,0c-0.2,0-0.5,0-0.7,0c-0.1,0-0.1,0-0.2,0l0-0.2
		c0.1-0.3,0.1-0.6,0.1-1c0.6-0.6,0.9-1.5,1.3-2.3l0.1-0.2l0.5,0l-0.1,1.1C102.1,61.9,102.1,62.8,102,63.6z"/>
	<path class="st0" d="M74.6,64c-0.5-0.2-0.9-0.5-1.4-0.8c-0.3-0.2-0.6-0.3-0.8-0.5c0.5-0.8,0.8-1.6,1-2.4c0.4,0.1,0.8,0.2,1.3,0.3
		c0.4,0.1,0.8,0.2,1.2,0.3C75.6,62.1,75.1,63.1,74.6,64z"/>
	<path class="st0" d="M50.6,64c-0.5-0.9-0.9-1.9-1.2-3c0.5-0.1,0.9-0.2,1.4-0.4c0.4-0.1,0.7-0.2,1.1-0.3c0.1,0.1,0.1,0.2,0.2,0.4
		l0,0.2c0.2,0.7,0.5,1.3,0.8,1.8c-0.2,0.2-0.5,0.3-0.8,0.4c-0.1,0.1-0.2,0.1-0.3,0.2c-0.1,0.1-0.2,0.1-0.4,0.2
		C51.1,63.7,50.8,63.9,50.6,64z"/>
	<path class="st0" d="M56.7,62.9c-0.5-0.4-0.9-0.9-1.1-1.4c0.6-0.3,1.2-0.7,1.9-1c0.1,0.2,0.3,0.4,0.4,0.6c0.1,0.1,0.2,0.3,0.3,0.4
		c-0.2,0.1-0.3,0.2-0.5,0.4C57.4,62.2,57.1,62.5,56.7,62.9z"/>
	<path class="st0" d="M53.1,62.5c-0.3-0.5-0.6-1.1-0.8-1.7c0.2,0.2,0.4,0.5,0.6,0.7c0.2,0.3,0.4,0.5,0.6,0.8
		C53.4,62.4,53.3,62.4,53.1,62.5z"/>
	<path class="st0" d="M68.5,62.9c-0.2-0.1-0.3-0.2-0.4-0.4c-0.1-0.1-0.2-0.2-0.3-0.3l0.1-0.1c0.4-0.3,0.7-0.7,1-1.1
		c0.1,0.1,0.2,0.2,0.3,0.2c0.1,0.1,0.2,0.1,0.4,0.2c-0.2,0.4-0.5,0.7-0.8,1.1C68.7,62.7,68.6,62.8,68.5,62.9z"/>
	<path class="st0" d="M47.6,65.7c-0.1-0.2-0.2-0.4-0.3-0.5c-0.2-0.4-0.4-0.8-0.6-1.2h0c0.3,0,0.7,0,1,0c0.3,0,0.6,0,1,0
		c0.1,0,0.3,0,0.4,0c0.1-0.2,0.1-0.4,0.1-0.5c0-0.1,0-0.1,0-0.2c-1.1-0.2-2.1-0.5-2.2-1.6c0.3-0.1,0.7-0.1,1-0.2
		c0.3-0.1,0.6-0.2,0.9-0.2c0.1,0,0.1,0.2,0.1,0.3l0,0.1c0.2,0.7,0.6,1.8,1.2,2.7c-0.1,0.1-0.3,0.2-0.5,0.3l-0.2,0.1l-0.4,0.2
		C48.7,65.1,48.2,65.4,47.6,65.7z"/>
	<path class="st0" d="M77.6,65.7c-0.4-0.2-0.8-0.5-1.2-0.7c-0.4-0.3-0.9-0.5-1.3-0.8c0.6-1.1,1-2.1,1.3-3.1c1.1,0.3,2,0.5,2.9,0.8
		c-0.2,0.9-1.1,1.1-2,1.2C77,63.3,77,63.4,77,63.6c0,0.1,0,0.2,0,0.3l0,0.1h1.4C78.2,64.5,77.9,65.1,77.6,65.7z"/>
	<path class="st0" d="M57.4,63.5c-0.1-0.1-0.2-0.1-0.2-0.2c0,0-0.1-0.1-0.1-0.1c0.3-0.3,0.5-0.6,0.8-0.9c0.2-0.2,0.5-0.5,0.7-0.7
		c0.1,0.1,0.3,0.2,0.4,0.4c0.1,0.1,0.1,0.1,0.2,0.2c0,0.8-0.8,0.8-1.5,0.9l-0.2,0L57.4,63.5z"/>
	<path class="st0" d="M70.4,64.8c-0.6-0.5-1.1-1-1.6-1.6c0.4-0.4,0.8-0.8,1.1-1.4c0.4,0.2,0.8,0.5,1.2,0.7c0.2,0.1,0.5,0.3,0.7,0.4
		C71.5,63.5,71,64.1,70.4,64.8z"/>
	<path class="st0" d="M43.7,63.1c-0.4,0-0.8-0.1-1.1-0.3c1-0.3,2-0.6,3-0.8c0,0.5-0.4,0.8-1.1,1C44.3,63.1,44,63.1,43.7,63.1
		L43.7,63.1z"/>
	<path class="st0" d="M80.8,67.5c-1-0.6-2.1-1.2-2.9-1.7c0.3-0.5,0.6-1.1,0.9-1.8l0.1-0.2c0,0,0.1,0,0.1,0c0.3,0,0.7,0,1.3,0
		c0.3,0,1.4,0,1.6,0c0.2,0,0.4,0,0.6,0c0.1-0.1,0.1-0.3,0.1-0.4c0-0.1,0-0.2,0-0.3C82.3,63.1,82.2,63,82,63
		c-0.6-0.1-1.2-0.3-1.4-0.7c0.3,0.1,0.5,0.1,0.8,0.2c0.5,0.1,0.9,0.3,1.4,0.4C82.3,64.5,81.7,66.1,80.8,67.5z"/>
	<path class="st0" d="M54.8,64.8c-0.1,0-0.2-0.2-0.3-0.3c0-0.1-0.1-0.1-0.1-0.1c-0.4-0.5-0.8-1-1.1-1.5c0.1-0.1,0.2-0.2,0.4-0.2
		l0.1,0c0.2,0.4,0.6,0.9,1,1.4l0.8,0c0.1-0.4,0.1-0.7,0.1-1.1c0-0.2,0-0.4,0-0.6c0.2,0.2,0.4,0.5,0.6,0.7l0.2,0.2
		c-0.3,0.2-0.5,0.4-0.8,0.7c-0.1,0.1-0.3,0.3-0.4,0.4l-0.1,0.1C55.1,64.6,54.9,64.8,54.8,64.8z"/>
	<path class="st0" d="M66.8,64.2c-0.1-0.1-0.2-0.2-0.2-0.4l-0.1-0.2c-0.1-0.1-0.2-0.3-0.3-0.4l0.2-0.1c0.4-0.2,0.8-0.4,1.1-0.7
		c0.2,0.2,0.3,0.4,0.5,0.5c0.1,0.1,0.1,0.1,0.2,0.2C67.9,63.6,67.3,63.9,66.8,64.2z"/>
	<path class="st0" d="M84.4,69.6c-0.6-0.3-1.2-0.7-1.8-1c-0.5-0.3-0.9-0.5-1.4-0.8c0.7-1.3,1.5-2.9,2-4.8h0.2
		c1.1,0.3,2.2,0.6,3.3,0.9C86.2,66.1,85.3,68,84.4,69.6z"/>
	<path class="st0" d="M52.8,66.8c-0.8-0.7-1.4-1.6-2-2.5c0.7-0.4,1.4-0.8,2.2-1.3c0.5,0.8,1,1.5,1.5,2.1c-0.3,0.3-0.6,0.6-0.9,0.9
		C53.4,66.3,53.1,66.5,52.8,66.8z"/>
	<path class="st0" d="M72.5,66.9c-0.6-0.6-1.2-1.2-1.8-1.8c0.7-0.6,1.2-1.3,1.6-2c0.4,0.2,0.8,0.4,1.1,0.6c0.3,0.2,0.7,0.4,1.1,0.6
		c-0.5,0.9-1.2,1.7-1.8,2.5L72.5,66.9z"/>
	<path class="st0" d="M87.7,63.7c-0.1,0-0.2,0-0.3-0.1c-0.1,0-0.1,0-0.2-0.1c0-0.1,0.1-0.1,0.1-0.2c0-0.1,0-0.1,0-0.2h0
		c0,0.1,0.1,0.2,0.2,0.3C87.6,63.6,87.7,63.7,87.7,63.7z"/>
	<path class="st0" d="M64.9,65.1c-0.1-0.3-0.1-0.5-0.2-0.7c-0.1-0.2-0.1-0.5-0.2-0.8c0.6-0.1,1-0.2,1.4-0.4c0,0,0,0,0.1,0
		c0,0.2,0.1,0.3,0.2,0.5c0.1,0.2,0.3,0.4,0.3,0.7l-0.3,0.1C65.8,64.7,65.4,65,64.9,65.1z"/>
	<path class="st0" d="M57.1,66.6c-0.8-0.5-1.5-1-2-1.5c0.3-0.3,0.6-0.6,0.9-0.9c0.2-0.2,0.5-0.5,0.7-0.7c0.5,0.4,1,0.8,1.6,1.2
		c-0.2,0.2-0.4,0.6-0.6,0.9C57.5,65.9,57.3,66.2,57.1,66.6z"/>
	<path class="st0" d="M68.2,66.6c-0.3-0.4-0.6-0.9-0.9-1.4c-0.1-0.2-0.2-0.3-0.3-0.5c0.6-0.4,1.1-0.8,1.5-1.2l0.2,0.2
		c0.3,0.3,0.7,0.7,1,1l0.1,0.1c0.1,0.1,0.3,0.3,0.3,0.3c0,0-0.2,0.1-0.4,0.4C69.2,65.9,68.7,66.2,68.2,66.6z"/>
	<path class="st0" d="M62.8,65.4v-1.6l0.2,0c0.4,0,0.8,0,1.2-0.1c0.1,0.4,0.2,0.9,0.4,1.5C64,65.3,63.4,65.4,62.8,65.4L62.8,65.4z"
		/>
	<path class="st0" d="M94.1,65.4c-0.8-0.2-1.7-0.4-2.5-0.7c0.1-0.2,0.1-0.4,0.2-0.7l0.1-0.3l0.4,0c0.5,0,1,0,1.5,0c0.5,0,1,0,1.5,0
		c0.2,0,0.4,0,0.5,0c-0.1,0.4-0.2,0.8-0.2,1.2c-0.1,0.3-0.1,0.5-0.2,0.8C94.8,65.6,94.4,65.5,94.1,65.4z"/>
	<path class="st0" d="M99.1,66.8c-0.7-0.1-1.3-0.3-1.9-0.5c-0.6-0.2-1.1-0.3-1.7-0.4l0.1-0.5c0.1-0.5,0.2-1,0.3-1.5l3.8-0.1
		C99.6,64.9,99.4,65.9,99.1,66.8z"/>
	<path class="st0" d="M58.4,64.2c-0.2-0.1-0.3-0.2-0.5-0.3c0,0-0.1-0.1-0.1-0.1c0.1,0,0.2,0,0.3,0c0.1,0,0.4,0,0.5,0
		c0,0,0.1,0,0.1,0c0,0.1-0.1,0.2-0.1,0.2C58.5,64.1,58.4,64.2,58.4,64.2z"/>
	<path class="st0" d="M60.4,65.1c-0.6-0.1-1.2-0.4-1.7-0.7c0.1-0.1,0.1-0.2,0.2-0.3c0.1-0.1,0.1-0.2,0.2-0.3l1.7,0
		c0,0.2-0.1,0.4-0.2,0.6C60.5,64.6,60.4,64.9,60.4,65.1z"/>
	<path class="st0" d="M62.4,65.4c-0.6,0-1.2-0.1-1.7-0.2c0-0.1,0.1-0.3,0.1-0.4c0.1-0.3,0.2-0.7,0.3-0.9l1.4,0L62.4,65.4L62.4,65.4z
		"/>
	<path class="st0" d="M44.4,67.5c-0.6-1.1-1.2-2.2-1.6-3.6c0.4,0,0.8,0,1.3,0c0.6,0,1.1,0,1.7,0c0.2,0,0.4,0,0.7,0
		c0.2,0.6,0.5,1.3,0.9,1.9C46.1,66.6,45.2,67.1,44.4,67.5z"/>
	<path class="st0" d="M40.8,69.6c-1.1-1.9-1.8-3.7-2.3-5.6c0.2,0,0.4,0,0.6,0c0.6,0,1.1,0,1.7,0c0.5,0,1,0,1.6,0
		c0.4,1.2,1,2.6,1.7,3.8c0,0-0.1,0.1-0.2,0.1c0,0-0.1,0-0.1,0.1c-0.3,0.2-0.6,0.4-0.9,0.5C42.1,68.9,41.5,69.3,40.8,69.6z"/>
	<path class="st0" d="M37,71.8c-1.1-1.8-2.1-4-2.9-6.8c0.7-0.2,1.6-0.4,2.4-0.6c0.5-0.1,1.1-0.3,1.6-0.4c0.6,2,1.4,3.9,2.4,5.8
		C39.4,70.4,38.3,71.1,37,71.8z"/>
	<path class="st0" d="M88.2,71.8c-1.1-0.6-2.3-1.3-3.5-2c1-1.7,1.8-3.7,2.4-5.8c0.5,0.1,1.1,0.3,1.6,0.4c0.8,0.2,1.5,0.4,2.3,0.6
		C90.5,67.3,89.6,69.4,88.2,71.8z"/>
	<path class="st0" d="M50.4,69.2c-0.9-0.8-1.6-1.8-2.5-3.2c0.1-0.1,0.2-0.2,0.4-0.2c0.1,0,0.1-0.1,0.2-0.1c0.3-0.1,0.5-0.3,0.8-0.5
		c0.4-0.2,0.8-0.5,1.2-0.7c0.5,0.9,1.2,1.8,2,2.7c-0.4,0.3-0.7,0.7-1,1C51.1,68.5,50.7,68.9,50.4,69.2z"/>
	<path class="st0" d="M74.9,69.3c-0.6-0.5-1.1-1-1.6-1.5c-0.2-0.2-0.4-0.4-0.6-0.6L73,67c0.6-0.7,1.3-1.5,1.8-2.4
		c0.5,0.3,1,0.5,1.4,0.8c0.4,0.2,0.8,0.5,1.2,0.7C76.6,67.3,75.7,68.4,74.9,69.3z"/>
	<path class="st0" d="M59.7,67.7c-0.9-0.2-1.7-0.6-2.3-0.9c0.4-0.7,0.7-1.3,1.1-2c0.5,0.3,1.1,0.6,1.8,0.8c-0.1,0.4-0.2,0.8-0.3,1.1
		C59.8,67,59.7,67.3,59.7,67.7z"/>
	<path class="st0" d="M65.5,67.7c-0.2-0.7-0.4-1.5-0.6-2.2c0.7-0.2,1.3-0.4,1.8-0.7c0.2,0.3,0.3,0.6,0.5,0.9c0.2,0.3,0.4,0.7,0.6,1
		C67.2,67.1,66.4,67.5,65.5,67.7z"/>
	<path class="st0" d="M91.9,73.9c-0.7-0.4-1.4-0.8-2.1-1.2c-0.4-0.2-0.8-0.5-1.2-0.7c1.1-1.9,2-4.1,2.9-6.9c0.5,0.1,1,0.3,1.5,0.4
		c0.7,0.2,1.4,0.4,2.1,0.6C94.3,69.2,93,71.7,91.9,73.9z"/>
	<path class="st0" d="M55.6,69.1c-0.9-0.5-1.8-1.2-2.6-2c0.3-0.3,0.6-0.5,0.9-0.8c0.3-0.3,0.6-0.6,0.9-0.9c0.1,0.1,0.2,0.3,0.4,0.4
		c0.5,0.4,1.1,0.9,1.7,1.2c-0.3,0.4-0.6,0.9-0.8,1.4C55.9,68.6,55.7,68.8,55.6,69.1z"/>
	<path class="st0" d="M69.6,69.1c-0.3-0.5-0.5-1-0.8-1.5c-0.1-0.2-0.3-0.4-0.4-0.6c0.2-0.1,0.4-0.2,0.6-0.4c0.2-0.1,0.3-0.2,0.4-0.3
		c0.4-0.3,0.7-0.6,1-0.9c0.4,0.3,0.7,0.6,1,0.9c0.2,0.3,0.5,0.6,0.8,0.8C71.4,67.9,70.5,68.6,69.6,69.1z"/>
	<path class="st0" d="M62.3,68.1c-0.7,0-1.5-0.1-2.3-0.3c0.1-0.6,0.3-1.2,0.5-1.7l0.1-0.5c0.7,0.2,1.3,0.3,1.9,0.3v2.2L62.3,68.1z"
		/>
	<path class="st0" d="M62.8,68.1c0-0.4,0-0.9,0-1.4c0-0.3,0-0.6,0-0.9c0.8,0,1.4-0.1,1.9-0.3c0.1,0.3,0.2,0.7,0.3,1.1
		c0.1,0.3,0.2,0.7,0.3,1c-0.3,0.1-0.6,0.2-1,0.2l-0.2,0C63.6,68.1,63.1,68.1,62.8,68.1z"/>
	<path class="st0" d="M95.4,75.9c-1.1-0.6-2.3-1.3-3.3-1.9l0.2-0.4c0.5-1.1,1.1-2.2,1.6-3.3c0.5-1.1,0.8-2.1,1.1-3.1
		c0-0.1,0.1-0.3,0.1-0.4c0.1-0.3,0.1-0.6,0.3-0.8c0.4,0.1,0.8,0.3,1.3,0.4c0.8,0.2,1.6,0.4,2.4,0.7C98.3,70.2,97.1,73.1,95.4,75.9z"
		/>
	<path class="st0" d="M77.6,71.9c-0.6-0.5-1.2-1.1-1.8-1.7c-0.2-0.2-0.4-0.4-0.6-0.6c1-1,1.9-2.1,2.6-3.4c0.4,0.2,0.8,0.5,1.3,0.7
		c0.5,0.3,1.1,0.6,1.7,0.9C79.8,69.4,78.6,70.7,77.6,71.9z"/>
	<path class="st0" d="M47.7,71.9c-0.1,0-0.3-0.3-0.7-0.8L46.8,71c-0.9-1.1-1.7-2.1-2.3-3.1c0.6-0.3,1.2-0.7,1.8-1
		c0.4-0.2,0.7-0.4,1.1-0.6c0.7,1.3,1.6,2.3,2.6,3.4c-0.4,0.4-0.9,0.8-1.4,1.3c-0.2,0.2-0.5,0.5-0.7,0.7C48,71.7,47.7,71.9,47.7,71.9
		z"/>
	<path class="st0" d="M58.9,70.5c-1.1-0.3-2.1-0.7-3-1.2L56,69c0.4-0.6,0.7-1.3,1.1-1.9c0.7,0.4,1.5,0.8,2.4,1
		c-0.1,0.4-0.3,0.9-0.4,1.4C59.1,69.9,59,70.2,58.9,70.5z"/>
	<path class="st0" d="M66.3,70.5c-0.1-0.3-0.2-0.6-0.3-1l0-0.2c-0.1-0.4-0.2-0.8-0.3-1.2c0.9-0.2,1.7-0.6,2.4-0.9
		c0.2,0.2,0.3,0.5,0.5,0.7c0.1,0.1,0.1,0.2,0.2,0.3c0.1,0.1,0.2,0.3,0.2,0.4c0.1,0.2,0.3,0.5,0.4,0.7C68.5,69.7,67.5,70.1,66.3,70.5
		z"/>
	<path class="st0" d="M99.2,78.1c-0.3-0.1-0.5-0.3-0.8-0.4l-0.1,0c-0.8-0.5-1.7-1-2.6-1.5c0.1-0.2,0.2-0.4,0.4-0.7
		c0-0.1,0.1-0.2,0.1-0.3c0.9-1.7,1.7-3.6,2.4-5.5c0.1-0.4,0.3-0.8,0.4-1.2c0.1-0.4,0.3-0.9,0.4-1.3c0.6,0.2,1.3,0.4,2,0.6
		c0.6,0.2,1.2,0.3,1.8,0.5C102.5,71.6,101.2,74.7,99.2,78.1z"/>
	<path class="st0" d="M53.9,72c-1.3-0.8-2.4-1.6-3.3-2.5c0.3-0.3,0.6-0.6,0.9-0.9c0.4-0.4,0.8-0.8,1.1-1.2l0.3,0.2
		c0.7,0.6,1.5,1.3,2.4,1.8c-0.3,0.5-0.6,1.1-0.9,1.6C54.3,71.4,54.1,71.7,53.9,72z"/>
	<path class="st0" d="M71.3,72c-0.1-0.1-0.2-0.3-0.3-0.4c0-0.1-0.1-0.1-0.1-0.2c-0.2-0.3-0.3-0.6-0.5-0.9c-0.2-0.4-0.4-0.7-0.6-1.1
		c0.1,0,0.2-0.1,0.3-0.2c1-0.6,1.8-1.2,2.3-1.8c0.6,0.5,1.1,1,1.6,1.5c0.2,0.2,0.4,0.4,0.5,0.5C73.8,70.4,72.7,71.2,71.3,72z"/>
	<path class="st0" d="M44.8,74.8c-1.4-1.4-2.7-3-3.8-4.9c0.8-0.4,1.5-0.8,2.2-1.3l1-0.6c0.9,1.6,2,2.9,3.2,4.2
		C46.5,73.1,45.7,73.9,44.8,74.8z"/>
	<path class="st0" d="M80.4,74.8c-0.7-0.6-1.3-1.3-1.9-1.9c-0.2-0.2-0.4-0.5-0.7-0.7c1.1-1.2,2.3-2.5,3.2-4.1
		c0.6,0.3,1.3,0.7,1.9,1.1c0.4,0.3,0.9,0.5,1.3,0.7C83.2,71.6,82,73.2,80.4,74.8z"/>
	<path class="st0" d="M62.5,71c-1.4,0-2.4-0.2-3.2-0.4c0.1-0.3,0.2-0.7,0.3-1c0.1-0.5,0.2-0.9,0.4-1.4c0.8,0.3,1.7,0.4,2.6,0.4V71z"
		/>
	<path class="st0" d="M62.8,68.6c0.9,0,1.7-0.2,2.4-0.3l0.2,0c0.1,0.4,0.2,0.8,0.3,1.2c0.1,0.4,0.2,0.7,0.3,1.1
		c-1.1,0.3-2.2,0.4-3.2,0.4V68.6z"/>
	<path class="st0" d="M58,73.7c-1.3-0.3-2.5-0.8-3.8-1.6c0.2-0.4,0.4-0.8,0.7-1.2c0.3-0.5,0.5-0.9,0.8-1.4c0.9,0.5,1.9,1,3.1,1.3
		l-0.3,0.9C58.4,72.5,58.2,73.1,58,73.7z"/>
	<path class="st0" d="M67.2,73.8c-0.1-0.3-0.2-0.6-0.3-1c0-0.1-0.1-0.3-0.1-0.4L66.7,72c-0.1-0.4-0.2-0.8-0.3-1.1
		c1.1-0.2,2.1-0.7,3.2-1.3c0.4,0.8,0.9,1.6,1.5,2.6C70,72.8,68.7,73.3,67.2,73.8z"/>
	<path class="st0" d="M52,75.3c-1.3-0.8-2.6-1.7-4.1-3.1c0.4-0.4,0.9-0.9,1.3-1.3c0.3-0.3,0.7-0.7,1-1c1,1,2.2,1.9,3.4,2.6
		c-0.3,0.6-0.7,1.2-1,1.8C52.4,74.6,52.2,74.9,52,75.3z"/>
	<path class="st0" d="M73.2,75.3c-0.3-0.6-0.7-1.3-1-1.9c-0.2-0.3-0.4-0.7-0.6-1c0.2-0.1,0.4-0.3,0.6-0.4c0.1,0,0.2-0.1,0.2-0.2
		c0.8-0.5,1.6-1.2,2.5-2c0,0,0,0,0,0c0.4,0.4,0.8,0.8,1.2,1.1c0.4,0.4,0.8,0.8,1.2,1.1C76.2,73.3,74.9,74.3,73.2,75.3z"/>
	<path class="st0" d="M41.7,77.9c-1.7-1.6-3.2-3.5-4.5-5.8c0.8-0.4,1.6-0.9,2.4-1.3l1.1-0.6c1.1,1.8,2.4,3.5,3.8,5
		C43.5,76,42.6,77,41.7,77.9z"/>
	<path class="st0" d="M83.5,77.9c-0.5-0.5-0.9-0.9-1.4-1.4c-0.5-0.5-1-0.9-1.4-1.4l0.5-0.5c0.5-0.6,1.1-1.2,1.6-1.8
		c0.7-0.9,1.3-1.7,1.8-2.7c0.7,0.4,1.5,0.9,2.3,1.3c0.4,0.2,0.8,0.5,1.2,0.7C86.7,74.4,85.2,76.3,83.5,77.9z"/>
	<path class="st0" d="M62.5,74.3c-1.5,0-2.9-0.2-4.1-0.5c0.1-0.4,0.3-0.9,0.4-1.4c0.1-0.5,0.2-1,0.4-1.4l0-0.1
		c0.9,0.2,1.9,0.4,3.2,0.4l0.2,0c0,0.5,0,1.2,0,1.8C62.5,73.6,62.5,74,62.5,74.3z"/>
	<path class="st0" d="M62.8,71.5c1.1,0,2.2-0.1,3.4-0.4c0,0,0,0.1,0.1,0.2c0,0,0,0.1,0,0.1l0.2,0.6c0.2,0.6,0.4,1.3,0.5,1.9
		c-1.3,0.4-2.7,0.5-4.1,0.5V71.5z"/>
	<path class="st0" d="M86.5,80.8c-0.5-0.5-1-1-1.5-1.4c-0.4-0.4-0.8-0.8-1.1-1.1c1.9-2,3.4-4,4.5-6c0.6,0.4,1.3,0.8,2,1.2
		c0.4,0.2,0.8,0.5,1.2,0.7C90.4,76.4,88.7,78.6,86.5,80.8z"/>
	<path class="st0" d="M50,78.8c-1.5-0.9-3-1.9-4.4-3.2l-0.2-0.1c-0.1-0.1-0.4-0.3-0.4-0.4c0,0,0.4-0.4,0.5-0.5l2.1-2.1
		c1.4,1.3,2.7,2.4,4.1,3.2c-0.4,0.7-0.8,1.4-1.2,2.1C50.4,78.1,50.2,78.5,50,78.8z"/>
	<path class="st0" d="M75.2,78.8c-0.3-0.5-0.6-1-0.8-1.5c-0.3-0.5-0.7-1.1-0.9-1.7c1.4-0.7,2.8-1.8,4.2-3.1c0.2,0.2,0.4,0.4,0.7,0.7
		c0.6,0.6,1.3,1.3,1.9,1.9C78.7,76.4,77.1,77.8,75.2,78.8z"/>
	<path class="st0" d="M57.1,77.4c-1.7-0.5-3.3-1.1-4.8-2c0.2-0.5,0.5-0.9,0.8-1.4c0.3-0.5,0.6-1,0.9-1.5c1.3,0.7,2.6,1.3,4,1.7
		c-0.2,0.4-0.3,0.9-0.4,1.4C57.4,76.2,57.2,76.8,57.1,77.4z"/>
	<path class="st0" d="M68.1,77.4c-0.1-0.5-0.3-1.1-0.4-1.6c-0.2-0.5-0.3-1.1-0.4-1.6c1.4-0.4,2.8-0.9,4-1.6c0.5,0.8,1.1,1.8,1.7,2.9
		C71.7,76.1,70.1,76.9,68.1,77.4z"/>
	<path class="st0" d="M62.5,78.1c-1.7,0-3.2-0.2-5.1-0.6c0.2-0.9,0.5-2.1,0.9-3.2c1.5,0.4,2.8,0.6,4.2,0.6V78.1z"/>
	<path class="st0" d="M62.8,74.8c1.5,0,2.9-0.2,4.2-0.6c0.1,0.4,0.3,0.9,0.4,1.4c0.2,0.6,0.3,1.2,0.5,1.8c-0.3,0.1-0.8,0.2-1.1,0.3
		c-1.1,0.2-2.5,0.4-4,0.4V74.8z"/>
	<path class="st0" d="M89.4,83.8c-0.1-0.1-0.4-0.4-0.6-0.5l-0.1-0.1c-0.5-0.5-0.9-1-1.4-1.4l-0.6-0.6c2.3-2.4,4-4.5,5.2-6.8
		c0.6,0.4,1.2,0.7,1.7,1.1c0.5,0.3,0.9,0.6,1.4,0.8c-0.8,1.5-1.8,2.8-2.7,4c-0.7,1-1.7,2.1-2.7,3.2c0,0-0.1,0.1-0.2,0.2
		C89.6,83.7,89.5,83.8,89.4,83.8z"/>
	<path class="st0" d="M47.7,82.7c-2.4-1.4-4.3-2.9-5.8-4.5c0.5-0.5,0.9-0.9,1.4-1.4c0.5-0.5,1-1,1.4-1.4c1.6,1.6,3.2,2.9,5,3.9
		c-0.4,0.7-0.7,1.3-1.1,1.9C48.3,81.6,48,82.1,47.7,82.7z"/>
	<path class="st0" d="M77.5,82.7c-0.4-0.6-0.8-1.3-1.1-1.9c-0.3-0.5-0.6-1-0.9-1.5c2-1.2,3.6-2.5,5-3.9c0.5,0.5,0.9,0.9,1.4,1.4
		c0.5,0.5,0.9,0.9,1.4,1.4C81.5,80.1,79.3,81.6,77.5,82.7z"/>
	<path class="st0" d="M56,81.3C54,80.8,52.2,80,50.3,79c0.6-1,1.2-2.1,1.9-3.2c1.7,1,3.2,1.6,4.9,2c-0.2,0.6-0.3,1.2-0.5,1.8
		C56.3,80.2,56.2,80.7,56,81.3z"/>
	<path class="st0" d="M69.2,81.3c-0.1-0.5-0.3-1.1-0.4-1.6c-0.2-0.6-0.3-1.3-0.5-1.9c1.9-0.5,3.4-1.2,4.9-2c0.1,0.1,0.2,0.3,0.3,0.5
		c0,0.1,0.1,0.2,0.1,0.2c0.2,0.3,0.3,0.5,0.5,0.8c0.3,0.5,0.6,1,0.9,1.6C73,80.1,71.1,80.8,69.2,81.3z"/>
	<path class="st0" d="M92.5,86.9c-0.5-0.5-0.9-0.9-1.4-1.4c-0.5-0.5-0.9-0.9-1.4-1.4c1.8-1.9,3.3-3.7,4.5-5.5c0.2-0.3,0.4-0.7,0.6-1
		c0.2-0.4,0.5-0.8,0.7-1.2l0.7,0.5c0.9,0.5,1.8,1,2.7,1.5C97.3,81.4,95.2,84.2,92.5,86.9z"/>
	<path class="st0" d="M62.5,82.2c-2.2,0-4.3-0.3-6.2-0.8c0.2-0.6,0.3-1.2,0.5-1.8c0.2-0.6,0.3-1.1,0.4-1.7c1.8,0.5,3.5,0.7,5.2,0.7
		V82.2z"/>
	<path class="st0" d="M62.8,78.6c1.9,0,3.6-0.3,5.2-0.7c0.1,0,0.1,0.2,0.1,0.3c0,0,0,0.1,0,0.1c0.2,0.7,0.4,1.4,0.6,2.1l0.3,0.9
		c-1.7,0.5-3.7,0.8-6.2,0.8V78.6z"/>
	<path class="st0" d="M45.7,86.2c-2.2-1.2-4.3-2.8-6.7-5.1c0.6-0.7,1.3-1.3,1.9-2c0.2-0.2,0.5-0.4,0.7-0.7c2.1,1.9,3.9,3.4,5.9,4.5
		C47,84,46.4,85,45.7,86.2z"/>
	<path class="st0" d="M79.6,86.2c-0.1-0.1-0.1-0.1-0.2-0.2c0,0,0-0.1-0.1-0.1c-0.2-0.3-0.4-0.6-0.5-0.9c-0.4-0.6-0.8-1.3-1.1-1.9
		c2-1.1,4-2.6,5.9-4.5c0.2,0.2,0.4,0.4,0.7,0.7c0.6,0.6,1.3,1.3,1.9,2C84,83.2,81.8,84.9,79.6,86.2z"/>
	<path class="st0" d="M95.6,89.8c-1.1-0.9-2-1.8-2.8-2.7c0.3-0.3,0.7-0.7,1.1-1.1c0.3-0.3,0.5-0.5,0.8-0.8c1.6-1.8,3.1-4,4.8-6.7
		c0.9,0.5,1.8,1.1,2.7,1.6l0.6,0.4c0,0.1-0.1,0.3-0.2,0.4c0,0.1-0.1,0.1-0.1,0.2C100.4,84.4,98.1,87.3,95.6,89.8z"/>
	<path class="st0" d="M54.9,85.6c-2.2-0.6-4.3-1.4-6.8-2.8c0.2-0.3,0.4-0.6,0.5-0.9c0.5-0.9,1-1.7,1.5-2.6c1.8,1.1,3.7,1.9,5.8,2.5
		c-0.2,0.6-0.4,1.3-0.5,1.9C55.2,84.3,55,85,54.9,85.6z"/>
	<path class="st0" d="M70.3,85.5c-0.3-1.2-0.7-2.5-1-3.7c2-0.5,3.8-1.3,5.8-2.4l0.2,0.4c0.6,1,1.2,2,1.8,3.1
		c-2.4,1.3-4.6,2.2-6.8,2.8L70.3,85.5z"/>
	<path class="st0" d="M43.6,89.8c-2.7-1.6-5.2-3.5-7.6-5.8c0.5-0.5,1-1,1.5-1.4c0.4-0.4,0.8-0.8,1.1-1.1c2.2,2.1,4.4,3.8,6.8,5.2
		C44.8,87.7,44.2,88.7,43.6,89.8z"/>
	<path class="st0" d="M81.6,89.8c-0.3-0.5-0.5-1-0.8-1.4c-0.3-0.6-0.7-1.2-1-1.8c2.6-1.5,4.9-3.2,6.8-5.2l0.5,0.5
		c0.5,0.5,1,1,1.5,1.5l0.1,0.1c0.2,0.1,0.5,0.5,0.5,0.5c0,0-0.3,0.3-0.8,0.7l-0.1,0.1C86.4,86.7,84,88.5,81.6,89.8z"/>
	<path class="st0" d="M62.5,86.7c-2.5,0-4.8-0.3-7.3-0.9c0.3-1.1,0.6-2.4,1-3.9c1.8,0.5,3.9,0.8,6.3,0.8V86.7z"/>
	<path class="st0" d="M62.8,86.7v-4c2.3-0.1,4.4-0.3,6.1-0.8c0,0,0.1,0,0.1,0c0.1,0,0.1,0.1,0.2,0.3l0,0.1c0.1,0.5,0.3,1,0.4,1.5
		c0.2,0.7,0.4,1.4,0.5,2C67.5,86.4,65.2,86.7,62.8,86.7L62.8,86.7z"/>
	<path class="st0" d="M53.8,89.6c-2.8-0.7-5.4-1.8-7.8-3.2c0.3-0.5,0.6-1.1,1-1.6c0.3-0.5,0.6-1,0.9-1.6c2.4,1.4,4.6,2.3,6.9,2.9
		c-0.2,0.7-0.4,1.4-0.6,2.2C54,88.7,53.9,89.1,53.8,89.6z"/>
	<path class="st0" d="M71.4,89.6c-0.1-0.5-0.3-1.1-0.4-1.6c-0.2-0.6-0.3-1.3-0.5-1.9c2.7-0.7,5.2-1.9,7-2.9c0.3,0.5,0.6,1.1,0.9,1.6
		c0.3,0.5,0.6,1,0.9,1.5C76.9,87.8,74.3,88.9,71.4,89.6z"/>
	<path class="st0" d="M83.8,93.6c-0.1-0.2-0.2-0.4-0.4-0.6c0-0.1-0.1-0.2-0.1-0.3c-0.2-0.3-0.3-0.5-0.5-0.8c-0.3-0.6-0.7-1.2-1-1.7
		c3.1-1.9,5.6-3.8,7.7-5.9c0.5,0.5,1,1.1,1.6,1.6c0.3,0.3,0.6,0.6,0.9,0.9c0.1,0.1,0.1,0.1,0.2,0.2c0.1,0,0.1,0.1,0.1,0.1
		c0,0-0.3,0.3-0.4,0.4C90,89.3,87.1,91.7,83.8,93.6z"/>
	<path class="st0" d="M62.5,90.8c-3,0-5.8-0.4-8.4-1.1c0.1-0.4,0.2-0.8,0.3-1.1c0.2-0.8,0.4-1.6,0.7-2.4c2.4,0.7,4.8,1,7.4,1V90.8z"
		/>
	<path class="st0" d="M62.8,90.8c0-0.7,0-1.5,0-2.3c0-0.5,0-0.9,0-1.4c2.6,0,5.1-0.3,7.5-1c0.2,0.9,0.5,1.9,0.7,2.8l0.2,0.7
		C68.6,90.4,65.8,90.8,62.8,90.8z"/>
	<path class="st0" d="M52.7,93.6c-3-0.8-5.8-1.9-8.8-3.6c0.5-0.9,1.1-1.9,1.8-3.2c2.4,1.4,5.1,2.5,7.9,3.3l-0.1,0.3
		C53.3,91.5,53,92.5,52.7,93.6z"/>
	<path class="st0" d="M72.5,93.6c-0.3-1.2-0.6-2.3-0.9-3.5c2.9-0.8,5.6-1.9,8-3.3c0.3,0.5,0.6,1.1,0.9,1.7c0.3,0.5,0.6,1,0.9,1.5
		C78.5,91.6,75.6,92.8,72.5,93.6z"/>
	<path class="st0" d="M85.9,97.3c-0.3-0.6-0.6-1.1-0.9-1.6c-0.3-0.6-0.6-1.1-1-1.7c3.2-1.8,6.1-4,8.6-6.6c0.2,0.3,0.4,0.5,0.7,0.7
		c0.7,0.7,1.4,1.3,2,2C92.1,93.2,89.1,95.5,85.9,97.3z"/>
	<path class="st0" d="M62.5,94.9c-3.1,0-6.1-0.4-9.4-1.2c0.2-0.7,0.3-1.4,0.5-2.1c0.1-0.5,0.3-1,0.4-1.4c2.5,0.6,5.4,1,8.5,1.1V94.9
		z"/>
	<path class="st0" d="M62.8,94.9v-3.7l0.3,0c3.2,0,6-0.6,8.3-1.1c0.1,0.6,0.3,1.2,0.4,1.8c0.2,0.6,0.3,1.2,0.5,1.7
		c-0.2,0.1-0.5,0.1-0.8,0.2c-0.1,0-0.2,0-0.3,0.1c-2.9,0.7-5.6,1-8.3,1L62.8,94.9z"/>
	<path class="st0" d="M51.6,97.8c-3.5-0.9-6.7-2.3-9.9-4.1c0.3-0.5,0.5-0.9,0.8-1.4c0.4-0.7,0.8-1.3,1.2-2c3.1,1.8,6,2.9,8.9,3.7
		c-0.2,0.8-0.4,1.6-0.6,2.3C51.8,96.8,51.7,97.3,51.6,97.8z"/>
	<path class="st0" d="M73.6,97.8c-0.2-0.6-0.3-1.2-0.5-1.8c-0.2-0.7-0.4-1.3-0.5-2c3.2-0.9,6.2-2.2,8.9-3.7c0.3,0.5,0.6,1,0.9,1.5
		c0.4,0.6,0.7,1.3,1.1,1.9C80.3,95.6,77.1,96.9,73.6,97.8z"/>
	<path class="st0" d="M88.2,101.3c-0.4-0.7-0.7-1.3-1.1-2c-0.3-0.6-0.6-1.1-1-1.7c0.1-0.1,0.6-0.4,0.6-0.4c3-1.8,6-4.1,8.9-6.9
		c0.4,0.5,0.9,1,1.4,1.5c0.5,0.5,1,1,1.5,1.5C95.7,96.4,92.2,99,88.2,101.3z"/>
	<path class="st0" d="M90.2,104.5c-0.1-0.1-0.2-0.3-0.3-0.4c0-0.1-0.1-0.1-0.1-0.2c-0.2-0.3-0.3-0.6-0.5-0.9
		c-0.2-0.4-0.5-0.8-0.7-1.2c0.2-0.2,0.6-0.4,0.9-0.6c0.1-0.1,0.3-0.2,0.4-0.2c3.1-2,6.2-4.4,9.1-7.2c0.3,0.3,0.8,0.8,1.2,1.2
		c0.2,0.2,0.4,0.4,0.5,0.5c0,0,0.1,0.1,0.2,0.2c0.1,0.1,0.3,0.3,0.3,0.4c0,0.2-0.6,0.7-0.9,0.9c-0.1,0.1-0.2,0.2-0.3,0.2
		C97.5,99.6,94.1,102.2,90.2,104.5z"/>
	<path class="st0" d="M62.5,99.3c-3.6,0-6.9-0.4-10.6-1.4l0.3-1.1c0.2-0.9,0.5-1.8,0.7-2.7c3,0.8,6.1,1.2,9.6,1.3V99.3z"/>
	<path class="st0" d="M50.5,102c-3.9-1-7.5-2.5-10.9-4.5c0.7-1.3,1.3-2.4,1.9-3.3c3.2,1.9,6.5,3.2,9.9,4.2c-0.1,0.5-0.3,1-0.4,1.5
		C50.9,100.5,50.7,101.2,50.5,102z"/>
	<path class="st0" d="M62.8,95.4c2.3,0,4.8-0.3,7.2-0.7l0.2,0c0.7-0.1,1.4-0.3,2-0.5c0,0,0.1,0,0.1,0c0.1,0,0.1,0,0.1,0.2
		c0,0.1,0,0.1,0,0.2l0.2,0.6c0.3,0.9,0.5,2,0.7,2.8c-3.6,0.9-7,1.4-10.6,1.4V95.4z"/>
	<path class="st0" d="M74.8,102c-0.2-0.7-0.4-1.4-0.6-2.1c-0.1-0.5-0.3-1-0.4-1.5c3.5-0.9,6.8-2.3,10-4.1c0.6,1.1,1.3,2.3,1.9,3.3
		C82.4,99.3,78.8,100.8,74.8,102z"/>
	<path class="st0" d="M49.3,106.5c-4.2-1.1-8.2-2.8-12-5c0.7-1.2,1.4-2.4,2.1-3.6c3.6,2,7.2,3.5,11,4.6c-0.2,0.7-0.4,1.5-0.6,2.3
		C49.6,105.3,49.4,105.9,49.3,106.5z"/>
	<path class="st0" d="M76,106.5c-0.4-1.4-0.8-2.7-1.1-4.1c3.9-1.1,7.5-2.5,11-4.6c0.3,0.6,0.7,1.3,1.1,2c0.3,0.6,0.6,1.1,1,1.6
		C84.4,103.6,80.3,105.3,76,106.5z"/>
	<path class="st0" d="M62.4,103.5c-3.8,0-7.5-0.5-11.6-1.5c0.1-0.5,0.3-1,0.4-1.5c0.2-0.7,0.3-1.4,0.6-2.1l0-0.1
		c3.5,0.9,7,1.4,10.7,1.4v3.8L62.4,103.5z"/>
	<path class="st0" d="M62.8,99.8c3.8,0,7.3-0.5,10.7-1.4c0,0,0,0,0.1,0c0.3,1.2,0.6,2.4,0.9,3.6c-3.8,1-7.6,1.5-11.7,1.5V99.8z"/>
	<path class="st0" d="M48.3,110c-4.5-1.2-8.7-3-12.9-5.3c0.2-0.3,0.4-0.7,0.6-1.1c0.3-0.6,0.6-1.2,1-1.7l0-0.1
		c3.9,2.2,7.8,3.9,12.1,5.1C48.9,107.9,48.6,109,48.3,110z"/>
	<path class="st0" d="M76.9,110c-0.2-0.5-0.3-1.1-0.4-1.6c-0.1-0.5-0.3-1-0.4-1.5c4.5-1.3,8.6-3,12.1-5.1c0.3,0.5,1.6,2.8,1.6,2.8
		c-0.2,0.1-0.4,0.3-0.7,0.4C85.5,107.1,81.3,108.8,76.9,110z"/>
	<path class="st0" d="M62.5,108.2c-4.3,0-8.4-0.5-12.9-1.7l0-0.1c0.3-1.3,0.7-2.7,1.1-4c4.1,1.1,7.8,1.6,11.8,1.6V108.2z"/>
	<path class="st0" d="M62.8,104c4.1,0,7.9-0.5,11.8-1.5c0,0.1,0.1,0.2,0.1,0.4l0,0.1l0.1,0.4c0.3,1,0.6,2.1,0.8,3.2
		c-4.5,1.1-8.6,1.7-12.9,1.7V104z"/>
	<path class="st0" d="M77.9,113.6c-0.3-1-0.5-2.1-0.8-3c4.9-1.4,9.3-3.2,13-5.4l0.2,0.3c0.6,0.9,1.1,1.9,1.7,2.9
		c-4.5,2.6-9,4.4-13.9,5.8L77.9,113.6z"/>
	<path class="st0" d="M62.5,111.9c-5,0-9.5-0.6-13.8-1.8l0.2-0.8c0.2-0.7,0.4-1.5,0.6-2.2c4.3,1.1,8.6,1.6,13,1.6V111.9z"/>
	<path class="st0" d="M62.8,111.9c0-0.6,0-1.3,0-2c0-0.4,0-0.8,0-1.2c4.5,0,8.8-0.6,13-1.7c0,0.1,0.1,0.2,0.1,0.3
		c0.2,0.5,0.3,1.1,0.4,1.6c0.1,0.4,0.2,0.8,0.3,1.2C72,111.3,67.4,111.9,62.8,111.9z"/>
	<path class="st0" d="M62.4,116.1c-5,0-9.7-0.6-14.8-1.9c0.1-0.4,0.2-0.8,0.3-1.1c0.1-0.2,0.1-0.4,0.2-0.6c0.1-0.2,0.1-0.5,0.2-0.7
		c0.1-0.4,0.2-0.8,0.3-1.1c4.6,1.2,9.1,1.8,14,1.8v3.7L62.4,116.1z"/>
	<path class="st0" d="M62.8,116.1v-3.7l0.2,0c4.6,0,9-0.6,13.8-1.8c0,0.1,0.1,0.2,0.1,0.3l0,0.1c0.1,0.4,0.2,0.8,0.3,1.2
		c0.2,0.7,0.4,1.4,0.5,2C72.5,115.5,67.8,116.1,62.8,116.1L62.8,116.1z"/>
	<path class="st0" d="M62.5,120.6c-5.5,0-10.8-0.7-16.1-2.1c0.2-0.6,0.3-1.1,0.4-1.7c0.2-0.7,0.3-1.4,0.6-2.1l0-0.1
		c5,1.3,9.9,2,15.1,2V120.6z"/>
	<path class="st0" d="M62.8,116.6c5.2,0,10.1-0.7,15.1-2c0,0,0,0,0.1,0c0.1,0.6,0.3,1.2,0.4,1.8c0.2,0.7,0.4,1.3,0.5,2
		c-5.3,1.4-10.6,2.1-16.1,2.1V116.6z"/>
	<path class="st0" d="M100.7,57c0-0.3,0-0.7,0-1c0-0.8,0-1.5-0.1-2.2c0,0,0.5,0,0.5,0l0.2,0v-3.3h-1.2l-0.1-0.6
		c-0.2-0.8-0.3-1.6-0.6-2.4c0.9-0.3,1.8-0.5,2.6-0.7c0.4-0.1,0.8-0.2,1.3-0.3c0.3,1.2,0.6,2.5,0.8,4h-2.2c-0.1,0.1-0.1,0.3-0.1,0.4
		c0,0.1,0,0.2,0,0.3c0.7,0.2,1.4,0.4,1.7,1c0.1,0.2,0.2,0.4,0.2,0.7l0.1,0.2c0.1,0.4,0.2,0.8,0.3,1.1l0.2,0.7c0.2,0.6,0.3,1.2,0.3,2
		H100.7z"/>
	<path class="st0" d="M16.2,57.1c0-3,0.3-6,0.9-9l0.1-0.3c0.2-0.8,0.3-1.7,0.6-2.4l0-0.1c1.2,0.3,2.4,0.6,3.6,1l0.2,0.1
		c-0.4,1.4-0.7,3-0.9,4.7l-2.9,0c-0.1,0.1-0.1,0.3-0.1,0.4c0,0.1,0,0.2,0,0.3c0.2,0.1,0.5,0.1,0.7,0.2c0.4,0,0.7,0.1,0.9,0.3
		c0.2,0.3,0.2,0.9,0.2,1.6c0,0.3,0,0.6,0,0.8c0,0.8,0,1.6,0,2.3l0,0.2H16.2z"/>
	<path class="st0" d="M25,51.1c-0.5-0.1-1-0.1-1.7-0.1c-0.3,0-0.7,0-1,0c-0.4,0-0.7,0-1.1,0c0,0-0.2,0-0.3,0
		c0.1-0.8,0.3-1.6,0.4-2.3l0-0.1c0.1-0.7,0.3-1.4,0.5-2.1l0-0.1c1.3,0.3,2.5,0.7,3.9,1.1c-0.1,0.3-0.2,0.7-0.3,1.1
		C25.4,49.4,25.2,50.2,25,51.1z"/>
	<path class="st0" d="M26.2,57.1c0.1-0.1,0.2-0.1,0.3-0.2c0.1-0.1,0.2-0.1,0.3-0.2c0.9-0.7,1.2-1.7,1.1-2.9c-0.1-1.3-1-2.2-2.5-2.6
		c0.2-1.2,0.5-2.4,0.8-3.6c0.4,0.1,0.9,0.2,1.3,0.3c0.8,0.2,1.6,0.4,2.4,0.7c-0.8,3-1.1,5.7-1.1,8.5H26.2z"/>
	<path class="st0" d="M8.8,64.2H5.6v-0.6l0.2,0c0.5,0,1.2-0.1,1.4-0.5c0.3-0.3,0.2-1.3,0.2-2.1c0-0.2,0-0.4,0-0.5c0-1.5,0-3,0-4.5
		l0-1c0-0.2,0-0.4,0-0.6c0-0.8,0.1-1.6-0.2-2c-0.3-0.5-1-0.6-1.6-0.7c0.1-0.2,0-0.4,0-0.6c0.2,0,0.5,0,0.7,0c0.7,0,1.4,0,2.1,0
		c0.7,0,1.5,0,2.2,0c0.6,0,1.1,0,1.6,0c1.4,0.1,2.5,0.7,2.9,1.6c0.5,1,0.2,2.4-0.4,3.1c-0.6,0.7-1.5,0.9-2.3,1.2l-0.1,0l0,0.1
		c0.1,0.1,0.2,0.1,0.3,0.1l0.1,0c2.5,0.5,3.6,1.7,3.4,3.7c-0.1,0.9-0.6,1.5-0.8,1.8c-0.7,0.7-1.9,1.2-3.1,1.3c-0.6,0-1.2,0-1.6,0
		L8.8,64.2z M10.6,57.6c-0.4,0-0.8,0-1.3,0.1l0,2.6c0,0.2,0,0.4,0,0.6c0,0.7-0.1,1.5,0.1,1.9c0.2,0.5,0.8,0.7,1.7,0.7
		c0.1,0,0.3,0,0.4,0c0.7-0.1,1.4-0.4,1.8-0.9C13.8,62,14,61,13.9,60c-0.2-1.5-1.3-2.4-3.1-2.4C10.7,57.6,10.6,57.6,10.6,57.6z
		 M10.3,51.8c-0.3,0-0.7,0-1.1,0.1c0,1.1,0,2.3,0,3.4c0,0.6,0,1.2,0,1.7l0,0.1l0.8,0c0.9,0,1.6,0,2.2-0.4c1-0.6,1.3-2.7,0.7-3.8
		C12.5,52.1,11.7,51.8,10.3,51.8z"/>
	<path class="st0" d="M21.4,57.1c0-1.5,0-3.2,0-4.7l0-0.5l0.2,0c0.3,0,0.6,0,0.9,0c0.9,0,1.9,0.1,2.4,0.7c-0.1,0.8-0.2,2-0.3,3
		c0,0.1,0,0.3,0,0.4c0,0.2,0,0.5,0,0.6c-0.1,0.1-0.2,0.2-0.4,0.3c-0.1,0-0.2,0.1-0.3,0.2H21.4z"/>
	<path class="st0" d="M24.9,56.3c0-1.3,0.1-2.4,0.3-3.5c0,0.1,0,0.1,0,0.1C25.7,53.9,25.6,55.7,24.9,56.3z"/>
	<path class="st0" d="M17.8,69.2c-1.1-4.3-1.6-8-1.5-11.8h3.1c0,0.5,0,1.1,0,1.6c0,0.4,0,0.9,0,1.3c0,0.2,0,0.4,0,0.7
		c0,0.8,0.1,1.7-0.2,2.1c-0.2,0.2-0.6,0.3-0.9,0.3c-0.2,0-0.3,0-0.5,0.1c-0.1,0.1-0.1,0.3-0.1,0.4c0,0.1,0,0.2,0,0.3l0,0.1h3.2
		c0.1,1,0.3,2,0.5,3c0.1,0.3,0.2,0.6,0.2,1c-0.7,0.2-1.5,0.4-2.3,0.6C18.8,68.9,18.3,69,17.8,69.2z"/>
	<path class="st0" d="M29.2,63.1c-0.8-0.4-1.3-1.2-1.8-1.9c-0.1-0.2-0.3-0.4-0.4-0.6c-0.3-0.3-0.5-0.7-0.8-1
		c-0.3-0.4-0.5-0.7-0.8-1.1l-0.1-0.1c-0.2-0.2-0.3-0.4-0.3-0.6c0,0,0.1-0.1,0.2-0.1c0,0,0.1,0,0.1,0c0.1,0,0.1,0,0.2-0.1
		c0.1,0,0.2-0.1,0.3-0.1c0.2,0,0.4,0,0.7,0c0.3,0,0.6,0,0.9,0c0.3,0,0.6,0,0.9,0c0.2,0,0.3,0,0.5,0C28.7,59.4,28.9,61.3,29.2,63.1z"
		/>
	<path class="st0" d="M30.4,63.4c-0.3,0-0.6,0-0.9-0.1c-0.3-1.7-0.5-3.6-0.5-5.8l3.8,0l0,0.2c0,0.7,0,1.4,0.1,2.2c0,0.1,0,0.2,0,0.3
		c0,0.1,0.1,0.3,0,0.4c0,0.2-0.1,0.4-0.2,0.7c-0.1,0.1-0.1,0.2-0.2,0.3c-0.3,0.7-0.5,1.3-1.2,1.6C31.1,63.3,30.8,63.4,30.4,63.4
		C30.4,63.4,30.4,63.4,30.4,63.4z"/>
	<path class="st0" d="M21.9,68c-0.3-1.1-0.6-2.3-0.8-3.8h2.1c0.1-0.1,0.1-0.3,0.1-0.4c0-0.1,0-0.2,0-0.3l0,0l0,0c-0.1,0-0.3,0-0.4,0
		c-0.5,0-1.1-0.1-1.2-0.4c-0.2-0.3-0.1-1-0.1-1.6c0-0.2,0-0.4,0-0.6c0-0.5,0-1,0-1.4c0-0.4,0-0.7,0-1c0,0,0.1,0,0.1,0
		c0,0,0.1,0,0.1,0c0.1,0,0.2,0,0.4,0c0.1,0,0.3,0,0.4,0c0.1,0,0.2,0,0.3,0c0.1,0,0.3,0.2,0.4,0.4c0.1,0.1,0.1,0.1,0.1,0.2l0.3,0.4
		c0.2,0.3,0.5,0.6,0.7,1c0.1,0.1,0.1,0.2,0.2,0.2c0.1,0.2,0.3,0.3,0.3,0.4c0,0.1,0,0.3,0,0.5c0,0.1,0,0.2,0,0.4c0.2,2,0.8,4.3,1,5.2
		c-0.6,0.2-1.2,0.3-1.8,0.5C23.3,67.7,22.6,67.9,21.9,68z"/>
	<path class="st0" d="M26.1,66.8c-0.4-1.7-0.8-3.4-0.9-5.2c0.5,0.7,1,1.4,1.4,2.1l0.3,0.5l2.5,0c0,0.3,0.1,0.7,0.2,1
		c0.1,0.3,0.1,0.5,0.2,0.8c-0.7,0.2-1.4,0.4-2.1,0.5c-0.5,0.1-1,0.3-1.6,0.4L26.1,66.8z"/>
	<path class="st0" d="M30.1,65.8c0-0.2-0.1-0.4-0.2-0.6c-0.1-0.3-0.2-0.7-0.2-1l0.1,0c0.5,0,1.1,0,1.6,0c0.5,0,1,0,1.6,0
		c0.2,0,0.4,0,0.7,0l0,0.1c0.1,0.2,0.1,0.5,0.2,0.7c-0.5,0.1-1,0.2-1.5,0.4C31.6,65.5,30.8,65.7,30.1,65.8z"/>
	<path class="st0" d="M33.5,74c-0.2-0.2-0.3-0.4-0.4-0.6L33,73.1c-1.2-2.3-2.2-4.7-2.8-7c0.7-0.2,1.4-0.4,2.1-0.6
		c0.5-0.1,0.9-0.2,1.4-0.4c0,0,0.1,0,0.1,0c0.1,0,0.1,0.1,0.2,0.3l0,0.1c0.6,2.2,1.7,4.7,2.7,6.6c-0.5,0.3-1,0.6-1.5,0.8
		C34.7,73.3,34.1,73.6,33.5,74z"/>
	<path class="st0" d="M29.8,76c-1.7-3.1-2.9-5.9-3.6-8.9c1.2-0.3,2.4-0.6,3.6-1c0.8,2.9,2,5.6,3.3,8c-0.2,0.1-0.4,0.2-0.6,0.3
		c-0.1,0-0.1,0.1-0.2,0.1c-0.2,0.1-0.4,0.3-0.7,0.4C31.1,75.4,30.5,75.7,29.8,76z"/>
	<path class="st0" d="M26.1,78.2c-1.8-3.3-3.2-6.5-4.1-9.9c0.9-0.3,1.9-0.5,2.9-0.8l0.5-0.1c0.1,0,0.1,0,0.2-0.1
		c0.1,0,0.2-0.1,0.3-0.1c0.1,0,0.1,0,0.1,0.1c0.1,0.2,0.1,0.4,0.2,0.6c0,0.1,0.1,0.3,0.1,0.4c0.9,2.8,2.1,5.8,3.4,7.8
		c-0.2,0.1-0.4,0.2-0.6,0.3c-0.1,0-0.2,0.1-0.3,0.1l-0.3,0.2C27.6,77.3,26.9,77.8,26.1,78.2z"/>
	<path class="st0" d="M22.4,80.4c-0.1-0.1-0.2-0.3-0.3-0.4c0-0.1-0.1-0.1-0.1-0.2c-1.8-3.3-3.3-6.8-4.2-10.4
		c0.8-0.2,1.5-0.4,2.3-0.6c0.5-0.1,1-0.3,1.6-0.4c0,0,0.1,0.1,0.1,0.2c0.1,0.3,0.2,0.6,0.2,0.8c0.2,0.5,0.3,1.1,0.5,1.6
		c0.8,2.4,1.9,4.8,3.3,7.3c-0.2,0.1-0.5,0.3-0.7,0.4l-0.1,0c-0.3,0.2-0.7,0.4-1,0.6C23.5,79.8,22.9,80.1,22.4,80.4z"/>
	<path class="st0" d="M38.8,81c-2.1-2-3.8-4.3-5.2-6.8c0.8-0.4,1.6-0.9,2.3-1.3l0.9-0.5c1.2,2.1,2.8,4.1,4.6,6c-0.6,0.6-1.3,1.3-2,2
		C39.2,80.5,39,80.7,38.8,81z"/>
	<path class="st0" d="M35.9,83.9c-0.1,0-0.2-0.2-0.3-0.3c0,0-0.1-0.1-0.1-0.1c-2.4-2.5-4.1-4.9-5.5-7.3c0.5-0.3,1.1-0.6,1.6-0.9
		c0.6-0.3,1.1-0.7,1.7-1c0.1,0.1,0.1,0.2,0.2,0.3c0,0,0,0.1,0.1,0.1c1.4,2.4,3.1,4.5,5,6.4C37.7,82.1,36.8,83,35.9,83.9z"/>
	<path class="st0" d="M32.8,87c-0.2-0.1-0.3-0.2-0.4-0.4c-2.4-2.5-4.5-5.3-6.1-8.2c0.6-0.3,1.2-0.7,1.8-1c0.6-0.3,1.1-0.7,1.7-1
		c0.2,0.2,0.3,0.5,0.4,0.7c0.1,0.1,0.1,0.2,0.2,0.3c1.3,2.1,3,4.2,5.3,6.7c-0.5,0.5-0.9,0.9-1.4,1.4C33.7,86,33.3,86.5,32.8,87z"/>
	<path class="st0" d="M41.5,93.7c-3.1-1.8-5.9-3.9-8.5-6.6c0.7-0.7,1.4-1.4,2.1-2.1c0.2-0.2,0.5-0.5,0.7-0.7
		c2.7,2.5,5.1,4.4,7.7,5.9C42.7,91.6,42.1,92.7,41.5,93.7z"/>
	<path class="st0" d="M39.3,97.4c-1.8-1-3.5-2.2-5-3.3c-1.4-1.1-3-2.4-4.4-3.9c0.7-0.7,1.4-1.4,2-2c0.2-0.2,0.5-0.5,0.7-0.7
		c2.9,2.7,5.7,4.9,8.6,6.6c-0.4,0.7-0.8,1.5-1.3,2.2C39.8,96.6,39.6,97,39.3,97.4z"/>
	<path class="st0" d="M37,101.4c-0.2,0-0.4-0.2-0.5-0.3c-0.1,0-0.1-0.1-0.2-0.1c-3.7-2.3-7-4.8-9.7-7.6c0.7-0.7,1.5-1.5,2.3-2.2
		c0.3-0.3,0.5-0.5,0.8-0.8c3,2.9,6.1,5.3,9.5,7.3C38.4,99.1,37.7,100.3,37,101.4z"/>
	<path class="st0" d="M47.3,114.2c-5-1.3-9.7-3.3-14-5.8c0.3-0.5,1.1-2,1.1-2c0.3-0.5,0.5-0.9,0.8-1.3l0-0.1
		c4.3,2.5,8.6,4.3,13.1,5.4c-0.2,0.7-0.4,1.3-0.6,2C47.6,113,47.4,113.6,47.3,114.2z"/>
	<path class="st0" d="M46.1,118.5c-5.4-1.4-10.5-3.5-15.1-6.3c0.7-1.1,1.4-2.3,2.1-3.5c4.6,2.6,9.2,4.5,14.1,5.8
		c-0.2,0.7-0.4,1.4-0.6,2.1C46.5,117.2,46.3,117.9,46.1,118.5z"/>
</g>
</svg>
