<?xml version="1.0" encoding="utf-8"?>
<!-- Generator: Adobe Illustrator 19.0.0, SVG Export Plug-In . SVG Version: 6.00 Build 0)  -->
<svg version="1.1" id="clothes-line-icon" xmlns="http://www.w3.org/2000/svg" xmlns:xlink="http://www.w3.org/1999/xlink" x="0px" y="0px"
	 viewBox="0 0 126 126" style="enable-background:new 0 0 126 126;" xml:space="preserve">
<style type="text/css">
	.st0{fill:#FFFFFF;}
</style>
<g>
	<path class="st0" d="M8.6,111.1v-10h95.5c2.1,0,3.8-0.7,5.1-2.1c1.5-1.6,2.3-4.2,2-6.6c-0.2-2.1-1.8-3.8-2.7-4.6l-0.2-0.1
		L37.2,60.4l-29,0V29.9c0-11.4,9.1-20.3,20.7-20.3c11,0,19.9,10.2,20.7,19.1H39.4c-0.8-3.9-5.4-9.1-10.5-9.1
		c-6,0-10.7,4.5-10.7,10.3v20.4l20.9,0l74,28.4l0.5,0.3c0.7,0.5,6.9,4.8,7.6,12.4c0.5,5.2-1.2,10.6-4.6,14.3
		c-3.1,3.4-7.6,5.3-12.5,5.3H8.6z"/>
</g>
</svg>
