<?xml version="1.0" encoding="utf-8"?>
<!-- Generator: Adobe Illustrator 19.0.0, SVG Export Plug-In . SVG Version: 6.00 Build 0)  -->
<svg version="1.1" id="extra-butter-icon" xmlns="http://www.w3.org/2000/svg" xmlns:xlink="http://www.w3.org/1999/xlink" x="0px" y="0px"
	 viewBox="0 0 126 126" style="enable-background:new 0 0 126 126;" xml:space="preserve">
<style type="text/css">
	.st0{fill:#FFFFFF;}
</style>
<g>
	<g>
		<path class="st0" d="M6.7,76.8L122,69c0.1-1.2,0.2-2.4,0.2-3.5L5.4,68.1C5.6,71.1,6.1,74,6.7,76.8z"/>
		<path class="st0" d="M5.4,59.9l116.7,2.7c0-1-0.1-2-0.1-3L6.7,51.4C6.1,54.2,5.6,57,5.4,59.9z"/>
		<path class="st0" d="M12.9,92.9l108.2-17.7c0.2-1.2,0.4-2.3,0.6-3.5L9.2,85C10.2,87.8,11.5,90.4,12.9,92.9z"/>
		<path class="st0" d="M63.7,5.6c-18.7,0-35.3,8.8-46,22.4l102.8,22.3C114.4,24.6,91.3,5.6,63.7,5.6z"/>
		<path class="st0" d="M12.9,35.2c-1.4,2.5-2.7,5.2-3.7,7.9l112.6,13.7c-0.2-1.2-0.3-2.4-0.6-3.6L12.9,35.2z"/>
		<path class="st0" d="M63.7,122.5c27.3,0,50.3-18.8,56.7-44.1L17.8,100.2C28.5,113.8,45.1,122.5,63.7,122.5z"/>
	</g>
</g>
</svg>
