<?xml version="1.0" encoding="utf-8"?>
<!-- Generator: Adobe Illustrator 19.0.0, SVG Export Plug-In . SVG Version: 6.00 Build 0)  -->
<svg version="1.1" id="gramps-icon" xmlns="http://www.w3.org/2000/svg" xmlns:xlink="http://www.w3.org/1999/xlink" x="0px" y="0px"
	 viewBox="0 0 126 126" style="enable-background:new 0 0 126 126;" xml:space="preserve">
<style type="text/css">
	.st0{fill:#FFFFFF;}
</style>
<g>
	<g>
		<path class="st0" d="M43.1,33.3l0.3,0.2l1-0.1l0-0.3c0,0,0.6,0.3,1.2,0.2c0.4-0.1,0.9,0,1.3-0.1c0.3-0.1,0.6-0.3,0.9-0.4
			c1.2-0.2,1.5,1,2.4,1.5c0.3,0.2,0.2,1.5,0.5,1.9c0,0,0.6,0.8,0.9,0.9c0.2,0.1,0.2-0.1,0.2-0.2c0,0.1,0.1,0.2,0.3,0.3
			c0.3,0.2,1.3,0.5,1.3,0.5l0-0.4l0.5,0.5l-0.2-0.4l0.5,0.3c0,0,0.3-0.4,0.2-0.5c-0.1-0.2,0.3,0.3,0.3,0.3l0-0.5l0.4,0.2l0-0.7
			l0.4,0.1c0,0,0.3-0.4,0-0.8l0.2,0.1c0.1,0-0.3-1.4-0.4-1.6c-0.4-0.7-1-1.3-1.5-2c-0.3-0.5-0.9-1-0.9-1.6c0-1,0.8-0.5,1.1-1.1
			c0.2-0.5-0.4-1.5-0.4-2.1c0.2,0.4,0.3,0.9,0.5,1.2c0.2,0.3,0.5,1,0.5,1l0.3,0.4c0,0,0.1-0.4,0-0.9c0,0,0.8-0.5,0.9-0.7
			c0.1-0.2,2.7-1.4,2.9-1.9c0,0,0.5,0.1,0.9-0.7c0,0,0.6-0.4,0.8-0.9c0.2-0.5,0.9-0.9,0.8-1.2c-0.1-0.4-0.1-0.4-0.1-0.4
			s0.6,0.3,1.1,0c0.5-0.3,0.3-0.6,0.3-0.6s0.5-0.1,0.9-0.4c0.4-0.3,0.2-0.6,0.2-0.6l1.1-0.7c0,0,0.4-0.1,0.1-0.4
			c0,0,0.6-0.6,0.7-0.8c0.1-0.3,0-0.6,0-0.6s1-0.9,1-1.2c0-0.3,0-0.3,0-0.3l-0.5,0.2c0,0,1-1,1.1-1.2c0.1-0.2-0.4-0.3-0.4-0.3
			s0.8-0.6,0.8-0.8c0-0.2-0.4-0.2-0.4-0.2s0.8-0.5,0.8-0.8c0-0.3-0.5,0-0.5,0l0.5-1c0,0-0.2-0.4-0.5-0.1c-0.3,0.3-0.6,0.5-0.6,0.5
			l-0.4,0.1c0,0,0.9-0.8,0.7-0.9c-0.2-0.2-0.5-0.2-0.5-0.2c-0.5,0.4-1,1.1-1.6,1.4c-0.4,0.2-0.8,0.1-1.1,0.2
			c-0.2,0.1-0.2,0.4-0.3,0.4c-0.4,0.2-0.9,0.2-1.3,0.3c-0.2,0.1-0.3,0.3-0.5,0.4c-0.8,0.3-1.5,0.7-2.3,1.1c-0.5,0.2-1,0.2-1.5,0.5
			c-0.4,0.2-0.4,0.4-0.7,0.7c-0.4,0.3-0.7,0.5-1.1,1c-0.7,0.8-1.4,0.9-2.3,1.3c-0.5,0.3-0.8,0.8-1.6,0.7c-0.6,0.6-1.6,1.6-2.4,1.9
			c-0.7,0.2-1.9,0.1-2.5-0.2c-0.9-0.4-1.8-1.1-2.4-1.7c-0.6-0.6-0.7-1.5-1.2-2.2c-0.2-0.3-0.5-0.4-0.8-0.6c-0.9-0.7-1.1-1-2.3-0.8
			c0,0-0.3-0.1-1-0.6c-0.7-0.5-1.5,0.3-0.4,0.9c0,0,1.3,0.5,1.5,1c0.6,1.5,2.2,2,3.1,3.3c0.5,0.6,0.4,0.9,0.6,1.7
			c0.2,1,0.6,2-0.5,2.7c-0.5,0.4-1.1,0.3-1.7,0.4c-0.5,0.1-0.9,0.4-1.3,0.6c-0.5,0.3-0.9,0.6-1.4,0.9c-0.5,0.3-0.9,0.7-1.4,1
			c-0.4,0.2-1,0.3-1.3,0.6c0.3,0.1,0.6,0.1,0.9,0.3c0,0-0.2,0.2-0.2,0.2l0.7,0.2L37.9,31l0.7,0.4c0,0,0.1,0.3,0.1,0.3
			c0.1,0.1,0.4,0.6,2,1C42.4,33.1,43.1,33.3,43.1,33.3z"/>
		<path class="st0" d="M84.7,38.9c-0.3-0.1-0.5-0.2-0.8-0.3c-0.4-0.2-0.7-0.3-1.2-0.3c-0.3,0-0.7,0-1.1-0.1
			c-0.3-0.1-0.5-0.3-0.8-0.4c-0.2-0.1-0.5-0.1-0.6-0.4c-0.2-0.5,0.1-1,0.2-1.4c0.2-0.6,0-1.2,0.5-1.7c0.2-0.2,0.4-0.3,0.6-0.5
			c0.2-0.3,0.3-0.7,0.4-1.1c0.1-0.3,0.2-0.6,0.3-1c0.1-0.2,0.2-0.6-0.1-0.5c-0.2,0-0.3,0.2-0.4,0.3c-0.1,0.1-0.2,0.1-0.3,0.2
			c-0.1,0-0.2,0.1-0.3,0.1c-0.2,0-0.2,0-0.4,0.1c-0.1,0.1-0.2,0.2-0.3,0.3c-0.1,0.1-0.2,0.3-0.4,0.4c-0.1,0.1-0.1,0.1-0.2,0.2
			c0,0.1,0,0.2-0.1,0.3c0,0.2-0.1,0.4-0.2,0.6c-0.1,0.2,0,0.5-0.1,0.7c-0.1,0.3-0.1,0.5-0.3,0.7c-0.3,0.3-0.7,0.7-1,1
			c-0.1,0.1-0.3,0.2-0.4,0.3c-0.2,0.2-0.3,0.4-0.6,0.1c-0.2-0.2-0.2-0.3-0.5-0.4c-0.3-0.1-0.5-0.2-0.8-0.3c-0.9-0.4-1.8-0.6-2.7-1.1
			c-0.2-0.1-0.4-0.3-0.6-0.4c-0.2-0.2-0.4-0.2-0.6-0.3c-0.5-0.2-0.9-0.6-1.3-0.9c-0.4-0.3-1-0.5-1.4-0.8c-0.2-0.1-0.7-0.7-0.9-0.6
			c-0.3,0.1-0.1,0.5-0.1,0.8c0,0-0.1,0.1-0.1,0.2c0,0.1,0.1,0.2,0.1,0.3c0,0.2,0,0.4,0.1,0.6c0.1,0.3,0.4,0.5,0.6,0.8
			c-0.3,0.3,0.4,1,0.6,1.2c0.4,0.5,0.6,1,1.1,1.5c0.3,0.3,0.5,0.5,0.7,0.8c0.3,0.3,0.7,0.2,0.9,0.4c0.1,0.1,0,0.4,0.2,0.5
			c0.2,0.2,0.4,0.1,0.6,0.1c0.1,0.1,0.2,0.3,0.3,0.3c0.1,0.1,0.2-0.1,0.4-0.1c0.4,0.1,0.4,0.7,0.9,0.5c0.1,0.5,0.2,0.4,0.7,0.5
			c0,0.2,0,0.3,0,0.5c0.4,0.1-0.1,1.1-0.2,1.3c-0.3,0.6-0.3,1-0.7,1.5c-0.1,0.2-0.3,0.3-0.4,0.5c-0.1,0.2-0.4,0.2-0.5,0.4
			c-0.2,0.2-0.3,0.3-0.5,0.5c-0.1,0.1-0.2,0.2-0.3,0.3c-0.1,0.1-0.1,0.1-0.1,0.1c0,0-0.1,0.2-0.1,0.2c0,0.1,0.3,0,0.4,0.1
			c0,0,0,0.2,0,0.3c0,0.1,0,0.2,0.1,0.2c0,0.1,0.2,0.2,0.2,0.3c0.2,0.1,0.2,0.4,0.5,0.4c0.2,0,0.4-0.2,0.5-0.3
			c0.6-0.6,1.2-1.3,1.6-2c0.2-0.3,0.4-0.6,0.7-0.8c0.2-0.2,0.3-0.4,0.5-0.6c0.2-0.1,0.5-0.1,0.8-0.2c0.5-0.2,0.9-1.2,1.3-1.2
			c0.2,0,0.5,0.3,0.8,0.3c0.4,0.1,0.7-0.1,1.2-0.2c0.4,0,0.9,0.2,1.3,0c0.2-0.1,0-0.2,0.3-0.2c0.2,0,0.3,0,0.5-0.1
			c0.1-0.1,0.2-0.1,0.4-0.2c0.1-0.1,0.3-0.1,0.4-0.3c0.1-0.1,0.4-0.2,0.5-0.4c0.2-0.3,0.7,0.1,0.9-0.3c0.1-0.1,0-0.2,0.2-0.4
			c0.2-0.2,0.6-0.1,0.7-0.4C85.9,39.1,84.9,39,84.7,38.9z"/>
		<path class="st0" d="M45.9,53.1c0.1-0.1,0.1-0.2,0.1-0.3c0.3,0.2,0.7-0.1,0.7-0.5c0.3,0.1,0.2-0.1,0.2-0.3c0.1,0,0.2-0.1,0.3-0.2
			c0-0.1,0-0.1,0-0.2c0,0,0-0.1,0-0.1c0-0.1,0-0.1,0.1-0.2c0,0,0-0.1,0-0.1c0-0.1,0.1-0.1,0-0.3c-0.3-0.3-0.6-0.4-1-0.6
			c-0.2-0.1-0.4-0.2-0.6-0.4c0.1-0.1,0.3-0.2,0.4-0.1c0-0.1,0.1-0.2,0.1-0.3c0.3-0.1,0.3-0.6,0.4-0.8c0.1-0.2,0.2-0.1,0.3-0.3
			c0.1-0.1,0-0.3,0-0.5c0-0.2,0.1-0.1,0.1-0.2c0-0.1,0.1-0.1,0.1-0.2c0.1-0.1,0.2-0.2,0.3-0.4c0,0,0-0.1,0-0.1c0,0,0.1,0,0.1-0.1
			c0-0.1,0-0.2,0-0.2c0-0.1,0.1-0.1,0.2-0.1c0-0.1,0-0.2,0-0.2c0.2-0.1,0.3-0.2,0.1-0.4c0.1-0.1,0.3-0.1,0.3-0.2
			c-0.1,0-0.2-0.1-0.2-0.1c-0.1,0-0.3-0.1-0.5-0.1c0.2,0.1,0.7-0.3,0.8-0.4c-0.3,0-0.5,0-0.8,0c0.1,0,0.3-0.2,0.3-0.2
			c0.1-0.1,0.3-0.2,0.1-0.3c-0.1-0.1-0.4,0-0.7,0.1c0.2-0.1,0.3-0.3,0.4-0.5c-0.2,0-0.3,0.1-0.4,0.1c-0.3,0.1-0.6,0.2-0.9,0.3
			c0.1-0.1,0.2-0.2,0.3-0.3c-0.2-0.1-0.5,0.2-0.7,0.3c-0.4,0.3-0.6,0.6-1,0.9c-0.3,0.3-0.4,0.7-0.5,1c-0.1,0.4-0.3,1-0.8,0.8
			c-0.1,0-0.1-0.1-0.2-0.2c-0.1,0-0.1,0-0.2,0c-0.2,0-0.3-0.1-0.5,0c-0.1,0-0.1,0.1-0.2,0.1c-0.1,0-0.1,0-0.2,0
			c-0.1,0-0.2,0.1-0.3,0.1c-0.1,0-0.1,0-0.2,0l0.1,0c-0.1,0-0.2,0-0.3,0.1c0.3,0.1,0.5,0.2,0.8,0.3c0.3,0.1,0.3,0.4,0.6,0.6
			c-0.1,0.1-0.2,0.1-0.4,0.2c-0.1,0-0.2,0.1-0.4,0.2c-0.2,0.1-0.3,0.1-0.5,0.2c-0.2,0.2-0.3,0.4-0.6,0.6c-0.2,0.2-0.4,0.3-0.5,0.5
			c-0.1,0.1-0.1,0.2-0.2,0.3c-0.2,0.3-0.5,0.4-0.6,0.7c0,0.1,0,0.2,0,0.3c0,0.2-0.1,0.3-0.2,0.5c-0.1,0.2,0,0.3-0.1,0.5
			c0,0.1-0.1,0.2-0.1,0.4c0.1-0.1,0.2-0.2,0.4-0.3c0,0.1-0.1,0.4-0.1,0.5c0.1,0.1,0.2-0.1,0.3-0.2c0,0.1-0.1,0.4,0,0.5
			c0.3-0.2,0.3-0.5,0.4-0.8c0,0.2,0,0.4-0.1,0.5c0,0.2-0.2,0.5-0.1,0.6c0.1-0.1,0.1-0.2,0.2-0.3c0-0.1,0.1-0.2,0.1-0.3
			c0.1,0.2,0.3-0.1,0.4-0.2c0,0,0,0,0,0c0.1,0,0.1-0.1,0.2-0.2c0.1,0,0.1-0.1,0.1-0.1c0,0,0,0.1,0.1,0.1c0.1,0,0.3-0.3,0.4-0.3
			c0.1,0,0.1,0,0.2,0c0.1,0,0.1-0.1,0.2-0.2c0.1-0.1,0.2-0.2,0.3-0.2c0.1,0.1,0.3,0,0.4,0c0.2-0.1,0.3-0.2,0.5-0.2
			c0.1,0,0.1,0,0.2-0.1c0.1,0,0.2-0.1,0.2-0.1c0.1-0.1,0.1-0.3,0.2-0.5c0.1,0.3,0,0.5,0.1,0.8c0.1,0.2,0,0.5,0.1,0.7
			c0,0.3,0.3,0.6,0.6,0.5c0.2,0.1,0.3,0.1,0.5,0.1C45.6,53,45.7,53.1,45.9,53.1z"/>
		<path class="st0" d="M43.8,4.3c-0.1,0.1,0.1,0.1,0.2,0.1c0,0-0.2,0.1-0.1,0.1c0,0,0.2,0,0.3,0c0,0.1-0.1,0.1-0.1,0.2
			c0,0,0.1,0,0.2,0c0.1,0,0.2-0.1,0.2-0.1c0,0-0.1,0.1,0,0.1c0,0,0.2-0.1,0.2-0.1c0,0,0,0.1-0.1,0.1c0.1,0,0.2,0,0.3-0.1
			c0,0.1,0,0.1,0.1,0.1c0.1,0,0.1-0.1,0.2-0.1c0.1,0,0.2,0.1,0.2-0.1c0,0.1,0.1,0,0.2,0c0.1-0.1,0.2,0,0.2,0c0.1,0,0.2,0,0.3-0.1
			c0.1,0,0.2-0.1,0.3-0.1c0.1,0,0.1-0.1,0.2,0c0.1,0,0.1,0.1,0.2,0.1c0.1,0.1,0.2,0.1,0.3,0.2c0,0,0.1,0,0.1,0c0,0,0.1,0,0.1,0
			c0.1,0,0.1,0.2,0.2,0.3c0.1,0.1,0.1,0.3,0.2,0.4c0.1,0.1,0.1,0.2,0.2,0.3c0.1,0.1,0.2,0.2,0.3,0.2c0,0,0-0.1,0-0.1
			c0.1,0,0.2,0.2,0.3,0.3c0.1,0,0.2,0.1,0.3,0.1c0,0-0.1-0.1,0-0.1c0.1,0.1,0.2,0.1,0.3,0.2c0,0,0-0.1,0-0.1c0-0.1-0.1-0.1-0.1-0.2
			c0,0,0.1,0.1,0.1,0.1c0,0,0-0.1,0-0.2c0,0,0-0.1-0.1-0.1c0,0-0.1-0.1-0.1-0.1c0-0.1,0-0.1,0-0.1c0,0,0-0.1-0.1-0.2
			c0-0.1-0.1-0.1-0.2-0.2c0,0-0.1-0.1-0.1-0.1c-0.1-0.1-0.2-0.2-0.4-0.3c-0.1,0-0.1-0.1-0.2-0.1c-0.1,0-0.1-0.1-0.2-0.1
			c0-0.1,0-0.1-0.1-0.2c0,0-0.1-0.1-0.1-0.2c0-0.1-0.1-0.1-0.1-0.2c0.2-0.1,0.3-0.2,0.5-0.4c0-0.1,0.1-0.1,0.1-0.2c0,0,0-0.1,0-0.1
			c0.1,0,0.1,0,0.2-0.1c0,0,0,0,0,0c0,0,0.1,0,0.1,0c0,0,0.1,0,0-0.1c0.1,0,0.1-0.1,0.2-0.1c0,0,0,0-0.1-0.1c0.1,0,0.2-0.1,0.3-0.1
			c0,0-0.1-0.1,0-0.1c0,0,0.1,0,0.1-0.1c0,0-0.1,0-0.2,0c0.1,0,0.2-0.1,0.2-0.2c-0.1,0-0.2,0.1-0.3,0c0.1,0,0.3-0.1,0.3-0.2
			c-0.1,0-0.2,0-0.3,0.1c0.1-0.1,0.2-0.2,0.2-0.3c-0.1,0.1-0.2,0.2-0.3,0.2c0-0.1,0-0.2,0.1-0.3c0,0,0,0,0,0c0,0-0.1,0-0.1,0
			c0,0-0.1,0.1-0.1,0.1c-0.1,0-0.1,0-0.2,0.1c0,0,0.1-0.2,0-0.2c0,0-0.2,0.2-0.2,0.2c-0.1,0.1-0.2,0.1-0.3,0.2
			c-0.1,0-0.2,0.1-0.3,0.1c-0.1,0-0.1,0-0.2,0.1c-0.1,0.1-0.1,0.1-0.1,0.2c-0.1,0.1-0.1,0.2-0.2,0.2c-0.1,0.1-0.2,0-0.3,0
			c0-0.1-0.1-0.1-0.1-0.2c-0.1-0.1-0.2-0.1-0.4-0.1c-0.1,0-0.1,0-0.1,0c0,0,0-0.1-0.1-0.1c0,0-0.1,0-0.2,0c0.1,0,0.1,0.1,0.1,0.1
			c0,0.1,0.1,0.1,0.1,0.1c0,0,0,0.1,0.1,0.2c0,0.1,0.2,0.4,0,0.4c-0.1,0-0.3,0-0.4,0c-0.1,0-0.2,0.1-0.3,0.2
			c-0.1,0.1-0.2,0.1-0.3,0.2c-0.2,0.1-0.4,0.1-0.7,0.2c0,0-0.1,0-0.1,0C43.8,3.9,44,3.9,44,3.9c0,0-0.2,0.1-0.2,0.1
			c0,0.1,0.2,0.1,0.2,0.1C43.9,4.2,43.8,4.2,43.8,4.3z"/>
		<path class="st0" d="M54.5,11.9c0.2,0,0.3,0,0.5,0.1c0,0,0,0.1,0,0.1c0.1,0,0.3,0,0.4,0c-0.1,0.2,0.3,0.1,0.4,0
			c0.1,0.1,0.4,0,0.5,0.1c0,0,0,0.1,0,0.1c0.1,0,0.4-0.1,0.5-0.2c0,0,0,0.1,0,0.1c0.2,0,0.5,0,0.6-0.1c0.1,0,0.2-0.1,0.3,0
			c0,0,0.1,0,0.1,0c0.2,0,0.2-0.1,0.4-0.1c0.1,0,0.2,0,0.3,0c0.3,0,0.6-0.2,0.8-0.2c0.2,0,0.3,0,0.5,0c0.4-0.1,0.8,0,1.2,0.1
			c0.3,0,0.7,0.2,1,0.1c0.3,0,0.7-0.2,0.9,0c0.3,0.3-0.1,0.8-0.1,1.1c-0.1,0.5,0.4,0.4,0.7,0.5c0.2,0.1,0.4,0.2,0.6,0.1
			c0.1,0,0.4-0.2,0.4-0.3c0.2,0,0.5-0.1,0.6-0.3c0-0.2-0.2-0.3-0.3-0.5c-0.1-0.2-0.4-0.5-0.4-0.7c0-0.3,0.2-0.3,0.3-0.5
			c0,0.1,0,0.1,0,0.2c0.1,0,0.1,0,0.2-0.1c0.2-0.1,0.4-0.2,0.7-0.3c0.2-0.1,0.4-0.1,0.6-0.1c0.1-0.1,0.3-0.2,0.4-0.2
			c0.1-0.1,0.4-0.2,0.5-0.2c0.1,0,0.2,0,0.3,0c0.1,0,0.3,0,0.4-0.1c0.3-0.1,0.5-0.1,0.8-0.1c0.4,0,0.8,0,1.3-0.1
			c0.3,0,0.5,0,0.8-0.1c0,0,0-0.1,0.1-0.1c0.1-0.1,0.3,0,0.4,0c0.2,0,0.2-0.1,0.3-0.2c0.1-0.1,0.3,0,0.4-0.2c0,0,0-0.1,0-0.2
			c0.2,0,0.3,0,0.5,0c0.3-0.1,0.1-0.2-0.1-0.3C72,9.1,71.5,9,71.1,9c-0.4,0-0.9-0.2-1.3-0.2c-0.3-0.1-0.7-0.1-1-0.2
			c-0.4-0.1-0.7-0.1-1.1-0.1c-0.2,0-0.4,0.1-0.7,0.1c-0.1,0-0.2,0-0.3,0.1C66.4,8.8,66,9,65.6,9.1c-0.5,0.2-1.3,0.8-1.9,0.5
			c-0.3-0.2-0.4-0.5-0.7-0.7c-0.1,0-0.3-0.1-0.4,0c-0.1,0-0.2,0.1-0.3,0.2c-0.1,0-0.2,0-0.3,0c-0.1,0-0.2,0.1-0.3,0.2
			c0.2-0.1,0.3,0,0.5,0.1c0.1,0.1,0.4,0.5,0.4,0.6c0,0.1-0.6,0.2-0.7,0.1c-0.3,0-0.6,0-0.9-0.1c-0.5-0.1-1-0.2-1.6-0.3
			c-0.8,0-1.4,0.3-2.1,0.6c-0.3,0.1-0.6,0.3-0.9,0.4c-0.3,0.1-0.6,0.4-0.9,0.5c-0.1,0-0.2,0.1-0.3,0.1c-0.1,0-0.3,0.1-0.4,0.2
			c-0.1,0.1-0.2,0.1-0.3,0.2c-0.1,0-0.2,0-0.2,0.1C54.4,11.8,54.5,11.8,54.5,11.9C54.5,11.8,54.5,11.9,54.5,11.9z"/>
		<path class="st0" d="M80.5,80.2c-0.1,0-0.2-0.1-0.3-0.1c-0.1,0-0.2,0.1-0.2,0.2c-0.2,0.1-0.4,0.2-0.6,0.3c-0.1,0-0.2,0.1-0.3,0.1
			c-0.1,0-0.2,0.1-0.3,0.1c-0.1,0-0.2,0.1-0.2,0.1c0.2-0.1,0.3-0.1,0.4-0.2c0.2-0.1,0.4-0.2,0.6-0.3c0.1,0,0.2-0.1,0.3-0.1
			c0.1-0.1,0.3-0.2,0.3-0.3c0,0-0.1-0.2-0.1-0.3c0-0.1-0.1-0.2-0.1-0.3c-0.2,0-0.7,0.1-0.7,0.1l0.3-0.1c0,0,1-0.2,1.2-0.8
			c0.1-0.6-0.3-1.5-0.3-1.5s-2.2-5.7-2.2-5.7c-0.1-0.3-0.5-0.6-0.8-0.7c-0.1,0-0.3,0-0.4,0c0,0,0,0-0.1,0c-0.1-0.1-0.2-0.1-0.3-0.2
			c0,0,0-0.1-0.1-0.1l-0.2-0.1c-0.1-0.1-0.1-0.3-0.2-0.4c-0.1-0.1-0.1-0.1-0.2-0.1c0,0,0,0,0-0.1l0.5-0.2l0-0.1l-0.4,0L76,69.3
			l-0.2,0c0,0,0-0.1,0-0.1c0.1-0.2,0.3-0.2,0.4-0.3c0.1-0.2,0-0.5-0.1-0.6c0-0.1-0.1-0.3-0.1-0.4c-0.1-0.4-0.1-0.7-0.4-1
			c-0.2-0.2-0.5,0-0.7-0.2c-0.2-0.2-0.3-0.4-0.6-0.4c-0.1,0-0.2,0-0.3,0c-0.1,0-0.1,0.1-0.2,0.1c-0.1,0-0.1,0-0.2,0
			c-0.1,0-0.3,0-0.4,0.1c0,0-0.1,0.1-0.1,0.1c-0.1,0.1-0.1,0.2-0.2,0.3c-0.1,0.1-0.2,0.1-0.3,0.2c-0.2,0.1-0.3,0.1-0.4,0.3
			c-0.1,0.3,0.1,0.6,0.3,0.8c-0.1,0-0.1,0-0.2,0c0,0-0.1-0.1-0.1-0.1c0,0,0,0-0.1,0c-0.3-0.2-0.4-0.5-0.4-0.8c0-0.1-0.1-0.2-0.1-0.3
			c0-0.1,0-0.2,0-0.3c0-0.2-0.1-0.3-0.1-0.5c-0.1-0.2,0-0.4-0.2-0.5c-0.1-0.2-0.2-0.3-0.4-0.4c-0.1-0.1-0.1-0.3-0.2-0.4
			c-0.1-0.1-0.1-0.2-0.2-0.3c-0.1-0.3,0-0.5-0.2-0.8c-0.1-0.2-0.2-0.4-0.4-0.6c-0.2-0.2-0.4-0.3-0.6-0.5c-0.2-0.2-0.3-0.3-0.5-0.5
			c-0.3-0.5-0.5-1-0.7-1.6c-0.1-0.2-0.2-0.3-0.3-0.5c-0.2-0.2-0.4-0.4-0.6-0.6c-0.2-0.2-0.5-0.3-0.7-0.4c-0.2-0.1-0.4,0-0.6-0.1
			c-0.2,0-0.5-0.1-0.7-0.1c-0.3-0.1-0.6-0.1-0.9-0.2c0-0.1,0.2-0.7,0.1-0.7c-0.2,0-0.4,0.1-0.6,0.1c-0.2,0-0.3,0.1-0.5,0.1
			c0-0.2,0.2-0.3,0.2-0.4c0.1-0.1,0.1-0.2,0.1-0.3c0.1-0.3,0.1-0.6,0.2-0.9c0.1-0.4,0-0.7,0-1.1c0-0.2,0.1-0.4,0.1-0.5
			c0.1-0.5,0-0.9,0.2-1.3c0.1-0.1,0.1-0.2,0.1-0.4c0-0.1,0-0.2,0-0.3c0-0.1-0.1-0.2-0.2-0.3c-0.1-0.2,0.3-0.6,0.3-0.8
			c0.1-0.2-0.1-0.3-0.1-0.5c-0.1-0.2,0.1-0.1,0.2-0.2c0.2-0.1,0.1-0.1,0.3-0.2c0.2-0.2,0.5-0.3,0.7-0.5c0.3-0.3-0.1-0.6,0-0.7
			c-0.2,0.3-0.7,0.7-1,0.5c-0.3-0.2,0-0.6-0.1-0.9c-0.1-0.3-0.3-0.4-0.5-0.5C63.8,48.6,63,48.1,63,48c-0.1-0.4-1,0.2-1.3-0.1
			c-0.4-0.4-0.7-0.4-1.4-0.3c-0.1,0-1.2-0.1-1.2,0.2c0,0-1.2,1.1-1.3,1.2c-0.3,0.2-0.6,0-0.8,0.1c-0.2,0.1-0.6,1.1-0.7,1.4
			c-0.1,0.3-0.2,0.7-0.1,1.1c0,0.2,0.1,0.3,0.1,0.4c0.1,0.1,0.2,0.2,0.3,0.4c0.1,0.2,0.1,0.4,0.1,0.6c0,0.3-0.3,0.2-0.4,0.4
			c0,0.1,0,0.2,0,0.3c0,0.2,0,0.3,0,0.5c0,0.3,0,0.8,0.2,1.1c0.2,0.3,0.4,0.2,0.6,0.4c0.2,0.2,0.2,0.4,0.3,0.6
			c0.1,0.5,0.5,1.3,0,1.7c-0.5,0.4-1.6,0.3-2.2,0.3c-1.2,0-0.8,0.4-1.7,0.7c-0.2,0.1-1.3,0.5-1.3,0.8c0,0.1-0.7,1.2-0.8,1.3
			c-0.5,0.7-0.6,1-1,1.7c-0.1,0.3-0.4,0.8-0.6,1c-0.1,0.1-0.2,0.2-0.4,0.3c-0.1,0.1-0.2,0.2-0.3,0.4c-0.1,0.1-0.2,0.3-0.3,0.4
			c-0.1,0.2-0.2,0.3-0.3,0.4c-0.1,0.2-0.4,0.4-0.5,0.6c-0.1,0.2-0.3,0.4-0.3,0.6c0,0.3-0.3,1.3-0.7,1.6c-0.5,0.5-0.5,1.7-1,2.1
			c0,0-0.4,1-0.4,1.1c0,0.2,0.1,0.5,0,0.8c-0.1,0.1-0.2,0.2-0.3,0.3c-0.1,0.2-0.1,0.5,0,0.7c0,0.2-0.1,0.3,0.1,0.5
			c0.1,0.2,0.3,0.2,0.3,0.5c0.1,0.4,0.2,0.8,0.2,1.2c0,0.9-0.1,1.8-0.1,2.7c0,0.3-0.3,2.2,0.3,2.1c-0.1,0,0.5,0.5,0.5,0.4
			c0.1,0.5,0.4,0.7,0.4,1.1c0.1,0.5-0.1,1.1-0.1,1.6c0,0.1,0.7,1.7,0.8,1.7c1.1,0.2,0.1,0.4,0.8,0.9c0.3,0.2,0.5,0.5,0.8,0.8
			c0.2,0.3,1,0.5,0.9,0.6c-0.1,0.5,0.6-0.4,0.7-0.4c0.4-0.6,0.3-1,1.3-1c0.8,0,1,0.5,0.7,0.8c-0.5,0.7,0,2.4,0,3.3
			c0,0.5-0.6,0.5-0.5,1.3c0,0.3,1.1,0.9,0.2,1.2c-0.3,0.1,0.4,1.4,0.4,1.6c0.1,0.6-0.3,0.4-0.3,0.8c0,0.5-0.2,2.4,0.3,2.7
			c0.6,0.5-0.1,1.6,0,2.5c0,1,0.3,1.5,0.4,2.3c0,0.4,0.1,1.2-0.1,1.6c-0.5,0.7-0.2,1.5-0.2,2.5c0,1.2,0,2.3,0,3.5
			c0,0.3-0.2,1.7,0,1.9c0.5,0.5,0.3,1.3,0.3,2.2c0,0.8-1.1,2.8-0.2,3.7c0.4,0.4,0.7,1.2,1.3,1c0.3-0.1,0.6,0.5,0.8,0.7
			c0.3,0.4,2.3,0,2.8,0c0.9,0,0.8,0.6,0.7,1.5c0,0.2-0.6,0.5-0.4,0.7c0.3,0.3,0.4-0.1,0.3,0.6c0,0,0.5,0.6,0.6,0.6
			c0.8,0.1,3.4,0.3,4-0.1c0,0,0,0,0,0l0.7-1.2c0-0.4,1.4-0.6,1.3-0.8c0-0.2,0.6-0.5,0.6-0.9c0-0.5,0-1,0-1.5c0-1.3-1.7-0.2-1.8-1.2
			c0-0.3,0.4-0.8,0.3-1.4c-0.1-0.4-0.1-0.7-0.1-1.1c0.1,0,0.2-0.1,0.3-0.1c0.1-0.3-0.3-1.1,0.2-1c0.4,0,0.3-0.9,0.3-1
			c-0.1-1.6-0.2-3.2-0.2-4.9c0.4-0.3,0-1.3,0-1.9c-0.1-1.1,0.4-1.6,0.4-2.5c0-0.4-0.3-1.2,0.1-1.5c0.4-0.3-0.1-0.8,0.3-1
			c1.7-1.1-0.4-5.1,0.9-6.7c0.6-0.7,0.6-1.5,0.6-2.4c0-0.8,0-1.5-0.2-2.4c-0.1-0.6-0.2-1.2-0.3-1.8c0-0.5,0.1-0.6,0.2-1
			c0.7-0.1,1,0.2,1.7,0.1c0-0.3,0.2-0.5,0.2-0.8c0-0.4-0.1-0.4-0.4-0.8c-0.3-0.3-1.4-1.7-0.3-1.7c0.1-0.7-0.4-1.3-0.4-2
			c0-0.5,0.1-1,0-1.6c-0.1-0.5-0.3-0.8-0.5-1.2c-0.3-0.9,0.2-1.8,0.1-2.7c-0.1-0.8-0.2-0.3-0.2-1.3c0-0.3,0.3-2.2-0.2-2.2
			c-0.3,0-0.5-2.5-0.5-2.7c0.3,0.3,0.9,1.3,0.8,1.6c0.1,0,0.2,0,0.3,0c0.2-0.1,0.3,0,0.4,0.2c0,0.3-0.4,1,0.2,1c0.4,0,0,0.6,0.2,0.7
			c0.2,0.1,1-0.4,0.9,0.2c-0.2,1.1,2.4,2,3.2,1.9c0.2,0,0.6-0.2,0.9-0.3l1,4.7c0,0,0.1,1.2,1.1,1l0.3,0.9c0,0-0.3,0.1-0.3,0.5
			c0,0,0.4,0.5,2.3-0.1c2-0.6,2.6-1.3,2.6-1.3C80.7,80.4,80.6,80.3,80.5,80.2z M52.9,69.2c0,0.1-0.1,0.3-0.1,0.3
			c-0.1,0.1-0.1,0.1-0.2,0.2c-0.1,0.2,0,0.5,0.1,0.7c0.1,0.4,0,0.8,0,1.2c0,0.4-0.1,0.8-0.1,1.2c0,0.1,0,0.1,0,0.2
			c0,0.2,0.2,0.4,0.1,0.6c-0.1,0.3-0.5,0.3-0.6,0.5c-0.1,0.1,0,0.4,0,0.5c0,0.3,0,0.5-0.1,0.8c0,0.2,0.1,0.3,0.1,0.5
			c0,0.1,0,0.3,0,0.4c0,0.3-0.1,0.6-0.1,0.9c0,0.3-0.3,0.5-0.3,0.8c-0.1,0.4-0.2,0.8-0.3,1.2c0,0.1,0,0.1,0,0.2
			c0,0.1-0.1,0.2-0.1,0.4c-0.1,0.4,0.3,2.4,0,2.5c-0.2,0.1-0.4-0.5-0.4-0.7c0-0.3,0.2-0.4,0.1-0.8c-0.1-0.2-0.4-0.4-0.4-0.6
			c0-0.1,0-0.1,0.1-0.1c0.1-0.1,0.1,0,0.1-0.2c0-0.2-0.1-0.2-0.1-0.4c0-0.1,0.1-0.3,0.1-0.4c0-0.1,0.1-0.1,0.1-0.1
			c0-0.1,0-0.1,0-0.1c0-0.1,0-0.1,0-0.2c0-0.1-0.1-0.2-0.1-0.3c0-0.1,0-0.3,0-0.4c0-0.2,0-0.2,0-0.4c0-0.1,0-0.2,0-0.3
			c0-0.1,0-0.3,0-0.4c0-0.1,0.1-0.4,0.1-0.5c-0.1-0.4-0.2-0.7-0.2-1.1c0-0.5-0.1-0.8-0.2-1.2c0-0.4,0.2-0.7,0.2-1.1
			c0-0.1-0.1-0.2-0.1-0.4c0-0.1,0.2-0.2,0.3-0.3c0.2-0.3-0.1-0.2,0.3-0.4c0-0.4-0.1-0.9,0.1-1.3c0-0.1,0.1-0.2,0.2-0.3
			c0,0,0-0.1,0-0.1c0.1-0.1,0.2-0.2,0.2-0.3c0.1-0.1,0.1-0.3,0.2-0.4c0.1-0.1,0.1-0.1,0.2-0.2c0.1-0.1,0.1-0.2,0.2-0.2
			c0.1-0.1,0.3-0.3,0.3-0.4c0-0.1,0-0.2,0.1-0.3c0-0.1,0.1-0.1,0.1-0.1c0-0.1,0-0.1,0-0.2C53,68,53,68.3,53,68.4
			C53.1,68.7,53,68.9,52.9,69.2z M59.5,104.5c-0.1,1.5,0.5,3.2,0,4.6c-0.1-0.9-0.2-1.8-0.2-2.8c0-0.6,0-1.2-0.1-1.8c0,0,0-0.1,0-0.1
			c0-0.4,0.1-0.8,0.1-1.2c0.1-0.6,0-1.2,0-1.8c0-0.6-0.1-1.2-0.2-1.7c-0.2-0.8,0-1.7,0-2.5c0,0.4,0.1,0.6,0.3,0.9
			c-0.4,0-0.2,0.5-0.2,0.7c0,0.2-0.1,0.6,0,0.7c0.2,0.2,0.2,0.1,0.2,0.5c0,0.3,0.1,0.6,0,0.9c-0.1,0.3-0.1,0.5-0.1,0.9
			c0,0.4,0,0.6,0,1c0,0.5,0.2,0.9,0.2,1.4C59.5,104.4,59.5,103.9,59.5,104.5z M78.1,81.1c0.1,0,0.1,0,0.2,0
			C78.2,81.1,78.1,81.1,78.1,81.1z M78.5,78.5c0,0,0,0.1,0,0.1C78.5,78.6,78.5,78.6,78.5,78.5C78.4,78.5,78.4,78.5,78.5,78.5
			c-0.1,0-0.1-0.1-0.1-0.1c0,0,0.2-0.1,0.2-0.1c0.4-0.3,0.3-0.5,0.1-0.6c0.2-0.9-0.6-2.4-0.6-2.4c0.4,1,0.4,2,0.4,2.4
			c0,0-0.1,0-0.1,0c0,0-0.1,0-0.1,0c-0.1,0-0.1,0-0.2,0c-0.1,0-0.2,0-0.2,0c0,0-0.1,0-0.1,0c0,0-0.1,0-0.1,0c0,0,0.1,0.1,0.1,0.1
			c0,0.1,0,0.1-0.1,0.2c-0.1,0-0.1,0.1-0.2,0.1c-0.1,0.1-0.2,0.1-0.4,0.1c-0.1,0-0.1,0-0.1,0c0,0-0.1,0-0.1-0.1c0,0-0.1,0-0.1-0.1
			c0,0,0,0,0-0.1c0,0,0.1,0,0.1,0c0.1,0,0.2,0,0.2,0c0.1,0,0.1,0,0.2-0.1c0,0,0.1-0.1,0.1-0.1c0.1-0.1,0.2-0.2,0.2-0.2
			c0,0,0,0,0-0.1c0,0,0-0.1-0.1-0.2c0,0-0.1,0.1-0.1,0.1c0,0-0.1,0.1-0.2,0.1c-0.1,0-0.2,0.1-0.3,0.2c-0.1,0-0.2,0.1-0.3,0.1
			c-0.1,0-0.1-0.1,0-0.1c-0.1,0-0.1,0.2,0,0.2c0,0.1,0,0.1,0.1,0.1c0,0,0,0,0,0c-0.1,0-0.1,0-0.2,0.1c-0.1,0-0.3,0.1-0.4,0.1
			c0,0,0,0,0,0c-0.2-0.3-0.7-1.1-0.8-2.2c0,0,0.1,1.7,0.8,2.3c0,0.1,0,0.2,0,0.2l0.1,0.1l0.1,0.2l0.5,0l0,0.3l0,0.3c0,0,0,0-0.6,0.2
			c-0.6,0.2-0.6-0.3-0.6-0.3s-0.6-3-1-4.9c0.3-0.2,0.5-0.4,0.6-0.6c0.1-0.1,0.1-0.2,0.2-0.3c0,0,0,0,0,0c0,0.1-0.1,0.2-0.1,0.3
			c0,0.1,0.1,0.2,0.1,0.3c0-0.2,0-0.4,0.2-0.6c0.2-0.2,0.5-0.3,0.8-0.4c0.3-0.1,0.4-0.1,0.6,0c0.1,0.1,0.2,0.2,0.3,0.3
			c-0.1-0.3-0.3-0.3-0.4-0.6c0.1,0.2,0.4,0,0.6,0l-0.1-0.2c0-0.1-0.1-0.2-0.1-0.2c0-0.1-0.1-0.3-0.1-0.4c-0.1,0-0.1,0-0.2,0
			c-0.1,0-0.1,0-0.2,0c0.1,0,0.2,0,0.2-0.1c0.1,0,0.2,0,0.3-0.1c0.1,0,0.2-0.1,0.3-0.2c0,0,0.1-0.1,0.1-0.1c0,0-0.4-0.1-0.4-0.1
			l0-0.2c0.4-0.1,0.5,0.3,0.5,0.3l2.1,5.7c0,0,0,0,0.2,0.6c0.2,0.6-0.2,0.6-0.2,0.6c0,0-0.1,0-0.1,0c-0.1,0-0.1,0-0.2,0.1
			c-0.1,0-0.2,0-0.2,0.1c-0.1,0-0.1,0.1-0.2,0.1c0,0-0.1,0-0.1,0c0,0,0,0,0,0.1c0,0,0,0.1-0.1,0.1c-0.1,0-0.1,0-0.2,0c0,0,0,0,0,0
			c0,0,0,0,0,0c0,0,0-0.1,0-0.1c0,0,0,0,0.1,0c0.1,0,0.1,0,0.2-0.1c0.1-0.1,0.1-0.2,0.1-0.3c0,0,0-0.1-0.1-0.1c0,0,0-0.1-0.1-0.1
			c0,0-0.1,0-0.1,0C78.6,78.4,78.6,78.4,78.5,78.5C78.5,78.4,78.5,78.4,78.5,78.5z"/>
	</g>
</g>
</svg>
