<?xml version="1.0" encoding="utf-8"?>
<!-- Generator: Adobe Illustrator 19.0.0, SVG Export Plug-In . SVG Version: 6.00 Build 0)  -->
<svg version="1.1" id="hat-club-icon" xmlns="http://www.w3.org/2000/svg" xmlns:xlink="http://www.w3.org/1999/xlink" x="0px" y="0px"
	 viewBox="0 0 1196.6 1196.6" style="enable-background:new 0 0 1196.6 1196.6;" xml:space="preserve">
<style type="text/css">
	.st0{fill:#FFFFFF;}
</style>
<path class="st0" d="M765.9,1190.3c-98.9,0-191.5-36.6-267.8-105.9c-82.3-75.1-122.7-176.2-120.1-300.3
	C380.6,659.6,425.3,560,510.8,488c2.3-2,4.7-3.9,7.1-5.8l-281.5,0.1l0.1,276.8l83.6,0l0,86.1l-262.2,0.1l0-86l83.6,0l-0.2-664.6
	l-83.5,0l-0.1-86l262.2-0.1l0.1,86l-83.6,0.1l0.1,302.7l458.2-0.1l-0.1-302.7l-83.6,0l0-86.1l262.3-0.1l0,86.1l-83.6,0l0.1,303
	c99.2,5,176,36.6,229.3,94.2l0-93l87.1,0.1l-1,279.5l-78.9-0.1l-3.6-13.6C994,557.1,909.6,491.9,789.7,483.6l0.1,275.3l83.6,0l0,86
	l-262.3,0.1V759l83.5,0l-0.1-267.9c-46.3,11.3-89.5,34.1-126.1,66.6c-67.1,60-100.7,134.6-102.7,227.9c-1.9,88,26.1,164.7,81,221.8
	c56.2,58.5,138,91.7,230.4,93.4c2.4,0,4.8,0.1,7.2,0.1h0c129.7,0,220.5-65,243-173.9l3.1-14.9l92.1,1.7l-5.9,22.6
	c-46.7,178-151.5,254-350.5,254.1H765.9z"/>
</svg>
