<?xml version="1.0" encoding="utf-8"?>
<!-- Generator: Adobe Illustrator 19.0.0, SVG Export Plug-In . SVG Version: 6.00 Build 0)  -->
<svg version="1.1" id="hat-club-monogram-icon" xmlns="http://www.w3.org/2000/svg" xmlns:xlink="http://www.w3.org/1999/xlink" x="0px" y="0px"
	 viewBox="0 0 126 126" style="enable-background:new 0 0 126 126;" xml:space="preserve">
<style type="text/css">
	.st0{fill:#FFFFFF;}
</style>
<g>
	<g>
		<path class="st0" d="M80.6,121.7c-9.9,0-19.1-3.6-26.7-10.6c-8.2-7.5-12.2-17.6-12-29.9c0.3-12.4,4.7-22.4,13.2-29.5
			c0.2-0.2,0.5-0.4,0.7-0.6l-28.1,0l0,27.6l8.3,0l0,8.6l-26.1,0l0-8.6l8.3,0l0-66.3l-8.3,0l0-8.6l26.1,0l0,8.6l-8.3,0l0,30.2l45.7,0
			l0-30.2l-8.3,0l0-8.6l26.1,0l0,8.6l-8.3,0l0,30.2c9.9,0.5,17.6,3.6,22.9,9.4l0-9.3l8.7,0l-0.1,27.9l-7.9,0l-0.4-1.4
			c-2.8-10.7-11.3-17.2-23.2-18l0,27.4l8.3,0l0,8.6l-26.1,0v-8.6l8.3,0l0-26.7c-4.6,1.1-8.9,3.4-12.6,6.6c-6.7,6-10,13.4-10.2,22.7
			c-0.2,8.8,2.6,16.4,8.1,22.1c5.6,5.8,13.8,9.1,23,9.3c0.2,0,0,0,0.2,0h0c13.4,0,22.3-7.7,24.9-17.3l0.4-1.5l9.3,0.2l-0.6,2.2
			C111,113.5,100.5,122,80.6,121.7L80.6,121.7z"/>
	</g>
</g>
</svg>
