<?xml version="1.0" encoding="utf-8"?>
<!-- Generator: Adobe Illustrator 19.0.0, SVG Export Plug-In . SVG Version: 6.00 Build 0)  -->
<svg version="1.1" id="long-island-project-icon" xmlns="http://www.w3.org/2000/svg" xmlns:xlink="http://www.w3.org/1999/xlink" x="0px" y="0px"
	 viewBox="0 0 126 126" style="enable-background:new 0 0 126 126;" xml:space="preserve">
<style type="text/css">
	.st0{fill:#FFFFFF;}
</style>
<g>
	<g>
		<path class="st0" d="M91.9,81.3h-9.6l0-24.6l-8.4,0l0,24.6l-38.3,0v4h-2.8l0,35.8H40l0-24.7l8.5,0l0,24.7l46.6,0l0-35.8h-3.3V81.3
			z M56.7,105h-4.5v-8.6l4.5,0V105z M64.6,105l-4.5,0v-8.5h4.5L64.6,105z M72.6,105H68v-8.6l4.5,0V105z M80.6,105h-4.5v-8.5h4.5
			L80.6,105z M88.6,105h-4.6l0-8.6h4.5V105z"/>
		<polygon class="st0" points="63.7,18.1 94.9,43.5 103.2,43.5 63.9,11.1 25.4,43.1 33.5,43.1 		"/>
		<polygon class="st0" points="91.7,79.6 91.7,43.5 63.9,20.6 36.1,43.5 36.1,79.4 71.8,79.4 71.9,54.5 84.1,54.5 84.1,79.6 		"/>
		<polygon class="st0" points="49.2,2.2 40.8,2.2 40.8,27.6 49.2,20.5 		"/>
	</g>
</g>
</svg>
