<?xml version="1.0" encoding="utf-8"?>
<!-- Generator: Adobe Illustrator 19.0.0, SVG Export Plug-In . SVG Version: 6.00 Build 0)  -->
<svg version="1.1" id="maker-market-icon" xmlns="http://www.w3.org/2000/svg" xmlns:xlink="http://www.w3.org/1999/xlink" x="0px" y="0px"
	 viewBox="0 0 126 126" style="enable-background:new 0 0 126 126;" xml:space="preserve">
<style type="text/css">
	.st0{fill:#FFFFFF;}
</style>
<g>
	<g>
		<path class="st0" d="M56.4,70.3h-3.7v3.1h3.7c0.8,0,1.6-0.7,1.6-1.6C58,71,57.3,70.3,56.4,70.3z"/>
		<path class="st0" d="M80.5,43.7h-3.7v3.1h3.7c0.8,0,1.6-0.7,1.6-1.6C82.1,44.4,81.4,43.7,80.5,43.7z"/>
		<path class="st0" d="M63,4.4C31.2,4.4,5.5,30.2,5.5,61.9c0,31.7,25.7,57.4,57.4,57.4c31.7,0,57.4-25.7,57.4-57.4
			C120.4,30.2,94.7,4.4,63,4.4z M43,87.7h-4V73.5l-5.6,7.6l-5.5-7.6v14.3h-4V66.4h3.7l5.8,7.9l5.8-7.9H43V87.7z M43,61.1h-4V46.9
			l-5.6,7.6l-5.5-7.6v14.3h-4V39.8h3.7l5.8,7.9l5.8-7.9H43V61.1z M62,87.7l-7.6-10.4h-1.7v10.4h-3.9V66.4h7.6c1.4,0,2.8,0.6,3.8,1.6
			c1,1,1.6,2.4,1.6,3.8c0,2.1-1.3,4-3.1,4.9l7.9,10.9H62z M64.4,61.1L56.5,50l-3.4,3.2v7.9h-4V39.8h4v8l8.5-8h5.8l-7.8,7.4l9.9,13.9
			H64.4z M85.2,87.7l-7.9-11.1l-3.4,3.2v7.9h-4V66.4h4v8l8.5-8h5.8l-7.8,7.4l9.9,13.9H85.2z M86.1,61.1l-7.6-10.4h-1.7v10.4h-3.9
			V39.8h7.6c1.4,0,2.8,0.6,3.8,1.6c1,1,1.6,2.4,1.6,3.8c0,2.1-1.3,4-3.1,4.9l7.9,10.9H86.1z M100.3,70.3v17.4h-4V70.3H91v-4h14.5v4
			H100.3z"/>
	</g>
</g>
</svg>
