<?xml version="1.0" encoding="utf-8"?>
<!-- Generator: Adobe Illustrator 19.0.0, SVG Export Plug-In . SVG Version: 6.00 Build 0)  -->
<svg version="1.1" id="one-thirty-icon" xmlns="http://www.w3.org/2000/svg" xmlns:xlink="http://www.w3.org/1999/xlink" x="0px" y="0px"
	 viewBox="0 0 126 126" style="enable-background:new 0 0 126 126;" xml:space="preserve">
<style type="text/css">
	.st0{fill:#FFFFFF;}
</style>
<g>
	<path class="st0" d="M81.3,38.5c-1.2,0-2.2,0.4-3,1.2c-0.8,0.8-1.2,1.8-1.2,3v41.8c0,1.2,0.4,2.2,1.2,3c0.8,0.8,1.8,1.2,3,1.2
		c1.1,0,2.1-0.4,2.9-1.2c0.8-0.8,1.2-1.8,1.2-3V42.7c0-1.2-0.4-2.2-1.2-3C83.4,38.9,82.4,38.5,81.3,38.5z"/>
	<path class="st0" d="M29.5,58.6c-1.4,0-2.4,1.1-2.4,2.5v0c0,1.4,1,2.5,2.4,2.5c1.4,0,2.4-1.1,2.4-2.5v0
		C31.9,59.8,30.9,58.6,29.5,58.6z"/>
	<path class="st0" d="M64.5,3.2C31.9,3.2,5.4,29.7,5.4,62.3c0,32.6,26.4,59.1,59.1,59.1c32.6,0,59.1-26.4,59.1-59.1
		C123.6,29.7,97.1,3.2,64.5,3.2z M33.8,61.1c0,2.3-1.8,4.1-4.3,4.1c-2.5,0-4.2-1.8-4.2-4.1v0c0-2.3,1.8-4.1,4.3-4.1
		C32,57,33.8,58.8,33.8,61.1L33.8,61.1z M42.5,65.1H41l-3.9-5.1v5.1h-1.7v-8H37l3.8,4.9v-4.9h1.7V65.1z M44.4,57.1h6v1.6h-4.3v1.6
		h3.8v1.6h-3.8v1.7h4.3v1.6h-6.1V57.1z M67.5,83.1c0,3-0.8,5.4-2.4,7.3c-2.1,1.9-4.4,2.9-6.9,2.9h-1.8c-2.5,0-4.8-1-6.9-2.9
		c-1.6-1.8-2.4-4.3-2.4-7.3v-7.8l6.1,0v9.3c0,1.1,0.4,2,1.2,2.8c0.8,0.8,1.7,1.2,2.8,1.2c1.1,0,2.1-0.4,2.8-1.2
		c0.8-0.8,1.2-1.7,1.2-2.8V68.3c0-1.1-0.5-2.2-1.6-3.2c-1-1-2.2-1.5-3.6-1.5H55v-4.9h2.2c2.6,0,4.1-1.5,4.1-4.2V42.7
		c0-1.1-0.4-2.1-1.2-2.9c-0.8-0.8-1.8-1.2-2.9-1.2c-1.1,0-2,0.4-2.8,1.2c-0.8,0.8-1.2,1.8-1.2,2.9v5.7l-5.7,0v-7
		c0-4.8,2.7-7.2,8.5-7.6l2.6,0c5.8,0.4,8.5,2.8,8.5,7.6v12.9c0,0.6-0.2,1.3-0.3,2c-0.5,1.6-1.2,3-2.3,4.1l-0.6,0.6l0.6,0.6
		c2,2.2,3,4.3,3,6.1V83.1z M91.6,83c0,3-0.8,5.5-2.4,7.4c-2.1,1.9-4.5,2.9-7,2.9h-1.8c-2.4,0-4.8-1-6.9-2.9
		c-1.5-1.9-2.3-4.3-2.3-7.3v-39c0-3.2,0.8-5.7,2.5-7.5c2.1-1.9,4.4-2.8,6.8-2.8h1.8c2.4,0,4.8,1,6.9,2.9c1.6,1.9,2.4,4.4,2.4,7.4V83
		z"/>
</g>
</svg>
