<?xml version="1.0" encoding="utf-8"?>
<!-- Generator: Adobe Illustrator 19.0.0, SVG Export Plug-In . SVG Version: 6.00 Build 0)  -->
<svg version="1.1" id="sleep-bellum-sonno-icon" xmlns="http://www.w3.org/2000/svg" xmlns:xlink="http://www.w3.org/1999/xlink" x="0px" y="0px"
	 viewBox="0 0 126 126" style="enable-background:new 0 0 126 126;" xml:space="preserve">
<style type="text/css">
	.st0{fill:#FFFFFF;}
</style>
<g>
	<g>
		<path class="st0" d="M86.3,21L85.7,21C85.3,21.7,86.4,21.6,86.3,21z M54.4,89.2c-0.1,0-0.2-0.1-0.4-0.1c0,0-0.1,0.1-0.2,0.1
			c-0.3,0.1-0.5,0-0.7-0.1c-0.3,0-0.6,0-0.9,0c-0.4,0-0.5,0-0.9-0.1c-0.3-0.1-0.5,0-0.8-0.1c-0.2-0.1-0.4-0.2-0.6-0.2
			c-0.1,0-0.3,0-0.4,0c-0.4-0.1-0.6-0.3-1-0.2c-0.4,0-0.7,0-1.1-0.1c-0.2,0-0.5-0.1-0.7-0.1c-0.3,0-0.6,0.2-1,0.1
			c-0.1,0-0.1-0.2-0.2-0.2c-0.1-0.1-0.4,0-0.5-0.1C44.8,88,44.7,88,44.4,88c-0.3,0-0.6,0-0.8-0.1c-0.1,0-0.3,0-0.4,0
			c-0.1,0-0.3,0-0.4,0c-0.2-0.1-0.3,0-0.5,0.1c0,0,0,0,0.1,0c-0.2,0-0.4,0-0.6,0c-0.1,0-0.1,0-0.2-0.1c-0.1,0-0.2,0-0.4,0
			c-0.1,0,0,0-0.2-0.1c-0.1-0.1-0.2,0-0.3-0.1c-0.2,0-0.3-0.1-0.5-0.1c-0.1,0-0.2,0-0.4-0.1c-0.2,0-0.4,0-0.5,0
			c-0.1,0-0.3,0.1-0.5,0c-0.1,0-0.1-0.1-0.1-0.1c-0.1,0-0.2,0-0.3,0c0-0.1-0.5,0-0.5,0c0,0,0,0.1-0.1,0.1c-0.1,0-0.1,0-0.1,0
			c-0.2,0-0.3,0-0.5-0.1c-0.2,0-0.3-0.1-0.5-0.1c-0.1,0-0.2,0-0.3,0c-0.1,0-0.2,0-0.2,0c0,0-0.1-0.1-0.1-0.1c-0.1,0-0.4,0-0.5,0
			c-0.2,0-0.3,0-0.4,0c0,0,0,0,0,0c-0.3,0-0.6,0-0.8,0c-0.2-0.1-0.5,0-0.7-0.1c0,0,0,0,0,0c0,0.1,0,0.2,0.1,0.2
			c0,0.1,0.1,0.1,0.1,0.2c0,0,0,0.1,0.1,0.1c0.1,0,0.2,0,0.3,0c0.2,0,0.2,0.2,0.4,0.2c0.1,0,0.3,0,0.4,0c0.3,0.1,0.6,0,0.9,0.1
			c0.1,0,0.2,0,0.4,0c0.1,0,0.2,0.1,0.2,0.2c0,0.2,0.3,0.1,0.4,0.1c0.2-0.1,0.4,0,0.6,0.1c0.2,0.1,0.4,0,0.6,0
			c0.2,0,0.2,0.1,0.3,0.1c0.1,0,0.2,0,0.4,0c0.1,0,0,0.1,0.1,0.1c0.1,0,0.2,0,0.3,0c0.1,0,0.1,0.1,0.2,0.1c0.1,0,0.2-0.1,0.3-0.1
			c0.1,0,0.1,0,0.1,0c0.1,0,0.1,0,0.1,0c0,0.1,0.2,0.1,0.3,0.1c0.2,0,0.1,0.1,0.2,0.2c0.1,0.1,0.1,0,0.2-0.1
			c0.1-0.1,0.1-0.1,0.2-0.1c0.2-0.1,0.4-0.1,0.6-0.1c0.2,0,0.4,0,0.6,0c0,0.1,0,0.1,0.1,0.1c0.1,0,0.1-0.1,0.2-0.1
			c0.1,0,0.1,0,0.2,0c0-0.1,0-0.1,0.1-0.2c0.1,0,0.2,0,0.3-0.1c0.2-0.1,0.4,0,0.6-0.1c0.2,0,0.5,0,0.7-0.1c0.2,0,0.4,0,0.5,0
			c0.1,0,0.2-0.1,0.3-0.1c0.3,0,0.2,0.3,0.3,0.5c0.2,0,0.4-0.1,0.5-0.1c0,0.1,0.2,0.2,0.3,0.2c0,0,0.4,0.1,0.4,0.1
			c0.1,0,0.1-0.1,0.2-0.1c0.1,0,0.4,0.1,0.5,0.1c0.3,0,0.7,0.2,1,0.2c0.1,0,0.1-0.1,0.2-0.1c0.1,0,0.1,0.1,0.2,0.1
			c0.2,0,0.3-0.1,0.5-0.1c0.2,0,1,0.1,1,0.2c0.2,0.1,0.5,0,0.7-0.2c0.2,0,0.3,0.2,0.5,0.2c0.2,0.1,0.5,0,0.8,0c0,0-0.1,0-0.1,0.1
			c0.2,0,0.5,0,0.7,0c0.2,0,0.3,0.1,0.6,0.1c0.3,0,0.6-0.1,1-0.1c0.3,0,0.4,0.1,0.6,0.2c0.3,0.1,0.7,0.1,1.1,0.1
			c0.2,0,0.6,0.1,0.8,0c-0.4,0-0.8,0-1.1-0.1c0-0.2-0.2-0.1-0.3-0.2c0,0,0-0.2,0-0.2c0,0-0.1,0-0.2,0c-0.1-0.1,0-0.1-0.1-0.1
			C54.6,89.1,54.5,89.2,54.4,89.2z M85.6,87.7C85.6,87.7,85.7,87.7,85.6,87.7C85.7,87.7,85.6,87.7,85.6,87.7z M119.9,85.8
			c0,0-0.1-0.1-0.1-0.1c0,0,0-0.1,0-0.1c-0.1-0.1-0.3-0.2-0.4-0.3c-0.1-0.1-0.1-0.1-0.2-0.1c-0.1,0-0.2,0-0.3,0
			c-0.2,0-0.3-0.1-0.5-0.1c-0.1,0-0.2,0.1-0.3,0.1c-0.1,0-0.2,0-0.3,0c-0.2,0-0.7,0.2-0.7-0.1c-0.2,0-0.3-0.1-0.5,0
			c-0.2,0.1-0.2,0.2-0.3,0.4c0,0.2-0.1,0.3-0.1,0.5c0,0.2,0,0.3-0.1,0.5c0,0,0,0.2-0.1,0.2c0,0.1-0.1,0-0.2,0.1c0,0-0.1,0.2-0.1,0.2
			c-0.1,0-0.2,0-0.2-0.1c-0.1,0-0.2,0-0.3,0c-0.1-0.1,0-0.1-0.1-0.2c0,0-0.1,0-0.2-0.1c-0.2-0.2,0-0.3-0.3-0.4c0-0.1,0-0.1-0.1-0.2
			c-0.1,0-0.2,0-0.2,0c-0.1,0-0.1,0.1-0.2,0.1c-0.1,0-0.2,0-0.2,0c-0.1,0-0.1,0.1-0.2,0.1c-0.1,0-0.2,0-0.2,0.1
			c-0.1,0.1-0.1,0.2-0.3,0.3c-0.1,0.1-0.3,0.1-0.5,0.2c-0.4,0-0.9,0.1-1.2-0.1c-0.1-0.1-0.2-0.1-0.2-0.2c0,0,0-0.1-0.1-0.2
			c-0.1-0.1-0.3,0-0.4,0c-0.1,0-0.4,0-0.5,0.1c-0.1,0.1-0.2,0.3-0.3,0.3c-0.2,0.1-0.3,0.1-0.5,0.1c-0.1,0-0.3,0-0.4,0
			c-0.1,0-0.3,0.2-0.4,0.2c-0.2,0.1-0.4,0.1-0.6,0.1c-0.1,0-0.2,0-0.3,0c-0.2,0.1-0.4,0.1-0.7,0c0.1-0.1,0.1-0.1,0.2-0.1
			c-0.2,0,0.1-0.4-0.2-0.4c0-0.1,0-0.2,0-0.4c0,0-0.1,0-0.1,0c0-0.3,0-0.6,0-0.9c0-0.3-0.1-0.5-0.3-0.7c0.1,0.1-0.9-0.1-0.7-0.2
			c0.1-0.1,0.3,0,0.4-0.1c-0.1-0.2,0.2-0.8,0.4-0.8c0,0.1,0,0.2,0,0.3c0,0,0.1,0.1,0.1,0.2c0,0,0,0.1,0,0.2c0,0.1,0.2,0.1,0.3,0.2
			c0.1,0.1,0.1,0.1,0.2,0.1c0-0.2-0.1-0.5-0.2-0.6c0-0.1-0.1-0.1-0.1-0.2c0,0-0.1-0.2-0.1-0.2c0-0.1,0.1-0.1,0.1-0.2
			c0-0.1-0.1-0.2-0.1-0.3c-0.1-0.3,0.2-0.3,0.3-0.5c-0.2-0.1-0.3-0.2-0.4-0.3c-0.1-0.1-0.3-0.1-0.4-0.1c-0.1-0.1-0.2-0.1-0.4-0.1
			c-0.1,0-0.1,0.2-0.2,0.2c-0.1,0.1-0.2,0-0.3,0.1c-0.3,0.1-0.6,0.4-0.9,0.6c-0.1,0.1-0.2,0.3-0.5,0.3c-0.3-0.1-0.2-0.4-0.3-0.6
			c-0.1-0.1-0.2-0.2-0.3-0.4c0,0-0.3-0.3-0.3-0.3c0-0.1,0-0.2,0-0.3c-0.2,0-0.5-0.1-0.7-0.3c-0.1-0.1-0.1-0.2-0.2-0.2
			c-0.1,0-0.2,0-0.4,0c-0.2,0-0.4,0-0.6-0.1c-0.1-0.1-0.1-0.1-0.2-0.1c-0.3,0-0.6,0-0.8,0c0,0.1,0,0.1,0,0.2c0.1,0,0.2,0.1,0.2,0.2
			c0.1,0,0.2,0,0.4,0.1c0.1,0,0.2,0,0.3,0c0.2,0,0.6-0.1,0.7,0c0.1,0.1,0.1,0.4,0,0.5c0,0.1-0.2,0.2-0.3,0.3c0,0.1,0.1,0.1,0.1,0.2
			c0,0.1-0.1,0.1-0.2,0.1c-0.1,0-0.2,0-0.3,0c-0.1,0-0.1,0.1-0.1,0.1c-0.1,0.1-0.3,0-0.4,0.1c0,0-0.1,0.1-0.1,0.1
			c-0.1,0.1-0.2,0.1-0.2,0.2c-0.1,0-0.2,0-0.2,0c-0.1,0-0.2,0.1-0.3,0.2c-0.2,0.1-0.4,0-0.6,0c-0.1,0-0.4,0.1-0.5,0
			c-0.1-0.1,0-0.4-0.1-0.5c0-0.1-0.1-0.1-0.2-0.1c0-0.2,0-0.4,0-0.5c0-0.1,0.1-0.2,0-0.3c0-0.1-0.2-0.2-0.1-0.3c0.1,0,0.1,0,0.1,0.1
			c0.1,0.1,0.3,0.1,0.4,0.1c0-0.1,0-0.1,0-0.2c0,0-0.1,0-0.1,0c0.1-0.1,0.1-0.1,0-0.2c0-0.1-0.1-0.1-0.1-0.2
			c-0.1-0.1-0.2-0.1-0.2-0.2c-0.1-0.1-0.1-0.2-0.1-0.2c0-0.1-0.1-0.1-0.1-0.2c-0.1-0.1-0.1-0.1-0.1-0.2c-0.1-0.1-0.2-0.2-0.3-0.2
			c-0.1,0-0.1,0-0.2,0c-0.1,0-0.1,0-0.2,0c-0.4,0-0.3,0.6-0.2,0.8c0,0.2,0,0.5,0,0.7c0,0.2,0,0.4-0.1,0.6c-0.1,0.1-0.1,0.3-0.1,0.5
			c-0.1,0-0.4,0.1-0.5,0.1c-0.1,0-0.1-0.2-0.1-0.2c-0.2-0.1-0.3-0.2-0.3-0.4c-0.1,0-0.2,0-0.3-0.1c-0.3,0-0.6,0.1-0.9,0
			c-0.3-0.1-0.1-0.4,0-0.7c0.1-0.3,0-0.6-0.1-0.8c0-0.2,0.1-0.5-0.1-0.6c-0.1,0-0.2,0-0.3,0c0,0.2,0,0.4,0,0.6
			c-0.1,0.2-0.1,0.3-0.1,0.5c0,0.1,0.1,0.1,0,0.2c0,0.1-0.2,0.2-0.2,0.3c0,0.1,0,0.1,0,0.2c0,0.1-0.1,0.1-0.1,0.2c0,0,0,0.2,0,0.2
			c0,0.1-0.1,0.1-0.2,0.1c-0.1,0.1-0.1,0.1-0.1,0.2c0,0.1-0.1,0.1-0.2,0.2c-0.1,0.1-0.1,0.2-0.2,0.3c-0.2,0.2-0.5,0.2-0.8,0.2
			c-0.2,0-0.2,0-0.3,0.1c-0.1,0.1-0.5,0.3-0.4,0.5c0,0,0.1,0,0.1,0c-0.1,0.1-0.1,0.3-0.1,0.4c-0.2,0-0.4,0-0.6,0c-0.1,0-0.3,0-0.4,0
			c-0.1,0-0.2-0.1-0.3-0.1c-0.2-0.1-0.6-0.1-0.8-0.1c-0.2,0-0.3,0.1-0.5,0.1c0,0.2-0.1,0.3-0.2,0.4c-0.1,0.1-0.1,0.1-0.2,0.2
			c0,0,0,0.1,0,0.1c0,0.1-0.2,0.1-0.2,0.2c0.2,0.1,0,0.1,0,0.2c0,0,0,0.1,0,0.2c-0.1,0.1-0.2,0.3-0.3,0.4c-0.1,0.2-0.2,0.2-0.4,0.3
			c-0.1,0-0.1,0-0.2,0c-0.1,0.1-0.1,0.2-0.2,0.3c-0.3,0.2-0.8-0.1-1-0.2c-0.1-0.1-0.3-0.1-0.4-0.2c-0.1-0.1-0.1-0.1-0.2-0.2
			c-0.2-0.1-0.3,0-0.3-0.1c-0.1-0.1,0-0.2-0.1-0.3c-0.1-0.1-0.3-0.1-0.4-0.2c-0.2-0.1-0.3-0.2-0.5-0.3c-0.1,0-0.1-0.1-0.2-0.1
			c-0.1,0-0.2,0-0.2,0c-0.1-0.1,0-0.2-0.1-0.2c-0.1-0.1-0.2-0.1-0.2-0.1c-0.2-0.1-0.2-0.1-0.3-0.2c-0.1-0.1-0.1-0.2-0.3-0.3
			c-0.1-0.1-0.3-0.1-0.4-0.3c0-0.1,0-0.2,0-0.3c-0.1-0.2-0.4-0.1-0.5-0.3c0.2-0.1,0.4-0.2,0.5-0.2c0.3-0.1,0.6-0.2,1-0.3
			c0.7-0.1,1.4-0.3,2.1-0.6c1-0.5,1.6-0.8,2.7-0.9c1.6-0.2,2.2-1.2,3.8-1.8c1.1-0.4,1.9-1.3,2.9-2c0.2-0.1,0.3-0.4,0.4-0.5
			c2.5,0,5.2-3,6.8-4.6c1-1,2.4-2.8,3.4-3.2c2.2-0.8,5.7,0.1,8.4-0.4c3.7-0.6,5.4-3.2,10-1.6c0-1.1-1.4-2.4-2.7-3.2
			c-1-0.7-2.9-1.7-4.2-2c-2.3-0.5-5,0.2-6.8-0.3c-0.1-0.1-0.1-0.2-0.2-0.3c0.2-0.2,0.3-0.4,0.4-0.6c-0.1-0.3-0.4,0.1-0.6,0.3
			c-0.4-0.5-0.8-1-1.3-1.4c-1.4-1.7-6.4-8.1-6.9-8.7c-2.6-3.6-5.1-7.2-7.7-10.7c0.3,0.6,0.6,1.3,0.9,1.9c0.7,1,11,14.8,12,16.1
			c0.2,0.2,0.4,0.4,0.6,0.6c-1.5-1-3.3-1.7-5.3-2c-0.4-0.7-0.9-1.5-1.3-2.1c-0.5-0.7-5.4-9.3-6.2-10.5c-0.7-1.2-1.3-2.6-2-3.9
			c-0.7-1.3-4.3-7.1-4.9-9c1.3,1.5,2.3,3.2,3.3,4.8c0.5,0.8,1,1.7,1.6,2.5c0.3,0.4,0.5,0.8,0.8,1.2c0.2,0.3,0.3,0.6,0.5,0.9
			c0.1,0.2,0.3,0.4,0.4,0.6c0.1-0.5-0.5-1.2-0.7-1.6c-0.1-0.2-0.2-0.5-0.3-0.6c-0.4-0.5-0.7-1-1.1-1.6c-0.6-0.9-1.1-1.8-1.5-2.7
			c-0.9-1-1.5-2.3-2.4-3.3c-0.4-0.4,0.3-0.2,0.4-0.6c0-0.4-0.7-0.1-0.9-0.2c-0.6-1.2-1.1-1.9-1.8-3.1c-0.4-0.7-0.9-1.4-0.9-1.9
			c-0.2-1.3,0.6-2.9,0.2-4.1c-0.9,0.1-0.7,1.4-0.7,2.3c0,1,0,2.1-0.3,2.9c-5.5-1-9.5-2.4-15.3-3.2c-0.1-2,0-4.1,0.3-6.4l-0.6-0.1
			c-0.7,0.3,0.2,0.5-0.3,1.1c-1.7,0-3.4,0.9-3.8,3c-0.8,0.3-1.3-1-2.4-1c-1-0.1-2.2,0.5-1.9,1.9c0.1,0.3,1.3,0.4,1.3,0
			c0.2-0.6-1.2,0.2-0.9-0.7c0.2-0.4,0.7-0.4,0.9-0.7c1,0,0.9,0.9,1.6,1.1c0.8,0,1.3-0.2,2.2-0.3c0.5-1.1,1-2.4,2.9-1.8
			c0.4,1.4-0.5,2.8-0.7,4.1c-3.8,1.8-8.1,2.9-11.8,4.3c0.3-0.7-0.1-2,0-2.9c0-0.5,0.6-1-0.1-1.1c0.2-0.4,0.8-0.4,0.7-1.1
			c-0.5-0.1-0.7,0-1.1,0.1c0,1.5-0.5,4.2-0.9,6.3c0,0-0.8,0-0.9,0c-0.2,0-0.4,0-0.6,0.1c-0.1,0-0.3,0-0.3,0.1c-0.1,0.1,0,0.2,0,0.3
			c0.1,0,0.2,0,0.3,0c0,0.1,0.1,0.2,0.2,0.3c0.1,0.1,0.1,0.2,0.1,0.3c0.1,0.1,0.1,0.2,0.2,0.2c0.1,0.1,0.2,0.3,0.4,0.4
			c0,0,0.1,0,0.1,0c0,0-0.1,0.1-0.1,0.2c0,0.1-0.1,0.2-0.1,0.3c-0.1,0.2-0.1,0.4-0.2,0.5c-0.1,0.4-0.2,0.7-0.3,1.1
			c-0.2,0.7-0.3,1.5-0.5,2.2c-0.2,1.3-0.5,2.6-0.8,3.9c-0.2,0.4-1.5,0.1-1.9,0.2c0,0.4,0.1,0.4,0.5,0.4c0.1,0.3,0.3,0.5,0.4,0.7
			c0.1,0.2,0,0.4,0.1,0.6c0.1,0.1,0.2,0.2,0.4,0.2c0,0.1-0.1,0.2-0.1,0.4c-0.7,0.1-1.5,0.2-2.2,0.3c0-0.3-0.9-2.7-1.3-2.7
			c-0.6,0-0.2,0.7-0.2,1c0.1,0.4,0.2,0.8,0.3,1.2c0,0.2,0.1,0.4,0.2,0.6c0-0.1-0.5-0.1-0.6-0.1c-0.3,0-0.5,0-0.8-0.1
			c-0.5,0-1-0.1-1.5-0.2c-0.5,0.3-0.7,0.9-0.8,1.7c-0.3,0.3-0.9,0.3-0.9,1c0.6,0.1,2.1-0.4,3.5,0c-1.7,4.6-4,8.6-6.3,12.6
			c-1.7-1.7-1.9-4.7-3.2-6.7c0.2-1.7-1-3-0.6-4.1c-0.7-0.2-0.9,0.2-1.5,0.2c0.1,0.5,0.6,0.8,0.5,1.5c-0.6,0.2-1.1,0.6-1.4,1.2
			c-1.6-0.4-2,0.7-3.1,1c0.6,1.4-0.4,2.8-0.1,4.2c2.4-0.1,3.9-1.3,5.5-2.4c0.5,0.3,0.2,1.1,0.3,1.6c0.1,0.6,0.4,1.2,0.5,1.6
			c0,0.7-0.8,1.1-0.5,1.7c-0.1,0.9,0.7,0.4,1,0.7c-0.1,0.5-0.5,0.3-0.7,0.7c-0.2,0.4-0.2,1.2-0.4,1.7c0,0,0,0-0.1,0
			c0,0.5-0.9,0.2-1.2,0.2c-0.4,0-0.9,0.1-1.4,0.1c-0.2,0-0.5-0.2-0.7-0.1c-0.1,0-0.1,0.1-0.2,0.2c-0.4,0.2-0.6,0.2-1,0.2
			c-0.3,0-0.5,0.1-0.8,0.2c-0.4,0-0.8-0.1-1.2-0.1c-0.5,0-0.9,0.2-1.4,0.2c-0.3,0-0.6-0.1-0.9-0.1c-0.5,0-0.8,0.1-1.3,0.2
			c-0.7,0.1-1.5,0.1-2.2,0.1c-0.8,0-1.4-0.4-2.2-0.5c-0.8-0.1-1.5,0-2.3,0c-0.7-0.1-1.4-0.2-2-0.3c-0.8-0.1-1.5,0.1-2.2,0.2
			c-0.4,0-0.9,0-1.3,0.1c-0.2,0.1-0.3,0.2-0.6,0.1c-0.4,0-0.7-0.3-1.1-0.3c-0.3,0-0.4,0.1-0.7,0.1c-0.7-0.1-1.4-0.2-2.2-0.2
			c-0.7,0-1.3,0.4-2.1,0.4c-0.7,0.1-1.4-0.2-2,0.1c-0.3,0.1-0.5,0.3-0.9,0.3c-0.3,0-0.6-0.1-0.9,0c-0.4,0.1-0.7,0.3-1.1,0.5
			c-0.3,0.1-0.5,0.2-0.8,0.3c-0.1,0-0.3,0.1-0.4,0.2c-0.1,0.1-0.1,0.3-0.2,0.4c-0.2,0.2-0.4,0.2-0.6,0.5c-0.1,0.2-0.1,0.5-0.2,0.7
			c-0.2,0.2-0.3,0.3-0.4,0.6c-0.1,0.3,0,0.7-0.1,1c0,0.3-0.2,0.5-0.2,0.7c-0.1,0.4-0.2,1.1-0.2,1.5c0,0.2,0.1,0.3,0.1,0.5
			c0,0.1,0,0.3,0,0.4c0,0.3-0.1,0.6,0,0.9c0,0.5,0.1,1,0.1,1.5c0,0.2,0,0.5,0,0.7c0,0.3,0.2,0.6,0.2,0.9c0,0.6-0.1,1.1,0,1.7
			c0.1,0.6,0.1,1,0.4,1.6c0.1,0.3,0.1,0.5,0.2,0.7c0.1,0.2,0.2,0.4,0.3,0.6c0.8,0.1,1.5,0.7,2.3,1c2.6,0.8,6.2,0.4,9.4,0.7
			c4.2,0.4,8.5,0.5,12.4,1.3c0.9,0.2,2.3,0.1,2.8,0.8c-0.8-0.1-1.6-0.1-2.4-0.2c-1.6,0-3.4,0.1-5.1,0.2c-5.4-0.5-11.5-1.3-15.4-1
			c0.1,0,0.5,0.4,0.6,0.5c0.2,0.1,0.4,0.3,0.7,0.4c0.5,0.2,1.2,0.4,1.8,0.6c1,0.3,2.1,0.1,3.2,0.3c0.5,0.1,0.9,0.2,1.4,0.3
			c0.5,0,1.1,0,1.6,0c0.1,0,0.2,0,0.3,0c0.3,0,0.6,0.1,0.9,0.2c0.4,0.1,0.6,0.3,1,0.3c0.4,0,0.8,0,1.2,0.2c0.1,0.1,0.3,0.2,0.4,0.3
			c0.1,0.1,0.1,0.2,0.2,0.3c0.1,0.1,0.6,0.3,0.7,0.2c0,0.1,0,0.2,0.1,0.3c0.1-0.1,0.2-0.1,0.4-0.2c-0.2-0.2-0.4-0.3-0.4-0.6
			c0-0.2,0-0.2-0.1-0.4c-0.1-0.1-0.2-0.2-0.2-0.3c0.1,0,0.2,0,0.2,0c0,0,0,0.1,0,0.1c0,0,0.1,0,0.1,0c0,0.1,0,0.2,0.1,0.3
			c0,0,0.1,0,0.2,0c0,0,0,0.1,0,0.1c0.1-0.4,0.3-0.2,0.7-0.3c0.1,0,0.2-0.1,0.3-0.1c0.1,0,0.2,0.1,0.3,0.1c0,0.1,0,0.3,0,0.4
			c-0.1,0.1-0.4,0-0.5,0.1c0-0.1,0.1-0.2,0.3-0.2c-0.1,0-0.2-0.1-0.3-0.1c-0.2,0-0.2,0.1-0.3,0.2c-0.2,0.2-0.4-0.1-0.6,0.2
			c0,0,0.1,0,0.1,0c0,0,0,0.1,0,0.1c0.2,0,0.2,0.1,0.2,0.2c0.2,0,0.7,0.1,0.8,0.3c0.1,0.1,0.1,0.3,0.2,0.3c0,0,0.4-0.2,0.5-0.2
			c0.2,0,0.3,0,0.5-0.1c0.2-0.1,0.1,0,0.2-0.2c0-0.1,0-0.2,0-0.3c0-0.1,0.1-0.1,0.1-0.3c0.2,0,0.2,0.1,0.3,0.1
			c0.2,0.1,0.1,0.1,0.3,0c0.1-0.1,0.1-0.1,0.3-0.1c0.1,0,0.2,0.1,0.3,0.1c0.2,0,0.3,0.1,0.5,0.1c0.2,0,0.6,0.1,0.8,0.1
			c0,0.1,0,0.1-0.1,0.2c0.2,0,0.1,0.1,0.2,0.2c0.1,0.1,0.1,0.1,0.3,0.2c0,0.2,0.1,0.5,0.3,0.5c0-0.3-0.2-0.5-0.1-0.8
			c0.2,0.1,0.2,0.6,0.1,0.8c0.2,0.1,0.3,0.1,0.5,0.1c0.1,0,0.2,0,0.3,0c0.1,0,0.1-0.1,0.2-0.1c0.2-0.1,0.3-0.2,0.5-0.3
			c0.1-0.1,0.3-0.2,0.4-0.3c0,0,0.1-0.1,0.1-0.1c0,0,0-0.1-0.1-0.1c0,0,0.2,0,0.2,0c0.1,0,0.2,0,0.3,0.1c0.1,0,0.1,0,0.2,0.1
			c0.1,0,0.1,0.1,0.1,0.1c0.1,0,0.1,0,0.1,0c0.1,0,0.1,0.1,0.1,0.1c0.1,0,0.2,0,0.3,0c0,0,0.1,0,0.1,0c0.1,0,0.1,0.1,0.1,0.2
			c0.1,0,0.2-0.1,0.3-0.1c0,0.1-0.1,0.2-0.1,0.2c0,0.1-0.1,0.2-0.1,0.2c0,0,0.1,0,0.1,0c0,0-0.2,0.4-0.2,0.5c0,0,0,0,0.1,0
			c0,0.1,0,0.3,0,0.4c0,0.1-0.1,0.1-0.1,0.2c0,0,0.1,0,0.1,0c0.1,0,0.1,0,0.2-0.1c0,0,0.1-0.1,0.1-0.1c0,0,0,0.1,0.1,0.1
			c0,0.1-0.1,0.2-0.1,0.3c0,0.1,0,0.1,0.1,0.1c0,0,0,0,0,0.1c0,0,0.2,0.1,0.2,0.1c0.1,0,0.1,0,0.1,0c0,0,0.1,0,0.1,0
			c0.1,0,0.1,0,0.2,0c0.1,0,0.2,0,0.4-0.1c0,0,0.1,0,0.1,0c0,0,0.1,0,0.1,0c0.1,0,0.1-0.1,0.1-0.1c0-0.1,0-0.2,0-0.3
			c-0.1-0.1-0.3-0.1-0.5-0.2c-0.2,0-0.3,0-0.5-0.1c-0.1,0-0.2,0-0.3-0.1c-0.1-0.1-0.1-0.3-0.1-0.5c0-0.1,0-0.2,0-0.2
			c0-0.1,0.1-0.1,0.1-0.2c0,0,0-0.1,0-0.1c0.1,0,0.1,0,0.1-0.1c0,0,0.4,0.1,0.4,0.1c0.1,0,0.2,0.1,0.3,0.1c0.1,0,0.2,0,0.4,0
			c0.1,0,0.2,0,0.3,0.1c0.2,0.1,0.3,0.1,0.5,0.1c0.1,0,0.2-0.1,0.4-0.1c0.2,0,0.4,0,0.7,0c0.1,0,0.3,0,0.3,0c0,0,0.1,0.1,0.1,0.1
			c0.1,0,0.2,0,0.2,0c0.1,0,0.2,0.1,0.2,0.1c0.1,0,0.1,0,0.2,0c0-0.1,0.3-0.1,0.4-0.1c0-0.2,0.2-0.1,0.3-0.1c0,0-0.1,0.2-0.1,0.2
			c0,0.1,0.1,0.1,0.2,0.1c0,0.1,0,0.1,0,0.1c0,0.1,0.1,0.1,0.2,0.1c0,0,0,0,0.1,0c0,0,0.1,0,0.1,0.1c0.1,0,0.1,0,0.1,0
			c0,0.1,0,0.1,0.1,0.1c0.1,0,0.2,0,0.3,0c0.2,0,0.4,0,0.5,0c0.1,0,0.3,0,0.4,0.1c0.1,0,0.1,0.1,0.2,0c0.1,0,0.2-0.1,0.3-0.1
			c0.1,0,0.2,0,0.2,0c0-0.1,0.2-0.1,0-0.1c0.1,0,0.3-0.1,0.4,0c0,0,0,0.1,0,0.1c0.1,0,0.1,0,0.2,0c0.1,0,0.3,0,0.4-0.1
			c0.1,0,0.3-0.1,0.4-0.1c0.1,0,0.1-0.1,0.2-0.2c0.1,0,0.1,0,0.2-0.1c0,0,0-0.1,0-0.1c0,0,0,0,0.1,0c0,0,0.1,0,0.2-0.1
			c0,0,0-0.1,0.1-0.1c0-0.1,0-0.2,0.1-0.2c0.1,0,0.1,0.2,0.1,0.3c0,0,0,0.1,0,0.1c0,0,0,0.1,0,0.1c0,0,0.1,0,0.1,0.1
			c0,0,0,0,0.1,0.1c0,0,0.1,0.1,0.2,0.1c0,0,0-0.1,0.1-0.1c0.1,0,0.3-0.1,0.4,0c0.1,0,0.1,0,0.2,0c0.1,0,0.2,0,0.3,0
			c0,0,0.1,0.1,0.1,0.1c0.1,0,0.1,0,0.2,0.1c0.1,0.1,0.1,0,0.2,0.1c0,0,0.1,0,0.1,0.1c0,0,0.1,0,0.1,0c0.1,0,0.1,0.1,0.2,0.1
			c0.1,0,0.2,0,0.3,0c0,0,0,0.1,0.1,0.1c0,0,0.1,0,0.1,0c0,0,0,0,0,0c0.1,0,0.1-0.1,0.2-0.2c0.1,0,0.2,0,0.3,0c0.1,0,0.1,0,0.2,0
			c0,0,0.1,0.1,0.1,0.1c0.1,0,0.2-0.1,0.3-0.2c0.1-0.1,0.2-0.1,0.3-0.1c0-0.1,0.1-0.1,0.2-0.1c0,0,0.1,0,0.1-0.1c0,0,0,0,0-0.1
			c0.1-0.1,0.2,0,0.3,0c0,0,0,0.1,0,0.1c0.1,0,0.1,0,0.2,0c0.1,0,0.3,0,0.4,0c0.2,0,0.5,0,0.7,0c0,0.1,0,0.2,0,0.3
			c0.1,0.1,0.2,0,0.2,0.1c0.1,0,0.1,0.1,0.1,0.1c0.1,0.1,0.7,0.1,0.6,0.3c0.1,0,0.1,0,0.2,0.1c0.1,0,0.2,0,0.3,0.1c0,0,0,0-0.1,0.1
			c0.1,0,0.1,0,0.2,0.1c0,0.1,0,0.1,0.1,0.2c0,0,0.1,0,0.2,0.1c0.1,0.1,0.1,0.2,0.1,0.3c0,0.1,0.1,0.2,0.2,0.2c0,0.1,0,0.1,0.1,0.1
			c0,0,0.1,0,0.1,0.1c0,0,0,0.1,0,0.1c0.1,0,0.3,0,0.4,0c0.1,0,0.1,0,0.1,0c0.1,0,0.1,0,0.2,0c0-0.1,0.1-0.1,0.2-0.1
			c0.1,0,0.2-0.1,0.3-0.2c0.2-0.1,0.3-0.3,0.5-0.4c0.1,0,0,0,0.1-0.1c0-0.1,0-0.1,0.1-0.1c0.1,0,0.2-0.1,0.2-0.2c0,0,0,0,0,0
			c-0.1-0.1-0.2,0-0.3,0.1c-0.1,0-0.2-0.1-0.2-0.1c0,0-0.1,0-0.1-0.1c0-0.1,0-0.1,0-0.2c-0.1-0.1-0.2-0.2-0.2-0.3
			c0.1,0,0.1-0.1,0.2-0.1c0,0,0,0.1,0,0.1c0,0,0.1,0,0.1,0c0.1,0,0.2,0,0.3,0.1c0.1,0.1,0.2,0.2,0.3,0.3c0.3,0.2,0.6,0.2,0.8,0.3
			c0.1,0.1,0.1,0.1,0.3,0.1c0.3,0,0.5,0.1,0.7,0.2c0.1,0,0.1,0,0.1,0c0.2,0,0.4,0.1,0.6,0.2c0.2,0,0.1,0,0.2,0.2
			c0.1,0,0.1,0,0.2,0.2c0.1,0.1,0.1,0.1,0.3,0.2c0.1,0.1,0.2,0.2,0.3,0.2c0.1,0,0.2,0,0.3,0c0.1,0,0.1,0.1,0.2,0.1
			c0.1,0,0.3-0.1,0.4-0.1c0.1,0,0.2,0,0.2-0.1c0.1,0,0.1-0.1,0.1-0.1c0.1,0,0.1-0.1,0.2-0.1c0,0,0-0.1,0-0.1c0.1,0,0.1-0.1,0.2-0.1
			c0.1,0,0.2-0.1,0.3-0.1c0.1,0,0.3-0.1,0.4-0.1c0.1,0,0.3,0,0.5,0c0.2,0,0.4-0.1,0.6,0c0.1,0,0.1,0.1,0.2,0.1
			c0.2,0.1,0.4,0.2,0.5,0.3c0,0.1,0.1,0.2,0.2,0.2c0,0.1,0,0.2,0,0.2c0.1,0.1,0.2,0.1,0.3,0.2c0.1,0.1,0.1,0.1,0.2,0.2
			c0.1,0.1,0.3,0.1,0.4,0.2c0.1,0.1,0.1,0.2,0.2,0.2c0.1,0.1,0.2,0,0.3,0.1c0.2,0.1,0.3,0.3,0.6,0.2c-0.1-0.1-0.3-0.5-0.1-0.6
			c0.1-0.1,0.2,0,0.3,0c0.1,0,0.3-0.2,0.4-0.2c0.1,0,0.2,0.1,0.3,0.1c0.2,0,0.4-0.1,0.5-0.1c0.2,0,0.5,0.3,0.7,0.1
			c0.1,0.3,0.6,0.5,0.7,0.1c0,0-0.1-0.1-0.1-0.2c0,0,0-0.1,0.1-0.1c0-0.1,0-0.3,0-0.4c0,0,0.1,0,0.2,0c0,0.1,0.1,0.2,0.2,0.3
			c0,0.1,0.1,0.4,0.1,0.5c0,0.2-0.1,0.3-0.1,0.4c0,0.2,0,0.3,0,0.5c-0.5,0.1,0.2,0.8,0,1.1c-0.3,0.3-1-0.1-1.4-0.1
			c-0.1,0-0.3,0-0.4,0c-0.1,0-0.1-0.1-0.3-0.1c-0.2,0-0.3,0.1-0.5,0.1c-0.1,0-0.2,0-0.4,0c-0.1,0-0.2,0-0.2,0c-0.1,0-0.1,0-0.2,0.1
			c-0.1,0-0.3-0.1-0.4-0.1c-0.1,0-0.2,0.1-0.3,0.1c-0.3,0-0.3-0.2-0.6-0.2c-0.1,0-0.3,0-0.4,0.1c-0.1,0-0.3,0-0.4,0
			c-0.1,0-0.2,0.1-0.4,0.1c0,0,0,0.1,0,0.2c-0.1,0-0.3,0-0.4,0c0,0.1-0.1,0.2-0.2,0.2c0,0-0.3,0-0.1,0.1c0,0-0.1,0-0.1,0
			c0,0,0,0,0,0c-0.1,0.1-0.3,0-0.4,0.1c0.2,0,0.4,0,0.6,0c0.1,0,0.3-0.1,0.4-0.1c0.1,0,0.1,0.1,0.2,0.1c0-0.1,0.3-0.1,0.4-0.2
			c0.1,0,0.2,0,0.3,0c0.1,0,0.1,0,0.2,0c0.1,0,0.3,0,0.4,0c0.1,0,0.2-0.1,0.3,0c0.1,0,0.2,0,0.4,0c0.2,0,0.4-0.1,0.7,0
			c0.1,0,0.2,0.1,0.2,0.1c0.1,0,0.2-0.1,0.3-0.1c0.1,0,0.3,0,0.4,0c0.2,0,0.3,0.1,0.5,0.1c0.1,0,0.2,0,0.2,0c0.1,0,0.3,0,0.4,0
			c0.1,0,0.3,0.1,0.4,0.1c0.1,0,0-0.1,0.1-0.1c0.1,0,0,0,0.1-0.1c0.3-0.1,0.8,0,1.2,0c0.4,0,0.9,0,1.3,0.1c0.7,0,4.7-0.2,4.5-0.3
			c-0.5-0.3-2.3,0.1-2.7-0.3c0,0-0.1,0.1-0.1,0.1c-0.1,0-0.2,0.1-0.3,0.1c-0.2,0-0.3,0.1-0.5,0.1c-0.2,0-0.3,0-0.5-0.1
			c-0.1,0-0.1,0-0.2,0c-0.1,0-0.1,0-0.2,0c-0.1,0-0.1,0-0.2,0c-0.1,0-0.2,0-0.2,0c0,0,0,0-0.1,0c-0.1,0.1-0.1,0-0.2,0
			c-0.1,0-0.1,0-0.2,0c0,0-0.1,0-0.1-0.1c-0.1,0-0.1-0.1-0.2-0.2c-0.1-0.1-0.2-0.1-0.2-0.2c0,0,0.1,0,0.1,0c0,0,0.1,0,0.1,0
			c0.1,0,0,0.1,0.1,0.1c0,0,0.1,0.1,0.1,0.1c0,0,0.1,0,0.1,0c0.1,0,0.1,0,0.2,0c0.2-0.1,0.2-0.3,0.5-0.2c0,0.1,0.2,0.1,0.3,0.1
			c0.1,0,0.2-0.1,0.3,0c0.1,0,0.2,0.1,0.4,0.1c0.1,0,0.1-0.1,0.1-0.1c0.1,0,0.2,0,0.2,0c0,0,0-0.1,0.1-0.1c0,0,0-0.1,0.1-0.1
			c0.1,0,0.1,0,0.2-0.1c0-0.1,0.1-0.1,0.1-0.2c0,0,0,0,0,0c0,0,0.1,0,0.1,0c0.1-0.1,0.2-0.3,0.2-0.4c0-0.1,0-0.2,0-0.3
			c0-0.1,0-0.2-0.1-0.3c-0.1-0.1-0.2-0.2-0.2-0.3c0-0.1,0-0.1,0-0.1c0,0-0.1-0.1-0.1-0.1c0,0-0.1-0.1-0.1-0.1c0,0,0-0.1,0-0.1
			c0,0,0-0.1,0-0.1c0,0,0-0.1,0.1-0.1c0,0,0-0.1,0-0.1c0-0.1,0.1-0.1,0.1-0.1c0,0,0-0.1,0.1-0.1c0.1-0.4,0.2,0.1,0.2,0.3
			c0.3-0.1,0.1,0.4,0,0.5c0,0,0.1,0.1,0.1,0.1c0-0.1,0.1-0.2,0.1-0.2c0.1,0.3,0.2,0.5,0.4,0.6c0,0,0.1,0.1,0.1,0.1
			c0.1,0,0.2,0,0.2,0c0.2,0.1,0.2,0.3,0.4,0.4c0.2,0.1,0.4,0,0.5,0.1c0.1,0,0.2,0.1,0.3,0.2c0.2,0.2,0.5,0.5,0.8,0.4
			c0-0.2-0.1-0.3-0.2-0.4c0-0.1,0-0.4,0-0.5c0.1,0,0.2,0.2,0.3,0.3c0,0.1,0.1,0.5,0.1,0.4c0.2,0.1,0.3,0.1,0.4,0
			c-0.1-0.2-0.1-0.4-0.1-0.7c0,0-0.1,0-0.1,0c0.1,0,0.3,0,0.4,0c0.2,0,0.3-0.1,0.4-0.2c0.1,0,0.2,0.1,0.3,0.1c0.2,0,0.2-0.1,0.3-0.2
			c0.1,0,0.2-0.1,0.2-0.1c0.1,0,0.1-0.1,0.2-0.1c0,0,0.1-0.1,0.1,0c0,0.1-0.1,0.3-0.2,0.4c0.2,0,0.2,0.3,0,0.3
			c0,0.1,0.1,0.1,0.1,0.2c0,0.1-0.1,0.1,0,0.2c0,0.1,0.1,0.1,0.1,0.1c0,0,0,0.1,0,0.1c0,0,0.1,0,0.1,0c0.1,0.1,0.1,0.3,0.2,0.4
			c0.1,0.1,0.4,0.1,0.5,0.1c0.2,0.1,0.3,0,0.4,0c0,0,0-0.1,0.1-0.1c0.1,0,0.2,0,0.2,0c0.1,0,0.1-0.1,0.2-0.1c0.2,0,0.4,0,0.6,0
			c0.1,0,0.2-0.1,0.4,0c-0.1,0.3-0.3,0.3,0,0.5c0.1,0.1,0.2,0.3,0.3,0.2c0,0.2,0.1,0.3,0.2,0.4c-0.2,0-0.4,0-0.6-0.1
			c-0.1,0-0.1,0-0.2,0c-0.1,0-0.2-0.1-0.4-0.2c-0.2-0.1-0.4,0-0.7,0c-0.1,0-0.3,0-0.4,0c-0.2,0-0.3,0-0.5-0.1c-0.3,0-0.5,0-0.8,0
			c-0.1,0-0.3,0-0.4,0c-0.2,0-0.4-0.1-0.6,0c-0.1,0-0.2,0.1-0.3,0.1c-0.2,0-0.4,0-0.6,0c-0.2,0-0.4,0.1-0.6,0.2c-0.1,0-0.1,0-0.2,0
			c0.1,0.1,0,0.1,0,0.2c0.1,0,0.1,0,0.2,0c0,0,0,0.1,0.1,0.1c0.1,0.1,0.2,0.1,0.4,0.1c0.4,0,0.8,0,1.2,0c0.4,0,0.8-0.1,1.3-0.1
			c0.2,0,0.5,0,0.7,0c0.2,0,0.3,0,0.5,0.1c0.1,0,0.2,0,0.3-0.1c0.2,0,0.5,0,0.7,0.1c0.2,0,0.4,0,0.6,0.1c0.4,0.1,0.8,0.1,1.2,0.1
			c0.3,0,0.7-0.1,1-0.1c0.2,0,0.4,0.1,0.7,0.1c0.1,0,0.2,0,0.4,0c0.3-0.1,0.6-0.2,0.9-0.2c0.2,0,0.5,0,0.7,0c0.2,0,0.4,0,0.5,0.1
			c0.2,0,0.4-0.1,0.6-0.1c0.2,0,0.4,0,0.6,0c0.4,0,0.7-0.1,1.1,0c0.2,0,0.4,0.1,0.6,0.1c0.2,0,0.3,0.1,0.5,0.1c0,0,0.1-0.1,0.2-0.1
			c0,0,0.1,0,0.1,0c0.1,0,0.3,0,0.4,0c0.2,0,0.3,0,0.4-0.1c-0.1,0-0.2-0.1-0.3-0.1c-0.2,0-0.4,0-0.5,0c-0.2,0-0.8-0.4-0.5-0.6
			c0.1-0.1,0.2,0,0.3-0.1c0.1,0,0-0.1,0-0.1c0-0.1,0.1-0.2,0.2-0.3c0.1-0.1,0.2-0.2,0.3-0.3c0.1-0.1,0-0.2,0.1-0.3
			c0-0.1,0.1,0,0.1-0.1c0,0,0,0,0,0c0,0,0.1,0,0.1,0c-0.1-0.1-0.2-0.3-0.2-0.5c0,0-0.1,0-0.1,0c0.1-0.1,0.1-0.3,0.2-0.3
			c0.1,0,0.2,0.2,0.3,0.2c0.1,0.1,0.3,0,0.5,0.1c0.1,0,0.1,0.1,0.1,0.1c0.1,0.1,0.1,0.1,0.3,0.1c0,0,0.2,0,0.3,0
			c0.1,0,0.1,0.1,0.1,0.2c0,0,0.1,0,0.1,0c0.1,0,0.1,0.1,0.1,0.2c0.1,0.1,0.2,0.1,0.3,0.1c0.2,0,0.3-0.1,0.4-0.1
			c0.1,0,0.2,0.1,0.3,0.1c0,0.1,0,0.1,0,0.2c0,0,0.1,0,0.1,0c0,0.1-0.1,0.2-0.1,0.3c0,0.2,0,0.3,0.1,0.4c0,0.1,0.1,0.1,0.1,0.2
			c0,0.1-0.1,0.1-0.1,0.2c0,0,0.1,0,0.1,0c0,0.1,0.2,0.1,0.1,0.2c-0.1,0-0.3,0.1-0.4,0.1c-0.1,0-0.3,0.1-0.4,0.1c-0.2,0-0.4,0-0.6,0
			c-0.1,0-0.3,0.1-0.4,0.1c-0.1,0-0.3,0-0.4,0c-0.2,0-0.2,0.1-0.4,0.1c-0.3,0,0,0.1-0.2,0.2c0,0,0.1,0.1,0.1,0.1
			c-0.1,0.1-0.2,0-0.3,0.1c0,0.1,0,0.1,0,0.1c0.2,0.1,0.6,0,0.8,0c0.5,0,0.9,0.1,1.4-0.1c0.3-0.1,0.7,0,1.1,0c0.1,0,0.1,0,0.2-0.1
			c0.2-0.1,0.3-0.3,0.6-0.3c0.2,0,0.4,0,0.7,0c0.2,0,0.4,0.1,0.6,0.1c0.3,0,0.6-0.1,0.9-0.1c0.1-0.2,0.1-0.2,0.3-0.3
			c0.2,0,0.3,0,0.5,0c0.1,0.3,0.6,0,0.8,0c0.4,0,0.8,0.1,1.1,0c0.6-0.1,1.4-0.1,1.9,0c0.2,0,0.4-0.1,0.6-0.1c0.1,0,0.2,0,0.3,0
			c0.1,0,0.1-0.1,0.2-0.1c0.2-0.1,0.4,0,0.6-0.1c0.1,0,0.2-0.1,0.4-0.2c0.6-0.1,1.7,0.4,2-0.3c0.2,0,0.4,0,0.6,0
			c0.1,0,0.3,0.1,0.4,0.1c0.2,0,0.4,0,0.6,0c0.2,0,0.4-0.1,0.6-0.2c0.1,0,0.3,0,0.4-0.1c0.1-0.1,0.1-0.3,0.2-0.3
			c0.2-0.1,0.5,0,0.7,0.1c0.2,0.1,0.4,0,0.6,0c0.2,0,0.4,0,0.6,0c0.5,0,1,0.1,1.5,0c0.2,0,0.4-0.1,0.6-0.1c0.3,0,0.6,0,0.8-0.1
			c0.2,0,0.5,0,0.7-0.1c0.3,0,0.4,0.1,0.7,0c0.2,0,0.4-0.1,0.5-0.1c0.1,0,0.4,0,0.5-0.1c0,0,0-0.2,0.1-0.2c0.1-0.1,0.1,0,0.3-0.1
			c0.1,0,0.3,0,0.4,0c0.1,0,0.2,0,0.4,0c0,0.2,0.3,0.1,0.4,0.1c0.3,0,0.5,0,0.8,0c0-0.2,0.2-0.2,0.3-0.2c0.2,0,0.4,0,0.6,0
			c0.4,0,0.8,0.1,1.3,0c0.2,0,0.3-0.1,0.5-0.1c0.2,0,0.3,0.1,0.4,0.1c0.1,0,0.7,0,0.6-0.1c0.4-0.1,0.7,0.2,1,0.2c0.1,0,0.2,0,0.3,0
			c0.2,0,0.3,0.1,0.4,0.1c0.2,0,0.4,0,0.6,0c0.3,0,0.4-0.1,0.6-0.2c0.2-0.1,0.5,0,0.7-0.2c0.1-0.1,0-0.1,0.2-0.1c0.2,0,0.4,0,0.6,0
			c0.1,0,0.6-0.2,0.3-0.3c0.1-0.1-0.1-0.1-0.1-0.2c0-0.1,0.1-0.3,0-0.4c-0.1-0.2-0.4-0.1-0.6-0.1c-0.1,0-0.2,0-0.3,0
			c-0.1-0.1-0.2-0.2-0.3-0.2c-0.1-0.1-0.3,0-0.5,0C120.1,86.1,120,85.9,119.9,85.8C120,85.9,119.9,85.8,119.9,85.8z M53,56
			c0,0.1,0,0.1,0,0.2c-0.2,0-0.3,0-0.5,0c0-0.3,0.3-0.5,0.4-0.8c0.1-0.4,0.1-0.9,0.2-1.3C52.9,54.7,53.1,55.4,53,56z M55.8,26.7
			c0,0.5,0.1,2.7,0.1,2.7l-0.5,0.1C55.4,29.5,55.9,27.1,55.8,26.7z M54.9,35.3c0,0.4-0.2,4.2-0.3,4.2c-0.2,0-0.8,0.1-0.9-0.1
			C53.5,39.2,54,38.3,54,38C54.3,37.1,54.6,36.2,54.9,35.3z M54.8,31.8c0.4-0.7,0.2,1.3,0.1,2.7c-0.2,0.5-1.2,4-1.6,4.6
			C53.4,36.6,54.5,32,54.8,31.8z M53.3,42.3c0,0.3-0.3,0.5-0.6,0.7c-0.1,0-0.2,0.1-0.2,0.1c0,0,0,0.1-0.1,0.2c0-0.3,0-0.6,0.1-0.9
			c0.1,0,0.2,0,0.3-0.1C53,42.3,53.1,42.3,53.3,42.3z M53.3,42.7c0.1-0.1,0.2-0.1,0.3-0.2c0.1-0.1,0.1-0.2,0.1-0.2
			c0.3,0,0.6,0.1,0.8,0c0,0.6-0.1,1.2-0.2,1.7c0,0.1,0,0.3-0.1,0.4c-0.1,0.1-0.3,0-0.4,0c-0.1,0-0.1,0-0.2,0
			c-0.4,0.2-0.8,0.3-1.3,0.3c0,0,0.1-0.7,0.1-0.7c0.1-0.2,0.1-0.4,0.2-0.6c0.1-0.2,0.2-0.3,0.4-0.5C53.1,42.8,53.2,42.8,53.3,42.7z
			 M52.3,45.1c0.5-0.2,1.1-0.3,1.8-0.3l-0.1,1.1c-0.6,0.1-1.5-0.2-1.5,0.7C51.9,46.2,52.1,45.6,52.3,45.1z M52.7,48.9
			C52.1,47.6,53.2,49.7,52.7,48.9L52.7,48.9z M40.2,58.2c-0.6-0.7,0.4-0.7,0.3-1.6c0.1-0.3-0.1-0.3-0.1-0.5
			c-1.2-0.8-1.4-2.6-1.7-4.2c0.9,1.8,1.7,3.6,2.7,5.4C41.1,57.7,40.6,57.8,40.2,58.2z M41.6,58.6c-0.4,0-0.8,0-0.9-0.2
			C40.7,58.1,41.9,58.2,41.6,58.6z M42.3,58.4c0.1,0,0.1,0,0.2,0c0.1,0,0.2,0,0.3,0c0.2,0,0.4,0.1,0.7,0.2c0.3,0.2,0.6,0.2,1,0.3
			c0,0.1,0,0.3-0.1,0.3c-0.1,0-0.3-0.1-0.4-0.2c0,0-0.1,0-0.1,0c-0.2,0-0.4-0.1-0.6-0.2c-0.2,0-0.4-0.1-0.6-0.1
			c-0.1,0-0.2,0-0.3-0.1C42.1,58.7,42.2,58.5,42.3,58.4C42.2,58.4,42.3,58.4,42.3,58.4z M45.2,59.9c-0.1-0.1-0.1-0.1-0.2-0.2
			c0,0-0.2-0.3-0.2-0.2c0.1-0.1,0.1-0.2,0.1-0.4c0.1,0,0.2,0.1,0.2,0.1c0.1,0,0.6,0,0.6,0c-0.1,0.3-0.3,0.5-0.4,0.9
			C45.3,60,45.3,59.9,45.2,59.9z M46.8,60.7c-0.5-0.1-0.9-0.2-1.2-0.4c0-0.6,0.3-0.8,0.4-1.1c0.5,0.1,0.8,0.3,1.4,0.3
			C47.2,59.9,47,60.3,46.8,60.7z M46.4,58.6c0.5,0.1,1.2,0.1,1.2,0.6C47.1,59.1,46.2,59.3,46.4,58.6z M47.8,61l-0.3,0l0-0.5l0.5,0
			C48,60.8,47.8,60.8,47.8,61z M47.7,60.2C47.7,60.1,47.7,60.1,47.7,60.2c0-0.1,0.1-0.5,0.1-0.5c0.2,0,0.3,0.1,0.5,0.1
			c0,0.1-0.1,0.4-0.2,0.5C48.1,60.3,47.8,60.2,47.7,60.2z M48.2,61.1C48.2,61.1,48.2,61.1,48.2,61.1c-0.1-0.1,0-0.4,0.1-0.4
			c0.1-0.1,0.3,0,0.4,0c-0.1,0.1-0.2,0.3-0.2,0.4C48.5,61,48.3,61.1,48.2,61.1z M48.8,60.4c-0.1-0.1-0.3-0.1-0.4-0.1
			c0,0,0.2-0.4,0.2-0.5c0.1,0.1,0.3,0.1,0.5,0.2C48.9,60.1,48.9,60.3,48.8,60.4z M50.7,43.5c0-0.3-0.1-0.5-0.3-0.7
			c0.4-0.3,1-0.3,1.6-0.3L52,43.3C51.4,43.2,51.2,43.6,50.7,43.5z M49.2,61.2C49.2,61.2,49.1,61.2,49.2,61.2c-0.1,0-0.2-0.1-0.2-0.1
			c-0.1,0-0.1,0-0.1-0.1c0-0.1,0.1-0.2,0.2-0.3c0,0,0.1,0.1,0.2,0.1c0.1,0,0.2,0,0.2,0c0,0.1-0.1,0.3-0.1,0.4
			C49.3,61.2,49.2,61.2,49.2,61.2z M49.1,60.5c-0.1-0.1,0.1-0.3,0.1-0.4c0.1,0,0.1,0.1,0.2,0.1c0,0,0.1,0,0.1,0c0.1,0,0.1,0,0.2,0
			c-0.1,0.1-0.2,0.3-0.2,0.4C49.5,60.6,49.1,60.5,49.1,60.5z M51.7,43.5c0,0,0.1,0,0.1,0c0,0.1,0,0.3,0,0.4c0,0.2,0,0.3-0.2,0.3
			c-0.1,0-0.2,0-0.3,0.1c0,0.1,0,0.2-0.1,0.3c-0.1-0.1-0.2-0.2-0.2-0.3c-0.1-0.2-0.2-0.4-0.3-0.5C51.1,43.7,51.4,43.5,51.7,43.5z
			 M51.7,44.3c0.1,0,0.1,0,0.2,0c0,0.1,0,0.3-0.1,0.4c0,0.2,0,0.4,0,0.6c-0.1-0.1-0.2-0.3-0.2-0.5c0,0,0.1-0.4,0-0.4
			C51.6,44.4,51.6,44.4,51.7,44.3z M49.8,61.4c-0.1,0-0.2,0-0.2-0.1c0-0.1,0.1-0.2,0.1-0.3c0-0.1,0.1-0.2,0.1-0.3
			c0-0.1,0.1-0.3,0.1-0.4c0.1-0.1,0.1-0.1,0.2,0c0.1,0,0.3,0,0.4,0.1c0,0,0,0.1,0,0.2c0,0.1-0.1,0.3-0.1,0.4c0,0.1-0.1,0.3-0.2,0.4
			C50.1,61.4,49.9,61.4,49.8,61.4z M52.3,61.9C52.3,61.9,52.3,61.9,52.3,61.9C52.3,62,52.3,62,52.3,61.9c-0.2,0.1-0.3,0-0.4,0
			c-0.3,0-0.5-0.1-0.7-0.2c-0.2-0.1-0.5-0.2-0.7-0.1c0.1-0.1,0.1-0.3,0.2-0.5c0,0,0.2-0.5,0.2-0.5c0.1,0,0.4,0.1,0.5,0.1
			c0.2,0,0.4,0.1,0.5,0.2c0.2,0.1,0.4,0.1,0.7,0.1c0,0.1,0,0.2,0,0.3c0,0.1-0.1,0.3-0.1,0.4C52.4,61.7,52.4,61.8,52.3,61.9z
			 M52.8,57.6c0,0.2,0,0.4-0.1,0.6c0,0.3-0.1,0.6-0.1,0.9c-0.1,0.5-0.1,0.9-0.1,1.4c-0.2,0-0.3-0.1-0.5-0.1
			c-0.3-0.1-0.7-0.2-1.1-0.2c0-0.1,0-0.1,0.1-0.2c0.1-0.2,0.2-0.4,0.2-0.6c0.2-0.4,0.4-0.9,0.6-1.4c0.1-0.3,0.3-0.5,0.3-0.8
			c0-0.1,0-0.2,0.1-0.3c0-0.1,0.1-0.2,0.1-0.3c0,0,0.3,0,0.4,0c0.1,0,0.2,0,0.2,0.2c0,0.1,0,0.3,0,0.4
			C52.8,57.4,52.8,57.5,52.8,57.6z M89.5,70.2c-0.1,0-0.1,0-0.2,0c-0.5-0.1-1.1-0.3-1.6-0.5c-0.6-0.3-1.1-0.2-1.7-0.2
			c-0.1-2-0.4-4-0.5-5.9c0-0.5-0.6-5.8-0.5-5.9c1.3-0.3,2.4-1.1,3.2-2c1,0.2,8.5,7.7,10.3,8.7c-1,1.2-2.1,2.4-2.9,3.9
			C94.8,68.6,90.8,70.3,89.5,70.2z M87.2,50.9C87.2,50.9,87.2,50.9,87.2,50.9c0.1,0,0.2,0,0.2-0.1c0-0.1,0-0.2,0-0.2
			s-1.1-0.1-1.3-0.1c-0.1,0-0.1,0-0.1-0.1c0-0.1,0-0.1,0-0.2c0-0.2,0-0.4,0.1-0.7c0.7,0,1,0.4,1.7,0.3c0.5,1,0.8,1.9,1.3,3.2
			c-0.5-0.1-1.1-0.1-1.6-0.1c-0.2,0-0.5-0.1-0.7-0.1c-0.2,0-0.4-0.1-0.6-0.1c-0.2,0-0.4,0-0.6,0c-0.4,0-0.2-0.5-0.2-0.8
			c0.1,0,0.3,0,0.4,0c0.2-0.1,0.5-0.2,0.6-0.4c0.1-0.1,0.1-0.2,0.2-0.2c0.2,0,0.4,0,0.5-0.2C87,51,87,50.9,87.2,50.9z M81.2,64
			c0,0.2,0,0.4-0.1,0.5c-0.1,0.2-0.5,0-0.7,0c-0.2,0-0.3,0-0.5,0c0,0,0.1-0.4,0.1-0.5c0-0.1,0.1-0.3,0.1-0.4c0-0.2,0.1-0.3,0.1-0.5
			c0-0.2,0.1-0.3,0.1-0.5c0.1,0,0.3,0,0.4,0c0.1,0,0.2,0.1,0.3,0.1c0.1,0,0.2,0,0.3,0.1c-0.1,0.3-0.1,0.6-0.1,0.9
			C81.2,63.8,81.2,63.9,81.2,64z M80.5,65.6c-0.1,0-0.2,0-0.2,0c0.1-0.3,0-0.5,0.1-0.8c0.2,0,0.3,0,0.5,0c0,0.2,0,0.4,0,0.6
			c0,0.1,0,0.2,0,0.3C80.9,65.6,80.7,65.6,80.5,65.6z M79.2,64.4C79.2,64.4,79.2,64.4,79.2,64.4c-0.1-0.1,0-0.1,0-0.1
			c0-0.1,0.1-0.3,0.1-0.4c0.1-0.2,0.2-0.5,0.3-0.7c0.1-0.2,0.2-0.4,0.3-0.6c0.1,0,0.2,0,0.2,0c0,0.1-0.1,0.1-0.1,0.1
			c0,0.1-0.1,0.2-0.1,0.3c0,0.1-0.1,0.2-0.1,0.3c0,0.1,0,0.3-0.1,0.4c0,0.1-0.2,0.8-0.3,0.8C79.5,64.4,79.4,64.4,79.2,64.4z
			 M79.3,65.4C79.3,65.4,79.3,65.4,79.3,65.4c-0.1,0-0.5,0-0.5,0c0-0.1,0-0.2,0-0.2c0-0.1,0.1-0.1,0.1-0.2c0.1-0.1,0.1-0.2,0.1-0.4
			c0.2,0.1,0.4,0,0.5,0c0,0.2-0.1,0.4-0.2,0.6C79.3,65.3,79.3,65.4,79.3,65.4z M73.6,58.6c0.4-2.3,0.5-4.9,1.1-7
			c0.6,0,1-0.2,1.5-0.3c-1.1-0.5-2.9-0.4-4-0.2c-0.1,0-0.3-0.2-0.3-0.3c-0.1-0.1-0.2-0.2-0.3-0.3c-0.2-0.2-0.4-0.4-0.6-0.5
			c-0.4-0.3-0.8-0.6-1.2-0.9c-0.1-0.1-0.3-0.2-0.4-0.2c-0.1-0.1-0.2-0.1-0.4-0.2c0.2,0,0.5,0,0.7-0.2c0-0.1,0-0.1,0.1-0.2
			c0,0,0.1,0,0.2,0c0.1-0.1,0.1-0.3,0.1-0.4c0.1,0,0.2,0,0.3,0c0-0.1,0-0.2,0-0.2c-0.1,0-0.3-0.1-0.4-0.1c-0.1,0-0.3-0.1-0.4-0.1
			c-0.2,0-0.3,0-0.5,0c-0.1,0-0.1,0-0.2,0c0,0,0-0.1,0-0.1c0-0.2,0-0.4,0.1-0.6c1.5,0.6,3,0.7,3.8,1.8c0.5,0.7,0.3,1.7,1.1,2.3
			c1.2-3.3,0.5-7.2,0.8-9.9c1.4,1.5,2.8,3.1,4.4,4.4c-0.3,2.8-0.6,5.8-2.4,7.1c0.1,0.4,0.9,0.1,1.2,0.3c0.6,1,0.8,2.3,2.5,2.3
			c0.1,0.5,0.4,0.7,0.5,1.2c-0.5,0.9-1.1,1.7-1.8,2.4c-0.5,0.6-1.1,1.2-1.6,1.8c-0.3,0.3-0.5,0.6-0.8,0.9c-0.1,0.1-0.2,0.3-0.3,0.4
			c-0.1,0.1-0.2,0.1-0.2,0.2c0,0,0,0.2,0,0.2c0.1-0.1,0.2-0.3,0.3-0.4c0.1-0.1,0.3-0.3,0.4-0.4c0.1-0.1,1.2-1.3,1.2-1.3l-1.6,2.5
			c0,0-0.3-0.6-0.4-0.6c-0.5-0.5-0.9-1.1-1.3-1.7c-0.2-0.3-0.4-0.6-0.6-0.9c-0.1-0.1-0.2-0.3-0.3-0.4C73.9,58.9,73.6,58.7,73.6,58.6
			z M75.8,62.2c-1.5,1.5-2.6,2.5-4,3.6c0.3-2.4,1.1-4.5,1.8-6.9C74.2,60.1,75.2,61,75.8,62.2z M70.4,66.8c0.2-0.5,0.7-0.8,0.8-1.5
			C71.6,65.9,71,66.8,70.4,66.8z M68.4,49.6c0.9,0.3,1.4,0.9,2.3,1.2c-0.7,0.2-2.2,0.1-2.7-0.1C67.9,50.1,68.3,50.1,68.4,49.6z
			 M68.2,46.5c0.1,0,0.3,0.1,0.4,0.2c-0.1,0.1-0.1,0.3,0,0.4c0,0.1,0.1,0.3-0.1,0.4c0,0-0.6-0.1-0.6-0.1c0-0.1,0-0.3,0.1-0.4
			c0-0.1,0.1-0.1,0.1-0.2C68.1,46.7,68.1,46.5,68.2,46.5C68.2,46.5,68.2,46.5,68.2,46.5z M71,36.9c0-0.2-0.1-0.3-0.1-0.5
			c0,0.2,0.3,0.6,0.4,0.7c0.1,0.1,0.2,0.2,0.4,0.3c0.1,0.1,0.2,0.2,0.3,0.2c0.1,0.1,0.1,0.1,0.2,0.2c-0.3,0-0.7,0-1,0
			c0,0-0.1-0.6-0.1-0.7C71,37.1,71,37,71,36.9z M83.7,38.3c0.4,0.3-0.1,1-0.1,1.3C83.2,39.2,83.8,38.7,83.7,38.3z M83,49.3
			c0,0-0.1,0.9-0.1,1c-0.4,0-0.8,0-1.2,0c-0.1,0-0.4,0-0.5,0c-0.1,0.1-0.1,0.2,0,0.3c0.1,0.1,0.2,0,0.4,0c0,0.2,0,0.5,0.1,0.6
			c0.1,0.1,0.3,0.1,0.4,0.2c0.1,0,0.1,0,0.2,0.1c0,0-0.1,0.3-0.1,0.3c-0.1,0.1-0.2,0.2-0.3,0.3c-0.2,0.2-0.4,0.3-0.6,0.5l-2.2-0.2
			C80,50.8,80.8,49.1,83,49.3z M84.3,37.5c0.2,0.2,0,2.7-0.3,3.3C83.4,40.2,84.3,38.7,84.3,37.5z M85.9,29.2c0.3,0.4,0.4,1,0.5,1.5
			C85.3,30.9,85.9,29.8,85.9,29.2z M82.5,57.6c-0.1,0,0,0.8,0,0.8c-0.1,0-0.5,0-0.5-0.1c0,0,0.1-0.3,0.1-0.3c0-0.1,0-0.1,0-0.2
			c0-0.1,0-0.2,0-0.3C82.3,57.4,82.4,57.6,82.5,57.6z M82.3,59c0,0.1,0,0.3-0.1,0.3c-0.1,0.1-0.3,0-0.4,0c0-0.1,0.1-0.3,0.1-0.4
			c0-0.1,0-0.2,0.1-0.3c0.1,0,0.3,0,0.3,0C82.3,58.6,82.3,58.8,82.3,59C82.3,58.9,82.3,58.9,82.3,59z M81.9,52.7
			c0.4-0.4,0.7-0.4,0.9-0.9C83,52,83,52.3,83,52.6C82.6,52.6,82.4,52.8,81.9,52.7z M84.4,36.2c-0.1,0.3-0.3,0.1-0.1-0.5
			C84.4,35.3,84.4,36.1,84.4,36.2z M82.4,40.9c-0.9-0.2-1.5,0-2.4-0.1c1.2-1.5,2.5-2.9,3.6-4.6C83.9,37.9,83,39.7,82.4,40.9z
			 M79.9,50.2c-0.1,0.6-0.8,2-1.9,1.9C78,50.7,79.3,50.9,79.9,50.2z M80.7,56.6c0.6,0,0.7,0.4,0.9,0.7c-0.7,2.9-2.2,4.8-2.9,7.7
			c-1-0.5-2-2.3-2-2.3S79.5,58.7,80.7,56.6z M80.7,60.4c0,0,0.2,0,0.2,0c0,0.1-0.1,0.4-0.2,0.6c0,0.1-0.1,0.2-0.1,0.2
			c-0.1,0-0.2,0-0.2,0c0.1-0.1,0.1-0.2,0.1-0.3c0-0.1,0.1-0.2,0.1-0.2C80.7,60.6,80.7,60.5,80.7,60.4z M81.1,59.5
			c0,0,0.1,0.1,0.1,0.1c0,0.1,0,0.1,0,0.1C81.1,59.9,81,60,81,60.1c-0.1,0-0.1,0-0.2,0C80.9,59.9,81.1,59.7,81.1,59.5z M78.6,65.8
			C78.6,65.8,78.6,65.8,78.6,65.8c0.1-0.2,0.4-0.1,0.6,0c0,0.1-0.1,0.2-0.1,0.3c0,0.1,0,0.3-0.1,0.4c0,0.1-0.1,0.2-0.1,0.4
			c-0.2-0.1-0.4,0-0.6,0c0.1,0,0.1-0.4,0.1-0.5C78.4,66.1,78.5,66,78.6,65.8z M80.1,62.3C80,62.3,80,62.3,80.1,62.3
			c0-0.1,0.1-0.3,0.1-0.4c0,0,0.2-0.5,0.2-0.5c0.1,0,0.1,0,0.2,0c0,0.1-0.1,0.1-0.1,0.2c0,0.1,0,0.2-0.1,0.3c0,0.1-0.1,0.3-0.1,0.4
			C80.2,62.4,80.1,62.3,80.1,62.3z M80.7,62.5c-0.1,0-0.1,0-0.2,0c0,0,0.3-0.9,0.3-1c0,0,0.7,0.1,0.8,0.1c0,0.3-0.1,0.6-0.2,0.9
			c-0.1,0.2,0,0.1-0.2,0.1c-0.1,0-0.3,0-0.4-0.1C80.8,62.5,80.7,62.5,80.7,62.5z M81.2,60.5c0,0,0.7,0,0.7,0c0,0-0.2,0.8-0.2,0.8
			c-0.2,0-0.4-0.1-0.6-0.1c-0.1,0-0.1,0-0.1-0.2C81.1,60.9,81.2,60.7,81.2,60.5z M81.4,60.2c0,0-0.1,0-0.1,0c0-0.1,0.1-0.3,0.1-0.4
			c0,0,0.2-0.3,0.2-0.3c0.2,0,0.3,0,0.5,0c0,0.1,0,0.2-0.1,0.3c0,0.1-0.1,0.3-0.1,0.4C81.8,60.2,81.6,60.2,81.4,60.2z M81.6,63.4
			c0-0.2,0-0.4,0-0.4c0.2,0,0.3,0,0.5,0c0,0.1,0,0.3,0,0.4c-0.1,0.4-0.1,0.8-0.2,1.1c-0.1,0-0.3-0.1-0.4-0.1
			C81.4,64.6,81.6,63.9,81.6,63.4z M82.3,62.2c0,0.2-0.1,0.4-0.2,0.6c-0.1,0-0.5-0.1-0.5-0.1c0.1-0.1,0.1-0.2,0.1-0.3
			c0.1-0.2,0.1-0.4,0.2-0.6c0.1,0.1,0.3,0.1,0.4,0.1C82.4,62,82.3,62.1,82.3,62.2z M82.2,61.5c-0.1,0-0.1,0-0.2,0
			c0-0.1,0-0.2,0.1-0.3c0.1-0.2,0.2-0.4,0.2-0.6c0.1,0.1,0.2,0,0.3,0c0.1,0,0,0.5,0,0.5c0,0.2-0.2,0.3-0.2,0.5
			C82.4,61.6,82.3,61.6,82.2,61.5z M82.7,60.3C82.7,60.4,82.7,60.4,82.7,60.3c-0.1,0.1-0.2,0-0.3,0c-0.1,0-0.1,0,0-0.1
			c0-0.1,0.1-0.2,0.1-0.3c0-0.3,0.1-0.5,0.1-0.8c0-0.1,0-0.1,0.1-0.1c0.1,0,0.1,0,0.2,0c0,0.1,0,0.3,0,0.4c0,0.2,0,0.3-0.1,0.5
			C82.8,60,82.7,60.2,82.7,60.3z M85.2,39.5c0.3,0.2,0.3,0.6,0.2,1.1C84.8,40.7,85.3,39.9,85.2,39.5z M85.8,37.2c0,0,0-0.9,0-1.4
			c0.1,0.4,0.3,0.8,0.5,1.2c0.1,0.3,0.3,0.6,0.4,0.9c0.1,0.4,0.4,0.7,0.6,1c0.1,0.2,0.1,0.4,0.2,0.6c-0.2-0.4-0.4-0.8-0.6-1.1
			c-0.2-0.3-0.3-0.5-0.5-0.8C86.1,37.6,86,37.3,85.8,37.2C85.8,37,85.8,37,85.8,37.2z M86,35.6c1.4,1.8,3,3.4,4.6,5.1
			c-0.5,0.5-1.7,0.1-2.6,0.1C87.6,38.9,86.6,37.5,86,35.6z M90.3,53c0.1-0.7,0.5-1.4,0.7-2.1c0.1-0.4,0.2-0.9,0.3-1.3
			c0-0.2,0.4-1.2,0.3-1.3c1.2,1.8,1.9,4,3,5.9c0.9,1.6,1.8,3.2,2.7,4.7c0.5,0.9,1.1,1.8,1.7,2.7c0.2,0.3,0.6,0.6,0.7,1
			c0.1,0.2-0.2,0.3-0.3,0.5c-0.2,0.2-0.2,0.5-0.4,0.8c0,0.1-0.2,0.2-0.2,0.3c-0.1,0.2,0.1,0.2,0.2,0.4c0.1-0.4,0.4-0.9,0.8-0.9
			c0.2,0,0.6,0,0.8,0.1c0.2,0.1,0.2,0.3,0.2,0.6c0,0.4-0.2,0.6-0.4,0.9c-0.2,0.2-0.2,0.1-0.4-0.1c-0.2-0.1-0.4-0.2-0.6-0.4
			c-0.1-0.1-0.2-0.5-0.3-0.5c-1.3-0.5-2.6-1.9-3.7-2.8c-1.7-1.4-3.3-2.9-5-4.4c-0.4-0.4-1-0.8-1.4-1.2c-0.4-0.6,0.1-0.5,0.5-0.7
			c0.4-0.2,0.5-0.6,1-0.6c0.6-0.1,1,0.2,1.1-0.4c0.1-0.5,0-0.5,0.6-0.5c0-0.1,0-0.3,0-0.4C91.6,53.1,90.9,53.2,90.3,53
			C90.3,53,90.3,53,90.3,53z M99.6,62.1c-0.7-0.9-3.1-4.7-3.3-5.1c-0.6-1.1-1.3-2.3-1.8-3.5l-2.7-6.4c0,0,7.1,10.1,7.1,10.1
			c0.1,0-0.1,1.4-0.1,1.5c0,0.6,0.2,1.1,0.4,1.6c0.2,0.4,0.5,0.7,0.8,1c0.2,0.2,0.5,0.3,0.7,0.5c-0.3,0-0.6,0.2-0.8,0.4
			C99.7,62.3,99.7,62.3,99.6,62.1z M91.9,46.1c0,0,1.1,1.4,1.5,1.8c0.9,1.2,1.8,2.4,2.6,3.6c0.7,0.9,1.3,1.8,2,2.7
			c0.3,0.4,0.5,0.7,0.8,1.1c0.4,0.5,0.7,1.1,1.2,1.6c-0.4-0.1-0.7,0.4-0.9,0.7c-0.1-0.6-7.3-10.5-7.3-10.5L91.9,46.1z M100.2,66
			c-1,1.1-2.8,1.2-4,2c0.2-1.1,1.6-2.3,2.4-3.3c0.5,0,0.5,0.4,0.9,0.4C99.3,66,99.5,66.2,100.2,66z M100.9,67.3
			c0.4,0.4-0.4,0.7-0.7,0.9c-0.7,0.4-1.5,0.6-2.2,1c-0.2,0.1-0.4,0.2-0.6,0.2c-0.2,0.1-0.3,0.1-0.5,0.2c-0.4,0.1-0.9,0.4-1.3,0.5
			c-0.5,0.2-0.9,0.5-1.4,0.7C94,71,93.8,71,93.6,71c0.2,0,0.3-0.2,0.4-0.3c0.3-0.2,0.6-0.5,0.9-0.6c0.4-0.1,0.8-0.4,1.3-0.6
			c0.1,0,0.2,0,0.3-0.1c0.1-0.1,0.2-0.2,0.4-0.3c0.6-0.2,1.1-0.7,1.7-0.8c0.1,0,0.3,0,0.4-0.1c0.1,0,0.1-0.1,0.2-0.2
			c0.2-0.2,0.6-0.3,0.8-0.5C100,67.8,100.9,67.3,100.9,67.3z M89.8,53.1c-0.1,0-0.1,0-0.2,0c-0.1-0.1-0.1-0.2-0.1-0.3
			c0-0.3-0.2-0.5-0.3-0.7c-0.2-0.6-0.5-1.1-0.6-1.7c0,0,0.3,0.1,0.3,0.2c0.1,0.1,0.2,0.2,0.3,0.2c0.2,0.2,0.4,0.4,0.6,0.7
			c0.1,0.2,0.3,0.5,0.3,0.8c0,0.3,0,0.6-0.1,0.9C90,53,89.9,53.1,89.8,53.1z M90.4,70.5c-0.2,0-0.3-0.1-0.5-0.1
			c0.2-0.1,0.4-0.1,0.6-0.1c0.7-0.1,4.3-1.4,4.3-1.4c0,0.1,0,0.3,0,0.5c0,0.2,0.1,0.4,0,0.6c-0.1,0.2-0.5,0.3-0.7,0.4
			c-0.3,0.2-0.5,0.5-0.9,0.6c-0.2,0.1-0.5,0-0.8,0c-0.3,0-0.7,0.1-1,0c-0.2,0-0.3-0.1-0.4-0.2c-0.1,0-0.2-0.1-0.4-0.1
			C90.6,70.5,90.5,70.5,90.4,70.5z M95.1,69.3c0-0.2,0-0.4,0-0.5c0.3-0.1,0.5-0.2,0.7-0.3c0.3-0.1,0.5-0.2,0.8-0.3
			c0.2-0.1,0.6-0.3,0.8-0.3c-0.1,0.2-0.2,0.3-0.2,0.5c-0.1,0.2,0,0.4-0.2,0.5c-0.2,0.2-0.6,0.2-0.8,0.3c-0.4,0.2-0.8,0.3-1.1,0.5
			C95.2,69.6,95.1,69.5,95.1,69.3z M95.6,71c-0.1,0-0.2,0-0.3,0c-0.3,0-0.6,0-0.9,0c0.2,0,0.5-0.2,0.7-0.3c0.1-0.1,0.2-0.1,0.3-0.1
			c0.4-0.1,0.8-0.3,1.2-0.5c0.5-0.2,0.9-0.4,1.3-0.7c0.4-0.2,0.9-0.4,1.3-0.7c0.2-0.1,0.5-0.2,0.7-0.3c0.2-0.1,0.5-0.1,0.6-0.2
			c-0.7,0.6-1.3,1.1-2,1.7c-0.2,0.2-0.6,0.3-0.9,0.4c-0.3,0.1-0.6,0.2-0.9,0.3C96.4,70.8,96.1,71,95.6,71z M99.9,69.2
			c0.8-0.6,1.5-1.2,2.2-1.8c0,0,0,0,0,0C101.5,68.1,100.8,68.7,99.9,69.2z M101.4,65.3c0.1-0.2,0.3-0.2,0.4-0.4
			c0.2,0,0.1,0.3,0.1,0.5L101.4,65.3z M102,66.8C101.6,67.5,101.1,66.9,102,66.8L102,66.8z M103.6,65.8c-0.2,0.3-0.4,0.5-0.6,0.8
			c0-0.2-0.1-0.4-0.1-0.5C103,65.9,103.3,65.8,103.6,65.8z M102.7,64.5c-0.4-0.1-1,0.3-1.1-0.3c-0.4,0.1,0.2,0.7-0.5,0.6
			c0.5-0.5-0.2-1.7-1-1.5c0.3-0.3,0.6-0.5,0.9-0.7C101.6,63.2,102.2,63.8,102.7,64.5z M87.8,30.2c0-0.1,0-0.2-0.1-0.2
			c-0.1-0.2-0.1-0.4-0.2-0.6c0,0.1,0.2,0.3,0.3,0.4c0.1,0.1,0.2,0.3,0.3,0.4c0.1,0.1,0.2,0.2,0.2,0.3c0,0.1,0,0.2,0.1,0.3
			c-0.2,0-0.4,0-0.4-0.1C87.9,30.5,87.8,30.3,87.8,30.2z M88.5,31.8c0.4,1,3.1,5.8,3.9,7.3c0.4,0.7,1.5,2.7,1.6,3
			c0.9,1.5,1.6,3,2.5,4.5c1,1.5,4.9,8.3,6,10.2c-0.6-0.1-1.7-0.1-2.3-0.1c-2.1-2.5-4.5-6.3-8.5-11.2c0.1-1.2,0-2.2-0.2-3.2
			c0-0.6,1.3,0.3,1.3-0.7c-0.7-0.4-1.8-0.6-2.4-1.2c-1.1-1.1-2.1-2.3-3.1-3.5c-0.3-0.3-0.6-0.7-0.9-1c-0.3-0.3-0.7-0.7-0.6-1.1
			c0.2,0,0.3,0,0.4-0.2c0.2-0.2,0.3-0.5,0-0.6c-0.2-0.1-0.3-0.1-0.4-0.3c-0.1-0.2-0.1-0.4-0.1-0.6c0.5,0,0.9-0.4,1.3-0.8
			C87.6,31.9,88,31.6,88.5,31.8z M87.6,30.8l-0.9-0.1c-0.2-1.2-0.8-2.1-0.8-3.4C86.6,28.3,87.3,29.4,87.6,30.8z M84.5,40.6
			c-0.3,0.1,0.1-1.6,0.1-2.2C84.9,38.2,84.4,40,84.5,40.6z M84.8,33.1c0.1,0,0.1,0,0.2,0c0,0.3,0,0.5,0,0.8c0,0.1-0.4,0-0.4-0.1
			c-0.1-0.1,0-0.6,0-0.7C84.7,33.1,84.8,33.1,84.8,33.1z M85.2,27.3c0.2,0.7,0,2.4-0.5,3.3C84.5,29.8,85.1,28.7,85.2,27.3z
			 M67.1,37.8c0-1.1,0.4-3.2,0.7-4.4c0.2,0.8,0,1.6-0.1,2.4C67.7,36.4,67.9,37.6,67.1,37.8z M64.8,50.7c0.3-0.2,0.6-0.5,0.9-0.7
			c0.2,0.1,0.1,0.4,0.1,0.6C65.5,50.8,65.1,50.8,64.8,50.7z M64.3,62.6c-0.1,0.5-0.3,0.7-0.8,0.6l0.1-0.6L64.3,62.6z M64.7,38.1
			c-0.9,0.1-1.9-0.1-2.8-0.1c-0.3,0-0.6,0-1,0c-0.2,0-0.2,0-0.3,0.2c0,0.1,0,0.2,0,0.4c0,0.1,0,0.2,0.2,0.2c0.1,0,0.3,0,0.4,0
			c0.2,0,0.3,0,0.4,0.1c1,0.9,1.2,2.6,1.3,3.9c-0.9-0.4-1.2-1.4-1.9-2.1c-0.3-0.3-2.3-2.8-3.3-4c-0.5-0.6-1.6-1.2-1.4-1.9
			c0.1-0.5,1.8-1,2.3-1.1c2.2-0.4,8.4-1.4,8.4-1.4C66.8,34.9,65.8,36.5,64.7,38.1z M65.3,38c0.1-0.4,1-1.8,1-2.3
			C65.8,37.6,65.8,38.1,65.3,38z M63.7,50.5c-0.4,0.3-1.2,0-1.7,0c0.5-0.9,1.1-1.7,2.1-2C63.8,49,63.7,49.7,63.7,50.5z M62.7,62.6
			l0,0.3l-0.3,0l0-0.3L62.7,62.6z M56.2,54.1c-0.8-1.5-2.1-3-1.6-4.8c2.2,2.8,4.3,5.7,6.7,8.3c-0.1,1.6-0.9,2.2-1.1,3.6
			C58.7,59.1,57.4,56.5,56.2,54.1z M59.8,61.5c-1.5-2-2.6-4.3-3.7-6.6C57.2,56.5,58.7,59.3,59.8,61.5z M54.8,52.2
			c-0.2-0.1-0.3-0.2-0.3-0.5C54.7,51.8,54.8,51.9,54.8,52.2z M55.6,34.9l0.5,0.8l-0.3,3.5l-0.4,0.2L55.6,34.9z M55,43.2
			C55,43.2,55,43.2,55,43.2c0-0.2,0-0.3,0-0.4c0-0.2,0-0.4,0-0.6c0.2,0,0.5,0,0.7,0c0,0.2-0.1,0.5-0.1,0.7c0,0.2,0,0.3,0,0.5
			c0,0.2-0.3,2.4-0.3,2.7c-0.1,0-0.3-0.1-0.4-0.1c-0.1,0-0.1,0-0.2,0c-0.1,0-0.1,0-0.1,0c-0.1-0.1,0.1-0.4,0.1-0.5
			c0.1-0.2,0.1-0.5,0.1-0.7c0-0.3,0.1-0.6,0.1-0.9C55,43.6,55,43.4,55,43.2z M68.5,25.7c0.3-0.5,0.1,0.6,0.1,0.8
			C68.3,27,68.5,26,68.5,25.7z M67.6,32c0,0-0.1,0-0.1,0c0-0.1,0-0.3,0-0.4c0-0.1,0.2-1.4,0.3-1.6c0.1-0.5,0.1-1.1,0.2-1.6
			c0.1,0,0.2,0,0.3,0c0,0.1,0,0.2,0,0.2c0,0.2-0.2,2.9-0.2,3.3C67.9,32,67.8,32,67.6,32z M66.5,35.3c0.7-1.1,0.6-2.2,0.7-2.6
			C68,33,66.6,34.8,66.5,35.3z M67,34.7c0,0.8,0.2,3.3-1.1,3.1C66.2,36.7,66.6,35.6,67,34.7z M69,22.7c0.4,0.1,0,0.7-0.1,0.8
			C68.5,23.5,68.9,22.8,69,22.7z M68.4,24.1c-0.3,0.2-0.2,0.8-0.3,1.3c0.5-0.3,0.1-1.6,0.9-1.5c-0.5,0.8-0.6,2-0.9,3
			c-0.3-0.2,0-0.9,0-1.3c0,0.1-0.1,0.3-0.2,0.4c-0.1,0.1-0.1,0.3-0.2,0.4c-0.1,0.1-0.1,0.3-0.2,0.4c0,0.1,0,0.2-0.1,0.3
			c-0.1,0-0.4,0-0.5,0c-0.2,0-0.3,0-0.5,0c-0.3,0-0.7,0-1,0c0,0.2-0.2,0.4,0.1,0.4c0.1,0,0.2,0,0.3,0c0.1,0,0.2,0.2,0.3,0.3
			c0.1,0.2,0,0.3,0.2,0.4c0.2,0.1,0.4,0.1,0.6,0.2c0.2,0.1,0.5,0.2,0.7,0.2c0,0.6,0,1.1,0,1.7c0,0.3-0.1,0.6-0.1,0.9
			c0,0.1-0.1,0.8-0.2,0.9c-3.6,0.7-7.1,1.4-10.7,2c0,0,0-0.9,0-0.9c0-0.3,0-0.6,0.1-0.9c0.1-0.3,0-0.9,0.4-1.1c0.1,0,0.2,0,0.2-0.1
			c0.1-0.1,0.1-0.2,0.2-0.3c0.1-0.2,0.2-0.4,0.4-0.6c0.1-0.1,0.4-0.2,0.5-0.3c0.1-0.1,0.1-0.2,0.1-0.4c0.1,0,0.1,0,0.2,0
			c0.1,0,0.2,0,0.3,0c0-0.1,0-0.2,0-0.3c-0.1,0-0.2,0-0.3,0c-0.6,0-1.3,0-1.9,0c0,0,0-0.4,0-0.7C58,27.6,66.2,25.1,68.4,24.1z
			 M55.8,34.2l0.2-2.8l0.5-0.1l-0.3,2.7L55.8,34.2z M54.3,48.5l0-0.5C54.9,47.8,54.8,48.7,54.3,48.5z M53.4,62.2
			c0.3-3.5,0.7-7,0.8-10.2c1.5,2.4,2.6,5.2,4.1,7.6C57.8,60.3,54.3,62.4,53.4,62.2z M53.8,62.6c-0.1,0-0.2-0.1-0.2-0.1
			c0.1,0,0.1,0,0.2,0c0.1,0,0.2-0.1,0.3-0.1c0.4-0.2,0.9-0.3,1.2-0.5c0.1-0.1,0.1-0.1,0.2-0.1c0.3-0.1,0.6-0.4,1-0.6
			c0.1,0,0.2-0.1,0.3-0.2c0.1,0,0.2-0.1,0.3-0.1c0.1,0,0.2-0.1,0.2-0.1c-0.2,0.3-2.2,1.8-2.5,2c-0.1,0.1-0.3,0.2-0.3,0.3
			c-0.1-0.1-0.3-0.2-0.4-0.3C54,62.7,53.9,62.6,53.8,62.6z M56.4,64.1c-0.7-0.1-0.6-0.9-1.5-0.8c0.4-0.8,3.4-2.9,3.4-2.9l1.3,1.4
			C59.6,61.8,57,63.4,56.4,64.1z M59.7,64.2c-0.8,0-1.6,0-2.4,0c0.7-0.6,1.7-0.9,2.8-1.1C60,63.5,59.8,63.8,59.7,64.2z M60.8,64.3
			c-0.2,0-0.5,0-0.7,0c0.2-0.3,0.3-0.5,0.4-0.8C60.8,63.7,60.9,64,60.8,64.3z M61.3,57.5c-2.1-3-4.8-5.5-6.5-8.8
			c0.4-0.8,0.9-1.4,1.5-1.9c-0.1-0.2-0.5-0.3-0.6-0.5c0-0.1,0-0.3,0-0.4c0-0.1,0-0.3,0-0.4c0-0.3,0-0.6,0.1-0.8
			c0-0.3,0.1-0.5,0.1-0.8c0-0.3,0-0.5,0.1-0.8c0-0.2,0-0.4,0.1-0.6c0-0.1,0-0.2,0-0.3c0.1-0.1,0.3-0.1,0.4-0.2
			c0.1-0.1,0-0.2,0.1-0.2c0-0.1,0.2-0.1,0.3-0.1c0.1,0,0.2,0,0.3,0c0.1,0,0.1-0.1,0.1-0.2c0.1-0.1,0.1-0.1,0.2-0.2
			c0.1-0.1,0.2-0.1,0.3-0.2c0.1-0.1,0.1-0.3,0.2-0.4c0.1-0.2,0.2-0.4,0.4-0.6c0.1-0.1,0.2-0.1,0.3-0.1c0.1,0,0.3,0,0.4,0
			c0.1-0.1,0-0.3,0-0.4c-0.9-0.3-1.9,0.2-2.8-0.1c0.2-1.1,0.2-2.9,0.3-3.5c2.2,2.4,3.9,5.2,6.5,7.4c0.1,1.9-0.3,4.8-1.4,6.3
			c-0.2,0.2-0.2,0.3,0.1,0.3c-0.3,0.5-0.8,0.8-1.5,0.8c-0.1,0.6,0.6,0.4,0.7,0.9c0.9,1.3,0.7,3.6,0.7,5.7
			C61.7,57.5,61.5,57.5,61.3,57.5z M61.3,63.7l0-0.5C61.8,63.1,61.8,64,61.3,63.7z M62.2,64.5C62.2,64.4,62.1,64.4,62.2,64.5
			c-0.3-0.4-0.1-0.8,0-1.3C62.9,63.3,62.2,63.9,62.2,64.5z M62.6,64.6c-0.1,0-0.2,0-0.3-0.1c0.1-0.4,0.3-0.7,0.4-1.1
			C63,63.6,62.8,64.1,62.6,64.6z M63,62.4c0.2,0.1,0.1,0.4,0.1,0.6C62.8,63,62.8,62.6,63,62.4z M64,50.3c-0.1-0.5,0.2-2,0.4-2.7
			c0.1,0,0.1,0.1,0.1,0.2c0,0.7,0.9,0.6,1,1.2C65,49.4,64.4,49.8,64,50.3z M63.3,64.8C63.3,64.7,63.3,64.7,63.3,64.8
			c0.2-0.1,0.3,0,0.3,0.2C63.5,64.9,63.4,64.8,63.3,64.8z M63.2,64.4l0.1-1c0.3,0,0.6,0.1,0.6-0.1C64.2,63.7,63.9,64.7,63.2,64.4z
			 M64.6,65.7c-0.2-0.2-0.4-0.4-0.7-0.6c0.2-1,0.3-2,0.9-2.8c0.2,0,0.3,0.1,0.3,0.2C65.4,63.8,64.7,64.6,64.6,65.7z M69.5,24.1
			c0.5,0.5,0.6,2.1,0.4,2.8C68.8,26.4,69.8,24.9,69.5,24.1z M69.4,29.7c0,0,0-0.1,0-0.1c0-0.2,0-0.5,0.1-0.7c0.3,0,0.5-0.1,0.8-0.2
			c0.2,0,0.4-0.1,0.6-0.2c0.2-0.1,0.3-0.2,0.4-0.3c0.2-0.1,0.5,0,0.7-0.1c0.2-0.1,0.3-0.3,0.4-0.4c0,0,0.1-0.2,0.2-0.2
			c0.2-0.1,0.6,0.1,0.7-0.2c0,0,0-0.1,0-0.1c0,0,0.1,0,0.1,0c0.1,0,0.1,0,0.1-0.1c0-0.1,0-0.2,0-0.3c-0.7,0-1.4,0-2,0
			c-0.4,0-0.8,0-1.2,0c0-0.2,0-0.4,0-0.5c0-0.2-0.1-0.5-0.1-0.7c0-0.2-0.1-0.5-0.1-0.7c0-0.1-0.2-0.6-0.1-0.7
			c0.5-0.5,1.2,0.1,1.7,0.2c4.5,0.8,8.9,2.1,13.4,2.9c0,1.2-0.8,1.6-0.8,3c-0.3,0.7-1.9,0-2.3,0.6c-0.2,0.6,0.7,0.3,1.1,0.4
			c0,0,0.1,0.4,0.1,0.4c0,0.1,0.1,0.2,0.2,0.3c0.1,0.2,0.3,0.4,0.4,0.6c0.2,0.3,0.2,0.5,0.6,0.6c-0.1,0.2,0,0.5,0,0.7
			c0,0.3,0,0.3-0.3,0.4c-0.2,0.1-0.2,0.2-0.1,0.4c0.1,0.2,0.2,0.2,0.4,0.2c0,0.2-0.3,0.5-0.5,0.7c-0.2,0.3-0.4,0.6-0.6,0.8
			c-0.4,0.5-0.8,1.1-1.2,1.6c-0.8,1-1.7,2-2.7,2.9c-0.5,0.2-0.7-0.2-1.4-0.1c0.7,1.2,1.4,2.3,1,4.4c-1.9-1.3-3-3.3-4.6-4.8l0.1-1.3
			c0.3-0.5,1-0.4,1.3-0.8c-0.4-1.2-2.2-0.1-3.1-0.3c-0.1,0-0.2-0.2-0.3-0.3c-0.1-0.1-0.2-0.2-0.3-0.3c-0.2-0.2-0.4-0.4-0.6-0.6
			c-0.4-0.4-0.7-0.9-1-1.4c-0.6-1.1-0.9-2.4-1-3.6c0-0.5,0-0.9,0-1.4C69.4,30,69.4,29.9,69.4,29.7z M69.2,33.8c0-0.1,0-0.2,0-0.2
			c0-0.1,0-0.3,0-0.4c0,0,0,0.1,0,0.2c0,0.1,0.1,0.1,0.1,0.2c0.1,0.1,0.1,0.3,0.2,0.5c0.1,0.3,0.4,0.6,0.4,0.9
			c-0.2-0.1-0.5-0.5-0.7-0.5C69.2,34.2,69.2,34,69.2,33.8z M69.1,34.6c1,0.7,1.5,1.8,1.6,3.2c-0.7-0.2-1,0.2-1.7,0
			C68.8,36.9,69,35.7,69.1,34.6z M67.9,49.3c0.5,0.2-0.2,0.4-0.1,0.8C67.3,49.9,67.8,49.6,67.9,49.3z M66.4,62.6l0.6,0.1
			c-0.2,0.6,0.1,0.9,0,1.4C66.4,64,66.2,63.4,66.4,62.6z M66.2,64c1.1,0.3,0.8,1.8,0.8,3C65.5,67.1,66.2,65.3,66.2,64z M67.5,67
			c-0.1-0.5-0.1-1.1,0-1.8c0.7,0.5,0.9,1.4,1.7,1.8C69,67.7,68.3,66.9,67.5,67z M69.6,66.9c-1-0.5-1.4-1.4-2.2-2.1
			c0.1-0.7,0.1-1.3,0-1.9c1.3-0.2,2.7,0.9,3.5,1.6C70.4,65.4,70.1,65.8,69.6,66.9z M70.2,67.5c-0.1-0.5,0.8-0.5,1-0.8
			c-0.1,0.2-0.3,0.7-0.2,0.9C70.7,67.5,70.4,67.5,70.2,67.5z M71.3,67.7c0,0,0.3-0.8,0.2-1.3c0,0,0.8-0.7,0.9-0.8
			c0.3-0.2,3.5-3,3.5-3.1c0.1,0.1,0.3,0.3,0.3,0.3c-2.5,2.7-2.6,2.7-3.2,3.3c-0.3,0.3-0.6,0.6-0.9,0.9C72.1,67,71.3,67.7,71.3,67.7z
			 M77.3,68.4c-0.1-0.7-1.5-0.2-1.3-1.1c-0.4,0.1-0.6,0.4-1.1,0.2c-0.4,0.3-0.5,0.9-1.3,0.7c-0.2-0.5,0-1.3-0.7-1.3
			c1.1-1.4,3.6-3.9,3.6-3.9s1.1,1.7,2.1,2.3C78.1,66.4,77.8,67.6,77.3,68.4z M78.2,67c0.2,0,0.3,0,0.5,0c0.1,0-0.1,0.5-0.1,0.5
			c-0.1,0.2-0.2,0.3-0.2,0.5c-0.2,0-0.4,0-0.6,0c0-0.1,0.1-0.2,0.2-0.3c0.1-0.1,0.1-0.2,0.1-0.3C78.1,67.3,78.1,67.1,78.2,67
			C78.2,67,78.2,67,78.2,67z M78.5,68.4C79.2,68.6,78.3,69.4,78.5,68.4L78.5,68.4z M78.7,67.8c0.1-0.2,0.2-0.5,0.2-0.7
			c0,0,0.7,0,0.7,0c0,0.2-0.1,0.4-0.1,0.6c0,0.2,0,0.3,0,0.5c-0.1,0-0.2,0-0.3-0.1c-0.2,0-0.3,0-0.5-0.1
			C78.7,67.9,78.7,67.9,78.7,67.8z M80,66.1c0,0,0,0.1,0,0.1c0,0.2-0.2,0.4-0.1,0.7c-0.1,0-0.7-0.1-0.7-0.1s0.1-0.6,0.2-1
			c0.1,0,0.3,0,0.4,0c0.2,0,0.3-0.1,0.2,0.2C80,66.1,80,66.1,80,66.1z M79.8,65.5c-0.1,0-0.1,0-0.2,0c0-0.1,0.1-0.1,0.1-0.1
			c0-0.1,0-0.1,0-0.2c0-0.1,0-0.1,0.1-0.1c0-0.1,0-0.2,0.1-0.3c0,0,0,0,0.1,0c0.1,0,0.3,0,0.4,0c-0.1,0.2-0.1,0.5-0.1,0.7
			c0,0.1,0,0.1-0.1,0.1C79.9,65.5,79.9,65.5,79.8,65.5z M80.8,66.2c0,0.1,0,0.1,0,0.2c0,0.1-0.2,0.6-0.2,0.6
			c-0.2-0.1-0.4-0.1-0.6-0.1c0-0.1,0.1-0.2,0.1-0.2c0.1-0.2,0.2-0.5,0.2-0.8c0,0,0.5,0,0.5,0C80.8,66,80.8,66.1,80.8,66.2z
			 M80.4,69.1c0-0.3,0.2-0.3,0.2-0.5l0.3,0l0,0.5L80.4,69.1z M80.8,68.4c-0.1,0-0.1-0.1-0.2-0.1c0.1-0.1,0.1-0.2,0.1-0.4
			c0-0.1,0.1-0.3,0.1-0.4c0-0.1,0.1-0.1,0.1-0.2c0,0,0-0.1,0-0.1c0.2,0,0.4,0.1,0.5,0.1c0,0.3-0.1,0.6-0.1,0.9c0,0.1,0,0.2-0.1,0.2
			C81,68.4,80.9,68.4,80.8,68.4C80.8,68.4,80.8,68.4,80.8,68.4z M81.2,66.9C80.7,67,81,66.4,81,66.1l0.5,0
			C81.3,66.3,81.6,67,81.2,66.9z M81.5,65.6c-0.5,0.1-0.2-0.5-0.2-0.8l0.5,0C81.6,65.1,81.8,65.7,81.5,65.6z M82.6,69.1
			c-0.1,0-0.2-0.1-0.4-0.1c-0.1,0-0.2,0-0.3,0c-0.2,0-0.3,0-0.5,0c0,0,0-0.1,0-0.1c0-0.1,0-0.3,0.1-0.4c0.1-0.4,0.1-0.7,0.1-1.1
			c0-0.3,0.1-0.7,0.1-1c0.1-0.7,0.2-1.4,0.4-2.1c0.3-1.6,0.6-3.3,0.9-4.9c0.2,0.1,0.1,0.3,0.3,0.3C83.2,61.5,82.6,68.7,82.6,69.1z
			 M85.9,40.9c-0.2-0.3-0.1-0.9-0.2-1.3C86,39.8,86.1,40.6,85.9,40.9z M85.8,37.8c0.6,1,1.4,1.9,1.8,3.1l-1.3-0.1
			C86.2,39.8,85.8,39,85.8,37.8z M84.3,57.9C84.3,57.9,84.4,57.9,84.3,57.9c0.1-0.1,0.4-0.1,0.4-0.1c0,0.2,0.1,1.4,0.1,1.8
			c0,0.4,0.2,1.8,0.2,2.1c0.1,0.7,0.7,7.7,0.7,7.7c-0.5-0.3-1.5-0.3-2.1-0.3c0-0.2,0-0.5,0.1-0.7c0.2-1.8,0.2-3.7,0.3-5.5
			c0-0.9,0.1-1.9,0.1-2.8c0-0.4,0.1-0.9,0.1-1.3c0-0.2,0-0.4,0.1-0.6C84.3,58,84.3,58,84.3,57.9z M106.8,84.8
			C106.8,84.8,106.8,84.8,106.8,84.8C106.8,84.8,106.8,84.8,106.8,84.8z M70.7,88.7C70.7,88.7,70.7,88.7,70.7,88.7
			C70.7,88.7,70.7,88.7,70.7,88.7z"/>
	</g>
</g>
</svg>
