<?xml version="1.0" encoding="utf-8"?>
<!-- Generator: Adobe Illustrator 19.0.0, SVG Export Plug-In . SVG Version: 6.00 Build 0)  -->
<svg version="1.1" id="green-roof-cabana-icon" xmlns="http://www.w3.org/2000/svg" xmlns:xlink="http://www.w3.org/1999/xlink" x="0px" y="0px"
	 viewBox="0 0 126 126" style="enable-background:new 0 0 126 126;" xml:space="preserve">
<style type="text/css">
	.st0{fill:#FFFFFF;}
</style>
<g>
	<path class="st0" d="M14.1,46.2C13.9,44.5,13,44,12.2,44c-1.1,0-1.7,0.7-1.7,2c0,3.5,7.1,5.1,7.1,10.6c0,3.3-2.2,5.2-5.5,5.2
		c-3.2,0-5.1-2.6-5.2-5.6l3.3-0.5c0.1,2,1,3.1,2.1,3.1c1.2,0,2-0.6,2-1.9c0-4-7.1-5.1-7.1-10.9c0-3.2,2-5.1,5.4-5.1
		c2.8,0,4.5,2,4.8,4.9L14.1,46.2z"/>
	<path class="st0" d="M20.2,61.5V41.3h5c4.3,0,6.3,1.7,6.3,6c0,4.3-2,6-6.3,6h-1.5v8.3H20.2z M23.7,50.3H25c2.3,0,3-0.7,3-3.1
		c0-2.4-0.7-3.1-3-3.1h-1.3V50.3z"/>
	<path class="st0" d="M34,61.5V41.3h3.5v17.2H43v3H34z"/>
	<path class="st0" d="M45.6,61.5V41.3h3.5v20.3H45.6z"/>
	<path class="st0" d="M55,44.3h-3.4v-3h10.2v3h-3.4v9L55,58.1V44.3z"/>
</g>
<g>
	<g>
		<path class="st0" d="M65.6,58.1l-2,2.8c2.3,0,3.4,0.7,3.4,3.1c0,2.4-0.7,3.1-3,3.1h-1.3v-4.9l-3.5,4.9v11.2h3.5V70h1.5
			c4.3,0,6.3-1.7,6.3-6C70.5,60.2,68.9,58.5,65.6,58.1z"/>
	</g>
	<path class="st0" d="M72.5,78.3V58H76v17.2h5.5v3H72.5z"/>
	<path class="st0" d="M86.7,78.3h-3.4L87.1,58h4.3l3.7,20.3h-3.4l-0.6-4.5h-3.8L86.7,78.3z M87.8,70.8h2.8l-1.4-8.7h-0.1L87.8,70.8z
		"/>
	<path class="st0" d="M97.2,78.3V58h3.2l4.2,11.6h0.1V58h3.1v20.3h-3l-4.4-12.7h-0.1v12.7H97.2z"/>
	<path class="st0" d="M111.2,78.3V58h9.3v3h-5.8v5.2h4.5v3h-4.5v6h6.2v3H111.2z"/>
</g>
<polygon class="st0" points="70.4,41.4 73.7,41.4 46.5,79.6 43.2,79.6 "/>
</svg>
