<?xml version="1.0" encoding="utf-8"?>
<!-- Generator: Adobe Illustrator 19.0.0, SVG Export Plug-In . SVG Version: 6.00 Build 0)  -->
<svg version="1.1" xmlns="http://www.w3.org/2000/svg" xmlns:xlink="http://www.w3.org/1999/xlink" x="0px" y="0px"
	 viewBox="0 0 126 126" style="enable-background:new 0 0 126 126;" xml:space="preserve">
<style type="text/css">
	.st0{fill:#FFFFFF;}
</style>
<g id="the-sleeping">
	<g>
		<g>
			<path class="st0" d="M64.7,51.5c-4.4-1-5.2,5.6-1.3,6.2C67.2,58.3,68.8,52.4,64.7,51.5z"/>
			<path class="st0" d="M123.1,86.6c-0.2-12-0.5-23.8-1.2-34.9c-0.2-4-0.5-8.7-0.9-12.7c-0.1-1.5-0.1-3-0.4-4.2
				c-0.2-0.8-0.9-1.9-1.3-2.7c-0.9-1.5-1.4-2.4-2.5-3.2c-1.1-0.8-2.4-1.3-4-1.8c-1.9-0.6-3.8-0.8-5.8-1c-0.5-0.1,0-1.2-0.7-1.1
				c-2.1-0.5-4.6-0.7-6.8-0.4c-0.6,0.1-1.6,0.1-2,0.3c-0.5,0.2-0.8,0.8-1.3,1c-0.8,0.3-2.3,0.1-3.4,0.1c-3.4,0-7.1,0.1-9.8-0.6
				c-1.1-0.3-2.4-1.2-3.7-1.1c-0.9-0.8-2-1.4-2.8-2.6c-0.4-0.5-0.5-1.2-0.9-1.8c-1.3-1.8-2.5-2.3-4.9-3.1c-0.9-0.3-1.7-0.7-2.6-0.9
				c-3.5-0.8-6.7-0.8-9.9-0.1c-1.2,0.3-2.5,0.8-3.7,1.1c-2.4,0.8-3.8,2-5.1,3.5c-0.3,1.8-1.3,3-2.7,3.8c-0.8,0.5-2.2,0.9-3.4,1.5
				c-0.9,0.4-1.9,1.3-2.5,1.5c-1.8,0.4-4,0.1-5.9,0.1c-1.9,0-3.9,0.1-5.9,0.1c-0.5-0.1,0-1.1-0.7-0.9c-0.9-0.2-2.1-0.5-3.5-0.5
				c-1.5,0-4.5,0.1-5.5,0.6c-0.6,0.3-0.6,0.8-1.1,1c-4.1,0.3-7.7,1.2-10.3,3c-0.6,1.2-1.9,2.4-2.6,4C4.1,37,4.4,40.9,4,44.7
				c-0.2,2.3-0.5,4.7-0.6,7c-0.3,9.6,0.3,20.7,0.2,30.2c0,2.5,0,5.1,0,7.6c0.1,5,0,11.2,1.9,14.1c0.8,1.2,1.1,1.5,2.3,2.3
				c2.4,1.7,5.6,2.6,9.9,2.1c0.5,0.7,0.1,0.9,0.9,1.1c0.6,0.2,0.8-0.1,1.2-0.4c0.5-0.4,0.3-0.6,0.9-0.7c1.3-0.3,3.4,0,5.2,0
				c1.8,0,3.7-0.1,5.4-0.1c23.1-0.3,46.7-0.2,69.7-0.5c2,0,4.4-0.4,5.5-0.1c0.9,0.3,0.8,1.7,1.9,1.6c0.9-0.1,1.1-1.5,1.8-1.8
				c0.6-0.2,2-0.1,3.1-0.2c3-0.2,3.9-0.5,5.8-2c2.9-2.2,3.8-5.1,4-9.8C123.1,92.5,123.1,89.5,123.1,86.6z M53.4,21.1
				c2.4-1.3,8.2-1.3,11.5-1.4c1.7,0,4.1,0,5.7,0.6c0.7,0.3,1.4,0.8,2,1.4c0.3,0.2,0.8,0.5,1,0.8c0.2,0.3,0.4,1.2,0.4,1.3
				c0,0.9-0.9,1.5-1.2,2.4c-4.6-0.1-10.4-0.2-15.6,0.1c-1.4,0.1-3.1,0.5-4.3,0.2c-0.7-0.2-1.6-1.1-1.7-1.6
				C51,23.4,52.3,21.7,53.4,21.1z M116.3,103.1c-1.5,0.6-3.7,0.9-5.2,1.1c-11.4,1.6-24.2,0.5-35.7,0.5c-3.2,0-36.2-0.2-36.2,0.3
				l-0.1-0.8c0.4-3.2-0.6-6.2,0.4-8.6c1.7-4.2,9-3.2,15.4-3.2c4.7,0,9.6,0.4,13.6,0c4.1-0.4,8-2.6,9.3-5.8c1.1-2.6,0.4-6.5,0.6-11
				c-0.2-0.4-0.7,0.2-0.8,0.2c-4.1,2.7-8.9,6.6-16.1,5.5c-6.5-1-12-4.3-16.6-7c0.4-12.3,3.4-22.9,10-29.4c3.3-3.3,7.8-5.7,13.5-6.2
				c6.3-0.6,11.6,1,16.9,2.5c0.8-0.1,1.2-0.9,1.8-1.3c1.7-1.4,3.7-2.9,5.6-4.4c1.2-1,2.4-2.1,3.6-3.1c3-2.5,5.1-3.3,9-3.4
				c3.6-0.1,8.1,0.4,10.5,3.6c0.5,0.7,1,1.6,1.4,2.4c0.1,0.2,0.2,0.5,0.4,0.7c0.1,0.3,0.4,0.7,0.5,0.9c0,0.3,0,0.2-0.3,0.4
				c-0.6,0.3-2.5,1.9-3,2.3c-1.1,0.9-2.3,1.6-3.4,2.4c-2.5,1.5-5,2.8-7.7,4c-1,0.4-1.9,0.9-2.9,1.3c-0.3,0.1-2.6,1.2-2.7,1.1
				c0.4,0.5,0.7,1,1.2,1.3c0.5,0.3,13.5-5.1,13.5-5.1s6.3-2,6.3-2.3c0.3,5.5,0.8,11.9,0.8,17.3c0,9.4,0.5,18.5,0.5,27.8
				C120.1,92.2,120.7,101.4,116.3,103.1z"/>
		</g>
	</g>
</g>
<g id="Layer_2">
</g>
</svg>
