<?xml version="1.0" encoding="UTF-8"?><!DOCTYPE svg PUBLIC "-//W3C//DTD SVG 1.1//EN" "http://www.w3.org/Graphics/SVG/1.1/DTD/svg11.dtd"><svg xmlns:xlink="http://www.w3.org/1999/xlink" xmlns="http://www.w3.org/2000/svg"><symbol id="10-degree-wedge-icon" viewBox="0 0 126 126"><style>.st0{fill:#FFFFFF;}</style><path class="st0" d="M112.4 31L65 76.5l-18.8-.1 57.3-56.8c-.9-.9-1.8-1.7-2.8-2.5l-58 57-31.4-32c-1.8 5.5-2.8 11.4-2.8 17.6 0 30.9 25 56 56 56 30.9 0 56-25 56-56-.2-10.5-3.1-20.3-8.1-28.7z"/></symbol><symbol id="ascher-davis-icon" viewBox="0 0 1196.6 1196.6"><style>.st0{fill:#FFFFFF;}</style><path class="st0" d="M803.4 447v54.5c-66.7-59.6-155.2-96-252.4-96-207.6 0-375.9 166-375.9 370.7C175.1 981 343.4 1147 551 1147c97.2 0 185.7-36.3 252.4-96v95.8h123.5V447H803.4zm-252 577.6c-139 0-251.8-111.2-251.8-248.3 0-137.1 112.7-248.3 251.8-248.3 139 0 251.7 111.2 251.7 248.3 0 137.1-112.7 248.3-251.7 248.3zM803.4 35.4h123.5v370H803.4z"/></symbol><symbol id="authentix-icon" viewBox="0 0 126 126"><style>.st0{fill:#FFFFFF;}</style><path class="st0" d="M103.6 4.5H31.5c2.7 12.8 14 22.4 27.6 22.4 5.7 0 15.7-4.4 15.7-4.4 3.3-1.7 7-2.7 10.9-2.7 13 0 23.5 10.5 23.5 23.5 0 4.6-1.3 8.8-3.6 12.4 0 0-9.6 10.1-9.6 20.6 0 14.4 11.5 26.1 25.8 26.5V28.9c-10-3.7-17.4-13.1-18.2-24.4zM71.3 94.5c-6.6 0-12.7 2.4-17.4 6.3.6-.4 1.2-.7 1.7-1.1l-2 1.4.3-.3c-3.4 2-7.3 3.1-11.6 3.1-12.7 0-22.9-10.3-22.9-22.9 0-6.2 2.5-11.8 6.4-15.9V65c4.1-4.7 6.6-10.9 6.6-17.6 0-14.9-12.1-27-27-27l.1 17.5c6.5 4.4 10.7 11.8 10.7 20.3 0 8.3-4.2 15.7-10.5 20.1v42.4h92.5c-.3-14.5-12.2-26.2-26.9-26.2z"/></symbol><symbol id="brand-new-icon" viewBox="0 0 126 126"><style>.st0{fill-rule:evenodd;clip-rule:evenodd;fill:#FFFFFF;}</style><path class="st0" d="M88.2 12.5c-4-2.3-8-3.9-12.1-5 .1-.4.2-.7.3-1.1l.6-2.1c4.5 1.3 8.7 3 12.9 5.4-.3.6-.7 1.2-1 1.8-.3.3-.5.6-.7 1zM50.7 11.9c-.4-1.4-.8-2.8-1.1-4 4.6-1.1 8.6-1.7 12.8-1.7h.1v4.1c-4.2.1-8.2.6-11.8 1.6zM74.6 11.9c-4.3-1.1-7.9-1.5-11.7-1.5h-.1V6.3h.2c4.4 0 8.6.6 12.6 1.6-.2.6-.3 1.2-.5 1.8-.1.7-.3 1.5-.5 2.2zM39.3 16.6c-.3-.6-.6-1.1-1-1.7-.4-.6-.7-1.3-1.1-1.9 3.9-2.2 7.9-3.8 12.1-5 .3 1 .5 2.1.8 3.2l.2.9c-3.8 1-7.5 2.5-11 4.5z"/><path class="st0" d="M85.9 16.6c-3.4-2-7.1-3.5-11-4.6.2-.6.4-1.3.5-1.9.2-.7.3-1.4.5-2L76 8c4.1 1.1 8 2.7 12 4.9-.4.7-.8 1.5-1.2 2.1-.3.6-.6 1.1-.9 1.6zM98.9 20.7c-.1 0-.3-.3-.4-.4l-.2-.2c-1.1-1.1-2.6-2.4-4.4-3.7-2-1.5-3.7-2.7-5.5-3.7.2-.4.4-.7.6-1.1.3-.6.7-1.2 1-1.7 4 2.4 7.7 5.2 11 8.5-.4.6-2.1 2.2-2.1 2.3zM51.7 16c-.2-.7-.4-1.5-.6-2.2-.1-.5-.3-.9-.4-1.4 4.1-1 7.7-1.5 11.4-1.5h.4v3.8h-.3c-4.2-.1-7.6.6-10.5 1.3zM73.5 16c-2.8-.7-6.3-1.4-10.5-1.4h-.3v-2.3-1.5h.1c4.1 0 7.9.5 11.6 1.5-.1.5-.3 1.1-.4 1.6-.1.8-.3 1.4-.5 2.1zM41.5 20.2c-.6-1-1.2-2.1-1.9-3.3 3.5-2 7-3.5 10.9-4.5.2.8.4 1.7.7 2.5l.3 1.1c-3.6 1.1-7 2.5-10 4.2z"/><path class="st0" d="M83.8 20.2c-3-1.7-6.4-3.1-10-4.1.2-.6.3-1.1.5-1.7.2-.6.3-1.3.5-1.9 3.7 1 7.3 2.5 10.9 4.5-.4.6-.7 1.3-1.1 1.9-.3.4-.6.9-.8 1.3zM113.5 26.6c-.5-.8-1-1.7-1.6-2.5-1.8-2.8-4.1-5.6-7.1-8.8.5-.5 1-.9 1.4-1.4l1.4-1.4c1.4 1.9 2.9 3.7 4.3 5.6 1.8 2.4 3.7 4.8 5.5 7.2-.6.4-1.2.7-1.7 1-.6.3-1.2.7-1.8 1l-.4-.7zM95.6 24c-.1 0-.2-.2-.3-.3l-.2-.2c-3.4-3.1-6.2-5.2-8.9-6.7.7-1.2 1.4-2.4 2-3.6v-.1c3.6 2 6.9 4.6 10.3 7.8-.5.6-1.1 1.2-1.7 1.7l-.9.9-.2.2c0 .1-.1.2-.1.3zM52.6 19.4c-.3-.9-.5-1.9-.8-2.9 3.7-.9 7-1.4 10.5-1.4h.1V19h-.2c-3.1 0-6.1.4-9.5 1.2l-.1-.8zM72.4 20.3C69 19.4 66 19 62.9 19h-.2v-2.3-1.5h.3c4.3 0 7.7.7 10.3 1.3-.2.9-.5 1.8-.7 2.7-.1.3-.2.7-.2 1.1zM110.3 29.5c-2.3-3.9-5-7.5-7.9-10.5 0-.1-.1-.1-.3-.2-.1-.1-.3-.3-.4-.3 0-.1.3-.4.5-.5l.2-.1.1-.1c.7-.7 1.4-1.4 2-1.9 1.8 1.7 3.4 3.7 4.9 5.6 1.8 2.3 3.1 4.3 4.2 6.3-1.3.5-2.4 1.1-3.3 1.7zM43.6 24c-.6-1.1-1.2-2.2-1.9-3.3 2.9-1.7 6.3-3.1 9.9-4.1l.3 1.1c.2.9.5 1.8.7 2.7-2.9.7-5.8 1.9-9 3.6zM81.6 24c-3-1.7-5.9-2.9-8.9-3.7.1-.3.2-.7.3-1 .2-.9.5-1.9.8-2.8 3.4.9 6.6 2.3 9.8 4.1-.3.6-.7 1.2-1 1.8-.4.5-.7 1.1-1 1.6zM32.6 27l-1.2-1.2-1.5-1.5c3.1-2.9 6.3-5.3 9.4-7.1.3.4.5.9.8 1.3.4.6.7 1.3 1.1 1.9-3 1.8-5.9 4-8.6 6.6z"/><path class="st0" d="M92.6 27c-2.8-2.7-5.6-4.8-8.5-6.5.3-.5.6-1.1.9-1.6.3-.6.7-1.1 1-1.7 3.8 2.3 6.8 4.6 9.3 7.2-.9.8-1.8 1.7-2.7 2.6zM107.1 31.3c-2.2-3.7-4.7-7.1-7.4-9.8l-.2-.2c-.1-.1-.4-.3-.4-.4l.4-.4.2-.2 1.7-1.7c3.1 3.1 5.9 6.8 8.4 11-.5.3-1.1.6-1.6.9-.3.3-.7.5-1.1.8zM53.9 24.2c-.2-.7-.4-1.5-.6-2.2l-.3-1.3c3.2-.8 6.2-1.2 9.4-1.2h.1v3.6c-2.8 0-5.5.4-8.6 1.1zM71.3 24.2c-3-.7-5.7-1.1-8.5-1.1v-3.6h.2c3.1 0 6 .4 9.3 1.2-.2.6-.3 1.2-.5 1.9-.2.5-.4 1.1-.5 1.6zM45.7 27.6c-.6-1-1.2-2.1-1.8-3.2 3.1-1.7 6-2.9 8.9-3.6.1.6.3 1.2.5 1.8.1.6.3 1.1.4 1.6-3.1 1-5.7 2.1-8 3.4zM79.5 27.6c-2.4-1.4-5.1-2.5-7.9-3.3.2-.6.3-1.1.5-1.7.1-.6.3-1.2.5-1.8v-.1c3.1.8 5.9 2 8.8 3.6-.3.5-.6 1-.9 1.6-.4.6-.7 1.2-1 1.7z"/><path class="st0" d="M89.5 30.1c-2.5-2.4-5-4.3-7.6-5.9.3-.5.7-1.1 1-1.7.3-.6.7-1.1 1-1.7 3.1 1.8 6 4 8.5 6.5l-1.5 1.5c-.5.4-1 .8-1.4 1.3zM35.7 30.1c-.6-.7-1.3-1.3-2-2-.3-.2-.5-.5-.8-.7 2.3-2.4 5.1-4.6 8.5-6.5.3.6.7 1.2 1.1 1.9l.9 1.5c-.1.1-.3.2-.4.3-2.6 1.4-5 3.3-7.3 5.5zM103.1 33.6c-.1-.1-.2-.3-.3-.4l-.1-.2c-1.7-2.7-3.6-5.3-5.8-7.7l-.2-.2-.3-.3-.5-.5.6-.6.1-.1.7-.7c.6-.6 1.2-1.2 1.7-1.6 2.9 3 5.6 6.4 7.9 10.3-.7.4-1.5.9-2.3 1.3-.6.2-1.1.4-1.5.7zM55 28.2c-.3-1.2-.7-2.3-.9-3.5 2.8-.7 5.5-1.1 8.4-1.1v3.6c-2.5.1-5 .4-7.5 1zM70.2 28.2c-2.6-.6-5-.9-7.5-1v-1.4-2.3c2.8.1 5.5.4 8.4 1.1-.2.6-.3 1.2-.5 1.8-.1.7-.2 1.2-.4 1.8zM25.9 35.7c-.9-.5-1.8-1-2.6-1.5l-.7-.4c1.8-3.2 4.2-6.3 7.2-9.4l.6.7c.6.5 1.1 1.1 1.7 1.7l.3.3-.3.3-.1.3c-2.3 2.3-4.5 5.2-6.1 8zM99.3 35.7c-1.6-2.8-3.6-5.4-6.5-8.5.5-.4.9-.9 1.3-1.3l1.3-1.3c2.8 2.8 5.2 5.9 7.1 9.3-.4.2-.7.4-1 .6-.6.4-1.4.8-2.2 1.2zM38.1 32.4c-.6-.5-1.1-1.1-1.7-1.7l-.3-.3c0-.1.4-.4.6-.5.1-.1.2-.2.3-.2 1.9-1.8 4.4-3.7 6.8-5 .6 1 1.2 2 1.7 3.1l.1.1C43 29.2 40.7 31 38.7 33l-.6-.6z"/><path class="st0" d="M86.6 33c-2.2-2.1-4.4-3.8-6.7-5.2.6-1.1 1.2-2.2 1.8-3.2 2.5 1.4 4.9 3.2 7.6 5.7l-1.5 1.5c-.5.4-.9.8-1.2 1.2zM47.2 30.2c-.4-.7-.9-1.5-1.3-2.2 2.6-1.4 5.2-2.5 7.9-3.2l.2.9c.2.9.5 1.7.7 2.6-2.3.6-4.5 1.5-7 2.9-.1-.3-.3-.7-.5-1zM77.4 31.2c-1.7-.9-4.1-2.1-6.9-2.8.1-.6.3-1.2.5-1.8.2-.6.3-1.2.5-1.8 2.8.8 5.4 1.8 7.8 3.2-.6 1-1.2 2-1.9 3.2zM29.6 37.9l-2.1-1.2c-.4-.2-.9-.5-1.3-.7 1.7-3 3.8-5.8 6.5-8.4.5.4 1 1 1.6 1.6l.8.8c.1.1.2.1.2.2l.1.1s-.5.6-.7.7l-.1.1c-2 2.3-3.8 5-5 6.8zM95.6 37.9c-.1-.1-.2-.2-.3-.4l-.1-.1c-1.4-2.4-3.2-4.7-5.5-7.1l1.4-1.4 1.4-1.4c2.7 2.7 4.8 5.5 6.5 8.4-.6.4-1.2.7-1.9 1.1l-1.5.9zM56.2 32.5c-.3-1.1-.6-2.1-.9-3.2l-.2-.6c2.3-.6 4.8-.9 7.4-1v4h-.1c-2 0-4 .3-6.2.8zM69.1 32.5c-2.3-.6-4.2-.8-6.3-.8v-1.5-2.5c2.5.1 4.9.4 7.3 1-.3 1.2-.6 2.4-1 3.8zM41.6 35.9c-.6-.6-1.2-1.2-1.9-1.8l-.8-.8.6-.6.1-.1c1.9-1.7 4-3.3 6-4.4.5.9 1.2 2 1.8 3.2-2.1 1.2-4 2.7-5.8 4.5zM83.6 35.9c-.1-.1-.3-.3-.5-.4l-.2-.2-.3-.3c-.6-.5-1.1-1-1.7-1.5-.9-.7-2-1.4-3.1-2.1.3-.6.6-1.1 1-1.7l.9-1.5c2.7 1.6 4.9 3.3 6.7 5.1l-1.5 1.5-.8.8c-.2 0-.4.3-.5.3zM75.2 35c-2.1-1.1-4-1.9-5.8-2.4.2-.9.5-1.8.7-2.7l.3-1.1c2.2.6 4.4 1.5 6.8 2.8-.3.7-.7 1.3-1.1 2-.3.4-.6.9-.9 1.4zM49.7 34.6c-.5-1-1.1-2-1.7-2.9 1.9-1.2 4.1-2 6.8-2.9.1 0 .2.2.2.3v.1l.3.9c.2.8.5 1.7.7 2.5-2.2.6-4.2 1.5-5.9 2.4l-.4-.4zM112.3 43.7c-1.2-4.3-2.8-8.3-4.9-12l.4-.2c.9-.5 1.7-1 2.5-1.4 2.1 3.7 3.9 8.1 5.3 12.8-.6.2-1.4.4-2.1.5-.5.1-.9.2-1.2.3zM92 40c-.1-.1-.1-.2-.2-.3 0-.1 0-.1-.1-.2-1.3-2.2-2.9-4.3-4.9-6.3.9-.9 1.7-1.8 2.6-2.6 2.4 2.5 4.3 4.9 5.8 7.5-.7.4-1.4.8-2 1.1-.4.3-.8.6-1.2.8zM33.2 40c-.5-.3-.9-.5-1.4-.8-.6-.4-1.2-.7-1.8-1.1 1.6-2.7 3.5-5.2 5.8-7.5l1.4 1.4c.4.4.7.8 1.1 1.1-2.1 2.5-3.7 4.6-5.1 6.9zM44.7 39c-.9-.9-1.8-1.9-2.8-2.8 1.5-1.6 3.5-3.1 5.8-4.5.3.5.6 1.1 1 1.7.3.6.7 1.2 1 1.7-1.6 1-3.2 2.3-5 3.9zM80.5 39.1c-.1 0-.3-.3-.5-.4v-.1c-1.4-1.3-2.9-2.5-4.4-3.3.2-.4.5-.8.7-1.3.4-.7.8-1.5 1.3-2.2 1.8 1 3.7 2.4 5.2 3.8l.1.1c.2.2.5.4.5.5l-.3.3H83l-1.1 1.1c-.3.4-.7.7-1.1 1.1l-.1.1c0 .1-.1.3-.2.3z"/><path class="st0" d="M107.8 44.9c-1.1-4-2.6-7.6-4.5-10.9.2-.1.4-.2.6-.4.1 0 .2-.1.2-.1s2.3-1.3 2.9-1.6c2.1 3.8 3.7 7.7 4.9 11.9-.5.1-1 .3-1.5.4-.9.2-1.8.5-2.6.7zM57.2 36.5c-.2-.8-.4-1.5-.6-2.3l-.3-1.2c2.1-.6 4.1-.8 6.3-.8v3.6c-1.9 0-3.5.2-5.4.7zM68 36.5c-1.8-.5-3.5-.7-5.3-.7v-1.4-2.3c2 0 3.9.2 6.1.8-.2.9-.5 1.9-.7 2.8l-.1.8zM52 38.6c-.5-.9-1-1.7-1.4-2.5l-.3-.5c1.7-1 3.7-1.9 5.8-2.4.3 1 .6 2.2.9 3.5-1.9.3-3.5 1.1-5 1.9zM73.2 38.6c-1.7-.9-3.3-1.6-4.9-2 .2-1 .5-1.9.8-2.9l.2-.6c2 .6 3.9 1.3 5.7 2.4-.2.4-.4.7-.6 1.1-.4.6-.8 1.3-1.2 2zM36.8 42.1c-.7-.4-1.3-.7-2-1.1-.4-.2-.8-.5-1.2-.7 1.4-2.4 3.1-4.7 5.1-6.7.9.8 1.7 1.7 2.6 2.6-2 2.1-3.4 3.9-4.5 5.9zM88.4 42.1c-.8-1.4-1.9-3-3.3-4.5l-.2-.3c-.2-.2-.5-.5-.7-.8l-.2-.2-.1-.1.4-.4c.1-.1.2-.1.2-.2l.7-.7c.5-.5 1-1 1.4-1.3 1.8 1.8 3.5 3.9 5.1 6.6-1 .6-2 1.2-3.3 1.9z"/><path class="st0" d="M103.6 46c-.9-3.5-2.3-6.7-4.1-9.8 1.1-.7 2.3-1.4 3.4-1.9 1.9 3.3 3.4 6.9 4.4 10.8-.6.2-1.3.3-1.9.5-.5.1-1.1.2-1.8.4zM47.6 41.9c-.8-.9-1.7-1.7-2.5-2.5 1.4-1.4 3-2.6 5-3.8.3.5.6 1.1.9 1.6l.9 1.5c-1.6.9-3 2-4.3 3.2zM77.6 41.9c-1.3-1.3-2.7-2.3-4.2-3.2.4-.7.9-1.5 1.3-2.3.2-.3.3-.6.5-.9 1.4.8 3 2 4.4 3.2l.2.1c.1.1.4.3.4.4 0 .1-.4.4-.6.6v.2l-.7.7c-.4.4-.9.8-1.3 1.2zM58.2 40.1c-.2-1-.5-2-.8-3v-.2c.5-.2 1.2-.3 1.8-.4h.2c1.1-.2 2.1-.3 3-.3h.1v3.3c-1.6.1-3.1.3-4.3.6zM67.1 40.1c-1.3-.3-2.7-.5-4.3-.6v-1.2-2.1c1.7 0 3.3.2 5.1.6-.1.5-.2.9-.4 1.4-.1.7-.3 1.3-.4 1.9z"/><path class="st0" d="M99.4 47.1c-.8-3.1-2-6-3.6-8.8.3-.2.6-.4 1-.6.8-.5 1.7-1 2.5-1.4 1.7 3.1 3.1 6.3 4 9.8l-1.1.3c-.9.2-1.8.5-2.8.7zM84.6 44.3c-1.3-2.1-2.5-3.7-3.8-5l1.6-1.6c.4-.4.8-.8 1.2-1.3 1.8 1.8 3.3 3.7 4.5 5.8-1.3.8-2.5 1.5-3.5 2.1zM40.7 44.3c-.7-.4-1.4-.8-2-1.2-.5-.3-1-.6-1.4-.8 1.2-2.1 2.7-4.1 4.5-5.8l2.8 2.8c-1.7 1.7-3 3.3-3.9 5zM71.3 41.8c-1-.5-2.3-1.2-3.9-1.6l.2-.9c.2-.8.4-1.6.6-2.3 1.6.4 3.1 1 4.7 1.9l-.1.3c-.5.9-1 1.8-1.5 2.6zM54 41.9c-.6-.9-1.1-1.9-1.7-2.9 1.7-.9 3.2-1.5 4.8-1.9.1.1.1.3.1.5 0 .1 0 .2.1.3.1.2.1.5.2.7.2.6.3 1.2.5 1.8-1.5.2-2.9.8-4 1.5zM29.8 48.2c-1.2-.3-2.3-.6-3.4-.9l-.2-.1c.9-3.1 2.1-6.1 3.7-8.8.6.4 1.3.8 2 1.2.4.2.8.5 1.2.7-1.5 2.6-2.6 5.2-3.3 7.9z"/><path class="st0" d="M95.4 48.2c-.8-2.7-1.8-5.3-3.2-7.9.6-.4 1.3-.7 1.9-1.1.4-.3.9-.5 1.3-.8 1.7 3.1 2.9 5.8 3.6 8.7-.7.2-1.4.4-2.2.6-.4.2-.9.4-1.4.5zM50.3 44.6c-.1 0-.2-.2-.5-.5-.5-.5-.9-.9-1.3-1.4l-.5-.4c1.1-1.2 2.5-2.2 4.1-3.1.1.1.4.7.4.7l.3.4c.3.6.7 1.2 1 1.7-.1.1-.2.1-.3.2l-.1.1c-1 .6-1.9 1.4-2.6 2l-.1.1c-.3.1-.4.2-.4.2zM75 44.6c-1.1-1-2.1-1.9-3.4-2.6.3-.5.5-1 .8-1.4.3-.5.6-.9.8-1.4 1.6.8 2.9 2 4.1 3-.7.7-1.4 1.5-2.3 2.4zM81.1 46.3c-1-1.5-2-2.9-3.2-4.1.9-.8 1.7-1.7 2.6-2.6 1.3 1.2 2.4 2.7 3.8 4.8-.5.4-1.1.7-1.7 1l-1.5.9zM44.2 46.3c-.6-.3-1.1-.6-1.6-.9l-1.5-.9c1-1.8 2.3-3.4 3.8-4.9l1.4 1.4 1.1 1.1c-1.2 1.4-2.3 2.7-3.2 4.2zM59.1 43.4c-.1-.5-.2-1-.4-1.4-.1-.5-.3-.9-.4-1.4 1.2-.3 2.5-.5 4-.5h.2V43c-1.1 0-2.2.1-3.4.4zM66.2 43.4c-1.2-.3-2.3-.4-3.4-.4v-1.1-1.8h.2c1.3 0 2.6.2 4 .5-.1.5-.2 1-.4 1.4-.2.5-.3.9-.4 1.4zM33.8 49.3c-.5-.1-.9-.3-1.4-.4-.7-.2-1.5-.4-2.2-.6.7-2.6 1.8-5.1 3.2-7.7.5.3 1.1.6 1.6.9.5.3 1.1.6 1.6.9-.9 1.7-2.1 4.1-2.8 6.9zM91.4 49.3c-.7-2.4-1.6-4.7-2.8-6.8.6-.4 1.3-.8 1.9-1.1.4-.3.9-.5 1.3-.8 1.3 2.1 2.3 4.6 3.2 7.7-.9.3-2.1.6-3.6 1zM55.6 44.8c-.2-.4-.5-.8-.7-1.3-.2-.4-.5-.8-.7-1.3 1.4-.8 2.6-1.2 3.9-1.6.1.5.3 1 .4 1.5.1.4.2.9.3 1.3-1.2.4-2.2.9-3.2 1.4zM69.6 44.8c-.9-.5-1.9-1-3.1-1.3.1-.5.3-1 .4-1.5.1-.4.2-.9.3-1.3 1.6.4 2.9 1 3.9 1.6-.3.4-.5.9-.8 1.3-.2.4-.5.8-.7 1.2zM72.5 47.1c-.1 0-.3-.3-.4-.4-.1-.1-.1-.2-.2-.2-.5-.5-1.1-.9-1.7-1.3l-.4-.2.4-.6c.4-.6.7-1.2 1.1-1.9 1.3.7 2.3 1.6 3.3 2.5-.5.5-1.1 1.1-1.7 1.8 0-.1-.3.2-.4.3zM47.5 48.2c-1-.5-2-1.1-2.9-1.7.8-1.4 1.8-2.6 3.1-4l1.3 1.3 1 1c-.9 1.2-1.8 2.2-2.5 3.4zM52.7 47.1L50.6 45c1-1 2.2-1.9 3.3-2.5.5.9 1 1.7 1.5 2.6-1 .5-1.9 1.2-2.7 2zM77.7 48.2c-.7-1.3-1.7-2.5-2.6-3.4.8-.7 1.6-1.5 2.4-2.3 1.2 1.1 2.3 2.5 3.1 4-.5.3-1 .5-1.5.8-.4.4-.9.7-1.4.9zM38.1 50.4l-2.1-.6c-.6-.2-1.2-.3-1.8-.5.8-2.7 1.7-4.9 2.9-6.7l.8.4 2.7 1.5c-1.1 1.9-1.9 3.8-2.5 5.9zM87.1 50.4c-.5-2-1.3-3.9-2.4-5.8.7-.4 1.5-.8 2.2-1.2.5-.3.9-.5 1.4-.8.9 1.7 2.1 4 2.8 6.8-.6.1-1.2.3-1.8.5-.7.1-1.5.3-2.2.5zM65.4 46.2c-.9-.2-1.8-.3-2.6-.4v-2.4c1.1 0 2.2.1 3.3.4-.1.4-.2.9-.4 1.3-.1.4-.2.8-.3 1.1zM59.8 46.3c-.1-.3-.2-.6-.2-.9-.1-.5-.3-.9-.4-1.4.9-.2 2-.4 3.3-.4V46c-1.1-.1-2 .1-2.7.3zM67.7 47.1c-.6-.3-1.3-.6-2-.8.1-.5.2-.9.3-1.3.1-.3.2-.7.3-1 1.1.3 2 .7 3 1.2-.2.3-.3.6-.5.8-.2.4-.5.8-.7 1.3-.1-.1-.2-.1-.4-.2zM57.1 47.4c-.1-.1-.2-.2-.2-.3l-.1-.1-.1-.2c-.3-.5-.6-1-.8-1.5.9-.4 1.9-.9 3-1.2h.1c0 .3.1.6.2 1s.3.9.4 1.4c-1 .1-1.9.5-2.5.9zM83.2 51.5c-.5-1.7-1.2-3.2-2-4.8 1.1-.6 2.2-1.3 3.2-1.8 1.1 1.8 1.8 3.7 2.4 5.7-.3.1-.6.1-1 .1h-.4c-.1 0-.1.1-.1.2v.1c-.7.1-1.4.3-2.1.5zM42 51.5c-.5-.1-1-.3-1.5-.4l-2.1-.6c.6-2.2 1.4-4.1 2.4-5.7.5.3 1 .6 1.6.9.5.3 1 .6 1.6.9-.8 1.6-1.5 3.2-2 4.9zM74.8 49.9c-.4-.8-1-1.5-1.5-2.1-.2-.2-.3-.4-.5-.6.7-.6 1.4-1.3 2.1-2 .9.9 1.8 1.9 2.5 3.2-.4.2-.8.5-1.3.7-.4.3-.9.6-1.3.8zM50.4 50l-1.5-.9c-.4-.2-.7-.4-1.1-.6.6-1.1 1.4-2.2 2.5-3.3l2.1 2.1h-.1c-.6.9-1.3 1.7-1.9 2.7zM70.3 48.9c-.6-.5-1.1-1-1.8-1.4.2-.4.4-.7.6-1.1.2-.4.4-.7.6-1.1.6.3 1.4.9 2 1.5l.1.1c.1.1.4.3.4.4l-.3.3c-.1 0-.1.1-.1.1l-1 1-.3.3-.2-.1zM107.2 57c-.1-.5-.3-1-.4-1.5l-.3-1.2-.2-.5c-.2-.7-.5-1.5-.5-2.3.3-.2.7-.2 1.2-.3h.4c.1-.1.1-.3.1-.4v-.4h-3c-.1-1.4-.4-2.6-.8-4.1.5-.1 1-.3 1.5-.4.8-.2 1.5-.4 2.3-.6.9 3.4 1.5 7.3 1.5 11.6h-1.8zM54.8 49.1c-.4-.3-.7-.6-1-.9-.2-.3-.5-.5-.8-.7.7-.8 1.7-1.5 2.5-2 .5.7.9 1.4 1.2 2.1-.7.4-1.3.9-1.9 1.4v.1zM60.5 48.9c-.1-.4-.2-.7-.3-1.1-.1-.4-.2-.7-.3-1.1.8-.2 1.6-.3 2.3-.3h.3v2.2c-.8 0-1.4.2-2 .3zM64.7 48.9c-.6-.1-1.2-.3-1.9-.3v-2.2c1 0 1.8.1 2.5.3-.2.8-.4 1.5-.6 2.2zM66.8 49.6c-.7-.3-1.3-.6-1.8-.8l.1-.3c.2-.6.3-1.2.5-1.9.9.2 1.7.6 2.3.9-.2.3-.4.6-.5.9-.2.6-.4.9-.6 1.2zM58.4 49.7c-.1-.3-.3-.5-.4-.8-.2-.4-.4-.7-.6-1.1l.3-.2c.6-.3 1.2-.6 2-.8.1.3.1.6.2.9.1.4.2.8.3 1.3-.5.1-1 .3-1.4.5-.1.1-.2.1-.4.2zM81.4 52c-.2-.2-.4-.4-.5-.7-.2-.2-.3-.5-.5-.7h-1.5c-.2-.5-.4-1-.7-1.5l-.3-.6c.1-.1.3-.2.5-.3l.2-.1.5-.3c.6-.3 1.1-.7 1.7-1l.1-.1c1 1.7 1.6 3.2 2 4.8-.4.1-.7.2-1 .3l-.5.2zM45.5 52.5c-.5-.1-.9-.3-1.4-.4-.6-.2-1.2-.3-1.7-.5.5-1.8 1.2-3.3 2-4.7.5.3 1 .6 1.6.9.4.3.9.5 1.4.8l-.1.3c-.3.6-.6 1.2-.9 1.9h-2.7v.7l.2.1c.5.1 1.3.3 1.6.9zM72.3 51.4c-.5-.8-1.1-1.5-1.6-2.1.6-.5 1.2-1.1 1.8-1.7.8.8 1.5 1.8 2 2.6-.1.1-.2.1-.4.2-.1 0-.1.1-.2.1-.3.1-.5.3-.8.5-.2.1-.5.3-.8.4zM96 50.5c-.1-.5-.2-1.1-.3-1.6l-.1-.4c1.2-.3 2.4-.6 3.6-1 .2.8.4 1.7.7 2.9h-2.2c-.7.1-1.2.1-1.7.1zM52.3 51.1l-.6-.3c-.3-.2-.6-.3-.9-.5.6-.9 1.3-1.8 2-2.5.4.3.7.7 1.1 1.1.2.2.4.5.6.7-.2.2-.5.5-.7.8-.1.2-.3.3-.4.5h-1.1c-.1-.1-.1 0 0 .2 0-.1 0-.1 0 0zM68.6 51c-.6-.5-1.1-.9-1.5-1.2.2-.2.3-.5.5-.7.2-.4.5-.8.7-1.2.7.4 1.3.9 2 1.5l-.9.9c-.3.2-.6.4-.8.7zM56.4 50.7h-.2c-.2 0-.3-.2-.4-.4l-.2-.2-.2-.2c-.1-.1-.3-.2-.4-.4.5-.5 1.1-.9 1.7-1.3l.3-.2c.4.6.7 1.2 1.1 1.9-.1.1-.2.1-.3.2-.1 0-.1.1-.2.1-.1.1-.2.1-.3.2-.1.1-.2.1-.3.2h-.5c.1.1 0 .1-.1.1zM29 57c0-3.1.4-5.9 1.1-8.3.8.2 1.6.5 2.5.7l1.1.3c-.6 2.7-.9 4.9-.9 7.4H29zM92.4 50.5h-.6c0-.2 0-.4-.1-.6 0-.1-.1-.2-.1-.4.6-.1 1.2-.3 1.8-.4.6-.2 1.3-.3 1.9-.5.1.3.2.7.2 1.1.1.2.1.5.2.7h-1.5c-.4.2-1.6.1-1.8.1zM49.1 53.1l-.9-1.2c-.3-.4-.6-.8-.8-1.1h-.5c.2-.5.5-1.1.7-1.5l.2-.3 1.5.9c.4.2.7.4 1.1.6-.6.6-1 1.5-1.3 2.6zM76.2 53.4c-.3-1.2-.8-2.2-1.2-3.1.1-.1.2-.1.4-.2.1 0 .1-.1.2-.1.2-.1.5-.3.7-.4.4-.3.9-.5 1.3-.8.3.5.6 1.1.9 1.9h-1.6c-.1.1-.1.3-.1.4v.3c1 .3 1.8.5 2.2 1.3-.5.1-.9.2-1.3.3-.6.2-1 .3-1.5.4zM60.9 50.6c0-.2-.1-.5-.2-.8 0-.2-.1-.3-.1-.5.6-.1 1.2-.2 1.8-.2v1.4h-1.5zM64.2 50.7c-.4 0-.8-.1-1.2-.1h-.2v-1.5c.7 0 1.3.1 1.8.3-.1.3-.4 1.3-.4 1.3zM58.9 50.6c-.1-.2-.2-.3-.3-.5.1-.1.4-.2.6-.3l.2-.1c.3-.1.5-.2.8-.3h.1c.1 0 .1.1.1.2v.1c.1.3.2.6.2.9h-1.7zM66 51.1c-.4-.2-.9-.3-1.5-.4.1-.2.1-.4.2-.7.1-.2.1-.4.2-.6.7.1 1.2.4 1.7.7-.3.4-.5.7-.6 1zM54.1 50.7c.1-.2.3-.4.5-.6l.3-.3c.3.3.7.6.9.9h-.9c-.3-.1-.6-.1-.8 0zM70 52.8c-.4-.6-.8-1.1-1.2-1.5.5-.4 1.1-1 1.6-1.5.7.6 1.1 1.3 1.5 2-.3.1-.6.3-.9.5-.3.1-.7.3-1 .5zM88.6 57c0-.3 0-.6.1-1v-1.4c-.1-1.3 0-2.5.5-2.9.3-.2.6-.2 1-.3.2 0 .3-.1.5-.1v-.7H88c.1 0 .1 0 .2-.1.5-.1 1-.3 1.6-.4.5-.1.9-.2 1.4-.4h.1c.1.2.1.5.2.9h-.4v.7c.1.1.3.1.4.1h.1c.3 1.9.5 3.7.5 5.6h-3.5zM33.1 57c.1-2.9.4-5.2 1-7.3.6.2 1.3.4 2 .6.6.2 1.3.3 1.9.5-.1.1-.1.2-.1.3 0 .1-.1.3-.1.4-.1-.1-.1-.3-.2-.5 0-.1-.1-.2-.1-.3h-.7-.1c-.4.7-.6 1.5-.9 2.2-.1.3-.2.7-.4 1l-.3.8c-.3.8-.6 1.5-.9 2.3h-1.1zM57.9 50.6c.1-.1.2-.1.3-.2.1-.1.2-.1.2-.2.1 0 .1.2.1.3v.1h-.6zM67.6 52c-.2-.1-.3-.2-.5-.3-.3-.2-.5-.3-.9-.5.1-.2.2-.3.3-.5.1-.1.2-.3.3-.5.6.3 1.1.7 1.5 1.1l-.2.1c-.2.3-.3.5-.5.6z"/><path class="st0" d="M114.7 63.7c-.4-1.3-.9-2.7-1.3-4.1-.7-2-1.3-3.9-2-5.9v-.1.1c-1.1 3.2-2.2 6.6-3.3 9.8l-.1.2h-.8c-.6-2.3-1.2-4.4-1.8-6.4H107.3c.2 1 .6 2.1.9 3.1v.1-.1c1-2.8 1.9-5.8 3.2-9.7h.9c.4 1.4.9 2.9 1.4 4.3.6 1.8 1.2 3.7 1.9 5.5v.1l.1-.1c.2-.5.3-1 .5-1.5.1-.2.1-.4.2-.7.1-.5.3-.9.4-1.4.4-1.3.8-2.7 1.1-4.1.1-.4.2-.9.1-1.2-.1-.6-.9-.7-1.6-.7h-.3v-.5h4.7v.6c-.7 0-1.4.4-1.7 1-.2.3-.2.6-.3 1 0 .1-.1.3-.1.4-.6 1.9-1.2 3.9-1.7 5.8-.4 1.5-.9 3-1.3 4.4l-1 .1zM51.8 54.1c-.8-.2-1.7-.4-2.4-.7.2-.9.6-1.8 1-2.5l.2-.4c.5.2.9.5 1.4.8.3.2.6.3.8.5-.4.7-.7 1.5-1 2.3zM73.3 54.2c-.2-.9-.6-1.6-.9-2.3.4-.2.8-.4 1.2-.7.4-.2.7-.4 1.1-.6.5.8.9 1.8 1.2 3l-1.2.3c-.5 0-.9.2-1.4.3zM39.9 57l-.1-.4c-.6-1.5-1.1-2.9-1.7-4.4 0-.1.1-.3.1-.4.1-.3.1-.6.3-.9.3.1.7.2 1.1.3.8.2 1.6.4 2.4.7-.4 1.5-.6 3.2-.7 5.1h-1.4zM85.6 57.1h-.4c-.2 0-.5-.5-.6-.7l-.2-.4c-.1-.1-.1-.2-.2-.3l-.1-.1c-.1-.1-.2-.2-.2-.3 0-.1-.1-.4-.1-.6v-.3c-.1-.7-.2-1.7-.5-2.5l.7-.2c.4-.1.9-.2 1.3-.3.2.1.4.1.6.2.5.1.9.2 1.3.5.2 1.2.6 3 .5 5.1h-1.6c-.2-.1-.4-.1-.5-.1zM99.4 57v-2.6c-.1-.1-.2-.1-.3-.1h-.3-.1c-.3 1.1-.6 2.2-1.9 2.2h-.1c0-1.5-.1-3.2-.4-5.1H98c.4 0 .8 0 1 .2.4.2.8.6 1 1l.1.1c.1.1.2.2.2.3.1.2.1.4.1.7v.3c.1.8.1 1.9.1 3.1h-1.1zM58.5 52.9c-.5-.4-1-.9-1.4-1.4.1 0 .3-.1.5-.1.5 0 1.1.2 1.3.4.1.1.2.4.2.5 0 .1-.2.2-.3.3l-.3.3zM95.1 56.5v-2.4-2.7h.8c.2 1.5.4 3.2.4 5.1h-1.2zM92.5 57c0-1.8-.2-3.5-.5-5.5.1 0 .2.1.2.1.2.1.4.1.5.3.3.3.3 1.1.3 1.8V57h-.5zM57.5 54.1c-.5-.3-1-.5-1.5-.8l-.3-.3c.1-.2.2-.4.4-.6l.1-.1c.2-.2.4-.5.6-.7l1.5 1.5-.3.3c-.2.3-.3.5-.5.7zM68.9 53.3c-.3-.4-.6-.8-1-1 .1-.1.2-.2.4-.3l.3-.3c.4.4.8.8 1.1 1.4-.1 0-.2.1-.2.1-.3 0-.4.1-.6.1zM62.8 62.9c-.5 0-1.1-.1-1.3-.6-.2-.4-.2-1.1-.2-1.8v-8.7c.4-.1.8-.1 1.3-.1.8 0 1.7.2 2.4.5 1.3.6 2 1.4 2.4 2.7.3 1.1.4 2.5.2 3.9-.1.6-.2 1.2-.5 1.7-.2.3-.6.7-1 1.1-.4.3-.9.6-1.3.8-.6.3-1.3.5-2 .5zM54.4 54.9c-.4-.1-.8-.2-1.1-.3-.3-.1-.7-.2-1-.3.2-.9.6-1.6.9-2.3.2.2.5.3.7.5l.6.3c.1.6.2 1.5-.1 2.1zM70.8 54.8c-.1-.4-.3-.8-.5-1.2L70 53l.4-.2 1.5-.9c.4.6.7 1.4.9 2.3l-1.2.3c-.1.2-.4.3-.8.3zM43 57.1h-1.4c.1-2 .3-3.7.8-5 .8.2 1.5.4 2.3.7l.9.2c-.3 1.3-.5 2.7-.5 4.2h-.5c-.3-.1-1.4-.1-1.6-.1zM83.4 54.4c-.2-.2-.3-.4-.5-.6-.1-.1-.2-.2-.3-.4l-.3-.3c-.2-.2-.4-.5-.5-.7.2 0 .3-.1.5-.1.2-.1.4-.1.6-.2.2.6.4 1.4.5 2.3zM59.2 61.7s-.1 0 0 0l-.1-.1c-1.2-.9-2-2.5-2.1-4.2-.1-1.8.7-3.4 2.1-4.5v5.4c.1 1.2.1 2.3.1 3.4zM77.7 57.1h-1c.1-1.3-.2-2.4-.4-3.3.3 0 .7-.2 1.1-.3.5-.1 1.1-.3 1.6-.4.2.7.2 1.6.1 2.5v1.5H77.7zM45.4 57.1c0-1.3.2-2.4.4-3.5.1.6 0 1.4 0 2.1v1.4h-.4zM69.8 55.1c-.1-.5-.3-.9-.6-1.4.1-.1.3-.2.5-.3.1 0 .1-.1.2-.1.1.2.2.5.3.7v.1c.1.3.2.5.3.8-.1 0-.2 0-.3.1-.2.1-.3.1-.4.1zM80.2 57.1v-1.2-2.4l.6.8c.7.9 1.4 1.8 2.1 2.8h-2.7zM47.5 57.1h-.6v-3.5c.2.3.5.7.8 1.1.1.2.3.4.4.5l.2.2c.1.1.2.2.2.3v.6c0 .2-.1.5 0 .7h-.2c-.2.1-.7.1-.8.1zM56.9 55.5c-.5-.1-1-.2-1.3-.4v-.6-1c.4.2.8.4 1.2.7.2.1.3.2.5.3-.1.3-.3.6-.4 1zM35.3 57c.4-1.1.8-2.1 1.2-3.1.1.2.3.6.4.9 0 .1.1.2.1.3.1.2.2.5.2.7V57.1h-1.9zM73.8 57.1v-.2c-.1-.8-.1-1.6-.3-2.2 1-.3 2.1-.6 2.5-.7.2.9.4 1.9.4 3.2h-2.6zM51.5 56.2c-.6-.7-1.2-1.5-1.6-2.2h.1c.6.2 1.3.3 1.9.5-.1.1-.1.3-.1.5-.2.4-.3.8-.3 1.2zM52.5 57.1h-.4l-.2-.2c0-.1-.1-.1-.2-.2.1-.7.2-1.4.3-2 .4.1.8.2 1.1.3.3.1.7.2 1 .3l-.1.1c-.1.5-.2 1.1-.2 1.7H52.9h-.4zM71.2 57.1c0-.5-.1-1-.2-1.4 0-.2-.1-.3-.1-.5.5-.1.9-.2 1.4-.3.2-.1.5-.1.7-.2.1 0 .1.2.2.4v.1c.1.6.2 1.3.2 1.9h-2.2zM54.4 57.1c0-.4.1-1 .2-1.5v1.5h-.2zM70.8 57.1h-.1H70.1 70c0-.6-.1-1.1-.2-1.6.1 0 .2-.1.3-.1.1 0 .3-.1.4-.1.2.5.3 1 .3 1.8zM55.6 57.1v-.9-.5c.3.1.6.1.8.2.1 0 .3.1.4.1-.1.2-.1.6-.2.9v.3h-1zM48.8 57.1c0-.3 0-.6.1-.9.2.3.5.6.7.9h-.8zM37.7 57h-.2v-.5c0 .1.1.1.1.2.1.1.1.3.1.3zM33.2 59.8c-.1-.6-.1-1.3-.1-1.9v-.5h1c-.1.4-.3.7-.4 1.1-.1.4-.3.8-.5 1.3zM34.8 58.4c.1-.1.1-.3.1-.4.1-.2.2-.5.3-.7h2.1v1h-2.5zM87.5 60.2c-.3-.3-.5-.6-.7-.9-.1-.1-.2-.3-.3-.4-.1-.2-.3-.3-.4-.5-.2-.3-.5-.6-.7-.9h2.2c.1.8.1 1.6-.1 2.7zM91.2 64.7c-.3-.1-.6-.2-.9-.2-.6-.1-1.1-.3-1.7-.4-.1 0-.2 0-.2-.1h.4v-3.9-2.6h3.5c0 2.1-.3 3.9-.6 5.6h-.4v.7c0 .1.1.1.1.1h.2c-.1.1-.1.2-.1.3-.2.1-.3.3-.3.5zM92 62.9c.3-1.7.5-3.5.5-5.5 0 0 0-.1.1-.1h.4v2.8c0 .7.1 1.4 0 1.9-.1.8-.7.9-1 .9zM95.8 62.8c-.4-.1-.7-.5-.7-1.2v-2-2.1h1.3c-.2 2.1-.3 3.8-.6 5.3zM97.8 62.9h-1.6c.3-1.7.4-3.6.5-5.5h.2c1.3 0 1.5 1 1.7 2.1h.9v-2.2h1c0 1.8-.2 3.4-.4 5.1-.7.4-1.6.5-2.3.5zM37.9 58.6h-.3v-.5-.6h.5c0 .2.1.3.2.5s.1.4.2.6h-.2c-.2-.1-.3 0-.4 0zM41.6 61c0-.1 0-.1-.1-.2l-.3-.7c-.3-.9-.7-1.8-1-2.7h1.1c0 1.5.1 2.6.3 3.6zM42.3 62.5c-.3-1.5-.7-3.3-.6-5.1h3.4c.1 1.5.2 2.9.5 4.2-.5.1-1.1.3-1.6.4-.6.2-1.1.3-1.7.5zM45.9 61.2c-.3-1.2-.4-2.4-.4-3.7h.5c-.1 1.2-.1 2.6-.1 3.7zM47 61.2c-.1-.9-.1-2-.1-3.1v-.7h1.5c0 1 .1 1.8.3 2.7 0 .2.1.4.1.6-.4.1-.7.2-1.1.3-.2.1-.4.2-.7.2zM49.2 60.6c-.3-1-.4-2.1-.4-3.2h1.1c.3.5.7 1 1.1 1.5l.4.5c.1.2.3.3.3.5-.8.3-1.6.5-2.5.7zM53.9 59.4c-.3-.3-.6-.7-.8-1.1-.2-.3-.4-.6-.7-.9H54c0 .6.1 1.1.2 1.6v.2c-.1.1-.2.2-.3.2zM54.6 59.1c0-.1 0-.2-.1-.3v-.1c-.1-.3-.1-.7-.1-1.1h.2v1.5zM55.7 58.8v-1.3h1.1c0 .4 0 .8.1 1.2-.2 0-.3.1-.5.1-.2.1-.4.1-.6.1l-.1-.1zM70.4 59.1c-.2 0-.3-.1-.5-.1.1-.4.2-.9.2-1.6h.8c-.1.5-.1 1.2-.3 1.7-.1.1-.2.1-.2 0zM73.1 59.9c-.6-.1-1.2-.3-1.8-.5l-.4-.1c.1-.5.3-1.1.3-1.8h2.2c0 .8-.1 1.5-.2 2.1l-.1.3zM76 60.6c-.5-.2-1.1-.3-1.6-.4l-.9-.2c.2-.8.3-1.6.3-2.5h2.6c0 1.3-.2 2.3-.4 3.1zM79.1 61.5c-.5-.1-1-.2-1.4-.4-.4-.1-.9-.2-1.3-.3.2-1.2.4-2.3.4-3.3h2.4v.9c0 1 0 2.1-.1 3.1zM82.9 62.5c-.6-.1-1.1-.3-1.7-.4-.3-.1-.6-.2-.9-.2-.2-1.1-.2-2.6-.1-4v-.4H83c.1 0 .2.2.3.3.1.1.1.2.2.3 0 1.4-.2 2.8-.6 4.4zM86.9 63.5c-.7-.2-1.4-.3-2.1-.5-.5-.1-1-.3-1.5-.4.2-1.1.5-2.4.6-3.9l.4.6c.9 1.2 1.8 2.4 2.7 3.7v.1c0 .2-.1.3-.1.4zM55.6 59.3c.1 0 .1 0 0 0 .2 0 .3 0 .5-.1s.5-.1.8-.2c.1.1.1.2.2.4 0 .1.1.3.1.3.1.1.1.3.2.4l-.1.1c-.4.2-.8.5-1.2.7-.1.1-.3.2-.4.2v-1.8zM34 64.7c0-.1 0-.2-.1-.2 0-.1-.1-.2-.1-.3h1.3c.1-.1.1-.3.1-.4v-.3l-.2-.2c-.5-.1-1.1-.1-1.4-.4 0-.1 0-.3-.1-.4 0-.1-.1-.3-.1-.4 0-.1.1-.3.1-.5l.1-.2c.2-.7.5-1.6.8-2.1h2.8c.1 1.4.4 2.9.7 4.2l-2.4.6-1.5.6zM69.8 61.2c-.2 0-.3-.1-.4-.2-.1-.1-.2-.1-.3-.2.1-.2.1-.3.2-.4.2-.3.3-.6.4-1 .1.1.2.1.3.1.1 0 .2.1.4.1-.1.5-.3 1.1-.6 1.6zM38.4 63.4c-.4-1.3-.6-2.7-.7-3.9h1.2c.1.5.3.9.5 1.4.2.6.5 1.2.6 2-.3.3-.9.3-1.5.4h-.1v.1zM54.6 60.5c-.1-.1-.2-.2-.3-.4-.1-.1-.2-.3-.3-.4h.3c0 .1.1.2.1.3.1.1.2.3.2.5zM72.1 62.5c-.3-.2-.5-.3-.8-.5-.4-.2-.8-.4-1.1-.7.1-.1.2-.3.3-.5.2-.4.3-.8.4-1.2.6.1 1.2.3 1.7.4l.4.1c-.2.9-.5 1.7-.9 2.4zM102 63.6s-.1-.1-.2-.1H100.2v-.2c.1-.3.1-.6.1-1 .6-.6.9-1.5 1.3-2.3l.1-.2h.5l-.1 1.1c0 1 0 1.9-.1 2.7zM74.6 64c-.5-.2-.9-.5-1.4-.8-.3-.2-.6-.3-.8-.5.5-.8.8-1.6 1-2.4.4.1.8.2 1.3.3l1.2.3c-.3 1.2-.8 2.2-1.3 3.1zM50.6 64c-.5-.9-.9-1.9-1.2-3 .5-.1.9-.2 1.4-.4.4-.1.7-.2 1.1-.3.1.1.1.2.2.4v.2c.2.7.5 1.3.8 1.8-.2.2-.5.3-.8.4-.1.1-.2.1-.3.2-.1.1-.2.1-.4.2-.3.2-.6.4-.8.5zM56.7 62.9c-.5-.4-.9-.9-1.1-1.4.6-.3 1.2-.7 1.9-1 .1.2.3.4.4.6.1.1.2.3.3.4-.2.1-.3.2-.5.4l-1 1zM53.1 62.5c-.3-.5-.6-1.1-.8-1.7.2.2.4.5.6.7.2.3.4.5.6.8-.1.1-.2.1-.4.2zM68.5 62.9c-.2-.1-.3-.2-.4-.4l-.3-.3.1-.1c.4-.3.7-.7 1-1.1.1.1.2.2.3.2.1.1.2.1.4.2-.2.4-.5.7-.8 1.1-.1.2-.2.3-.3.4zM47.6 65.7c-.1-.2-.2-.4-.3-.5l-.6-1.2h2.4c.1-.2.1-.4.1-.5v-.2c-1.1-.2-2.1-.5-2.2-1.6.3-.1.7-.1 1-.2.3-.1.6-.2.9-.2.1 0 .1.2.1.3v.1c.2.7.6 1.8 1.2 2.7-.1.1-.3.2-.5.3l-.2.1-.4.2c-.4.1-.9.4-1.5.7zM77.6 65.7c-.4-.2-.8-.5-1.2-.7-.4-.3-.9-.5-1.3-.8.6-1.1 1-2.1 1.3-3.1 1.1.3 2 .5 2.9.8-.2.9-1.1 1.1-2 1.2-.3.2-.3.3-.3.5v.4h1.4c-.2.5-.5 1.1-.8 1.7zM57.4 63.5c-.1-.1-.2-.1-.2-.2l-.1-.1c.3-.3.5-.6.8-.9l.7-.7c.1.1.3.2.4.4l.2.2c0 .8-.8.8-1.5.9h-.2l-.1.4zM70.4 64.8c-.6-.5-1.1-1-1.6-1.6.4-.4.8-.8 1.1-1.4.4.2.8.5 1.2.7.2.1.5.3.7.4-.3.6-.8 1.2-1.4 1.9zM43.7 63.1c-.4 0-.8-.1-1.1-.3 1-.3 2-.6 3-.8 0 .5-.4.8-1.1 1-.2.1-.5.1-.8.1zM80.8 67.5c-1-.6-2.1-1.2-2.9-1.7.3-.5.6-1.1.9-1.8l.1-.2h3.6c.1-.1.1-.3.1-.4v-.3c-.3 0-.4-.1-.6-.1-.6-.1-1.2-.3-1.4-.7.3.1.5.1.8.2.5.1.9.3 1.4.4-.5 1.6-1.1 3.2-2 4.6zM54.8 64.8c-.1 0-.2-.2-.3-.3 0-.1-.1-.1-.1-.1-.4-.5-.8-1-1.1-1.5.1-.1.2-.2.4-.2h.1c.2.4.6.9 1 1.4h.8c.1-.4.1-.7.1-1.1v-.6c.2.2.4.5.6.7l.2.2c-.3.2-.5.4-.8.7l-.4.4-.1.1c-.1.1-.3.3-.4.3zM66.8 64.2c-.1-.1-.2-.2-.2-.4l-.1-.2c-.1-.1-.2-.3-.3-.4l.2-.1c.4-.2.8-.4 1.1-.7.2.2.3.4.5.5l.2.2c-.3.5-.9.8-1.4 1.1zM84.4 69.6c-.6-.3-1.2-.7-1.8-1-.5-.3-.9-.5-1.4-.8.7-1.3 1.5-2.9 2-4.8h.2l3.3.9c-.5 2.2-1.4 4.1-2.3 5.7zM52.8 66.8c-.8-.7-1.4-1.6-2-2.5.7-.4 1.4-.8 2.2-1.3.5.8 1 1.5 1.5 2.1l-.9.9c-.2.3-.5.5-.8.8zM72.5 66.9l-1.8-1.8c.7-.6 1.2-1.3 1.6-2 .4.2.8.4 1.1.6.3.2.7.4 1.1.6-.5.9-1.2 1.7-1.8 2.5l-.2.1zM87.7 63.7c-.1 0-.2 0-.3-.1-.1 0-.1 0-.2-.1 0-.1.1-.1.1-.2v-.2c0 .1.1.2.2.3.1.2.2.3.2.3zM64.9 65.1c-.1-.3-.1-.5-.2-.7-.1-.2-.1-.5-.2-.8.6-.1 1-.2 1.4-.4h.1c0 .2.1.3.2.5s.3.4.3.7l-.3.1c-.4.2-.8.5-1.3.6zM57.1 66.6c-.8-.5-1.5-1-2-1.5l.9-.9.7-.7c.5.4 1 .8 1.6 1.2-.2.2-.4.6-.6.9-.2.3-.4.6-.6 1zM68.2 66.6c-.3-.4-.6-.9-.9-1.4-.1-.2-.2-.3-.3-.5.6-.4 1.1-.8 1.5-1.2l.2.2 1 1 .1.1.3.3s-.2.1-.4.4c-.5.4-1 .7-1.5 1.1zM62.8 65.4v-1.6h.2c.4 0 .8 0 1.2-.1.1.4.2.9.4 1.5-.6.1-1.2.2-1.8.2zM94.1 65.4c-.8-.2-1.7-.4-2.5-.7.1-.2.1-.4.2-.7l.1-.3h3.9c-.1.4-.2.8-.2 1.2-.1.3-.1.5-.2.8-.6-.1-1-.2-1.3-.3zM99.1 66.8c-.7-.1-1.3-.3-1.9-.5-.6-.2-1.1-.3-1.7-.4l.1-.5.3-1.5 3.8-.1c-.1 1.1-.3 2.1-.6 3zM58.4 64.2c-.2-.1-.3-.2-.5-.3l-.1-.1h.9c0 .1-.1.2-.1.2l-.2.2zM60.4 65.1c-.6-.1-1.2-.4-1.7-.7.1-.1.1-.2.2-.3.1-.1.1-.2.2-.3h1.7c0 .2-.1.4-.2.6-.1.2-.2.5-.2.7zM62.4 65.4c-.6 0-1.2-.1-1.7-.2 0-.1.1-.3.1-.4.1-.3.2-.7.3-.9h1.4l-.1 1.5zM44.4 67.5c-.6-1.1-1.2-2.2-1.6-3.6h3.7c.2.6.5 1.3.9 1.9-1.3.8-2.2 1.3-3 1.7zM40.8 69.6c-1.1-1.9-1.8-3.7-2.3-5.6h3.9c.4 1.2 1 2.6 1.7 3.8 0 0-.1.1-.2.1 0 0-.1 0-.1.1-.3.2-.6.4-.9.5-.8.4-1.4.8-2.1 1.1zM37 71.8c-1.1-1.8-2.1-4-2.9-6.8.7-.2 1.6-.4 2.4-.6.5-.1 1.1-.3 1.6-.4.6 2 1.4 3.9 2.4 5.8-1.1.6-2.2 1.3-3.5 2zM88.2 71.8c-1.1-.6-2.3-1.3-3.5-2 1-1.7 1.8-3.7 2.4-5.8.5.1 1.1.3 1.6.4.8.2 1.5.4 2.3.6-.5 2.3-1.4 4.4-2.8 6.8zM50.4 69.2c-.9-.8-1.6-1.8-2.5-3.2.1-.1.2-.2.4-.2.1 0 .1-.1.2-.1.3-.1.5-.3.8-.5.4-.2.8-.5 1.2-.7.5.9 1.2 1.8 2 2.7-.4.3-.7.7-1 1-.4.3-.8.7-1.1 1zM74.9 69.3c-.6-.5-1.1-1-1.6-1.5l-.6-.6.3-.2c.6-.7 1.3-1.5 1.8-2.4.5.3 1 .5 1.4.8.4.2.8.5 1.2.7-.8 1.2-1.7 2.3-2.5 3.2zM59.7 67.7c-.9-.2-1.7-.6-2.3-.9.4-.7.7-1.3 1.1-2 .5.3 1.1.6 1.8.8-.1.4-.2.8-.3 1.1-.2.3-.3.6-.3 1zM65.5 67.7c-.2-.7-.4-1.5-.6-2.2.7-.2 1.3-.4 1.8-.7.2.3.3.6.5.9.2.3.4.7.6 1-.6.4-1.4.8-2.3 1zM91.9 73.9l-2.1-1.2c-.4-.2-.8-.5-1.2-.7 1.1-1.9 2-4.1 2.9-6.9.5.1 1 .3 1.5.4l2.1.6c-.8 3.1-2.1 5.6-3.2 7.8zM55.6 69.1c-.9-.5-1.8-1.2-2.6-2 .3-.3.6-.5.9-.8l.9-.9c.1.1.2.3.4.4.5.4 1.1.9 1.7 1.2-.3.4-.6.9-.8 1.4-.2.2-.4.4-.5.7zM69.6 69.1c-.3-.5-.5-1-.8-1.5-.1-.2-.3-.4-.4-.6.2-.1.4-.2.6-.4.2-.1.3-.2.4-.3.4-.3.7-.6 1-.9.4.3.7.6 1 .9.2.3.5.6.8.8-.8.8-1.7 1.5-2.6 2zM62.3 68.1c-.7 0-1.5-.1-2.3-.3.1-.6.3-1.2.5-1.7l.1-.5c.7.2 1.3.3 1.9.3v2.2h-.2zM62.8 68.1v-1.4-.9c.8 0 1.4-.1 1.9-.3.1.3.2.7.3 1.1.1.3.2.7.3 1-.3.1-.6.2-1 .2h-.2c-.5.3-1 .3-1.3.3z"/><path class="st0" d="M95.4 75.9c-1.1-.6-2.3-1.3-3.3-1.9l.2-.4c.5-1.1 1.1-2.2 1.6-3.3.5-1.1.8-2.1 1.1-3.1 0-.1.1-.3.1-.4.1-.3.1-.6.3-.8.4.1.8.3 1.3.4.8.2 1.6.4 2.4.7-.8 3.1-2 6-3.7 8.8zM77.6 71.9c-.6-.5-1.2-1.1-1.8-1.7l-.6-.6c1-1 1.9-2.1 2.6-3.4.4.2.8.5 1.3.7.5.3 1.1.6 1.7.9-1 1.6-2.2 2.9-3.2 4.1zM47.7 71.9c-.1 0-.3-.3-.7-.8l-.2-.1c-.9-1.1-1.7-2.1-2.3-3.1.6-.3 1.2-.7 1.8-1 .4-.2.7-.4 1.1-.6.7 1.3 1.6 2.3 2.6 3.4-.4.4-.9.8-1.4 1.3l-.7.7c.1 0-.2.2-.2.2zM58.9 70.5c-1.1-.3-2.1-.7-3-1.2l.1-.3c.4-.6.7-1.3 1.1-1.9.7.4 1.5.8 2.4 1-.1.4-.3.9-.4 1.4 0 .4-.1.7-.2 1zM66.3 70.5c-.1-.3-.2-.6-.3-1v-.2l-.3-1.2c.9-.2 1.7-.6 2.4-.9.2.2.3.5.5.7.1.1.1.2.2.3.1.1.2.3.2.4.1.2.3.5.4.7-.9.4-1.9.8-3.1 1.2z"/><path class="st0" d="M99.2 78.1c-.3-.1-.5-.3-.8-.4h-.1c-.8-.5-1.7-1-2.6-1.5.1-.2.2-.4.4-.7 0-.1.1-.2.1-.3.9-1.7 1.7-3.6 2.4-5.5.1-.4.3-.8.4-1.2.1-.4.3-.9.4-1.3.6.2 1.3.4 2 .6.6.2 1.2.3 1.8.5-.7 3.3-2 6.4-4 9.8zM53.9 72c-1.3-.8-2.4-1.6-3.3-2.5l.9-.9c.4-.4.8-.8 1.1-1.2l.3.2c.7.6 1.5 1.3 2.4 1.8-.3.5-.6 1.1-.9 1.6-.1.4-.3.7-.5 1zM71.3 72c-.1-.1-.2-.3-.3-.4 0-.1-.1-.1-.1-.2-.2-.3-.3-.6-.5-.9-.2-.4-.4-.7-.6-1.1.1 0 .2-.1.3-.2 1-.6 1.8-1.2 2.3-1.8.6.5 1.1 1 1.6 1.5l.5.5c-.7 1-1.8 1.8-3.2 2.6zM44.8 74.8c-1.4-1.4-2.7-3-3.8-4.9.8-.4 1.5-.8 2.2-1.3l1-.6c.9 1.6 2 2.9 3.2 4.2l-2.6 2.6zM80.4 74.8c-.7-.6-1.3-1.3-1.9-1.9-.2-.2-.4-.5-.7-.7 1.1-1.2 2.3-2.5 3.2-4.1.6.3 1.3.7 1.9 1.1.4.3.9.5 1.3.7-1 1.7-2.2 3.3-3.8 4.9zM62.5 71c-1.4 0-2.4-.2-3.2-.4.1-.3.2-.7.3-1 .1-.5.2-.9.4-1.4.8.3 1.7.4 2.6.4V71zM62.8 68.6c.9 0 1.7-.2 2.4-.3h.2l.3 1.2c.1.4.2.7.3 1.1-1.1.3-2.2.4-3.2.4v-2.4zM58 73.7c-1.3-.3-2.5-.8-3.8-1.6.2-.4.4-.8.7-1.2.3-.5.5-.9.8-1.4.9.5 1.9 1 3.1 1.3l-.3.9c-.1.8-.3 1.4-.5 2zM67.2 73.8c-.1-.3-.2-.6-.3-1 0-.1-.1-.3-.1-.4l-.1-.4c-.1-.4-.2-.8-.3-1.1 1.1-.2 2.1-.7 3.2-1.3.4.8.9 1.6 1.5 2.6-1.1.6-2.4 1.1-3.9 1.6zM52 75.3c-1.3-.8-2.6-1.7-4.1-3.1l1.3-1.3 1-1c1 1 2.2 1.9 3.4 2.6-.3.6-.7 1.2-1 1.8-.2.3-.4.6-.6 1zM73.2 75.3c-.3-.6-.7-1.3-1-1.9-.2-.3-.4-.7-.6-1 .2-.1.4-.3.6-.4.1 0 .2-.1.2-.2.8-.5 1.6-1.2 2.5-2 .4.4.8.8 1.2 1.1.4.4.8.8 1.2 1.1-1.1 1.3-2.4 2.3-4.1 3.3zM41.7 77.9c-1.7-1.6-3.2-3.5-4.5-5.8.8-.4 1.6-.9 2.4-1.3l1.1-.6c1.1 1.8 2.4 3.5 3.8 5-1 .8-1.9 1.8-2.8 2.7zM83.5 77.9l-1.4-1.4c-.5-.5-1-.9-1.4-1.4l.5-.5c.5-.6 1.1-1.2 1.6-1.8.7-.9 1.3-1.7 1.8-2.7.7.4 1.5.9 2.3 1.3.4.2.8.5 1.2.7-1.4 2.3-2.9 4.2-4.6 5.8zM62.5 74.3c-1.5 0-2.9-.2-4.1-.5.1-.4.3-.9.4-1.4.1-.5.2-1 .4-1.4v-.1c.9.2 1.9.4 3.2.4h.2v1.8c-.1.5-.1.9-.1 1.2zM62.8 71.5c1.1 0 2.2-.1 3.4-.4 0 0 0 .1.1.2v.1l.2.6c.2.6.4 1.3.5 1.9-1.3.4-2.7.5-4.1.5v-2.9zM86.5 80.8c-.5-.5-1-1-1.5-1.4l-1.1-1.1c1.9-2 3.4-4 4.5-6 .6.4 1.3.8 2 1.2.4.2.8.5 1.2.7-1.2 2.2-2.9 4.4-5.1 6.6zM50 78.8c-1.5-.9-3-1.9-4.4-3.2l-.2-.1c-.1-.1-.4-.3-.4-.4l.5-.5 2.1-2.1c1.4 1.3 2.7 2.4 4.1 3.2l-1.2 2.1c-.1.3-.3.7-.5 1zM75.2 78.8c-.3-.5-.6-1-.8-1.5-.3-.5-.7-1.1-.9-1.7 1.4-.7 2.8-1.8 4.2-3.1l.7.7 1.9 1.9c-1.6 1.3-3.2 2.7-5.1 3.7zM57.1 77.4c-1.7-.5-3.3-1.1-4.8-2 .2-.5.5-.9.8-1.4l.9-1.5c1.3.7 2.6 1.3 4 1.7-.2.4-.3.9-.4 1.4-.2.6-.4 1.2-.5 1.8zM68.1 77.4c-.1-.5-.3-1.1-.4-1.6-.2-.5-.3-1.1-.4-1.6 1.4-.4 2.8-.9 4-1.6.5.8 1.1 1.8 1.7 2.9-1.3.6-2.9 1.4-4.9 1.9zM62.5 78.1c-1.7 0-3.2-.2-5.1-.6.2-.9.5-2.1.9-3.2 1.5.4 2.8.6 4.2.6v3.2zM62.8 74.8c1.5 0 2.9-.2 4.2-.6.1.4.3.9.4 1.4.2.6.3 1.2.5 1.8-.3.1-.8.2-1.1.3-1.1.2-2.5.4-4 .4v-3.3z"/><path class="st0" d="M89.4 83.8c-.1-.1-.4-.4-.6-.5l-.1-.1c-.5-.5-.9-1-1.4-1.4l-.6-.6c2.3-2.4 4-4.5 5.2-6.8.6.4 1.2.7 1.7 1.1.5.3.9.6 1.4.8-.8 1.5-1.8 2.8-2.7 4-.7 1-1.7 2.1-2.7 3.2l-.2.2c.2 0 .1.1 0 .1zM47.7 82.7c-2.4-1.4-4.3-2.9-5.8-4.5l1.4-1.4 1.4-1.4c1.6 1.6 3.2 2.9 5 3.9-.4.7-.7 1.3-1.1 1.9-.3.4-.6.9-.9 1.5zM77.5 82.7c-.4-.6-.8-1.3-1.1-1.9l-.9-1.5c2-1.2 3.6-2.5 5-3.9l1.4 1.4 1.4 1.4c-1.8 1.9-4 3.4-5.8 4.5zM56 81.3c-2-.5-3.8-1.3-5.7-2.3.6-1 1.2-2.1 1.9-3.2 1.7 1 3.2 1.6 4.9 2-.2.6-.3 1.2-.5 1.8-.3.6-.4 1.1-.6 1.7zM69.2 81.3c-.1-.5-.3-1.1-.4-1.6-.2-.6-.3-1.3-.5-1.9 1.9-.5 3.4-1.2 4.9-2 .1.1.2.3.3.5 0 .1.1.2.1.2.2.3.3.5.5.8.3.5.6 1 .9 1.6-2 1.2-3.9 1.9-5.8 2.4zM92.5 86.9l-1.4-1.4-1.4-1.4c1.8-1.9 3.3-3.7 4.5-5.5.2-.3.4-.7.6-1 .2-.4.5-.8.7-1.2l.7.5 2.7 1.5c-1.6 3-3.7 5.8-6.4 8.5zM62.5 82.2c-2.2 0-4.3-.3-6.2-.8.2-.6.3-1.2.5-1.8.2-.6.3-1.1.4-1.7 1.8.5 3.5.7 5.2.7v3.6zM62.8 78.6c1.9 0 3.6-.3 5.2-.7.1 0 .1.2.1.3v.1l.6 2.1.3.9c-1.7.5-3.7.8-6.2.8v-3.5z"/><path class="st0" d="M45.7 86.2c-2.2-1.2-4.3-2.8-6.7-5.1.6-.7 1.3-1.3 1.9-2 .2-.2.5-.4.7-.7 2.1 1.9 3.9 3.4 5.9 4.5-.5 1.1-1.1 2.1-1.8 3.3zM79.6 86.2l-.2-.2s0-.1-.1-.1c-.2-.3-.4-.6-.5-.9-.4-.6-.8-1.3-1.1-1.9 2-1.1 4-2.6 5.9-4.5l.7.7c.6.6 1.3 1.3 1.9 2-2.2 1.9-4.4 3.6-6.6 4.9zM95.6 89.8c-1.1-.9-2-1.8-2.8-2.7l1.1-1.1.8-.8c1.6-1.8 3.1-4 4.8-6.7.9.5 1.8 1.1 2.7 1.6l.6.4c0 .1-.1.3-.2.4 0 .1-.1.1-.1.2-2.1 3.3-4.4 6.2-6.9 8.7zM54.9 85.6c-2.2-.6-4.3-1.4-6.8-2.8.2-.3.4-.6.5-.9.5-.9 1-1.7 1.5-2.6 1.8 1.1 3.7 1.9 5.8 2.5-.2.6-.4 1.3-.5 1.9-.2.6-.4 1.3-.5 1.9zM70.3 85.5c-.3-1.2-.7-2.5-1-3.7 2-.5 3.8-1.3 5.8-2.4l.2.4c.6 1 1.2 2 1.8 3.1-2.4 1.3-4.6 2.2-6.8 2.8v-.2zM43.6 89.8c-2.7-1.6-5.2-3.5-7.6-5.8.5-.5 1-1 1.5-1.4l1.1-1.1c2.2 2.1 4.4 3.8 6.8 5.2-.6 1-1.2 2-1.8 3.1zM81.6 89.8c-.3-.5-.5-1-.8-1.4-.3-.6-.7-1.2-1-1.8 2.6-1.5 4.9-3.2 6.8-5.2l.5.5 1.5 1.5.1.1c.2.1.5.5.5.5s-.3.3-.8.7l-.1.1c-1.9 1.9-4.3 3.7-6.7 5zM62.5 86.7c-2.5 0-4.8-.3-7.3-.9.3-1.1.6-2.4 1-3.9 1.8.5 3.9.8 6.3.8v4zM62.8 86.7v-4c2.3-.1 4.4-.3 6.1-.8h.1c.1 0 .1.1.2.3v.1c.1.5.3 1 .4 1.5.2.7.4 1.4.5 2-2.6.6-4.9.9-7.3.9zM53.8 89.6c-2.8-.7-5.4-1.8-7.8-3.2.3-.5.6-1.1 1-1.6.3-.5.6-1 .9-1.6 2.4 1.4 4.6 2.3 6.9 2.9-.2.7-.4 1.4-.6 2.2-.2.4-.3.8-.4 1.3zM71.4 89.6c-.1-.5-.3-1.1-.4-1.6-.2-.6-.3-1.3-.5-1.9 2.7-.7 5.2-1.9 7-2.9.3.5.6 1.1.9 1.6l.9 1.5c-2.4 1.5-5 2.6-7.9 3.3z"/><path class="st0" d="M83.8 93.6c-.1-.2-.2-.4-.4-.6 0-.1-.1-.2-.1-.3-.2-.3-.3-.5-.5-.8-.3-.6-.7-1.2-1-1.7 3.1-1.9 5.6-3.8 7.7-5.9.5.5 1 1.1 1.6 1.6l.9.9.2.2c.1 0 .1.1.1.1l-.4.4c-1.9 1.8-4.8 4.2-8.1 6.1zM62.5 90.8c-3 0-5.8-.4-8.4-1.1.1-.4.2-.8.3-1.1.2-.8.4-1.6.7-2.4 2.4.7 4.8 1 7.4 1v3.6zM62.8 90.8v-2.3-1.4c2.6 0 5.1-.3 7.5-1 .2.9.5 1.9.7 2.8l.2.7c-2.6.8-5.4 1.2-8.4 1.2zM52.7 93.6c-3-.8-5.8-1.9-8.8-3.6.5-.9 1.1-1.9 1.8-3.2 2.4 1.4 5.1 2.5 7.9 3.3l-.1.3c-.2 1.1-.5 2.1-.8 3.2zM72.5 93.6c-.3-1.2-.6-2.3-.9-3.5 2.9-.8 5.6-1.9 8-3.3.3.5.6 1.1.9 1.7l.9 1.5c-2.9 1.6-5.8 2.8-8.9 3.6zM85.9 97.3c-.3-.6-.6-1.1-.9-1.6-.3-.6-.6-1.1-1-1.7 3.2-1.8 6.1-4 8.6-6.6.2.3.4.5.7.7.7.7 1.4 1.3 2 2-3.2 3.1-6.2 5.4-9.4 7.2zM62.5 94.9c-3.1 0-6.1-.4-9.4-1.2.2-.7.3-1.4.5-2.1.1-.5.3-1 .4-1.4 2.5.6 5.4 1 8.5 1.1v3.6zM62.8 94.9v-3.7h.3c3.2 0 6-.6 8.3-1.1.1.6.3 1.2.4 1.8.2.6.3 1.2.5 1.7-.2.1-.5.1-.8.2-.1 0-.2 0-.3.1-2.9.7-5.6 1-8.3 1h-.1z"/><path class="st0" d="M51.6 97.8c-3.5-.9-6.7-2.3-9.9-4.1.3-.5.5-.9.8-1.4.4-.7.8-1.3 1.2-2 3.1 1.8 6 2.9 8.9 3.7-.2.8-.4 1.6-.6 2.3-.2.5-.3 1-.4 1.5zM73.6 97.8c-.2-.6-.3-1.2-.5-1.8-.2-.7-.4-1.3-.5-2 3.2-.9 6.2-2.2 8.9-3.7l.9 1.5c.4.6.7 1.3 1.1 1.9-3.2 1.9-6.4 3.2-9.9 4.1zM88.2 101.3c-.4-.7-.7-1.3-1.1-2-.3-.6-.6-1.1-1-1.7.1-.1.6-.4.6-.4 3-1.8 6-4.1 8.9-6.9.4.5.9 1 1.4 1.5l1.5 1.5c-2.8 3.1-6.3 5.7-10.3 8z"/><path class="st0" d="M90.2 104.5c-.1-.1-.2-.3-.3-.4 0-.1-.1-.1-.1-.2-.2-.3-.3-.6-.5-.9-.2-.4-.5-.8-.7-1.2.2-.2.6-.4.9-.6.1-.1.3-.2.4-.2 3.1-2 6.2-4.4 9.1-7.2l1.2 1.2.5.5.2.2c.1.1.3.3.3.4 0 .2-.6.7-.9.9-.1.1-.2.2-.3.2-2.5 2.4-5.9 5-9.8 7.3zM62.5 99.3c-3.6 0-6.9-.4-10.6-1.4l.3-1.1c.2-.9.5-1.8.7-2.7 3 .8 6.1 1.2 9.6 1.3v3.9zM50.5 102c-3.9-1-7.5-2.5-10.9-4.5.7-1.3 1.3-2.4 1.9-3.3 3.2 1.9 6.5 3.2 9.9 4.2-.1.5-.3 1-.4 1.5-.1.6-.3 1.3-.5 2.1zM62.8 95.4c2.3 0 4.8-.3 7.2-.7h.2c.7-.1 1.4-.3 2-.5h.1c.1 0 .1 0 .1.2v.2l.2.6c.3.9.5 2 .7 2.8-3.6.9-7 1.4-10.6 1.4v-4zM74.8 102l-.6-2.1c-.1-.5-.3-1-.4-1.5 3.5-.9 6.8-2.3 10-4.1.6 1.1 1.3 2.3 1.9 3.3-3.3 1.7-6.9 3.2-10.9 4.4z"/><path class="st0" d="M49.3 106.5c-4.2-1.1-8.2-2.8-12-5l2.1-3.6c3.6 2 7.2 3.5 11 4.6-.2.7-.4 1.5-.6 2.3-.2.5-.4 1.1-.5 1.7zM76 106.5c-.4-1.4-.8-2.7-1.1-4.1 3.9-1.1 7.5-2.5 11-4.6.3.6.7 1.3 1.1 2 .3.6.6 1.1 1 1.6-3.6 2.2-7.7 3.9-12 5.1zM62.4 103.5c-3.8 0-7.5-.5-11.6-1.5.1-.5.3-1 .4-1.5.2-.7.3-1.4.6-2.1v-.1c3.5.9 7 1.4 10.7 1.4v3.8h-.1zM62.8 99.8c3.8 0 7.3-.5 10.7-1.4h.1l.9 3.6c-3.8 1-7.6 1.5-11.7 1.5v-3.7z"/><path class="st0" d="M48.3 110c-4.5-1.2-8.7-3-12.9-5.3.2-.3.4-.7.6-1.1.3-.6.6-1.2 1-1.7v-.1c3.9 2.2 7.8 3.9 12.1 5.1-.2 1-.5 2.1-.8 3.1zM76.9 110c-.2-.5-.3-1.1-.4-1.6-.1-.5-.3-1-.4-1.5 4.5-1.3 8.6-3 12.1-5.1.3.5 1.6 2.8 1.6 2.8-.2.1-.4.3-.7.4-3.6 2.1-7.8 3.8-12.2 5zM62.5 108.2c-4.3 0-8.4-.5-12.9-1.7v-.1c.3-1.3.7-2.7 1.1-4 4.1 1.1 7.8 1.6 11.8 1.6v4.2zM62.8 104c4.1 0 7.9-.5 11.8-1.5 0 .1.1.2.1.4v.1l.1.4c.3 1 .6 2.1.8 3.2-4.5 1.1-8.6 1.7-12.9 1.7V104zM77.9 113.6c-.3-1-.5-2.1-.8-3 4.9-1.4 9.3-3.2 13-5.4l.2.3c.6.9 1.1 1.9 1.7 2.9-4.5 2.6-9 4.4-13.9 5.8l-.2-.6z"/><path class="st0" d="M62.5 111.9c-5 0-9.5-.6-13.8-1.8l.2-.8c.2-.7.4-1.5.6-2.2 4.3 1.1 8.6 1.6 13 1.6v3.2zM62.8 111.9v-2-1.2c4.5 0 8.8-.6 13-1.7 0 .1.1.2.1.3.2.5.3 1.1.4 1.6l.3 1.2c-4.6 1.2-9.2 1.8-13.8 1.8z"/><path class="st0" d="M62.4 116.1c-5 0-9.7-.6-14.8-1.9.1-.4.2-.8.3-1.1.1-.2.1-.4.2-.6.1-.2.1-.5.2-.7.1-.4.2-.8.3-1.1 4.6 1.2 9.1 1.8 14 1.8v3.7l-.2-.1zM62.8 116.1v-3.7h.2c4.6 0 9-.6 13.8-1.8 0 .1.1.2.1.3v.1l.3 1.2c.2.7.4 1.4.5 2-5.2 1.3-9.9 1.9-14.9 1.9z"/><path class="st0" d="M62.5 120.6c-5.5 0-10.8-.7-16.1-2.1.2-.6.3-1.1.4-1.7.2-.7.3-1.4.6-2.1v-.1c5 1.3 9.9 2 15.1 2v4zM62.8 116.6c5.2 0 10.1-.7 15.1-2h.1c.1.6.3 1.2.4 1.8.2.7.4 1.3.5 2-5.3 1.4-10.6 2.1-16.1 2.1v-3.9zM100.7 57v-1c0-.8 0-1.5-.1-2.2h.7v-3.3h-1.2l-.1-.6c-.2-.8-.3-1.6-.6-2.4.9-.3 1.8-.5 2.6-.7.4-.1.8-.2 1.3-.3.3 1.2.6 2.5.8 4h-2.2c-.1.1-.1.3-.1.4v.3c.7.2 1.4.4 1.7 1 .1.2.2.4.2.7l.1.2c.1.4.2.8.3 1.1l.2.7c.2.6.3 1.2.3 2h-3.9zM16.2 57.1c0-3 .3-6 .9-9l.1-.3c.2-.8.3-1.7.6-2.4v-.1c1.2.3 2.4.6 3.6 1l.2.1c-.4 1.4-.7 3-.9 4.7h-2.9c-.1.1-.1.3-.1.4v.3c.2.1.5.1.7.2.4 0 .7.1.9.3.2.3.2.9.2 1.6v3.3h-3.3zM25 51.1c-.5-.1-1-.1-1.7-.1h-2.1-.3c.1-.8.3-1.6.4-2.3v-.1c.1-.7.3-1.4.5-2.1v-.1c1.3.3 2.5.7 3.9 1.1-.1.3-.2.7-.3 1.1 0 .8-.2 1.6-.4 2.5zM26.2 57.1c.1-.1.2-.1.3-.2.1-.1.2-.1.3-.2.9-.7 1.2-1.7 1.1-2.9-.1-1.3-1-2.2-2.5-2.6.2-1.2.5-2.4.8-3.6.4.1.9.2 1.3.3.8.2 1.6.4 2.4.7-.8 3-1.1 5.7-1.1 8.5h-2.6zM8.8 64.2H5.6v-.6h.2c.5 0 1.2-.1 1.4-.5.3-.3.2-1.3.2-2.1v-.5V55v-.6c0-.8.1-1.6-.2-2-.3-.5-1-.6-1.6-.7.1-.2 0-.4 0-.6h6.6c1.4.1 2.5.7 2.9 1.6.5 1 .2 2.4-.4 3.1-.6.7-1.5.9-2.3 1.2h-.1v.1c.1.1.2.1.3.1h.1c2.5.5 3.6 1.7 3.4 3.7-.1.9-.6 1.5-.8 1.8-.7.7-1.9 1.2-3.1 1.3h-1.6l-1.8.2zm1.8-6.6c-.4 0-.8 0-1.3.1v3.2c0 .7-.1 1.5.1 1.9.2.5.8.7 1.7.7h.4c.7-.1 1.4-.4 1.8-.9.5-.6.7-1.6.6-2.6-.2-1.5-1.3-2.4-3.1-2.4h-.2zm-.3-5.8c-.3 0-.7 0-1.1.1V57.1h.8c.9 0 1.6 0 2.2-.4 1-.6 1.3-2.7.7-3.8-.4-.8-1.2-1.1-2.6-1.1zM21.4 57.1v-5.2h1.1c.9 0 1.9.1 2.4.7-.1.8-.2 2-.3 3v1c-.1.1-.2.2-.4.3-.1 0-.2.1-.3.2h-2.5zM24.9 56.3c0-1.3.1-2.4.3-3.5v.1c.5 1 .4 2.8-.3 3.4zM17.8 69.2c-1.1-4.3-1.6-8-1.5-11.8h3.1V61c0 .8.1 1.7-.2 2.1-.2.2-.6.3-.9.3-.2 0-.3 0-.5.1-.1.1-.1.3-.1.4v.4h3.2c.1 1 .3 2 .5 3 .1.3.2.6.2 1-.7.2-1.5.4-2.3.6-.5 0-1 .1-1.5.3zM29.2 63.1c-.8-.4-1.3-1.2-1.8-1.9-.1-.2-.3-.4-.4-.6-.3-.3-.5-.7-.8-1-.3-.4-.5-.7-.8-1.1l-.1-.1c-.2-.2-.3-.4-.3-.6 0 0 .1-.1.2-.1h.1c.1 0 .1 0 .2-.1.1 0 .2-.1.3-.1h3c-.1 1.9.1 3.8.4 5.6zM30.4 63.4c-.3 0-.6 0-.9-.1-.3-1.7-.5-3.6-.5-5.8h3.8v.2c0 .7 0 1.4.1 2.2v.3c0 .1.1.3 0 .4 0 .2-.1.4-.2.7-.1.1-.1.2-.2.3-.3.7-.5 1.3-1.2 1.6-.2.1-.5.2-.9.2zM21.9 68c-.3-1.1-.6-2.3-.8-3.8h2.1c.1-.1.1-.3.1-.4v-.3h-.4c-.5 0-1.1-.1-1.2-.4-.2-.3-.1-1-.1-1.6v-.6-1.4-1h1.3c.1 0 .3.2.4.4.1.1.1.1.1.2l.3.4c.2.3.5.6.7 1 .1.1.1.2.2.2.1.2.3.3.3.4v.9c.2 2 .8 4.3 1 5.2-.6.2-1.2.3-1.8.5-.8 0-1.5.2-2.2.3zM26.1 66.8c-.4-1.7-.8-3.4-.9-5.2.5.7 1 1.4 1.4 2.1l.3.5h2.5c0 .3.1.7.2 1 .1.3.1.5.2.8-.7.2-1.4.4-2.1.5-.5.1-1 .3-1.6.4v-.1zM30.1 65.8c0-.2-.1-.4-.2-.6-.1-.3-.2-.7-.2-1h4v.1c.1.2.1.5.2.7-.5.1-1 .2-1.5.4-.8.1-1.6.3-2.3.4zM33.5 74c-.2-.2-.3-.4-.4-.6l-.1-.3c-1.2-2.3-2.2-4.7-2.8-7l2.1-.6c.5-.1.9-.2 1.4-.4h.1c.1 0 .1.1.2.3v.1c.6 2.2 1.7 4.7 2.7 6.6-.5.3-1 .6-1.5.8-.5.4-1.1.7-1.7 1.1zM29.8 76c-1.7-3.1-2.9-5.9-3.6-8.9 1.2-.3 2.4-.6 3.6-1 .8 2.9 2 5.6 3.3 8l-.6.3c-.1 0-.1.1-.2.1-.2.1-.4.3-.7.4-.5.5-1.1.8-1.8 1.1z"/><path class="st0" d="M26.1 78.2c-1.8-3.3-3.2-6.5-4.1-9.9.9-.3 1.9-.5 2.9-.8l.5-.1c.1 0 .1 0 .2-.1.1 0 .2-.1.3-.1.1 0 .1 0 .1.1.1.2.1.4.2.6 0 .1.1.3.1.4.9 2.8 2.1 5.8 3.4 7.8l-.6.3c-.1 0-.2.1-.3.1l-.3.2c-.9.6-1.6 1.1-2.4 1.5z"/><path class="st0" d="M22.4 80.4c-.1-.1-.2-.3-.3-.4 0-.1-.1-.1-.1-.2-1.8-3.3-3.3-6.8-4.2-10.4.8-.2 1.5-.4 2.3-.6.5-.1 1-.3 1.6-.4 0 0 .1.1.1.2.1.3.2.6.2.8.2.5.3 1.1.5 1.6.8 2.4 1.9 4.8 3.3 7.3-.2.1-.5.3-.7.4H25c-.3.2-.7.4-1 .6-.5.5-1.1.8-1.6 1.1zM38.8 81c-2.1-2-3.8-4.3-5.2-6.8.8-.4 1.6-.9 2.3-1.3l.9-.5c1.2 2.1 2.8 4.1 4.6 6l-2 2c-.2.1-.4.3-.6.6z"/><path class="st0" d="M35.9 83.9c-.1 0-.2-.2-.3-.3l-.1-.1c-2.4-2.5-4.1-4.9-5.5-7.3.5-.3 1.1-.6 1.6-.9.6-.3 1.1-.7 1.7-1 .1.1.1.2.2.3 0 0 0 .1.1.1 1.4 2.4 3.1 4.5 5 6.4-.9 1-1.8 1.9-2.7 2.8z"/><path class="st0" d="M32.8 87c-.2-.1-.3-.2-.4-.4-2.4-2.5-4.5-5.3-6.1-8.2.6-.3 1.2-.7 1.8-1 .6-.3 1.1-.7 1.7-1 .2.2.3.5.4.7.1.1.1.2.2.3 1.3 2.1 3 4.2 5.3 6.7l-1.4 1.4c-.6.5-1 1-1.5 1.5zM41.5 93.7c-3.1-1.8-5.9-3.9-8.5-6.6l2.1-2.1.7-.7c2.7 2.5 5.1 4.4 7.7 5.9-.8 1.4-1.4 2.5-2 3.5zM39.3 97.4c-1.8-1-3.5-2.2-5-3.3-1.4-1.1-3-2.4-4.4-3.9l2-2 .7-.7c2.9 2.7 5.7 4.9 8.6 6.6-.4.7-.8 1.5-1.3 2.2-.1.3-.3.7-.6 1.1z"/><path class="st0" d="M37 101.4c-.2 0-.4-.2-.5-.3-.1 0-.1-.1-.2-.1-3.7-2.3-7-4.8-9.7-7.6.7-.7 1.5-1.5 2.3-2.2l.8-.8c3 2.9 6.1 5.3 9.5 7.3-.8 1.4-1.5 2.6-2.2 3.7zM47.3 114.2c-5-1.3-9.7-3.3-14-5.8.3-.5 1.1-2 1.1-2 .3-.5.5-.9.8-1.3v-.1c4.3 2.5 8.6 4.3 13.1 5.4-.2.7-.4 1.3-.6 2-.1.6-.3 1.2-.4 1.8z"/><path class="st0" d="M46.1 118.5c-5.4-1.4-10.5-3.5-15.1-6.3.7-1.1 1.4-2.3 2.1-3.5 4.6 2.6 9.2 4.5 14.1 5.8l-.6 2.1c-.1.6-.3 1.3-.5 1.9z"/></symbol><symbol id="clothes-line-icon" viewBox="0 0 126 126"><style>.st0{fill:#FFFFFF;}</style><path class="st0" d="M8.6 111.1v-10h95.5c2.1 0 3.8-.7 5.1-2.1 1.5-1.6 2.3-4.2 2-6.6-.2-2.1-1.8-3.8-2.7-4.6l-.2-.1-71.1-27.3h-29V29.9c0-11.4 9.1-20.3 20.7-20.3 11 0 19.9 10.2 20.7 19.1H39.4c-.8-3.9-5.4-9.1-10.5-9.1-6 0-10.7 4.5-10.7 10.3v20.4h20.9l74 28.4.5.3c.7.5 6.9 4.8 7.6 12.4.5 5.2-1.2 10.6-4.6 14.3-3.1 3.4-7.6 5.3-12.5 5.3H8.6z"/></symbol><symbol id="dialouge-box-icon" viewBox="0 0 126 126"><style>.st0{fill:#FFFFFF;}</style><path class="st0" d="M4.9 16.8v78l23.7.1.1 24.2 27.3-24h65.9V16.8H4.9zm104.3 66h-56L39 94.6V82.8H17.6V28.6h91.6v54.2z"/></symbol><symbol id="extra-butter-icon" viewBox="0 0 126 126"><style>.st0{fill:#FFFFFF;}</style><path class="st0" d="M6.7 76.8L122 69c.1-1.2.2-2.4.2-3.5L5.4 68.1c.2 3 .7 5.9 1.3 8.7zM5.4 59.9l116.7 2.7c0-1-.1-2-.1-3L6.7 51.4c-.6 2.8-1.1 5.6-1.3 8.5zM12.9 92.9l108.2-17.7c.2-1.2.4-2.3.6-3.5L9.2 85c1 2.8 2.3 5.4 3.7 7.9zM63.7 5.6c-18.7 0-35.3 8.8-46 22.4l102.8 22.3C114.4 24.6 91.3 5.6 63.7 5.6zM12.9 35.2c-1.4 2.5-2.7 5.2-3.7 7.9l112.6 13.7c-.2-1.2-.3-2.4-.6-3.6l-108.3-18zM63.7 122.5c27.3 0 50.3-18.8 56.7-44.1L17.8 100.2c10.7 13.6 27.3 22.3 45.9 22.3z"/></symbol><symbol id="gramps-icon" viewBox="0 0 126 126"><style>.st0{fill:#FFFFFF;}</style><path class="st0" d="M43.1 33.3l.3.2 1-.1v-.3s.6.3 1.2.2c.4-.1.9 0 1.3-.1.3-.1.6-.3.9-.4 1.2-.2 1.5 1 2.4 1.5.3.2.2 1.5.5 1.9 0 0 .6.8.9.9.2.1.2-.1.2-.2 0 .1.1.2.3.3.3.2 1.3.5 1.3.5v-.4l.5.5-.2-.4.5.3s.3-.4.2-.5c-.1-.2.3.3.3.3V37l.4.2v-.7l.4.1s.3-.4 0-.8l.2.1c.1 0-.3-1.4-.4-1.6-.4-.7-1-1.3-1.5-2-.3-.5-.9-1-.9-1.6 0-1 .8-.5 1.1-1.1.2-.5-.4-1.5-.4-2.1.2.4.3.9.5 1.2.2.3.5 1 .5 1l.3.4s.1-.4 0-.9c0 0 .8-.5.9-.7.1-.2 2.7-1.4 2.9-1.9 0 0 .5.1.9-.7 0 0 .6-.4.8-.9.2-.5.9-.9.8-1.2l-.1-.4s.6.3 1.1 0c.5-.3.3-.6.3-.6s.5-.1.9-.4c.4-.3.2-.6.2-.6l1.1-.7s.4-.1.1-.4c0 0 .6-.6.7-.8.1-.3 0-.6 0-.6s1-.9 1-1.2v-.3l-.5.2s1-1 1.1-1.2c.1-.2-.4-.3-.4-.3s.8-.6.8-.8c0-.2-.4-.2-.4-.2s.8-.5.8-.8c0-.3-.5 0-.5 0l.5-1s-.2-.4-.5-.1c-.3.3-.6.5-.6.5l-.4.1s.9-.8.7-.9c-.2-.2-.5-.2-.5-.2-.5.4-1 1.1-1.6 1.4-.4.2-.8.1-1.1.2-.2.1-.2.4-.3.4-.4.2-.9.2-1.3.3-.2.1-.3.3-.5.4-.8.3-1.5.7-2.3 1.1-.5.2-1 .2-1.5.5-.4.2-.4.4-.7.7-.4.3-.7.5-1.1 1-.7.8-1.4.9-2.3 1.3-.5.3-.8.8-1.6.7-.6.6-1.6 1.6-2.4 1.9-.7.2-1.9.1-2.5-.2-.9-.4-1.8-1.1-2.4-1.7-.6-.6-.7-1.5-1.2-2.2-.2-.3-.5-.4-.8-.6-.9-.7-1.1-1-2.3-.8 0 0-.3-.1-1-.6s-1.5.3-.4.9c0 0 1.3.5 1.5 1 .6 1.5 2.2 2 3.1 3.3.5.6.4.9.6 1.7.2 1 .6 2-.5 2.7-.5.4-1.1.3-1.7.4-.5.1-.9.4-1.3.6-.5.3-.9.6-1.4.9-.5.3-.9.7-1.4 1-.4.2-1 .3-1.3.6.3.1.6.1.9.3l-.2.2.7.2-.4.3.7.4.1.3c.1.1.4.6 2 1 1.7.4 2.4.6 2.4.6zM84.7 38.9c-.3-.1-.5-.2-.8-.3-.4-.2-.7-.3-1.2-.3-.3 0-.7 0-1.1-.1-.3-.1-.5-.3-.8-.4-.2-.1-.5-.1-.6-.4-.2-.5.1-1 .2-1.4.2-.6 0-1.2.5-1.7.2-.2.4-.3.6-.5.2-.3.3-.7.4-1.1.1-.3.2-.6.3-1 .1-.2.2-.6-.1-.5-.2 0-.3.2-.4.3-.1.1-.2.1-.3.2-.1 0-.2.1-.3.1-.2 0-.2 0-.4.1l-.3.3c-.1.1-.2.3-.4.4l-.2.2c0 .1 0 .2-.1.3 0 .2-.1.4-.2.6-.1.2 0 .5-.1.7-.1.3-.1.5-.3.7l-1 1c-.1.1-.3.2-.4.3-.2.2-.3.4-.6.1-.2-.2-.2-.3-.5-.4-.3-.1-.5-.2-.8-.3-.9-.4-1.8-.6-2.7-1.1-.2-.1-.4-.3-.6-.4-.2-.2-.4-.2-.6-.3-.5-.2-.9-.6-1.3-.9-.4-.3-1-.5-1.4-.8-.2-.1-.7-.7-.9-.6-.3.1-.1.5-.1.8 0 0-.1.1-.1.2s.1.2.1.3c0 .2 0 .4.1.6.1.3.4.5.6.8-.3.3.4 1 .6 1.2.4.5.6 1 1.1 1.5.3.3.5.5.7.8.3.3.7.2.9.4.1.1 0 .4.2.5.2.2.4.1.6.1.1.1.2.3.3.3.1.1.2-.1.4-.1.4.1.4.7.9.5.1.5.2.4.7.5v.5c.4.1-.1 1.1-.2 1.3-.3.6-.3 1-.7 1.5-.1.2-.3.3-.4.5-.1.2-.4.2-.5.4l-.5.5-.3.3-.1.1-.1.2c0 .1.3 0 .4.1v.3c0 .1 0 .2.1.2 0 .1.2.2.2.3.2.1.2.4.5.4.2 0 .4-.2.5-.3.6-.6 1.2-1.3 1.6-2 .2-.3.4-.6.7-.8.2-.2.3-.4.5-.6.2-.1.5-.1.8-.2.5-.2.9-1.2 1.3-1.2.2 0 .5.3.8.3.4.1.7-.1 1.2-.2.4 0 .9.2 1.3 0 .2-.1 0-.2.3-.2.2 0 .3 0 .5-.1.1-.1.2-.1.4-.2.1-.1.3-.1.4-.3.1-.1.4-.2.5-.4.2-.3.7.1.9-.3.1-.1 0-.2.2-.4s.6-.1.7-.4c-.4-.3-1.4-.4-1.6-.5zM45.9 53.1c.1-.1.1-.2.1-.3.3.2.7-.1.7-.5.3.1.2-.1.2-.3.1 0 .2-.1.3-.2v-.2-.1c0-.1 0-.1.1-.2v-.1c0-.1.1-.1 0-.3-.3-.3-.6-.4-1-.6-.2-.1-.4-.2-.6-.4.1-.1.3-.2.4-.1 0-.1.1-.2.1-.3.3-.1.3-.6.4-.8.1-.2.2-.1.3-.3.1-.1 0-.3 0-.5s.1-.1.1-.2.1-.1.1-.2c.1-.1.2-.2.3-.4V47s.1 0 .1-.1v-.2c0-.1.1-.1.2-.1v-.2c.2-.1.3-.2.1-.4.1-.1.3-.1.3-.2-.1 0-.2-.1-.2-.1-.1 0-.3-.1-.5-.1.2.1.7-.3.8-.4h-.8c.1 0 .3-.2.3-.2.1-.1.3-.2.1-.3-.1-.1-.4 0-.7.1.2-.1.3-.3.4-.5-.2 0-.3.1-.4.1l-.9.3.3-.3c-.2-.1-.5.2-.7.3-.4.3-.6.6-1 .9-.3.3-.4.7-.5 1-.1.4-.3 1-.8.8-.1 0-.1-.1-.2-.2h-.2c-.2 0-.3-.1-.5 0-.1 0-.1.1-.2.1h-.2c-.1 0-.2.1-.3.1h-.2.1c-.1 0-.2 0-.3.1.3.1.5.2.8.3.3.1.3.4.6.6-.1.1-.2.1-.4.2-.1 0-.2.1-.4.2s-.3.1-.5.2c-.2.2-.3.4-.6.6-.2.2-.4.3-.5.5-.1.1-.1.2-.2.3-.2.3-.5.4-.6.7v.3c0 .2-.1.3-.2.5s0 .3-.1.5c0 .1-.1.2-.1.4.1-.1.2-.2.4-.3 0 .1-.1.4-.1.5.1.1.2-.1.3-.2 0 .1-.1.4 0 .5.3-.2.3-.5.4-.8 0 .2 0 .4-.1.5 0 .2-.2.5-.1.6.1-.1.1-.2.2-.3 0-.1.1-.2.1-.3.1.2.3-.1.4-.2.1 0 .1-.1.2-.2.1 0 .1-.1.1-.1s0 .1.1.1.3-.3.4-.3h.2c.1 0 .1-.1.2-.2s.2-.2.3-.2c.1.1.3 0 .4 0 .2-.1.3-.2.5-.2.1 0 .1 0 .2-.1.1 0 .2-.1.2-.1.1-.1.1-.3.2-.5.1.3 0 .5.1.8.1.2 0 .5.1.7 0 .3.3.6.6.5.2.1.3.1.5.1.5-.1.6 0 .8 0zM43.8 4.3c-.1.1.1.1.2.1 0 0-.2.1-.1.1h.3c0 .1-.1.1-.1.2h.2c.1 0 .2-.1.2-.1s-.1.1 0 .1l.2-.1s0 .1-.1.1c.1 0 .2 0 .3-.1 0 .1 0 .1.1.1s.1-.1.2-.1.2.1.2-.1c0 .1.1 0 .2 0 .1-.1.2 0 .2 0 .1 0 .2 0 .3-.1.1 0 .2-.1.3-.1.1 0 .1-.1.2 0 .1 0 .1.1.2.1.1.1.2.1.3.2h.2c.1 0 .1.2.2.3.1.1.1.3.2.4.1.1.1.2.2.3.1.1.2.2.3.2v-.1c.1 0 .2.2.3.3.1 0 .2.1.3.1 0 0-.1-.1 0-.1.1.1.2.1.3.2v-.1c0-.1-.1-.1-.1-.2l.1.1v-.2s0-.1-.1-.1l-.1-.1v-.1s0-.1-.1-.2c0-.1-.1-.1-.2-.2l-.1-.1c-.1-.1-.2-.2-.4-.3-.1 0-.1-.1-.2-.1s-.1-.1-.2-.1c0-.1 0-.1-.1-.2 0 0-.1-.1-.1-.2s-.1-.1-.1-.2c.2-.1.3-.2.5-.4 0-.1.1-.1.1-.2v-.1c.1 0 .1 0 .2-.1h.1s.1 0 0-.1c.1 0 .1-.1.2-.1l-.1-.1c.1 0 .2-.1.3-.1 0 0-.1-.1 0-.1 0 0 .1 0 .1-.1h-.2c.1 0 .2-.1.2-.2-.1 0-.2.1-.3 0 .1 0 .3-.1.3-.2-.1 0-.2 0-.3.1.1-.1.2-.2.2-.3-.1.1-.2.2-.3.2 0-.1 0-.2.1-.3h-.1l-.1.1c-.1 0-.1 0-.2.1 0 0 .1-.2 0-.2l-.2.2c-.1.1-.2.1-.3.2-.1 0-.2.1-.3.1-.1 0-.1 0-.2.1s-.1.1-.1.2c-.1.1-.1.2-.2.2-.1.1-.2 0-.3 0 0-.1-.1-.1-.1-.2-.1-.1-.2-.1-.4-.1h-.1s0-.1-.1-.1h-.2c.1 0 .1.1.1.1 0 .1.1.1.1.1s0 .1.1.2c0 .1.2.4 0 .4h-.4c-.1 0-.2.1-.3.2-.1.1-.2.1-.3.2-.2.1-.4.1-.7.2h-.1c-.3.1-.1.1-.1.1l-.2.1c0 .1.2.1.2.1-.1.1-.2.1-.2.2z"/><path class="st0" d="M54.5 11.9c.2 0 .3 0 .5.1v.1h.4c-.1.2.3.1.4 0 .1.1.4 0 .5.1v.1c.1 0 .4-.1.5-.2v.1c.2 0 .5 0 .6-.1.1 0 .2-.1.3 0h.1c.2 0 .2-.1.4-.1h.3c.3 0 .6-.2.8-.2h.5c.4-.1.8 0 1.2.1.3 0 .7.2 1 .1.3 0 .7-.2.9 0 .3.3-.1.8-.1 1.1-.1.5.4.4.7.5.2.1.4.2.6.1.1 0 .4-.2.4-.3.2 0 .5-.1.6-.3 0-.2-.2-.3-.3-.5-.1-.2-.4-.5-.4-.7 0-.3.2-.3.3-.5v.2c.1 0 .1 0 .2-.1.2-.1.4-.2.7-.3.2-.1.4-.1.6-.1.1-.1.3-.2.4-.2.1-.1.4-.2.5-.2h.3c.1 0 .3 0 .4-.1.3-.1.5-.1.8-.1.4 0 .8 0 1.3-.1.3 0 .5 0 .8-.1 0 0 0-.1.1-.1.1-.1.3 0 .4 0 .2 0 .2-.1.3-.2.1-.1.3 0 .4-.2v-.2h.5c.3-.1.1-.2-.1-.3-.3-.2-.8-.3-1.2-.3-.4 0-.9-.2-1.3-.2-.3-.1-.7-.1-1-.2-.4-.1-.7-.1-1.1-.1-.2 0-.4.1-.7.1-.1 0-.2 0-.3.1-.3.1-.7.3-1.1.4-.5.2-1.3.8-1.9.5-.3-.2-.4-.5-.7-.7-.1 0-.3-.1-.4 0-.1 0-.2.1-.3.2H62c-.1 0-.2.1-.3.2.2-.1.3 0 .5.1.1.1.4.5.4.6 0 .1-.6.2-.7.1-.3 0-.6 0-.9-.1-.5-.1-1-.2-1.6-.3-.8 0-1.4.3-2.1.6-.3.1-.6.3-.9.4-.3.1-.6.4-.9.5-.1 0-.2.1-.3.1-.1 0-.3.1-.4.2-.1.1-.2.1-.3.2-.1 0-.2 0-.2.1.1 0 .2 0 .2.1 0-.1 0 0 0 0zM80.5 80.2c-.1 0-.2-.1-.3-.1-.1 0-.2.1-.2.2l-.6.3c-.1 0-.2.1-.3.1-.1 0-.2.1-.3.1-.1 0-.2.1-.2.1.2-.1.3-.1.4-.2l.6-.3c.1 0 .2-.1.3-.1.1-.1.3-.2.3-.3 0 0-.1-.2-.1-.3 0-.1-.1-.2-.1-.3-.2 0-.7.1-.7.1l.3-.1s1-.2 1.2-.8c.1-.6-.3-1.5-.3-1.5l-2.2-5.7c-.1-.3-.5-.6-.8-.7h-.4-.1c-.1-.1-.2-.1-.3-.2 0 0 0-.1-.1-.1l-.2-.1c-.1-.1-.1-.3-.2-.4-.1-.1-.1-.1-.2-.1v-.1l.5-.2v-.1h-.4l-.1-.1h-.2v-.1c.1-.2.3-.2.4-.3.1-.2 0-.5-.1-.6 0-.1-.1-.3-.1-.4-.1-.4-.1-.7-.4-1-.2-.2-.5 0-.7-.2-.2-.2-.3-.4-.6-.4H74c-.1 0-.1.1-.2.1h-.2c-.1 0-.3 0-.4.1l-.1.1c-.1.1-.1.2-.2.3-.1.1-.2.1-.3.2-.2.1-.3.1-.4.3-.1.3.1.6.3.8h-.2l-.1-.1h-.1c-.3-.2-.4-.5-.4-.8 0-.1-.1-.2-.1-.3v-.3c0-.2-.1-.3-.1-.5-.1-.2 0-.4-.2-.5-.1-.2-.2-.3-.4-.4-.1-.1-.1-.3-.2-.4-.1-.1-.1-.2-.2-.3-.1-.3 0-.5-.2-.8-.1-.2-.2-.4-.4-.6-.2-.2-.4-.3-.6-.5l-.5-.5c-.3-.5-.5-1-.7-1.6-.1-.2-.2-.3-.3-.5l-.6-.6c-.2-.2-.5-.3-.7-.4-.2-.1-.4 0-.6-.1-.2 0-.5-.1-.7-.1-.3-.1-.6-.1-.9-.2 0-.1.2-.7.1-.7-.2 0-.4.1-.6.1-.2 0-.3.1-.5.1 0-.2.2-.3.2-.4.1-.1.1-.2.1-.3.1-.3.1-.6.2-.9.1-.4 0-.7 0-1.1 0-.2.1-.4.1-.5.1-.5 0-.9.2-1.3.1-.1.1-.2.1-.4V53c0-.1-.1-.2-.2-.3-.1-.2.3-.6.3-.8.1-.2-.1-.3-.1-.5-.1-.2.1-.1.2-.2.2-.1.1-.1.3-.2.2-.2.5-.3.7-.5.3-.3-.1-.6 0-.7-.2.3-.7.7-1 .5-.3-.2 0-.6-.1-.9-.1-.3-.3-.4-.5-.5 0-.3-.8-.8-.8-.9-.1-.4-1 .2-1.3-.1-.4-.4-.7-.4-1.4-.3-.1 0-1.2-.1-1.2.2 0 0-1.2 1.1-1.3 1.2-.3.2-.6 0-.8.1-.2.1-.6 1.1-.7 1.4-.1.3-.2.7-.1 1.1 0 .2.1.3.1.4.1.1.2.2.3.4.1.2.1.4.1.6 0 .3-.3.2-.4.4v.8c0 .3 0 .8.2 1.1.2.3.4.2.6.4.2.2.2.4.3.6.1.5.5 1.3 0 1.7-.5.4-1.6.3-2.2.3-1.2 0-.8.4-1.7.7-.2.1-1.3.5-1.3.8 0 .1-.7 1.2-.8 1.3-.5.7-.6 1-1 1.7-.1.3-.4.8-.6 1-.1.1-.2.2-.4.3-.1.1-.2.2-.3.4-.1.1-.2.3-.3.4-.1.2-.2.3-.3.4-.1.2-.4.4-.5.6-.1.2-.3.4-.3.6 0 .3-.3 1.3-.7 1.6-.5.5-.5 1.7-1 2.1 0 0-.4 1-.4 1.1 0 .2.1.5 0 .8l-.3.3c-.1.2-.1.5 0 .7 0 .2-.1.3.1.5.1.2.3.2.3.5.1.4.2.8.2 1.2 0 .9-.1 1.8-.1 2.7 0 .3-.3 2.2.3 2.1-.1 0 .5.5.5.4.1.5.4.7.4 1.1.1.5-.1 1.1-.1 1.6 0 .1.7 1.7.8 1.7 1.1.2.1.4.8.9.3.2.5.5.8.8.2.3 1 .5.9.6-.1.5.6-.4.7-.4.4-.6.3-1 1.3-1 .8 0 1 .5.7.8-.5.7 0 2.4 0 3.3 0 .5-.6.5-.5 1.3 0 .3 1.1.9.2 1.2-.3.1.4 1.4.4 1.6.1.6-.3.4-.3.8 0 .5-.2 2.4.3 2.7.6.5-.1 1.6 0 2.5 0 1 .3 1.5.4 2.3 0 .4.1 1.2-.1 1.6-.5.7-.2 1.5-.2 2.5v3.5c0 .3-.2 1.7 0 1.9.5.5.3 1.3.3 2.2 0 .8-1.1 2.8-.2 3.7.4.4.7 1.2 1.3 1 .3-.1.6.5.8.7.3.4 2.3 0 2.8 0 .9 0 .8.6.7 1.5 0 .2-.6.5-.4.7.3.3.4-.1.3.6 0 0 .5.6.6.6.8.1 3.4.3 4-.1l.7-1.2c0-.4 1.4-.6 1.3-.8 0-.2.6-.5.6-.9v-1.5c0-1.3-1.7-.2-1.8-1.2 0-.3.4-.8.3-1.4-.1-.4-.1-.7-.1-1.1.1 0 .2-.1.3-.1.1-.3-.3-1.1.2-1 .4 0 .3-.9.3-1-.1-1.6-.2-3.2-.2-4.9.4-.3 0-1.3 0-1.9-.1-1.1.4-1.6.4-2.5 0-.4-.3-1.2.1-1.5.4-.3-.1-.8.3-1 1.7-1.1-.4-5.1.9-6.7.6-.7.6-1.5.6-2.4 0-.8 0-1.5-.2-2.4l-.3-1.8c0-.5.1-.6.2-1 .7-.1 1 .2 1.7.1 0-.3.2-.5.2-.8 0-.4-.1-.4-.4-.8-.3-.3-1.4-1.7-.3-1.7.1-.7-.4-1.3-.4-2 0-.5.1-1 0-1.6-.1-.5-.3-.8-.5-1.2-.3-.9.2-1.8.1-2.7-.1-.8-.2-.3-.2-1.3 0-.3.3-2.2-.2-2.2-.3 0-.5-2.5-.5-2.7.3.3.9 1.3.8 1.6h.3c.2-.1.3 0 .4.2 0 .3-.4 1 .2 1 .4 0 0 .6.2.7.2.1 1-.4.9.2-.2 1.1 2.4 2 3.2 1.9.2 0 .6-.2.9-.3l1 4.7s.1 1.2 1.1 1l.3.9s-.3.1-.3.5c0 0 .4.5 2.3-.1 2-.6 2.6-1.3 2.6-1.3.4-.1.3-.2.2-.3zm-27.6-11c0 .1-.1.3-.1.3l-.2.2c-.1.2 0 .5.1.7.1.4 0 .8 0 1.2 0 .4-.1.8-.1 1.2v.2c0 .2.2.4.1.6-.1.3-.5.3-.6.5-.1.1 0 .4 0 .5 0 .3 0 .5-.1.8 0 .2.1.3.1.5v.4c0 .3-.1.6-.1.9 0 .3-.3.5-.3.8l-.3 1.2v.2c0 .1-.1.2-.1.4-.1.4.3 2.4 0 2.5-.2.1-.4-.5-.4-.7 0-.3.2-.4.1-.8-.1-.2-.4-.4-.4-.6 0-.1 0-.1.1-.1.1-.1.1 0 .1-.2s-.1-.2-.1-.4c0-.1.1-.3.1-.4 0-.1.1-.1.1-.1v-.1-.2c0-.1-.1-.2-.1-.3V78v-.4-.3-.4c0-.1.1-.4.1-.5-.1-.4-.2-.7-.2-1.1 0-.5-.1-.8-.2-1.2 0-.4.2-.7.2-1.1 0-.1-.1-.2-.1-.4 0-.1.2-.2.3-.3.2-.3-.1-.2.3-.4 0-.4-.1-.9.1-1.3 0-.1.1-.2.2-.3v-.1c.1-.1.2-.2.2-.3.1-.1.1-.3.2-.4l.2-.2c.1-.1.1-.2.2-.2.1-.1.3-.3.3-.4 0-.1 0-.2.1-.3 0-.1.1-.1.1-.1v-.2c.2-.1.2.2.2.3.1.3 0 .5-.1.8zm6.6 35.3c-.1 1.5.5 3.2 0 4.6-.1-.9-.2-1.8-.2-2.8 0-.6 0-1.2-.1-1.8v-.1c0-.4.1-.8.1-1.2.1-.6 0-1.2 0-1.8 0-.6-.1-1.2-.2-1.7-.2-.8 0-1.7 0-2.5 0 .4.1.6.3.9-.4 0-.2.5-.2.7 0 .2-.1.6 0 .7.2.2.2.1.2.5 0 .3.1.6 0 .9-.1.3-.1.5-.1.9v1c0 .5.2.9.2 1.4v.3zm18.6-23.4h.2-.2zm.4-2.6v0c-.1 0-.1 0 0 0-.1 0-.1-.1-.1-.1l.2-.1c.4-.3.3-.5.1-.6.2-.9-.6-2.4-.6-2.4.4 1 .4 2 .4 2.4h-.1-.5-.1-.1l.1.1c0 .1 0 .1-.1.2-.1 0-.1.1-.2.1-.1.1-.2.1-.4.1H77s-.1 0-.1-.1c0 0-.1 0-.1-.1v-.1H77.1c.1 0 .1 0 .2-.1l.1-.1.2-.2v-.1s0-.1-.1-.2l-.1.1s-.1.1-.2.1-.2.1-.3.2c-.1 0-.2.1-.3.1-.1 0-.1-.1 0-.1-.1 0-.1.2 0 .2 0 .1 0 .1.1.1-.1 0-.1 0-.2.1-.1 0-.3.1-.4.1-.2-.3-.7-1.1-.8-2.2 0 0 .1 1.7.8 2.3v.2l.1.1.1.2h.5v.6l-.6.2c-.6.2-.6-.3-.6-.3s-.6-3-1-4.9c.3-.2.5-.4.6-.6.1-.1.1-.2.2-.3 0 .1-.1.2-.1.3 0 .1.1.2.1.3 0-.2 0-.4.2-.6.2-.2.5-.3.8-.4.3-.1.4-.1.6 0l.3.3c-.1-.3-.3-.3-.4-.6.1.2.4 0 .6 0l-.1-.2c0-.1-.1-.2-.1-.2 0-.1-.1-.3-.1-.4h-.4c.1 0 .2 0 .2-.1.1 0 .2 0 .3-.1.1 0 .2-.1.3-.2l.1-.1-.4-.1v-.2c.4-.1.5.3.5.3l2.1 5.7.2.6c.2.6-.2.6-.2.6h-.1c-.1 0-.1 0-.2.1-.1 0-.2 0-.2.1-.1 0-.1.1-.2.1h-.1v.1s0 .1-.1.1h-.2v-.1h.1c.1 0 .1 0 .2-.1s.1-.2.1-.3c0 0 0-.1-.1-.1 0 0 0-.1-.1-.1h-.1l-.4.4c0-.1 0-.1 0 0z"/></symbol><symbol id="hat-club-icon" viewBox="0 0 1196.6 1196.6"><style>.st0{fill:#FFFFFF;}</style><path class="st0" d="M765.9 1190.3c-98.9 0-191.5-36.6-267.8-105.9-82.3-75.1-122.7-176.2-120.1-300.3C380.6 659.6 425.3 560 510.8 488c2.3-2 4.7-3.9 7.1-5.8l-281.5.1.1 276.8h83.6v86.1l-262.2.1v-86h83.6l-.2-664.6H57.8l-.1-86 262.2-.1.1 86-83.6.1.1 302.7 458.2-.1-.1-302.7H611V8.5l262.3-.1v86.1h-83.6l.1 303c99.2 5 176 36.6 229.3 94.2v-93l87.1.1-1 279.5-78.9-.1-3.6-13.6c-28.7-107.5-113.1-172.7-233-181l.1 275.3h83.6v86l-262.3.1v-86h83.5l-.1-267.9c-46.3 11.3-89.5 34.1-126.1 66.6-67.1 60-100.7 134.6-102.7 227.9-1.9 88 26.1 164.7 81 221.8 56.2 58.5 138 91.7 230.4 93.4 2.4 0 4.8.1 7.2.1 129.7 0 220.5-65 243-173.9l3.1-14.9 92.1 1.7-5.9 22.6c-46.7 178-151.5 254-350.5 254.1h-.2z"/></symbol><symbol id="hat-club-monogram-icon" viewBox="0 0 126 126"><style>.st0{fill:#FFFFFF;}</style><path class="st0" d="M80.6 121.7c-9.9 0-19.1-3.6-26.7-10.6-8.2-7.5-12.2-17.6-12-29.9.3-12.4 4.7-22.4 13.2-29.5.2-.2.5-.4.7-.6H27.7v27.6H36v8.6H9.9v-8.6h8.3V12.4H9.9V3.8H36v8.6h-8.3v30.2h45.7V12.4h-8.3V3.8h26.1v8.6h-8.3v30.2c9.9.5 17.6 3.6 22.9 9.4v-9.3h8.7l-.1 27.9h-7.9l-.4-1.4c-2.8-10.7-11.3-17.2-23.2-18v27.4h8.3v8.6H65.1v-8.6h8.3V51.9c-4.6 1.1-8.9 3.4-12.6 6.6-6.7 6-10 13.4-10.2 22.7-.2 8.8 2.6 16.4 8.1 22.1 5.6 5.8 13.8 9.1 23 9.3h.2c13.4 0 22.3-7.7 24.9-17.3l.4-1.5 9.3.2-.6 2.2c-4.9 17.3-15.4 25.8-35.3 25.5z"/></symbol><symbol id="hide-away-icon" viewBox="0 0 126 126"><style>.st0{fill:#FFFFFF;}</style><path class="st0" d="M63.3 4.5C31 4.5 4.8 30.7 4.8 63s26.2 58.5 58.5 58.5 58.5-26.2 58.5-58.5S95.6 4.5 63.3 4.5zm8.2 88.2H55.2l4.7-34.6c-4.4-1.4-7.6-5.6-7.6-10.4 0-6.1 4.9-11 11-11s11 4.9 11 11c0 4.9-3.2 9-7.5 10.4l4.7 34.6z"/></symbol><symbol id="hill-house-icon" viewBox="0 0 126 126"><style>.st0{fill:#FFFFFF;}</style><path class="st0" d="M104.8 111H19.3v-7.9h85.5zM104.9 50.7L62.2 7.9 19.5 50.6v25h8V53.9l34.7-34.7L97 53.9v21.7h7.8z"/></symbol><symbol id="long-island-project-icon" viewBox="0 0 126 126"><style>.st0{fill:#FFFFFF;}</style><path class="st0" d="M91.9 81.3h-9.6V56.7h-8.4v24.6H35.6v4h-2.8v35.8H40V96.4h8.5v24.7h46.6V85.3h-3.3v-4zM56.7 105h-4.5v-8.6h4.5v8.6zm7.9 0h-4.5v-8.5h4.5v8.5zm8 0H68v-8.6h4.5v8.6zm8 0h-4.5v-8.5h4.5v8.5zm8 0H84v-8.6h4.5v8.6zM63.7 18.1l31.2 25.4h8.3L63.9 11.1l-38.5 32h8.1z"/><path class="st0" d="M91.7 79.6V43.5L63.9 20.6 36.1 43.5v35.9h35.7l.1-24.9h12.2v25.1zM49.2 2.2h-8.4v25.4l8.4-7.1z"/></symbol><symbol id="maker-market-icon" viewBox="0 0 126 126"><style>.st0{fill:#FFFFFF;}</style><path class="st0" d="M56.4 70.3h-3.7v3.1h3.7c.8 0 1.6-.7 1.6-1.6 0-.8-.7-1.5-1.6-1.5zM80.5 43.7h-3.7v3.1h3.7c.8 0 1.6-.7 1.6-1.6 0-.8-.7-1.5-1.6-1.5z"/><path class="st0" d="M63 4.4C31.2 4.4 5.5 30.2 5.5 61.9s25.7 57.4 57.4 57.4 57.4-25.7 57.4-57.4C120.4 30.2 94.7 4.4 63 4.4zM43 87.7h-4V73.5l-5.6 7.6-5.5-7.6v14.3h-4V66.4h3.7l5.8 7.9 5.8-7.9H43v21.3zm0-26.6h-4V46.9l-5.6 7.6-5.5-7.6v14.3h-4V39.8h3.7l5.8 7.9 5.8-7.9H43v21.3zm19 26.6l-7.6-10.4h-1.7v10.4h-3.9V66.4h7.6c1.4 0 2.8.6 3.8 1.6s1.6 2.4 1.6 3.8c0 2.1-1.3 4-3.1 4.9l7.9 10.9H62zm2.4-26.6L56.5 50l-3.4 3.2v7.9h-4V39.8h4v8l8.5-8h5.8l-7.8 7.4 9.9 13.9h-5.1zm20.8 26.6l-7.9-11.1-3.4 3.2v7.9h-4V66.4h4v8l8.5-8h5.8l-7.8 7.4 9.9 13.9h-5.1zm.9-26.6l-7.6-10.4h-1.7v10.4h-3.9V39.8h7.6c1.4 0 2.8.6 3.8 1.6s1.6 2.4 1.6 3.8c0 2.1-1.3 4-3.1 4.9L90.7 61h-4.6zm14.2 9.2v17.4h-4V70.3H91v-4h14.5v4h-5.2z"/></symbol><symbol id="one-thirty-icon" viewBox="0 0 126 126"><style>.st0{fill:#FFFFFF;}</style><path class="st0" d="M81.3 38.5c-1.2 0-2.2.4-3 1.2-.8.8-1.2 1.8-1.2 3v41.8c0 1.2.4 2.2 1.2 3 .8.8 1.8 1.2 3 1.2 1.1 0 2.1-.4 2.9-1.2.8-.8 1.2-1.8 1.2-3V42.7c0-1.2-.4-2.2-1.2-3-.8-.8-1.8-1.2-2.9-1.2zM29.5 58.6c-1.4 0-2.4 1.1-2.4 2.5s1 2.5 2.4 2.5 2.4-1.1 2.4-2.5c0-1.3-1-2.5-2.4-2.5z"/><path class="st0" d="M64.5 3.2C31.9 3.2 5.4 29.7 5.4 62.3s26.4 59.1 59.1 59.1c32.6 0 59.1-26.4 59.1-59.1 0-32.6-26.5-59.1-59.1-59.1zM33.8 61.1c0 2.3-1.8 4.1-4.3 4.1s-4.2-1.8-4.2-4.1 1.8-4.1 4.3-4.1c2.4 0 4.2 1.8 4.2 4.1zm8.7 4H41L37.1 60v5.1h-1.7v-8H37l3.8 4.9v-4.9h1.7v8zm1.9-8h6v1.6h-4.3v1.6h3.8v1.6h-3.8v1.7h4.3v1.6h-6.1v-8.1zm23.1 26c0 3-.8 5.4-2.4 7.3-2.1 1.9-4.4 2.9-6.9 2.9h-1.8c-2.5 0-4.8-1-6.9-2.9-1.6-1.8-2.4-4.3-2.4-7.3v-7.8h6.1v9.3c0 1.1.4 2 1.2 2.8.8.8 1.7 1.2 2.8 1.2 1.1 0 2.1-.4 2.8-1.2.8-.8 1.2-1.7 1.2-2.8V68.3c0-1.1-.5-2.2-1.6-3.2-1-1-2.2-1.5-3.6-1.5h-1v-4.9h2.2c2.6 0 4.1-1.5 4.1-4.2V42.7c0-1.1-.4-2.1-1.2-2.9-.8-.8-1.8-1.2-2.9-1.2-1.1 0-2 .4-2.8 1.2-.8.8-1.2 1.8-1.2 2.9v5.7h-5.7v-7c0-4.8 2.7-7.2 8.5-7.6h2.6c5.8.4 8.5 2.8 8.5 7.6v12.9c0 .6-.2 1.3-.3 2-.5 1.6-1.2 3-2.3 4.1l-.6.6.6.6c2 2.2 3 4.3 3 6.1v15.4zm24.1-.1c0 3-.8 5.5-2.4 7.4-2.1 1.9-4.5 2.9-7 2.9h-1.8c-2.4 0-4.8-1-6.9-2.9-1.5-1.9-2.3-4.3-2.3-7.3v-39c0-3.2.8-5.7 2.5-7.5 2.1-1.9 4.4-2.8 6.8-2.8h1.8c2.4 0 4.8 1 6.9 2.9 1.6 1.9 2.4 4.4 2.4 7.4V83z"/></symbol><symbol id="sleep-bellum-sono-icon" viewBox="0 0 126 126"><style>.st0{fill:#FFFFFF;}</style><path class="st0" d="M86.3 21h-.6c-.4.7.7.6.6 0zM54.4 89.2c-.1 0-.2-.1-.4-.1 0 0-.1.1-.2.1-.3.1-.5 0-.7-.1h-.9c-.4 0-.5 0-.9-.1-.3-.1-.5 0-.8-.1-.2-.1-.4-.2-.6-.2h-.4c-.4-.1-.6-.3-1-.2-.4 0-.7 0-1.1-.1-.2 0-.5-.1-.7-.1-.3 0-.6.2-1 .1-.1 0-.1-.2-.2-.2-.1-.1-.4 0-.5-.1-.2-.1-.3-.1-.6-.1s-.6 0-.8-.1h-.8c-.2-.1-.3 0-.5.1h.1-.6c-.1 0-.1 0-.2-.1h-.4c-.1 0 0 0-.2-.1-.1-.1-.2 0-.3-.1-.2 0-.3-.1-.5-.1-.1 0-.2 0-.4-.1h-.5c-.1 0-.3.1-.5 0-.1 0-.1-.1-.1-.1h-.3c0-.1-.5 0-.5 0s0 .1-.1.1h-.1c-.2 0-.3 0-.5-.1-.2 0-.3-.1-.5-.1h-.5l-.1-.1H34.4c-.2-.1-.5 0-.7-.1 0 .1 0 .2.1.2 0 .1.1.1.1.2 0 0 0 .1.1.1h.3c.2 0 .2.2.4.2h.4c.3.1.6 0 .9.1h.4c.1 0 .2.1.2.2 0 .2.3.1.4.1.2-.1.4 0 .6.1.2.1.4 0 .6 0 .2 0 .2.1.3.1h.4c.1 0 0 .1.1.1h.3c.1 0 .1.1.2.1s.2-.1.3-.1h.2c0 .1.2.1.3.1.2 0 .1.1.2.2s.1 0 .2-.1.1-.1.2-.1c.2-.1.4-.1.6-.1h.6c0 .1 0 .1.1.1s.1-.1.2-.1h.2c0-.1 0-.1.1-.2.1 0 .2 0 .3-.1.2-.1.4 0 .6-.1.2 0 .5 0 .7-.1h.5c.1 0 .2-.1.3-.1.3 0 .2.3.3.5.2 0 .4-.1.5-.1 0 .1.2.2.3.2l.4.1c.1 0 .1-.1.2-.1s.4.1.5.1c.3 0 .7.2 1 .2.1 0 .1-.1.2-.1s.1.1.2.1c.2 0 .3-.1.5-.1s1 .1 1 .2c.2.1.5 0 .7-.2.2 0 .3.2.5.2.2.1.5 0 .8 0 0 0-.1 0-.1.1h.7c.2 0 .3.1.6.1s.6-.1 1-.1c.3 0 .4.1.6.2.3.1.7.1 1.1.1.2 0 .6.1.8 0-.4 0-.8 0-1.1-.1 0-.2-.2-.1-.3-.2v-.2h-.2c-.1-.1 0-.1-.1-.1-.6.4-.7.5-.8.5zm31.2-1.5s.1 0 0 0c.1 0 0 0 0 0zm34.3-1.9l-.1-.1v-.1c-.1-.1-.3-.2-.4-.3-.1-.1-.1-.1-.2-.1h-.3c-.2 0-.3-.1-.5-.1-.1 0-.2.1-.3.1h-.3c-.2 0-.7.2-.7-.1-.2 0-.3-.1-.5 0s-.2.2-.3.4c0 .2-.1.3-.1.5s0 .3-.1.5c0 0 0 .2-.1.2 0 .1-.1 0-.2.1l-.1.2c-.1 0-.2 0-.2-.1h-.3c-.1-.1 0-.1-.1-.2 0 0-.1 0-.2-.1-.2-.2 0-.3-.3-.4 0-.1 0-.1-.1-.2h-.2c-.1 0-.1.1-.2.1h-.2c-.1 0-.1.1-.2.1s-.2 0-.2.1c-.1.1-.1.2-.3.3-.1.1-.3.1-.5.2-.4 0-.9.1-1.2-.1-.1-.1-.2-.1-.2-.2 0 0 0-.1-.1-.2s-.3 0-.4 0c-.1 0-.4 0-.5.1-.1.1-.2.3-.3.3-.2.1-.3.1-.5.1h-.4c-.1 0-.3.2-.4.2-.2.1-.4.1-.6.1h-.3c-.2.1-.4.1-.7 0 .1-.1.1-.1.2-.1-.2 0 .1-.4-.2-.4v-.4h-.1v-.9c0-.3-.1-.5-.3-.7.1.1-.9-.1-.7-.2.1-.1.3 0 .4-.1-.1-.2.2-.8.4-.8v.3s.1.1.1.2v.2c0 .1.2.1.3.2.1.1.1.1.2.1 0-.2-.1-.5-.2-.6 0-.1-.1-.1-.1-.2l-.1-.2c0-.1.1-.1.1-.2s-.1-.2-.1-.3c-.1-.3.2-.3.3-.5-.2-.1-.3-.2-.4-.3-.1-.1-.3-.1-.4-.1-.1-.1-.2-.1-.4-.1-.1 0-.1.2-.2.2-.1.1-.2 0-.3.1-.3.1-.6.4-.9.6-.1.1-.2.3-.5.3-.3-.1-.2-.4-.3-.6-.1-.1-.2-.2-.3-.4l-.3-.3v-.3c-.2 0-.5-.1-.7-.3-.1-.1-.1-.2-.2-.2h-.4c-.2 0-.4 0-.6-.1-.1-.1-.1-.1-.2-.1h-.8v.2c.1 0 .2.1.2.2.1 0 .2 0 .4.1h.3c.2 0 .6-.1.7 0 .1.1.1.4 0 .5 0 .1-.2.2-.3.3 0 .1.1.1.1.2s-.1.1-.2.1h-.3c-.1 0-.1.1-.1.1-.1.1-.3 0-.4.1l-.1.1c-.1.1-.2.1-.2.2h-.2c-.1 0-.2.1-.3.2-.2.1-.4 0-.6 0-.1 0-.4.1-.5 0-.1-.1 0-.4-.1-.5 0-.1-.1-.1-.2-.1v-.5c0-.1.1-.2 0-.3 0-.1-.2-.2-.1-.3.1 0 .1 0 .1.1.1.1.3.1.4.1v-.2h-.1c.1-.1.1-.1 0-.2 0-.1-.1-.1-.1-.2-.1-.1-.2-.1-.2-.2-.1-.1-.1-.2-.1-.2 0-.1-.1-.1-.1-.2-.1-.1-.1-.1-.1-.2-.1-.1-.2-.2-.3-.2h-.4c-.4 0-.3.6-.2.8v.7c0 .2 0 .4-.1.6-.1.1-.1.3-.1.5-.1 0-.4.1-.5.1-.1 0-.1-.2-.1-.2-.2-.1-.3-.2-.3-.4-.1 0-.2 0-.3-.1-.3 0-.6.1-.9 0-.3-.1-.1-.4 0-.7.1-.3 0-.6-.1-.8 0-.2.1-.5-.1-.6h-.3v.6c-.1.2-.1.3-.1.5 0 .1.1.1 0 .2 0 .1-.2.2-.2.3v.2c0 .1-.1.1-.1.2v.2c0 .1-.1.1-.2.1-.1.1-.1.1-.1.2s-.1.1-.2.2-.1.2-.2.3c-.2.2-.5.2-.8.2-.2 0-.2 0-.3.1-.1.1-.5.3-.4.5h.1c-.1.1-.1.3-.1.4h-1c-.1 0-.2-.1-.3-.1-.2-.1-.6-.1-.8-.1-.2 0-.3.1-.5.1 0 .2-.1.3-.2.4l-.2.2v.1c0 .1-.2.1-.2.2.2.1 0 .1 0 .2v.2c-.1.1-.2.3-.3.4-.1.2-.2.2-.4.3h-.2c-.1.1-.1.2-.2.3-.3.2-.8-.1-1-.2-.1-.1-.3-.1-.4-.2l-.2-.2c-.2-.1-.3 0-.3-.1-.1-.1 0-.2-.1-.3-.1-.1-.3-.1-.4-.2-.2-.1-.3-.2-.5-.3-.1 0-.1-.1-.2-.1h-.2c-.1-.1 0-.2-.1-.2-.1-.1-.2-.1-.2-.1-.2-.1-.2-.1-.3-.2-.1-.1-.1-.2-.3-.3-.1-.1-.3-.1-.4-.3v-.3c-.1-.2-.4-.1-.5-.3.2-.1.4-.2.5-.2.3-.1.6-.2 1-.3.7-.1 1.4-.3 2.1-.6 1-.5 1.6-.8 2.7-.9 1.6-.2 2.2-1.2 3.8-1.8 1.1-.4 1.9-1.3 2.9-2 .2-.1.3-.4.4-.5 2.5 0 5.2-3 6.8-4.6 1-1 2.4-2.8 3.4-3.2 2.2-.8 5.7.1 8.4-.4 3.7-.6 5.4-3.2 10-1.6 0-1.1-1.4-2.4-2.7-3.2-1-.7-2.9-1.7-4.2-2-2.3-.5-5 .2-6.8-.3-.1-.1-.1-.2-.2-.3.2-.2.3-.4.4-.6-.1-.3-.4.1-.6.3-.4-.5-.8-1-1.3-1.4-1.4-1.7-6.4-8.1-6.9-8.7-2.6-3.6-5.1-7.2-7.7-10.7.3.6.6 1.3.9 1.9.7 1 11 14.8 12 16.1l.6.6c-1.5-1-3.3-1.7-5.3-2-.4-.7-.9-1.5-1.3-2.1-.5-.7-5.4-9.3-6.2-10.5-.7-1.2-1.3-2.6-2-3.9-.7-1.3-4.3-7.1-4.9-9 1.3 1.5 2.3 3.2 3.3 4.8.5.8 1 1.7 1.6 2.5.3.4.5.8.8 1.2.2.3.3.6.5.9.1.2.3.4.4.6.1-.5-.5-1.2-.7-1.6-.1-.2-.2-.5-.3-.6-.4-.5-.7-1-1.1-1.6-.6-.9-1.1-1.8-1.5-2.7-.9-1-1.5-2.3-2.4-3.3-.4-.4.3-.2.4-.6 0-.4-.7-.1-.9-.2-.6-1.2-1.1-1.9-1.8-3.1-.4-.7-.9-1.4-.9-1.9-.2-1.3.6-2.9.2-4.1-.9.1-.7 1.4-.7 2.3 0 1 0 2.1-.3 2.9-5.5-1-9.5-2.4-15.3-3.2-.1-2 0-4.1.3-6.4l-.6-.1c-.7.3.2.5-.3 1.1-1.7 0-3.4.9-3.8 3-.8.3-1.3-1-2.4-1-1-.1-2.2.5-1.9 1.9.1.3 1.3.4 1.3 0 .2-.6-1.2.2-.9-.7.2-.4.7-.4.9-.7 1 0 .9.9 1.6 1.1.8 0 1.3-.2 2.2-.3.5-1.1 1-2.4 2.9-1.8.4 1.4-.5 2.8-.7 4.1-3.8 1.8-8.1 2.9-11.8 4.3.3-.7-.1-2 0-2.9 0-.5.6-1-.1-1.1.2-.4.8-.4.7-1.1-.5-.1-.7 0-1.1.1 0 1.5-.5 4.2-.9 6.3h-.9c-.2 0-.4 0-.6.1-.1 0-.3 0-.3.1-.1.1 0 .2 0 .3h.3c0 .1.1.2.2.3.1.1.1.2.1.3.1.1.1.2.2.2.1.1.2.3.4.4h.1s-.1.1-.1.2-.1.2-.1.3c-.1.2-.1.4-.2.5-.1.4-.2.7-.3 1.1-.2.7-.3 1.5-.5 2.2-.2 1.3-.5 2.6-.8 3.9-.2.4-1.5.1-1.9.2 0 .4.1.4.5.4.1.3.3.5.4.7.1.2 0 .4.1.6.1.1.2.2.4.2 0 .1-.1.2-.1.4-.7.1-1.5.2-2.2.3 0-.3-.9-2.7-1.3-2.7-.6 0-.2.7-.2 1l.3 1.2c0 .2.1.4.2.6 0-.1-.5-.1-.6-.1-.3 0-.5 0-.8-.1-.5 0-1-.1-1.5-.2-.5.3-.7.9-.8 1.7-.3.3-.9.3-.9 1 .6.1 2.1-.4 3.5 0C46 49 43.7 53 41.4 57c-1.7-1.7-1.9-4.7-3.2-6.7.2-1.7-1-3-.6-4.1-.7-.2-.9.2-1.5.2.1.5.6.8.5 1.5-.6.2-1.1.6-1.4 1.2-1.6-.4-2 .7-3.1 1 .6 1.4-.4 2.8-.1 4.2 2.4-.1 3.9-1.3 5.5-2.4.5.3.2 1.1.3 1.6.1.6.4 1.2.5 1.6 0 .7-.8 1.1-.5 1.7-.1.9.7.4 1 .7-.1.5-.5.3-.7.7-.2.4-.2 1.2-.4 1.7h-.1c0 .5-.9.2-1.2.2-.4 0-.9.1-1.4.1-.2 0-.5-.2-.7-.1-.1 0-.1.1-.2.2-.4.2-.6.2-1 .2-.3 0-.5.1-.8.2-.4 0-.8-.1-1.2-.1-.5 0-.9.2-1.4.2-.3 0-.6-.1-.9-.1-.5 0-.8.1-1.3.2-.7.1-1.5.1-2.2.1-.8 0-1.4-.4-2.2-.5-.8-.1-1.5 0-2.3 0-.7-.1-1.4-.2-2-.3-.8-.1-1.5.1-2.2.2-.4 0-.9 0-1.3.1-.2.1-.3.2-.6.1-.4 0-.7-.3-1.1-.3-.3 0-.4.1-.7.1-.7-.1-1.4-.2-2.2-.2-.7 0-1.3.4-2.1.4-.7.1-1.4-.2-2 .1-.3.1-.5.3-.9.3-.3 0-.6-.1-.9 0-.4.1-.7.3-1.1.5-.3.1-.5.2-.8.3-.1 0-.3.1-.4.2-.1.1-.1.3-.2.4-.2.2-.4.2-.6.5-.1.2-.1.5-.2.7-.2.2-.3.3-.4.6-.1.3 0 .7-.1 1 0 .3-.2.5-.2.7-.1.4-.2 1.1-.2 1.5 0 .2.1.3.1.5v.4c0 .3-.1.6 0 .9 0 .5.1 1 .1 1.5v.7c0 .3.2.6.2.9 0 .6-.1 1.1 0 1.7.1.6.1 1 .4 1.6.1.3.1.5.2.7l.3.6c.8.1 1.5.7 2.3 1 2.6.8 6.2.4 9.4.7 4.2.4 8.5.5 12.4 1.3.9.2 2.3.1 2.8.8-.8-.1-1.6-.1-2.4-.2-1.6 0-3.4.1-5.1.2-5.4-.5-11.5-1.3-15.4-1 .1 0 .5.4.6.5.2.1.4.3.7.4.5.2 1.2.4 1.8.6 1 .3 2.1.1 3.2.3.5.1.9.2 1.4.3H15.5c.3 0 .6.1.9.2.4.1.6.3 1 .3s.8 0 1.2.2c.1.1.3.2.4.3.1.1.1.2.2.3.1.1.6.3.7.2 0 .1 0 .2.1.3.1-.1.2-.1.4-.2-.2-.2-.4-.3-.4-.6 0-.2 0-.2-.1-.4-.1-.1-.2-.2-.2-.3h.2v.1h.1c0 .1 0 .2.1.3h.2v.1c.1-.4.3-.2.7-.3.1 0 .2-.1.3-.1.1 0 .2.1.3.1v.4c-.1.1-.4 0-.5.1 0-.1.1-.2.3-.2-.1 0-.2-.1-.3-.1-.2 0-.2.1-.3.2-.2.2-.4-.1-.6.2h.1v.1c.2 0 .2.1.2.2.2 0 .7.1.8.3.1.1.1.3.2.3 0 0 .4-.2.5-.2.2 0 .3 0 .5-.1s.1 0 .2-.2V83c0-.1.1-.1.1-.3.2 0 .2.1.3.1.2.1.1.1.3 0 .1-.1.1-.1.3-.1.1 0 .2.1.3.1.2 0 .3.1.5.1s.6.1.8.1c0 .1 0 .1-.1.2.2 0 .1.1.2.2s.1.1.3.2c0 .2.1.5.3.5 0-.3-.2-.5-.1-.8.2.1.2.6.1.8.2.1.3.1.5.1h.3c.1 0 .1-.1.2-.1.2-.1.3-.2.5-.3.1-.1.3-.2.4-.3l.1-.1s0-.1-.1-.1h.2c.1 0 .2 0 .3.1.1 0 .1 0 .2.1.1 0 .1.1.1.1h.1c.1 0 .1.1.1.1h.4c.1 0 .1.1.1.2.1 0 .2-.1.3-.1 0 .1-.1.2-.1.2 0 .1-.1.2-.1.2h.1s-.2.4-.2.5h.1v.4c0 .1-.1.1-.1.2h.1c.1 0 .1 0 .2-.1l.1-.1s0 .1.1.1c0 .1-.1.2-.1.3 0 .1 0 .1.1.1v.1l.2.1h.4c.1 0 .2 0 .4-.1h.2c.1 0 .1-.1.1-.1v-.3c-.1-.1-.3-.1-.5-.2-.2 0-.3 0-.5-.1-.1 0-.2 0-.3-.1-.1-.1-.1-.3-.1-.5v-.2c0-.1.1-.1.1-.2v-.1c.1 0 .1 0 .1-.1l.4.1c.1 0 .2.1.3.1h.4c.1 0 .2 0 .3.1.2.1.3.1.5.1.1 0 .2-.1.4-.1h1l.1.1h.2c.1 0 .2.1.2.1h.2c0-.1.3-.1.4-.1 0-.2.2-.1.3-.1l-.1.2c0 .1.1.1.2.1v.1c0 .1.1.1.2.1h.1s.1 0 .1.1h.1c0 .1 0 .1.1.1h.8c.1 0 .3 0 .4.1.1 0 .1.1.2 0 .1 0 .2-.1.3-.1h.2c0-.1.2-.1 0-.1.1 0 .3-.1.4 0v.1h.2c.1 0 .3 0 .4-.1.1 0 .3-.1.4-.1.1 0 .1-.1.2-.2.1 0 .1 0 .2-.1v-.1h.1s.1 0 .2-.1c0 0 0-.1.1-.1 0-.1 0-.2.1-.2s.1.2.1.3v.2s.1 0 .1.1l.1.1s.1.1.2.1c0 0 0-.1.1-.1s.3-.1.4 0h.5l.1.1c.1 0 .1 0 .2.1s.1 0 .2.1c0 0 .1 0 .1.1h.1c.1 0 .1.1.2.1h.3s0 .1.1.1h.1c.1 0 .1-.1.2-.2h.5l.1.1c.1 0 .2-.1.3-.2.1-.1.2-.1.3-.1 0-.1.1-.1.2-.1 0 0 .1 0 .1-.1v-.1c.1-.1.2 0 .3 0v.1h1.3v.3c.1.1.2 0 .2.1.1 0 .1.1.1.1.1.1.7.1.6.3.1 0 .1 0 .2.1.1 0 .2 0 .3.1l-.1.1c.1 0 .1 0 .2.1 0 .1 0 .1.1.2 0 0 .1 0 .2.1s.1.2.1.3c0 .1.1.2.2.2 0 .1 0 .1.1.1 0 0 .1 0 .1.1v.1h.7c0-.1.1-.1.2-.1s.2-.1.3-.2c.2-.1.3-.3.5-.4.1 0 0 0 .1-.1 0-.1 0-.1.1-.1s.2-.1.2-.2c-.1-.1-.2 0-.3.1-.1 0-.2-.1-.2-.1s-.1 0-.1-.1v-.2c-.1-.1-.2-.2-.2-.3.1 0 .1-.1.2-.1v.1h.1c.1 0 .2 0 .3.1l.3.3c.3.2.6.2.8.3.1.1.1.1.3.1.3 0 .5.1.7.2h.1c.2 0 .4.1.6.2.2 0 .1 0 .2.2.1 0 .1 0 .2.2.1.1.1.1.3.2.1.1.2.2.3.2h.3c.1 0 .1.1.2.1s.3-.1.4-.1c.1 0 .2 0 .2-.1.1 0 .1-.1.1-.1.1 0 .1-.1.2-.1v-.1c.1 0 .1-.1.2-.1s.2-.1.3-.1c.1 0 .3-.1.4-.1h.5c.2 0 .4-.1.6 0 .1 0 .1.1.2.1.2.1.4.2.5.3 0 .1.1.2.2.2v.2c.1.1.2.1.3.2l.2.2c.1.1.3.1.4.2.1.1.1.2.2.2.1.1.2 0 .3.1.2.1.3.3.6.2-.1-.1-.3-.5-.1-.6.1-.1.2 0 .3 0 .1 0 .3-.2.4-.2.1 0 .2.1.3.1.2 0 .4-.1.5-.1.2 0 .5.3.7.1.1.3.6.5.7.1 0 0-.1-.1-.1-.2 0 0 0-.1.1-.1V87h.2c0 .1.1.2.2.3 0 .1.1.4.1.5 0 .2-.1.3-.1.4v.5c-.5.1.2.8 0 1.1-.3.3-1-.1-1.4-.1h-.4c-.1 0-.1-.1-.3-.1-.2 0-.3.1-.5.1H60.1c-.1 0-.1 0-.2.1-.1 0-.3-.1-.4-.1-.1 0-.2.1-.3.1-.3 0-.3-.2-.6-.2-.1 0-.3 0-.4.1h-.4c-.1 0-.2.1-.4.1v.2H57c0 .1-.1.2-.2.2 0 0-.3 0-.1.1h-.1c-.1.1-.3 0-.4.1h.6c.1 0 .3-.1.4-.1.1 0 .1.1.2.1 0-.1.3-.1.4-.2h.9c.1 0 .2-.1.3 0h.4c.2 0 .4-.1.7 0 .1 0 .2.1.2.1.1 0 .2-.1.3-.1h.4c.2 0 .3.1.5.1H62.1c.1 0 .3.1.4.1.1 0 0-.1.1-.1s0 0 .1-.1c.3-.1.8 0 1.2 0 .4 0 .9 0 1.3.1.7 0 4.7-.2 4.5-.3-.5-.3-2.3.1-2.7-.3l-.1.1c-.1 0-.2.1-.3.1-.2 0-.3.1-.5.1s-.3 0-.5-.1h-.8-.1c-.1.1-.1 0-.2 0h-.2s-.1 0-.1-.1c-.1 0-.1-.1-.2-.2s-.2-.1-.2-.2h.2c.1 0 0 .1.1.1l.1.1H64.5c.2-.1.2-.3.5-.2 0 .1.2.1.3.1.1 0 .2-.1.3 0 .1 0 .2.1.4.1.1 0 .1-.1.1-.1h.2s0-.1.1-.1c0 0 0-.1.1-.1s.1 0 .2-.1c0-.1.1-.1.1-.2h.1c.1-.1.2-.3.2-.4v-.3c0-.1 0-.2-.1-.3-.1-.1-.2-.2-.2-.3v-.1l-.1-.1-.1-.1v-.1-.1s0-.1.1-.1V87c0-.1.1-.1.1-.1s0-.1.1-.1c.1-.4.2.1.2.3.3-.1.1.4 0 .5l.1.1c0-.1.1-.2.1-.2.1.3.2.5.4.6l.1.1h.2c.2.1.2.3.4.4.2.1.4 0 .5.1.1 0 .2.1.3.2.2.2.5.5.8.4 0-.2-.1-.3-.2-.4v-.5c.1 0 .2.2.3.3 0 .1.1.5.1.4.2.1.3.1.4 0-.1-.2-.1-.4-.1-.7h-.1.4c.2 0 .3-.1.4-.2.1 0 .2.1.3.1.2 0 .2-.1.3-.2.1 0 .2-.1.2-.1.1 0 .1-.1.2-.1 0 0 .1-.1.1 0s-.1.3-.2.4c.2 0 .2.3 0 .3 0 .1.1.1.1.2s-.1.1 0 .2c0 .1.1.1.1.1v.1h.1c.1.1.1.3.2.4.1.1.4.1.5.1.2.1.3 0 .4 0 0 0 0-.1.1-.1h.2c.1 0 .1-.1.2-.1h.6c.1 0 .2-.1.4 0-.1.3-.3.3 0 .5.1.1.2.3.3.2 0 .2.1.3.2.4-.2 0-.4 0-.6-.1h-.2c-.1 0-.2-.1-.4-.2s-.4 0-.7 0h-.4c-.2 0-.3 0-.5-.1H71.5c-.2 0-.4-.1-.6 0-.1 0-.2.1-.3.1H70c-.2 0-.4.1-.6.2h-.2c.1.1 0 .1 0 .2h.2s0 .1.1.1c.1.1.2.1.4.1h1.2c.4 0 .8-.1 1.3-.1h.7c.2 0 .3 0 .5.1.1 0 .2 0 .3-.1.2 0 .5 0 .7.1.2 0 .4 0 .6.1.4.1.8.1 1.2.1.3 0 .7-.1 1-.1.2 0 .4.1.7.1h.4c.3-.1.6-.2.9-.2h.7c.2 0 .4 0 .5.1.2 0 .4-.1.6-.1h.6c.4 0 .7-.1 1.1 0 .2 0 .4.1.6.1.2 0 .3.1.5.1 0 0 .1-.1.2-.1h.5c.2 0 .3 0 .4-.1-.1 0-.2-.1-.3-.1h-.5c-.2 0-.8-.4-.5-.6.1-.1.2 0 .3-.1.1 0 0-.1 0-.1 0-.1.1-.2.2-.3l.3-.3c.1-.1 0-.2.1-.3 0-.1.1 0 .1-.1h.1c-.1-.1-.2-.3-.2-.5h-.1c.1-.1.1-.3.2-.3s.2.2.3.2c.1.1.3 0 .5.1.1 0 .1.1.1.1.1.1.1.1.3.1h.3c.1 0 .1.1.1.2h.1c.1 0 .1.1.1.2.1.1.2.1.3.1.2 0 .3-.1.4-.1.1 0 .2.1.3.1v.2h.1c0 .1-.1.2-.1.3 0 .2 0 .3.1.4 0 .1.1.1.1.2s-.1.1-.1.2h.1c0 .1.2.1.1.2-.1 0-.3.1-.4.1-.1 0-.3.1-.4.1h-.6c-.1 0-.3.1-.4.1h-.4c-.2 0-.2.1-.4.1-.3 0 0 .1-.2.2l.1.1c-.1.1-.2 0-.3.1v.1c.2.1.6 0 .8 0 .5 0 .9.1 1.4-.1.3-.1.7 0 1.1 0 .1 0 .1 0 .2-.1.2-.1.3-.3.6-.3h.7c.2 0 .4.1.6.1.3 0 .6-.1.9-.1.1-.2.1-.2.3-.3h.5c.1.3.6 0 .8 0 .4 0 .8.1 1.1 0 .6-.1 1.4-.1 1.9 0 .2 0 .4-.1.6-.1h.3c.1 0 .1-.1.2-.1.2-.1.4 0 .6-.1.1 0 .2-.1.4-.2.6-.1 1.7.4 2-.3h.6c.1 0 .3.1.4.1h.6c.2 0 .4-.1.6-.2.1 0 .3 0 .4-.1.1-.1.1-.3.2-.3.2-.1.5 0 .7.1.2.1.4 0 .6 0h.6c.5 0 1 .1 1.5 0 .2 0 .4-.1.6-.1.3 0 .6 0 .8-.1.2 0 .5 0 .7-.1.3 0 .4.1.7 0 .2 0 .4-.1.5-.1.1 0 .4 0 .5-.1 0 0 0-.2.1-.2.1-.1.1 0 .3-.1h.8c0 .2.3.1.4.1h.8c0-.2.2-.2.3-.2h.6c.4 0 .8.1 1.3 0 .2 0 .3-.1.5-.1s.3.1.4.1c.1 0 .7 0 .6-.1.4-.1.7.2 1 .2h.3c.2 0 .3.1.4.1h.6c.3 0 .4-.1.6-.2.2-.1.5 0 .7-.2.1-.1 0-.1.2-.1h.6c.1 0 .6-.2.3-.3.1-.1-.1-.1-.1-.2s.1-.3 0-.4c-.1-.2-.4-.1-.6-.1h-.3c-.1-.1-.2-.2-.3-.2-.1-.1-.3 0-.5 0 1.2-1.1 1.1-1.3 1-1.4.1.1 0 0 0 0zM53 56v.2h-.5c0-.3.3-.5.4-.8.1-.4.1-.9.2-1.3-.2.6 0 1.3-.1 1.9zm2.8-29.3c0 .5.1 2.7.1 2.7l-.5.1s.5-2.4.4-2.8zm-.9 8.6c0 .4-.2 4.2-.3 4.2-.2 0-.8.1-.9-.1-.2-.2.3-1.1.3-1.4l.9-2.7zm-.1-3.5c.4-.7.2 1.3.1 2.7-.2.5-1.2 4-1.6 4.6.1-2.5 1.2-7.1 1.5-7.3zm-1.5 10.5c0 .3-.3.5-.6.7-.1 0-.2.1-.2.1s0 .1-.1.2c0-.3 0-.6.1-.9.1 0 .2 0 .3-.1h.5zm0 .4c.1-.1.2-.1.3-.2.1-.1.1-.2.1-.2.3 0 .6.1.8 0 0 .6-.1 1.2-.2 1.7 0 .1 0 .3-.1.4-.1.1-.3 0-.4 0h-.2c-.4.2-.8.3-1.3.3l.1-.7c.1-.2.1-.4.2-.6.1-.2.2-.3.4-.5.1-.1.2-.1.3-.2zm-1 2.4c.5-.2 1.1-.3 1.8-.3l-.1 1.1c-.6.1-1.5-.2-1.5.7-.6-.4-.4-1-.2-1.5zm.4 3.8c-.6-1.3.5.8 0 0zm-12.5 9.3c-.6-.7.4-.7.3-1.6.1-.3-.1-.3-.1-.5-1.2-.8-1.4-2.6-1.7-4.2.9 1.8 1.7 3.6 2.7 5.4-.3.4-.8.5-1.2.9zm1.4.4c-.4 0-.8 0-.9-.2 0-.3 1.2-.2.9.2zm.7-.2h.5c.2 0 .4.1.7.2.3.2.6.2 1 .3 0 .1 0 .3-.1.3s-.3-.1-.4-.2h-.1c-.2 0-.4-.1-.6-.2-.2 0-.4-.1-.6-.1-.1 0-.2 0-.3-.1-.3.1-.2-.1-.1-.2-.1 0 0 0 0 0zm2.9 1.5l-.2-.2s-.2-.3-.2-.2c.1-.1.1-.2.1-.4.1 0 .2.1.2.1h.6c-.1.3-.3.5-.4.9 0-.1 0-.2-.1-.2zm1.6.8c-.5-.1-.9-.2-1.2-.4 0-.6.3-.8.4-1.1.5.1.8.3 1.4.3l-.6 1.2zm-.4-2.1c.5.1 1.2.1 1.2.6-.5-.1-1.4.1-1.2-.6zm1.4 2.4h-.3v-.5h.5c0 .3-.2.3-.2.5zm-.1-.8c0-.1 0-.1 0 0 0-.1.1-.5.1-.5.2 0 .3.1.5.1 0 .1-.1.4-.2.5 0 0-.3-.1-.4-.1zm.5.9c-.1-.1 0-.4.1-.4.1-.1.3 0 .4 0-.1.1-.2.3-.2.4 0-.1-.2 0-.3 0zm.6-.7c-.1-.1-.3-.1-.4-.1 0 0 .2-.4.2-.5.1.1.3.1.5.2-.2.1-.2.3-.3.4zm1.9-16.9c0-.3-.1-.5-.3-.7.4-.3 1-.3 1.6-.3v.8c-.6-.1-.8.3-1.3.2zm-1.5 17.7s-.1 0 0 0c-.1 0-.2-.1-.2-.1-.1 0-.1 0-.1-.1s.1-.2.2-.3c0 0 .1.1.2.1h.2c0 .1-.1.3-.1.4h-.2zm-.1-.7c-.1-.1.1-.3.1-.4.1 0 .1.1.2.1H49.7c-.1.1-.2.3-.2.4l-.4-.1zm2.6-17h.1v.4c0 .2 0 .3-.2.3-.1 0-.2 0-.3.1 0 .1 0 .2-.1.3-.1-.1-.2-.2-.2-.3-.1-.2-.2-.4-.3-.5.4-.1.7-.3 1-.3zm0 .8h.2c0 .1 0 .3-.1.4v.6c-.1-.1-.2-.3-.2-.5 0 0 .1-.4 0-.4l.1-.1zm-1.9 17.1c-.1 0-.2 0-.2-.1s.1-.2.1-.3c0-.1.1-.2.1-.3 0-.1.1-.3.1-.4.1-.1.1-.1.2 0 .1 0 .3 0 .4.1v.2c0 .1-.1.3-.1.4 0 .1-.1.3-.2.4h-.4zm2.5.5c0 .1 0 .1 0 0-.2.1-.3 0-.4 0-.3 0-.5-.1-.7-.2-.2-.1-.5-.2-.7-.1.1-.1.1-.3.2-.5l.2-.5c.1 0 .4.1.5.1.2 0 .4.1.5.2.2.1.4.1.7.1v.3c0 .1-.1.3-.1.4-.1 0-.1.1-.2.2zm.5-4.3c0 .2 0 .4-.1.6 0 .3-.1.6-.1.9-.1.5-.1.9-.1 1.4-.2 0-.3-.1-.5-.1-.3-.1-.7-.2-1.1-.2 0-.1 0-.1.1-.2.1-.2.2-.4.2-.6.2-.4.4-.9.6-1.4.1-.3.3-.5.3-.8 0-.1 0-.2.1-.3 0-.1.1-.2.1-.3h.4c.1 0 .2 0 .2.2v.4c-.1.2-.1.3-.1.4zm36.7 12.6h-.2c-.5-.1-1.1-.3-1.6-.5-.6-.3-1.1-.2-1.7-.2-.1-2-.4-4-.5-5.9 0-.5-.6-5.8-.5-5.9 1.3-.3 2.4-1.1 3.2-2 1 .2 8.5 7.7 10.3 8.7-1 1.2-2.1 2.4-2.9 3.9-.8.3-4.8 2-6.1 1.9zm-2.3-19.3c.1 0 .2 0 .2-.1v-.2s-1.1-.1-1.3-.1c-.1 0-.1 0-.1-.1v-.2c0-.2 0-.4.1-.7.7 0 1 .4 1.7.3.5 1 .8 1.9 1.3 3.2-.5-.1-1.1-.1-1.6-.1-.2 0-.5-.1-.7-.1-.2 0-.4-.1-.6-.1h-.6c-.4 0-.2-.5-.2-.8h.4c.2-.1.5-.2.6-.4.1-.1.1-.2.2-.2.2 0 .4 0 .5-.2-.1-.1-.1-.2.1-.2zm-6 13.1c0 .2 0 .4-.1.5-.1.2-.5 0-.7 0h-.5s.1-.4.1-.5c0-.1.1-.3.1-.4 0-.2.1-.3.1-.5s.1-.3.1-.5h.4c.1 0 .2.1.3.1.1 0 .2 0 .3.1-.1.3-.1.6-.1.9v.3zm-.7 1.6h-.2c.1-.3 0-.5.1-.8h.5V65.7c0-.1-.2-.1-.4-.1zm-1.3-1.2c-.1-.1 0-.1 0-.1 0-.1.1-.3.1-.4.1-.2.2-.5.3-.7l.3-.6h.2c0 .1-.1.1-.1.1 0 .1-.1.2-.1.3 0 .1-.1.2-.1.3 0 .1 0 .3-.1.4 0 .1-.2.8-.3.8.1-.1 0-.1-.2-.1zm.1 1h-.5v-.2c0-.1.1-.1.1-.2.1-.1.1-.2.1-.4.2.1.4 0 .5 0 0 .2-.1.4-.2.6v.2zm-5.7-6.8c.4-2.3.5-4.9 1.1-7 .6 0 1-.2 1.5-.3-1.1-.5-2.9-.4-4-.2-.1 0-.3-.2-.3-.3l-.3-.3c-.2-.2-.4-.4-.6-.5l-1.2-.9c-.1-.1-.3-.2-.4-.2-.1-.1-.2-.1-.4-.2.2 0 .5 0 .7-.2 0-.1 0-.1.1-.2h.2c.1-.1.1-.3.1-.4h.3v-.2c-.1 0-.3-.1-.4-.1-.1 0-.3-.1-.4-.1h-.7v-.1c0-.2 0-.4.1-.6 1.5.6 3 .7 3.8 1.8.5.7.3 1.7 1.1 2.3 1.2-3.3.5-7.2.8-9.9 1.4 1.5 2.8 3.1 4.4 4.4-.3 2.8-.6 5.8-2.4 7.1.1.4.9.1 1.2.3.6 1 .8 2.3 2.5 2.3.1.5.4.7.5 1.2-.5.9-1.1 1.7-1.8 2.4-.5.6-1.1 1.2-1.6 1.8-.3.3-.5.6-.8.9-.1.1-.2.3-.3.4-.1.1-.2.1-.2.2v.2c.1-.1.2-.3.3-.4l.4-.4c.1-.1 1.2-1.3 1.2-1.3l-1.6 2.5s-.3-.6-.4-.6c-.5-.5-.9-1.1-1.3-1.7l-.6-.9c-.1-.1-.2-.3-.3-.4 0-.1-.3-.3-.3-.4zm2.2 3.6c-1.5 1.5-2.6 2.5-4 3.6.3-2.4 1.1-4.5 1.8-6.9.6 1.2 1.6 2.1 2.2 3.3zm-5.4 4.6c.2-.5.7-.8.8-1.5.4.6-.2 1.5-.8 1.5zm-2-17.2c.9.3 1.4.9 2.3 1.2-.7.2-2.2.1-2.7-.1-.1-.6.3-.6.4-1.1zm-.2-3.1c.1 0 .3.1.4.2-.1.1-.1.3 0 .4 0 .1.1.3-.1.4l-.6-.1c0-.1 0-.3.1-.4 0-.1.1-.1.1-.2s0-.3.1-.3zm2.8-9.6c0-.2-.1-.3-.1-.5 0 .2.3.6.4.7.1.1.2.2.4.3.1.1.2.2.3.2l.2.2h-1s-.1-.6-.1-.7c-.1 0-.1-.1-.1-.2zm12.7 1.4c.4.3-.1 1-.1 1.3-.4-.4.2-.9.1-1.3zm-.7 11s-.1.9-.1 1h-1.7c-.1.1-.1.2 0 .3.1.1.2 0 .4 0 0 .2 0 .5.1.6.1.1.3.1.4.2.1 0 .1 0 .2.1l-.1.3-.3.3c-.2.2-.4.3-.6.5l-2.2-.2c.9-1.6 1.7-3.3 3.9-3.1zm1.3-11.8c.2.2 0 2.7-.3 3.3-.6-.6.3-2.1.3-3.3zm1.6-8.3c.3.4.4 1 .5 1.5-1.1.2-.5-.9-.5-1.5zm-3.4 28.4c-.1 0 0 .8 0 .8-.1 0-.5 0-.5-.1l.1-.3v-.2-.3c.2-.1.3.1.4.1zm-.2 1.4c0 .1 0 .3-.1.3-.1.1-.3 0-.4 0 0-.1.1-.3.1-.4 0-.1 0-.2.1-.3h.3v.4c0-.1 0-.1 0 0zm-.4-6.3c.4-.4.7-.4.9-.9.2.2.2.5.2.8-.4 0-.6.2-1.1.1zm2.5-16.5c-.1.3-.3.1-.1-.5.1-.4.1.4.1.5zm-2 4.7c-.9-.2-1.5 0-2.4-.1 1.2-1.5 2.5-2.9 3.6-4.6.3 1.7-.6 3.5-1.2 4.7zm-2.5 9.3c-.1.6-.8 2-1.9 1.9 0-1.4 1.3-1.2 1.9-1.9zm.8 6.4c.6 0 .7.4.9.7-.7 2.9-2.2 4.8-2.9 7.7-1-.5-2-2.3-2-2.3s2.8-4 4-6.1zm0 3.8h.2c0 .1-.1.4-.2.6 0 .1-.1.2-.1.2h-.2c.1-.1.1-.2.1-.3 0-.1.1-.2.1-.2.1-.1.1-.2.1-.3zm.4-.9l.1.1v.1c-.1.2-.2.3-.2.4h-.2c.1-.2.3-.4.3-.6zm-2.5 6.3c.1-.2.4-.1.6 0 0 .1-.1.2-.1.3 0 .1 0 .3-.1.4 0 .1-.1.2-.1.4-.2-.1-.4 0-.6 0 .1 0 .1-.4.1-.5 0-.3.1-.4.2-.6zm1.5-3.5c-.1 0-.1 0 0 0 0-.1.1-.3.1-.4l.2-.5h.2c0 .1-.1.1-.1.2s0 .2-.1.3c0 .1-.1.3-.1.4-.1.1-.2 0-.2 0zm.6.2h-.2s.3-.9.3-1c0 0 .7.1.8.1 0 .3-.1.6-.2.9-.1.2 0 .1-.2.1-.1 0-.3 0-.4-.1h-.1zm.5-2h.7l-.2.8c-.2 0-.4-.1-.6-.1-.1 0-.1 0-.1-.2.1-.1.2-.3.2-.5zm.2-.3h-.1c0-.1.1-.3.1-.4l.2-.3h.5c0 .1 0 .2-.1.3 0 .1-.1.3-.1.4h-.5zm.2 3.2V63h.5v.4c-.1.4-.1.8-.2 1.1-.1 0-.3-.1-.4-.1-.1.2.1-.5.1-1zm.7-1.2c0 .2-.1.4-.2.6-.1 0-.5-.1-.5-.1.1-.1.1-.2.1-.3.1-.2.1-.4.2-.6.1.1.3.1.4.1.1.1 0 .2 0 .3zm-.1-.7H82c0-.1 0-.2.1-.3.1-.2.2-.4.2-.6.1.1.2 0 .3 0 .1 0 0 .5 0 .5 0 .2-.2.3-.2.5 0 0-.1 0-.2-.1zm.5-1.2c0 .1 0 .1 0 0-.1.1-.2 0-.3 0-.1 0-.1 0 0-.1 0-.1.1-.2.1-.3 0-.3.1-.5.1-.8 0-.1 0-.1.1-.1h.2v.4c0 .2 0 .3-.1.5 0 .1-.1.3-.1.4zm2.5-20.8c.3.2.3.6.2 1.1-.6.1-.1-.7-.2-1.1zm.6-2.3v-1.4c.1.4.3.8.5 1.2.1.3.3.6.4.9.1.4.4.7.6 1 .1.2.1.4.2.6-.2-.4-.4-.8-.6-1.1-.2-.3-.3-.5-.5-.8-.3 0-.4-.3-.6-.4 0-.2 0-.2 0 0zm.2-1.6c1.4 1.8 3 3.4 4.6 5.1-.5.5-1.7.1-2.6.1-.4-1.9-1.4-3.3-2-5.2zM90.3 53c.1-.7.5-1.4.7-2.1.1-.4.2-.9.3-1.3 0-.2.4-1.2.3-1.3 1.2 1.8 1.9 4 3 5.9.9 1.6 1.8 3.2 2.7 4.7.5.9 1.1 1.8 1.7 2.7.2.3.6.6.7 1 .1.2-.2.3-.3.5-.2.2-.2.5-.4.8 0 .1-.2.2-.2.3-.1.2.1.2.2.4.1-.4.4-.9.8-.9.2 0 .6 0 .8.1.2.1.2.3.2.6 0 .4-.2.6-.4.9-.2.2-.2.1-.4-.1-.2-.1-.4-.2-.6-.4-.1-.1-.2-.5-.3-.5-1.3-.5-2.6-1.9-3.7-2.8-1.7-1.4-3.3-2.9-5-4.4-.4-.4-1-.8-1.4-1.2-.4-.6.1-.5.5-.7.4-.2.5-.6 1-.6.6-.1 1 .2 1.1-.4.1-.5 0-.5.6-.5v-.4c-.6-.2-1.3-.1-1.9-.3zm9.3 9.1c-.7-.9-3.1-4.7-3.3-5.1-.6-1.1-1.3-2.3-1.8-3.5l-2.7-6.4 7.1 10.1c.1 0-.1 1.4-.1 1.5 0 .6.2 1.1.4 1.6.2.4.5.7.8 1 .2.2.5.3.7.5-.3 0-.6.2-.8.4-.2.1-.2.1-.3-.1zm-7.7-16s1.1 1.4 1.5 1.8c.9 1.2 1.8 2.4 2.6 3.6.7.9 1.3 1.8 2 2.7.3.4.5.7.8 1.1.4.5.7 1.1 1.2 1.6-.4-.1-.7.4-.9.7-.1-.6-7.3-10.5-7.3-10.5l.1-1zm8.3 19.9c-1 1.1-2.8 1.2-4 2 .2-1.1 1.6-2.3 2.4-3.3.5 0 .5.4.9.4-.2.9 0 1.1.7.9zm.7 1.3c.4.4-.4.7-.7.9-.7.4-1.5.6-2.2 1-.2.1-.4.2-.6.2-.2.1-.3.1-.5.2-.4.1-.9.4-1.3.5-.5.2-.9.5-1.4.7-.2.2-.4.2-.6.2.2 0 .3-.2.4-.3.3-.2.6-.5.9-.6.4-.1.8-.4 1.3-.6.1 0 .2 0 .3-.1.1-.1.2-.2.4-.3.6-.2 1.1-.7 1.7-.8.1 0 .3 0 .4-.1.1 0 .1-.1.2-.2.2-.2.6-.3.8-.5 0 .3.9-.2.9-.2zM89.8 53.1h-.2c-.1-.1-.1-.2-.1-.3 0-.3-.2-.5-.3-.7-.2-.6-.5-1.1-.6-1.7 0 0 .3.1.3.2.1.1.2.2.3.2.2.2.4.4.6.7.1.2.3.5.3.8 0 .3 0 .6-.1.9 0-.2-.1-.1-.2-.1zm.6 17.4c-.2 0-.3-.1-.5-.1.2-.1.4-.1.6-.1.7-.1 4.3-1.4 4.3-1.4v.5c0 .2.1.4 0 .6-.1.2-.5.3-.7.4-.3.2-.5.5-.9.6-.2.1-.5 0-.8 0-.3 0-.7.1-1 0-.2 0-.3-.1-.4-.2-.1 0-.2-.1-.4-.1 0-.2-.1-.2-.2-.2zm4.7-1.2v-.5c.3-.1.5-.2.7-.3.3-.1.5-.2.8-.3.2-.1.6-.3.8-.3-.1.2-.2.3-.2.5-.1.2 0 .4-.2.5-.2.2-.6.2-.8.3-.4.2-.8.3-1.1.5.1-.1 0-.2 0-.4zm.5 1.7h-1.2c.2 0 .5-.2.7-.3.1-.1.2-.1.3-.1.4-.1.8-.3 1.2-.5.5-.2.9-.4 1.3-.7.4-.2.9-.4 1.3-.7.2-.1.5-.2.7-.3.2-.1.5-.1.6-.2-.7.6-1.3 1.1-2 1.7-.2.2-.6.3-.9.4l-.9.3c-.3.2-.6.4-1.1.4zm4.3-1.8c.8-.6 1.5-1.2 2.2-1.8-.6.7-1.3 1.3-2.2 1.8zm1.5-3.9c.1-.2.3-.2.4-.4.2 0 .1.3.1.5l-.5-.1zm.6 1.5c-.4.7-.9.1 0 0zm1.6-1c-.2.3-.4.5-.6.8 0-.2-.1-.4-.1-.5.1-.2.4-.3.7-.3zm-.9-1.3c-.4-.1-1 .3-1.1-.3-.4.1.2.7-.5.6.5-.5-.2-1.7-1-1.5.3-.3.6-.5.9-.7.6.6 1.2 1.2 1.7 1.9zM87.8 30.2c0-.1 0-.2-.1-.2-.1-.2-.1-.4-.2-.6 0 .1.2.3.3.4.1.1.2.3.3.4.1.1.2.2.2.3 0 .1 0 .2.1.3-.2 0-.4 0-.4-.1-.1-.2-.2-.4-.2-.5zm.7 1.6c.4 1 3.1 5.8 3.9 7.3.4.7 1.5 2.7 1.6 3 .9 1.5 1.6 3 2.5 4.5 1 1.5 4.9 8.3 6 10.2-.6-.1-1.7-.1-2.3-.1-2.1-2.5-4.5-6.3-8.5-11.2.1-1.2 0-2.2-.2-3.2 0-.6 1.3.3 1.3-.7-.7-.4-1.8-.6-2.4-1.2-1.1-1.1-2.1-2.3-3.1-3.5-.3-.3-.6-.7-.9-1-.3-.3-.7-.7-.6-1.1.2 0 .3 0 .4-.2.2-.2.3-.5 0-.6-.2-.1-.3-.1-.4-.3-.1-.2-.1-.4-.1-.6.5 0 .9-.4 1.3-.8.6-.4 1-.7 1.5-.5zm-.9-1l-.9-.1c-.2-1.2-.8-2.1-.8-3.4.7 1 1.4 2.1 1.7 3.5zm-3.1 9.8c-.3.1.1-1.6.1-2.2.3-.2-.2 1.6-.1 2.2zm.3-7.5h.2v.8c0 .1-.4 0-.4-.1-.1-.1 0-.6 0-.7h.2zm.4-5.8c.2.7 0 2.4-.5 3.3-.2-.8.4-1.9.5-3.3zM67.1 37.8c0-1.1.4-3.2.7-4.4.2.8 0 1.6-.1 2.4 0 .6.2 1.8-.6 2zm-2.3 12.9c.3-.2.6-.5.9-.7.2.1.1.4.1.6-.3.2-.7.2-1 .1zm-.5 11.9c-.1.5-.3.7-.8.6l.1-.6h.7zm.4-24.5c-.9.1-1.9-.1-2.8-.1h-1c-.2 0-.2 0-.3.2v.4c0 .1 0 .2.2.2h.4c.2 0 .3 0 .4.1 1 .9 1.2 2.6 1.3 3.9-.9-.4-1.2-1.4-1.9-2.1-.3-.3-2.3-2.8-3.3-4-.5-.6-1.6-1.2-1.4-1.9.1-.5 1.8-1 2.3-1.1 2.2-.4 8.4-1.4 8.4-1.4-.2 2.6-1.2 4.2-2.3 5.8zm.6-.1c.1-.4 1-1.8 1-2.3-.5 1.9-.5 2.4-1 2.3zm-1.6 12.5c-.4.3-1.2 0-1.7 0 .5-.9 1.1-1.7 2.1-2-.3.5-.4 1.2-.4 2zm-1 12.1v.3h-.3v-.3h.3zm-6.5-8.5c-.8-1.5-2.1-3-1.6-4.8 2.2 2.8 4.3 5.7 6.7 8.3-.1 1.6-.9 2.2-1.1 3.6-1.5-2.1-2.8-4.7-4-7.1zm3.6 7.4c-1.5-2-2.6-4.3-3.7-6.6 1.1 1.6 2.6 4.4 3.7 6.6zm-5-9.3c-.2-.1-.3-.2-.3-.5.2.1.3.2.3.5zm.8-17.3l.5.8-.3 3.5-.4.2.2-4.5zm-.6 8.3v-.4-.6h.7c0 .2-.1.5-.1.7v.5c0 .2-.3 2.4-.3 2.7-.1 0-.3-.1-.4-.1H54.6c-.1-.1.1-.4.1-.5.1-.2.1-.5.1-.7 0-.3.1-.6.1-.9.1-.3.1-.5.1-.7zm13.5-17.5c.3-.5.1.6.1.8-.3.5-.1-.5-.1-.8zm-.9 6.3h-.1v-.4c0-.1.2-1.4.3-1.6.1-.5.1-1.1.2-1.6h.3v.2c0 .2-.2 2.9-.2 3.3-.2.1-.3.1-.5.1zm-1.1 3.3c.7-1.1.6-2.2.7-2.6.8.3-.6 2.1-.7 2.6zm.5-.6c0 .8.2 3.3-1.1 3.1.3-1.1.7-2.2 1.1-3.1zm2-12c.4.1 0 .7-.1.8-.4 0 0-.7.1-.8zm-.6 1.4c-.3.2-.2.8-.3 1.3.5-.3.1-1.6.9-1.5-.5.8-.6 2-.9 3-.3-.2 0-.9 0-1.3 0 .1-.1.3-.2.4-.1.1-.1.3-.2.4-.1.1-.1.3-.2.4 0 .1 0 .2-.1.3h-2c0 .2-.2.4.1.4h.3c.1 0 .2.2.3.3.1.2 0 .3.2.4.2.1.4.1.6.2.2.1.5.2.7.2v1.7c0 .3-.1.6-.1.9 0 .1-.1.8-.2.9-3.6.7-7.1 1.4-10.7 2v-.9c0-.3 0-.6.1-.9.1-.3 0-.9.4-1.1.1 0 .2 0 .2-.1.1-.1.1-.2.2-.3.1-.2.2-.4.4-.6.1-.1.4-.2.5-.3.1-.1.1-.2.1-.4h.5v-.3H56.8v-.7c1.2-.9 9.4-3.4 11.6-4.4zM55.8 34.2l.2-2.8.5-.1-.3 2.7-.4.2zm-1.5 14.3V48c.6-.2.5.7 0 .5zm-.9 13.7c.3-3.5.7-7 .8-10.2 1.5 2.4 2.6 5.2 4.1 7.6-.5.7-4 2.8-4.9 2.6zm.4.4c-.1 0-.2-.1-.2-.1h.2c.1 0 .2-.1.3-.1.4-.2.9-.3 1.2-.5.1-.1.1-.1.2-.1.3-.1.6-.4 1-.6.1 0 .2-.1.3-.2.1 0 .2-.1.3-.1.1 0 .2-.1.2-.1-.2.3-2.2 1.8-2.5 2-.1.1-.3.2-.3.3-.1-.1-.3-.2-.4-.3-.1-.1-.2-.2-.3-.2zm2.6 1.5c-.7-.1-.6-.9-1.5-.8.4-.8 3.4-2.9 3.4-2.9l1.3 1.4s-2.6 1.6-3.2 2.3zm3.3.1h-2.4c.7-.6 1.7-.9 2.8-1.1-.1.4-.3.7-.4 1.1zm1.1.1h-.7c.2-.3.3-.5.4-.8.3.2.4.5.3.8zm.5-6.8c-2.1-3-4.8-5.5-6.5-8.8.4-.8.9-1.4 1.5-1.9-.1-.2-.5-.3-.6-.5v-.4-.4c0-.3 0-.6.1-.8 0-.3.1-.5.1-.8 0-.3 0-.5.1-.8 0-.2 0-.4.1-.6v-.3c.1-.1.3-.1.4-.2.1-.1 0-.2.1-.2 0-.1.2-.1.3-.1h.3c.1 0 .1-.1.1-.2l.2-.2c.1-.1.2-.1.3-.2.1-.1.1-.3.2-.4.1-.2.2-.4.4-.6.1-.1.2-.1.3-.1h.4c.1-.1 0-.3 0-.4-.9-.3-1.9.2-2.8-.1.2-1.1.2-2.9.3-3.5 2.2 2.4 3.9 5.2 6.5 7.4.1 1.9-.3 4.8-1.4 6.3-.2.2-.2.3.1.3-.3.5-.8.8-1.5.8-.1.6.6.4.7.9.9 1.3.7 3.6.7 5.7 0 .1-.2.1-.4.1zm0 6.2v-.5c.5-.1.5.8 0 .5zm.9.8c0-.1-.1-.1 0 0-.3-.4-.1-.8 0-1.3.7.1 0 .7 0 1.3zm.4.1c-.1 0-.2 0-.3-.1.1-.4.3-.7.4-1.1.3.2.1.7-.1 1.2zm.4-2.2c.2.1.1.4.1.6-.3 0-.3-.4-.1-.6zm1-12.1c-.1-.5.2-2 .4-2.7.1 0 .1.1.1.2 0 .7.9.6 1 1.2-.5.4-1.1.8-1.5 1.3zm-.7 14.5c0-.1 0-.1 0 0 .2-.1.3 0 .3.2-.1-.1-.2-.2-.3-.2zm-.1-.4l.1-1c.3 0 .6.1.6-.1.3.4 0 1.4-.7 1.1zm1.4 1.3c-.2-.2-.4-.4-.7-.6.2-1 .3-2 .9-2.8.2 0 .3.1.3.2.3 1.3-.4 2.1-.5 3.2zm4.9-41.6c.5.5.6 2.1.4 2.8-1.1-.5-.1-2-.4-2.8zm-.1 5.6v-.1c0-.2 0-.5.1-.7.3 0 .5-.1.8-.2.2 0 .4-.1.6-.2.2-.1.3-.2.4-.3.2-.1.5 0 .7-.1.2-.1.3-.3.4-.4 0 0 .1-.2.2-.2.2-.1.6.1.7-.2v-.1h.1c.1 0 .1 0 .1-.1v-.3h-3.2v-.5c0-.2-.1-.5-.1-.7 0-.2-.1-.5-.1-.7 0-.1-.2-.6-.1-.7.5-.5 1.2.1 1.7.2 4.5.8 8.9 2.1 13.4 2.9 0 1.2-.8 1.6-.8 3-.3.7-1.9 0-2.3.6-.2.6.7.3 1.1.4l.1.4c0 .1.1.2.2.3.1.2.3.4.4.6.2.3.2.5.6.6-.1.2 0 .5 0 .7 0 .3 0 .3-.3.4-.2.1-.2.2-.1.4s.2.2.4.2c0 .2-.3.5-.5.7-.2.3-.4.6-.6.8-.4.5-.8 1.1-1.2 1.6-.8 1-1.7 2-2.7 2.9-.5.2-.7-.2-1.4-.1.7 1.2 1.4 2.3 1 4.4-1.9-1.3-3-3.3-4.6-4.8l.1-1.3c.3-.5 1-.4 1.3-.8-.4-1.2-2.2-.1-3.1-.3-.1 0-.2-.2-.3-.3l-.3-.3-.6-.6c-.4-.4-.7-.9-1-1.4-.6-1.1-.9-2.4-1-3.6v-1.4c-.1-.4-.1-.5-.1-.7zm-.2 4.1v-.2-.4.2c0 .1.1.1.1.2.1.1.1.3.2.5.1.3.4.6.4.9-.2-.1-.5-.5-.7-.5v-.7zm-.1.8c1 .7 1.5 1.8 1.6 3.2-.7-.2-1 .2-1.7 0-.2-.9 0-2.1.1-3.2zm-1.2 14.7c.5.2-.2.4-.1.8-.5-.2 0-.5.1-.8zm-1.5 13.3l.6.1c-.2.6.1.9 0 1.4-.6-.1-.8-.7-.6-1.5zm-.2 1.4c1.1.3.8 1.8.8 3-1.5.1-.8-1.7-.8-3zm1.3 3c-.1-.5-.1-1.1 0-1.8.7.5.9 1.4 1.7 1.8-.2.7-.9-.1-1.7 0zm2.1-.1c-1-.5-1.4-1.4-2.2-2.1.1-.7.1-1.3 0-1.9 1.3-.2 2.7.9 3.5 1.6-.5.9-.8 1.3-1.3 2.4zm.6.6c-.1-.5.8-.5 1-.8-.1.2-.3.7-.2.9-.3-.1-.6-.1-.8-.1zm1.1.2s.3-.8.2-1.3c0 0 .8-.7.9-.8.3-.2 3.5-3 3.5-3.1l.3.3c-2.5 2.7-2.6 2.7-3.2 3.3l-.9.9-.8.7zm6 .7c-.1-.7-1.5-.2-1.3-1.1-.4.1-.6.4-1.1.2-.4.3-.5.9-1.3.7-.2-.5 0-1.3-.7-1.3 1.1-1.4 3.6-3.9 3.6-3.9s1.1 1.7 2.1 2.3c-.5 1.1-.8 2.3-1.3 3.1zm.9-1.4h.5c.1 0-.1.5-.1.5-.1.2-.2.3-.2.5h-.6c0-.1.1-.2.2-.3.1-.1.1-.2.1-.3 0-.1 0-.3.1-.4zm.3 1.4c.7.2-.2 1 0 0zm.2-.6c.1-.2.2-.5.2-.7h.7c0 .2-.1.4-.1.6v.5c-.1 0-.2 0-.3-.1-.2 0-.3 0-.5-.1v-.2zm1.3-1.7v.1c0 .2-.2.4-.1.7-.1 0-.7-.1-.7-.1s.1-.6.2-1h.4c.2 0 .3-.1.2.2v.1zm-.2-.6h-.2c0-.1.1-.1.1-.1v-.2c0-.1 0-.1.1-.1 0-.1 0-.2.1-.3h.5c-.1.2-.1.5-.1.7 0 .1 0 .1-.1.1-.3-.1-.3-.1-.4-.1zm1 .7v.2c0 .1-.2.6-.2.6-.2-.1-.4-.1-.6-.1 0-.1.1-.2.1-.2.1-.2.2-.5.2-.8h.5v.3zm-.4 2.9c0-.3.2-.3.2-.5h.3v.5h-.5zm.4-.7c-.1 0-.1-.1-.2-.1.1-.1.1-.2.1-.4 0-.1.1-.3.1-.4 0-.1.1-.1.1-.2v-.1c.2 0 .4.1.5.1 0 .3-.1.6-.1.9 0 .1 0 .2-.1.2h-.4zm.4-1.5c-.5.1-.2-.5-.2-.8h.5c-.2.2.1.9-.3.8zm.3-1.3c-.5.1-.2-.5-.2-.8h.5c-.2.3 0 .9-.3.8zm1.1 3.5c-.1 0-.2-.1-.4-.1h-.8v-.1c0-.1 0-.3.1-.4.1-.4.1-.7.1-1.1 0-.3.1-.7.1-1 .1-.7.2-1.4.4-2.1.3-1.6.6-3.3.9-4.9.2.1.1.3.3.3-.1 1.8-.7 9-.7 9.4zm3.3-28.2c-.2-.3-.1-.9-.2-1.3.3.2.4 1 .2 1.3zm-.1-3.1c.6 1 1.4 1.9 1.8 3.1l-1.3-.1c-.1-1-.5-1.8-.5-3zm-1.5 20.1s.1 0 0 0c.1-.1.4-.1.4-.1 0 .2.1 1.4.1 1.8 0 .4.2 1.8.2 2.1.1.7.7 7.7.7 7.7-.5-.3-1.5-.3-2.1-.3 0-.2 0-.5.1-.7.2-1.8.2-3.7.3-5.5 0-.9.1-1.9.1-2.8 0-.4.1-.9.1-1.3 0-.2 0-.4.1-.6v-.3zm22.5 26.9zm-36.1 3.9z"/></symbol><symbol id="sleeping-cube-icon" viewBox="0 0 126 126"><style>.st0{fill:#FFFFFF;}</style><path class="st0" d="M22.9 101.9c-.2 0-.3.1-.5.1-.1.3.3.4.5.3.1-.2.1-.4 0-.4zM35.8 19.4v31.9c.3 0 .7.2 1 .1.3 0 .5-.2.8-.1 0 0 .3.1.4.1.3.1.3.2.5.3.4.2.6.7.8 1.2.2.1.3.2.6.2 1-.2 1.9.6 1.9.6.2 0 .2.2.5.1 0-.4.1-.9.4-1.1l.6-.3c.1-.1.2-.3.3-.4.2-.2.4-.2.5-.3.2-.2.1-.6.3-.8.2-.2.6-.1.8-.3.1-.1.1-.3.1-.4l.2-.2c.1-.1.5-.1.7-.2.4-.2.5-.6.9-.8.1-.1.9-.1.9-.1.1-.2.1-.6.2-.8.2-.3.8-.1 1.1-.3h.2c.1.1.3.1.4.3.3 0 .5-.1.8-.1.8.1 1 .9 1.6 1.1.1.2 0 .4.2.5.3 0 .4-.2.6-.3.3.3.7 0 1-.1.3 0 .3.2.6.2.4 0 .9-.2 1.4-.3.5-.1 1.2 0 1.8-.1.3 0 .6-.2.9-.3.5 0 .9.1 1.4 0 .3.1.4.3.8.4.1.2 0 .5.3.5.2.2.3-.2.6-.1.3.3.4.7 1 .6.2.1.2.4.5.5.1.1.4.1.6.1.3.4.6.9.5 1.7.4.1.6.4.8.6-.1.6.4.8.6 1.2v.3c.1.6.1 1.1.2 1.7.1.7.2 1.3.3 2 .1.4.3.8.4 1.3 0 .2.1.4 0 .6 0 .1-.3.5-.3.5.1.4.9.9.3 1.6.1.3.3.5.4.9.8.1.8-.8 1.5-.6.3-.1.2-.5.5-.6.3.1.2.6.6.5.3-.3-.2-.4-.1-.6.2-.3.7-.7 1.3-.5.5-.4.6-.9 1.2-1.2.2-.1.3-.4.5-.5.1-.1.3-.1.5-.2l.3-.3c.2-.2.5-.3.7-.5.3-.3.4-.8 1-.8.1.1.1.4.2.6 1.2.3.5 1.1.3 2-.5.3-.9.8-1.2 1.3-.2 0-.2-.3-.6-.3-.4.2.1 1.1-.2 1.6-.3.2-.5-.1-.8.1-.4 1-1.6 1.1-2.5 1.6-.1.3-.4.4-.5.6-1.1.1-1.4 1.3-2.7 1 0 .1 0 .1-.1.1.2.7 0 1.7-.5 2.1.5.4-.2 1.7-.2 1.7.1.4 0 .6-.1.9 0 .2.2.2.3.4-.2.2-.3.5-.1.8.3.2.6.2 1 .1.4.2.6.6 1.1.8.4-.1.7-.6 1.2-.3.3-.1.5-.4.8-.5.3-.1.6.1.9 0 .1 0 .2-.1.4-.2s.4-.1.5-.1c.2-.1.3-.3.5-.4.2-.1.5 0 .6-.1.1-.3.5-.4.7-.5h.5c.1-.3-.1-1 .6-.8.2.1.1.6.3.7.4.1.4-.2.8-.1.2.2.4.3.6.5 0 .3-.1.6.1.6v.2c-.4.3-.5.9-1.2.9-.1.2-.2.5-.5.6h-.6c-.5.4-.7 1-1.2 1.4-.4-.1-.8-.3-1.2-.4-.3.1-.4.3-.6.4-.2.1-.5 0-.8.1-.2.1-.3.3-.6.4-.4.1-.7-.1-1.1-.1-.1 0-.2.1-.4.1-.5.1-.6 0-1 .3-.9 0-1.3 0-1.8.3-.5.2-.7.4-1.1.6 0 .5-.5.6-.7.8-.1.1-.4.1-.6.1-.1.3-.3.6-.6.6-.1.3-.2.5-.4.6-.4-.1-.5.4-.9.5-.3.1-.6-.1-1-.1-.3.1-.3.4-.6.5-.6-.2-1-.5-1.7-.6-.2 1.8-1.4 3.3-1.6 5.2-.4.8-1 1.3-1.3 2.2-.3.1-.5.4-.6.6-.2 0-.3 0-.4.1-.2.3-.4.5-.5.8-.5 0-.4.6-.8.6-.1-.1-.5 0-.7-.1 0 .1-.1.2-.2.1-.2.2-.2.7-.5.8-.3 0-.5-.1-.7-.1-.2.3-.6.3-.9.5-.2.1-.4.1-.6.2-.1 0-.1.1-.1.1-.3.1-.7.2-1 .3-1.2.3-3 .9-4.1.3-.9.6-1.8-.2-2.7-.3-.3.3-.7.5-.8 1-.6.3-1.1.8-1.9.8 0 .2-.2.2-.3.4-.5 0-.7.4-1.2.3-.4.5-.9.5-1.4.3v11.3h85.6V19.4h-86zM18.5 82.9c-.3-.1-.2-.6-.6-.7-.4.4-.4 1-.9 1.3-.2 1.1-1.2 1.4-1.4 2.5-.3.2-.4.4-.7.5-.1.1-.4 0-.5.1-.3.2-.6.6-1 .8h-.3c-.2.1-.3.4-.6.3-.3-.4-1-.5-1.2-1-.1-.3.2-.7.1-1 0-.2-.1-.2-.2-.3-.3-.5-.3-.5-.7-.8-.1-.4.2-.7 0-1 .2-.2.4-.4.4-.8-.1-.2-.3-.2-.4-.5 0-.4.4-.4.4-.7 0-.4-.3-.4-.5-.8-.1-.4.3-.3.5-.5 0-.7.5-1.3.1-1.9.4-.5.7-1.3.6-2.1.3-.9.5-2 .7-3 .1-.2.3-.1.3-.4 0-.3-.1-.3-.1-.6.3-.5.7-1.1.8-1.8 0-.3-.1-.5-.1-.8 0-.1.1-.3.1-.4.1-.5-.2-.7-.3-1.1-.2.1-.4.1-.6.3.1.7 0 1.6-.6 1.9v1.1c-.1.2-.4.3-.5.5 0 1-.9 1.4-.5 2.5-.2.5-.5.6-.6 1.1 0 .5.4.7.4 1.1 0 .6-.7.7-1 1.2 0 .3.4.2.3.6-.1.4-.4.4-.6.6.6.9-.4 1.6-.3 2.5 0 .5.5.8.5 1.2 0 .3-.2.5-.2.8 0 .4.4.6.4 1 .4.2.6.6.7 1.1-.1.2-.2.3-.2.5.2.3.3.7.4 1.1.4.3.7.4 1.2.8.2.1.3.2.5.3.6.4 1.1.1 2.1.2.2-.1.2-.5.3-.6.2 0 .3-.1.5-.1.1-.5.7-.6 1.2-.8-.1-.7.2-1 .6-1.2.1-.3.2-.5.5-.6h.3c.5-.6.9-1.4.7-2.4z"/><path class="st0" d="M35.7 51.3c-.3.1-.2.3-.5.3-.3-.3-1.1-.3-1.6-.2-.2.1-.1.3-.3.4-.2.1-.4.1-.6.1-.4.3-.7.6-1.2.8-.3.9-1.1 1.3-1.3 2.3-.1.1-.3.2-.5.3-.1.3.3.2.2.5 0 .2-.3.2-.6.2-.4.5-.4 1.4-.6 1.9-.5-.1-.7-.5-1.1-.7-1.1.1-1.4-.5-2.5-.4-.3.1-.2.5-.5.6-.3.1-.2-.3-.6-.2-.4.1-.5.5-1 .3-.2.3-.4.4-.8.5-.1.3 0 .3.1.6H22s-1.3.7-1.7 1.2c-.3.3-.6.7-.8 1.1-.7.4-1.2.9-1.6 1.6-.2 0-.3.2-.5.2-.5 0-1.1-1.4-2.1-1.2-.3-.8-1.5-.4-2.3-.6-.3.1-.3.4-.5.5-.4.1-.3-.4-.6-.4-.4.1-.7.4-.9.6-.8.1-1.3.5-2.2.6-.1.1-.2.3-.1.6-.4.1-.6.2-.8.5-.1.4-.4.6-.7.8-.1.8-.5 1.2-.6 1.9-.5.3-.6 1-1 1.4v1.1c0 .2-.2.4-.2.6 0 .2.2.6-.1.6v.5c.3.3.2 1.2.5 1.5.6 0 .6.7 1 .8.5-.1.5-.8.6-1.3.5-.4.9-1 1.1-1.7.2-.3.8-.3.7-.9.4-.1.7-.3 1.1-.3.3.5 1 .6 1.5.2.2-.4.2-.8.4-1 .5-.1.8-.1 1.1-.3.5-.3.7-1.4 1.4-1.7.9 0 1.9-.1 2.7.1-.1.6-.6.2-1 .2-.6 1.2 1.1.8 1.6.5.1-.3.5-.6.8-.4.3.4.6.8 1.3.9.2 0 .1.3.3.3.3.3.7.5.9.9 0 .5 0 .8.2 1 .2.1.4.4.7.5.4-.3.4-.8 1.1-.8 0 0 1.4 1.1 1.2 1.2.2.7 1 .6 1 1.4-.4.2-.4-.5-.9-.4-.4.1 0 .4-.1.6-.3.1-.4.3-.7.4 0 1-.3 1.7-.5 2.6-.1.7-.3 1.4-.7 2-.3.5-1.1 1.4-1.7 1.6-.1.3-.2.5-.3.8-.3.2-.7.3-1 .5-.1.4-.1.8-.4 1 .1.3.2.6-.1.8 0 .3.3.2.3.5.1.8-.2 1.7-.1 2.3.1.4.4.7.5 1-.1.5.1 1.1 0 1.7 0 .3-.2.5-.3.8 0 .3.1.6.1 1 0 .8-.1 1.4.2 2l.5.5c-.1.8.7 1.1 1 1.8h.8c.2 1-.8 1.8-.3 2.8-.1.1-.2.3-.3.4 0 .9-.6 1.4-.8 2.1 0 .1-.1.2-.1.2-.1.4.1.8 0 1.2-.1.3-.4.4-.5.7 0 .1 0 .3-.1.5-.1.4-.2.6 0 1-.3.4-.3 1.1-.7 1.4-.1.3 0 .5 0 .8-.2.3-.5.5-.4 1.1-.2 0-.2.3-.3.5-.7.5.1 1.1.3 1.6.5 0 .9 0 1.3.1.6-.2 1-.9.4-1.4.1-.4.4-.5.7-.6.1-.7.8-.8 1-1.5-.1-.4-.4-.5-.4-.9s.3-.7.6-.9c.2-.1.5.1.6-.2.2-.2-.1-.3-.1-.5.2-.4 1-.5 1.1-1.2 0-.2-.1-.5-.1-.8 0-.4.4-.9 0-1.4.1-.2.4-.3.6-.4 0-.5 0-1 .3-1.2 0-.3-.5-.3-.4-.5.1-.2.3-.3.5-.4 0-.4.1-.7.3-1 .1-.3-.3-.4-.1-.6.4-.2.7.2 1.2.1.2-.2-.1-.8.3-.8.3 0 .3.2.4.4.1.4-.3.2-.3.5.4.3.6-.3.9-.1.1.5-.1 1-.1 1.4 0 .2.1.3.1.5s-.2.4-.3.6c-.1.4-.1.6-.2 1.1-.1.5-.5 1.1 0 1.6-.1.5-.5 1-.6 1.6-.1.6-.1 1.2-.5 1.6.1.5 0 .8-.3 1 0 .3.2.3.1.6-.2.3-.5.4-.4 1-.1.2-.4.2-.5.4 0 .6-.4.8-.6 1.2v.6c-.3.6-1.7 1.1-1.3 2 .4.9 1.9.5 2.3-.3.1-1 .4-1.8 1.4-2 .1-.4.6-.6.7-1 0-.4-.3-.3-.3-.6.3-.3.4-.8.5-1.4.1-.1.5 0 .6-.1.2-.2.3-.4.5-.6.1-.2.1-.4.3-.6.1-.1.2-.4.1-.8.2-.1.2-.3.4-.4-.2-1.1.4-1.5.6-2.3-.5-1.1.5-1.3.3-2.4 0-.2.3-.2.3-.4 0-.5-.1-1-.1-1.4 0-.2.2-.4.3-.6.1-.3 0-.6.1-.8.3-.6 1.3-.7 1.7-1.2.2.2.8.2.8.6.4.1.8.3.9.6.5.1 1 .5 1.6.7l-.4-42.7c.1 0 .1 0 0 0z"/></symbol><symbol id="split-plane-icon" viewBox="0 0 126 126"><style>.st0{fill:#FFFFFF;}</style><path class="st0" d="M14.1 46.2c-.2-1.7-1.1-2.2-1.9-2.2-1.1 0-1.7.7-1.7 2 0 3.5 7.1 5.1 7.1 10.6 0 3.3-2.2 5.2-5.5 5.2-3.2 0-5.1-2.6-5.2-5.6l3.3-.5c.1 2 1 3.1 2.1 3.1 1.2 0 2-.6 2-1.9 0-4-7.1-5.1-7.1-10.9 0-3.2 2-5.1 5.4-5.1 2.8 0 4.5 2 4.8 4.9l-3.3.4zM20.2 61.5V41.3h5c4.3 0 6.3 1.7 6.3 6s-2 6-6.3 6h-1.5v8.3h-3.5zm3.5-11.2H25c2.3 0 3-.7 3-3.1 0-2.4-.7-3.1-3-3.1h-1.3v6.2zM34 61.5V41.3h3.5v17.2H43v3h-9zM45.6 61.5V41.3h3.5v20.3h-3.5zM55 44.3h-3.4v-3h10.2v3h-3.4v9L55 58.1V44.3z"/><g><path class="st0" d="M65.6 58.1l-2 2.8c2.3 0 3.4.7 3.4 3.1 0 2.4-.7 3.1-3 3.1h-1.3v-4.9l-3.5 4.9v11.2h3.5V70h1.5c4.3 0 6.3-1.7 6.3-6 0-3.8-1.6-5.5-4.9-5.9zM72.5 78.3V58H76v17.2h5.5v3h-9zM86.7 78.3h-3.4L87.1 58h4.3l3.7 20.3h-3.4l-.6-4.5h-3.8l-.6 4.5zm1.1-7.5h2.8l-1.4-8.7h-.1l-1.3 8.7zM97.2 78.3V58h3.2l4.2 11.6h.1V58h3.1v20.3h-3l-4.4-12.7h-.1v12.7h-3.1zM111.2 78.3V58h9.3v3h-5.8v5.2h4.5v3h-4.5v6h6.2v3h-9.7z"/></g><path class="st0" d="M70.4 41.4h3.3L46.5 79.6h-3.3z"/></symbol><symbol id="studio-jpw-icon" viewBox="0 0 126 126"><style>.st0{fill:#FFFFFF;}</style><path class="st0" d="M124.5 57.8H83.4V16.5H69.9v41.3H30.4v13.5h39.5v39.3h13.5V71.3h41.1zM1.9 57.8h14v13.4h-14z"/></symbol><symbol id="table-top-icon" viewBox="0 0 126 126"><style>.st0{fill:#FFFFFF;}</style><path class="st0" d="M64.2 8.7c-29.8 0-54 24.2-54 54s24.2 54 54 54 54-24.2 54-54c0-29.9-24.2-54-54-54zm20.3 43.5v34.7h-5.8V52.2H47.5v34.7h-5.8V52.2H25.1v-5.6h78.3v5.6H84.5z"/></symbol><symbol id="the-sleeping-icon" viewBox="0 0 126 126"><style>.st0{fill:#FFFFFF;}</style><g id="the-sleeping"><path class="st0" d="M64.7 51.5c-4.4-1-5.2 5.6-1.3 6.2 3.8.6 5.4-5.3 1.3-6.2z"/><path class="st0" d="M123.1 86.6c-.2-12-.5-23.8-1.2-34.9-.2-4-.5-8.7-.9-12.7-.1-1.5-.1-3-.4-4.2-.2-.8-.9-1.9-1.3-2.7-.9-1.5-1.4-2.4-2.5-3.2-1.1-.8-2.4-1.3-4-1.8-1.9-.6-3.8-.8-5.8-1-.5-.1 0-1.2-.7-1.1-2.1-.5-4.6-.7-6.8-.4-.6.1-1.6.1-2 .3-.5.2-.8.8-1.3 1-.8.3-2.3.1-3.4.1-3.4 0-7.1.1-9.8-.6-1.1-.3-2.4-1.2-3.7-1.1-.9-.8-2-1.4-2.8-2.6-.4-.5-.5-1.2-.9-1.8-1.3-1.8-2.5-2.3-4.9-3.1-.9-.3-1.7-.7-2.6-.9-3.5-.8-6.7-.8-9.9-.1-1.2.3-2.5.8-3.7 1.1-2.4.8-3.8 2-5.1 3.5-.3 1.8-1.3 3-2.7 3.8-.8.5-2.2.9-3.4 1.5-.9.4-1.9 1.3-2.5 1.5-1.8.4-4 .1-5.9.1-1.9 0-3.9.1-5.9.1-.5-.1 0-1.1-.7-.9-.9-.2-2.1-.5-3.5-.5-1.5 0-4.5.1-5.5.6-.6.3-.6.8-1.1 1-4.1.3-7.7 1.2-10.3 3-.6 1.2-1.9 2.4-2.6 4C4.1 37 4.4 40.9 4 44.7c-.2 2.3-.5 4.7-.6 7-.3 9.6.3 20.7.2 30.2v7.6c.1 5 0 11.2 1.9 14.1.8 1.2 1.1 1.5 2.3 2.3 2.4 1.7 5.6 2.6 9.9 2.1.5.7.1.9.9 1.1.6.2.8-.1 1.2-.4.5-.4.3-.6.9-.7 1.3-.3 3.4 0 5.2 0 1.8 0 3.7-.1 5.4-.1 23.1-.3 46.7-.2 69.7-.5 2 0 4.4-.4 5.5-.1.9.3.8 1.7 1.9 1.6.9-.1 1.1-1.5 1.8-1.8.6-.2 2-.1 3.1-.2 3-.2 3.9-.5 5.8-2 2.9-2.2 3.8-5.1 4-9.8v-8.5zM53.4 21.1c2.4-1.3 8.2-1.3 11.5-1.4 1.7 0 4.1 0 5.7.6.7.3 1.4.8 2 1.4.3.2.8.5 1 .8.2.3.4 1.2.4 1.3 0 .9-.9 1.5-1.2 2.4-4.6-.1-10.4-.2-15.6.1-1.4.1-3.1.5-4.3.2-.7-.2-1.6-1.1-1.7-1.6-.2-1.5 1.1-3.2 2.2-3.8zm62.9 82c-1.5.6-3.7.9-5.2 1.1-11.4 1.6-24.2.5-35.7.5-3.2 0-36.2-.2-36.2.3l-.1-.8c.4-3.2-.6-6.2.4-8.6 1.7-4.2 9-3.2 15.4-3.2 4.7 0 9.6.4 13.6 0 4.1-.4 8-2.6 9.3-5.8 1.1-2.6.4-6.5.6-11-.2-.4-.7.2-.8.2-4.1 2.7-8.9 6.6-16.1 5.5-6.5-1-12-4.3-16.6-7 .4-12.3 3.4-22.9 10-29.4 3.3-3.3 7.8-5.7 13.5-6.2 6.3-.6 11.6 1 16.9 2.5.8-.1 1.2-.9 1.8-1.3 1.7-1.4 3.7-2.9 5.6-4.4 1.2-1 2.4-2.1 3.6-3.1 3-2.5 5.1-3.3 9-3.4 3.6-.1 8.1.4 10.5 3.6.5.7 1 1.6 1.4 2.4.1.2.2.5.4.7.1.3.4.7.5.9 0 .3 0 .2-.3.4-.6.3-2.5 1.9-3 2.3-1.1.9-2.3 1.6-3.4 2.4-2.5 1.5-5 2.8-7.7 4-1 .4-1.9.9-2.9 1.3-.3.1-2.6 1.2-2.7 1.1.4.5.7 1 1.2 1.3.5.3 13.5-5.1 13.5-5.1s6.3-2 6.3-2.3c.3 5.5.8 11.9.8 17.3 0 9.4.5 18.5.5 27.8-.3 5.1.3 14.3-4.1 16z"/></g></symbol></svg>